<?xml version="1.0" standalone="no"?><!DOCTYPE svg PUBLIC "-//W3C//DTD SVG 1.1//EN" "http://www.w3.org/Graphics/SVG/1.1/DTD/svg11.dtd"><svg t="1581773713939" class="icon" viewBox="0 0 1024 1024" version="1.1" xmlns="http://www.w3.org/2000/svg" p-id="3600" xmlns:xlink="http://www.w3.org/1999/xlink" width="200" height="200"><defs><style type="text/css"></style></defs><path d="M896.066911 927.648719h-60.48719299v-267.10716099c0-0.535285-0.535285-1.07057001-0.53528501-1.60585501 0.535285-13.38212201-4.817564-26.764245-14.452692-36.39937301l-88.857292-88.857292c-9.635128-9.635128-22.481965-14.987977-35.86408799-14.452692-0.535285 0-1.07057001-0.535285-1.605855-0.53528499H330.806064c-0.535285 0-1.07057001 0.535285-1.605855 0.53528499-13.38212201-0.535285-26.764245 4.817564-36.399373 14.452692L203.408259 622.53633001c-9.635128 9.635128-14.987977 23.01725001-14.452692 36.39937299 0 0.535285-0.535285 1.07057001-0.53528501 1.60585501v267.10716099H127.933089V95.815996h162.726608v240.87820199c0 11.776268 4.817564 21.946681 11.776267 30.51123801 1.07057001 1.07057001 1.07057001 2.676424 2.14114 3.21170999 1.07057001 1.07057001 2.14114 1.605855 3.211709 2.14113901 8.56455799 7.493988 19.270256 11.776268 30.511239 11.77626801h346.32932599c11.240983 0 21.946681-4.28227899 30.51123901-11.77626801 1.07057001-1.07057001 2.14114-1.07057001 3.21170901-2.14113901 1.07057001-1.07057001 1.605855-2.14114 2.14114-3.21170999 7.493988-8.56455799 11.776268-19.270256 11.77626699-30.51123801v-214.11395799l162.726608 162.72660799 1.07057 642.34187101z m-156.838474 0H284.771563v-251.048614l62.093048-62.093048h330.270778l62.093048 62.628332v250.51333zM387.01097799 289.05384199h250.51332901V95.815996H387.01097799V289.05384199z m604.871928-11.77626798c0-2.14114-1.07057001-3.74699399-1.07056899-5.88813301 2.14114-14.987977-3.211709-29.97595399-13.917408-41.216937L761.17511799 14.987977C752.07527401 5.352849 738.69315201 0 725.31102999 0.535285c-0.535285 0-1.07057001-0.535285-1.60585499-0.535285H80.29273401C69.05175099 0 57.810768 4.28227899 49.781495 11.776268c-1.07057001 1.07057001-2.676424 1.605855-3.21170901 2.676424-1.07057001 1.07057001-1.605855 2.14114-2.67642499 3.211709C36.399373 26.22896001 32.11709399 36.93465801 32.11709399 48.17564V975.82436c0 11.776268 4.817564 22.481965 12.31155202 31.046523 0.535285 1.07057001 1.07057001 1.605855 2.14114 2.676425s3.211709 2.14114 4.28227899 3.211709c8.02927299 6.958704 18.734971 11.240983 29.44066901 11.240983H944.242551c10.70569799 0 21.411396-4.28227899 29.440669-11.240983 1.605855-1.07057001 3.211709-1.605855 4.282279-3.211709 0.535285-0.535285 1.07057001-1.605855 1.60585499-2.676425 7.493988-8.56455799 12.311553-19.270256 12.311552-31.046523V277.27757399z" p-id="3601"></path></svg>