<?xml version="1.0" standalone="no"?><!DOCTYPE svg PUBLIC "-//W3C//DTD SVG 1.1//EN" "http://www.w3.org/Graphics/SVG/1.1/DTD/svg11.dtd"><svg class="icon" width="200px" height="200.00px" viewBox="0 0 1024 1024" version="1.1" xmlns="http://www.w3.org/2000/svg"><path d="M1001.416352 198.511515L824.739856 21.835019C811.139759 8.359693 792.798343 0.748629 773.583526 0.623858H73.490435C33.189229 0.623858 0.499086 33.314 0.499086 73.615207v876.145729c0 40.301206 32.690143 72.991349 72.991349 72.991349h876.145729c40.301206 0 72.991349-32.690143 72.991349-72.991349V249.667845c-0.124772-19.214817-7.735835-37.556232-21.211161-51.15633zM730.537346 373.690752c0 35.934203-29.071768 65.005971-65.00597 65.00597H211.487754c-35.934203 0-65.005971-29.071768-65.00597-65.00597V211.612526c0-35.934203 29.071768-65.005971 65.00597-65.005971h454.168393c35.934203 0 65.005971 29.071768 65.005971 65.005971v162.078226z m0 0"  /><path d="M584.554648 219.722676h72.991349v145.982697H584.554648z"  /></svg>