<?xml version="1.0" standalone="no"?><!DOCTYPE svg PUBLIC "-//W3C//DTD SVG 1.1//EN" "http://www.w3.org/Graphics/SVG/1.1/DTD/svg11.dtd"><svg t="1581774592293" class="icon" viewBox="0 0 1024 1024" version="1.1" xmlns="http://www.w3.org/2000/svg" p-id="4851" xmlns:xlink="http://www.w3.org/1999/xlink" width="200" height="200"><defs><style type="text/css"></style></defs><path d="M970.38823427 219.55462259L804.44537741 53.61176573a68.57142843 68.57142843 0 0 0-48.00000001-19.88571471H98.84537742a68.57142843 68.57142843 0 0 0-68.57142844 68.57142846v822.8571431a68.57142843 68.57142843 0 0 0 68.57142843 68.57142844h822.8571431a68.57142843 68.57142843 0 0 0 68.57142847-68.57142844V267.55462259a68.57142843 68.57142843 0 0 0-19.88571471-48zM715.98823427 384.12605102a61.02857157 61.02857157 0 0 1-61.02857062 61.02857157H228.4453774A61.02857157 61.02857157 0 0 1 167.41680583 384.12605102V231.89747947A61.02857157 61.02857157 0 0 1 228.4453774 170.86890789h426.51428626a61.02857157 61.02857157 0 0 1 61.02857061 61.02857158z" p-id="4852"></path><path d="M578.84537741 239.44033634h68.57142845v137.1428578H578.84537741z" p-id="4853"></path></svg>