<?xml version="1.0" standalone="no"?><!DOCTYPE svg PUBLIC "-//W3C//DTD SVG 1.1//EN" "http://www.w3.org/Graphics/SVG/1.1/DTD/svg11.dtd"><svg class="icon" width="200px" height="200.00px" viewBox="0 0 1024 1024" version="1.1" xmlns="http://www.w3.org/2000/svg"><path d="M889.297455 5.22639H288.422234c-43.762701 0-79.236987 35.474286-79.236987 79.236987V794.83013c0 43.766026 35.474286 79.240312 79.236987 79.240312h600.875221c43.752727 0 79.233662-35.474286 79.233662-79.240312V84.460052c0-43.759377-35.47761-79.233662-79.233662-79.233662z m-108.437611 711.177974H395.111065c-26.284883 0-47.669195-20.470026-47.669195-45.631169s21.384312-45.631169 47.669195-45.631169h385.748779c26.288208 0 47.672519 20.470026 47.67252 45.631169s-21.384312 45.631169-47.67252 45.631169z m-433.471169-274.564987c0-25.161143 21.384312-45.627844 47.66587-45.627845h385.755429c26.284883 0 47.672519 20.466701 47.67252 45.627845 0 25.161143-21.387636 45.634494-47.67252 45.634493H395.054545c-26.281558 0-47.66587-20.473351-47.66587-45.634493z m433.338182-178.910754H396.982857c-27.348779 0-49.594182-22.441558-49.594182-50.023065 0-27.578182 22.245403-50.01974 49.594182-50.01974h383.744c27.352104 0 49.600831 22.441558 49.600831 50.01974 0 27.581506-22.248727 50.023065-49.600831 50.023065z"  /><path d="M721.298286 934.855481H229.565506c-47.951792 0-86.823896-38.868779-86.823896-86.823897V127.414857h-9.229298c-44.989506 0-81.461195 36.468364-81.461195 81.45787v716.108468c0 44.992831 50.697974 95.687481 95.68748 95.68748H751.273558c44.982857 0 81.45787-36.471688 81.457871-81.461194v-4.361975H721.298286z"  /></svg>