<?xml version="1.0" standalone="no"?><!DOCTYPE svg PUBLIC "-//W3C//DTD SVG 1.1//EN" "http://www.w3.org/Graphics/SVG/1.1/DTD/svg11.dtd"><svg class="icon" width="200px" height="200.00px" viewBox="0 0 1024 1024" version="1.1" xmlns="http://www.w3.org/2000/svg"><path d="M889.173333 446.122667c-36.408889 0-66.104889 29.639111-66.104889 66.161777v379.164445H133.006222V202.069333h364.600889c36.465778 0 66.161778-29.696 66.161778-66.104889 0-36.465778-29.696-66.161778-66.161778-66.161777H66.787556c-36.522667 0-66.161778 29.582222-66.161778 66.161777v821.589334c0 36.465778 29.639111 66.161778 66.161778 66.161778H889.173333a65.934222 65.934222 0 0 0 66.161778-66.161778V512.284444c0-36.408889-29.639111-66.161778-66.104889-66.161777zM323.640889 561.948444a30.378667 30.378667 0 0 0-21.560889 8.988445 33.28 33.28 0 0 0-7.338667 12.856889l-57.116444 166.912a29.809778 29.809778 0 0 0 29.240889 37.034666 38.684444 38.684444 0 0 0 11.207111-2.104888l166.684444-57.230223a30.264889 30.264889 0 0 0 9.102223-48.696889l-108.885334-108.942222a29.980444 29.980444 0 0 0-21.333333-8.817778zM1006.364444 97.052444L927.459556 18.716444a58.595556 58.595556 0 0 0-42.837334-17.749333c-16.327111 0-31.573333 5.859556-42.951111 17.749333l-45.852444 46.307556 163.157333 162.588444 47.331556-44.828444a61.496889 61.496889 0 0 0 0.056888-85.731556zM563.2 620.202667l319.943111-319.715556a22.414222 22.414222 0 0 0 8.362667-8.362667l7.850666-7.907555-161.678222-160.995556L401.976889 458.524444l-56.149333 56.149334c-0.568889 0.455111-1.024 1.479111-1.991112 1.991111l162.133334 162.019555 57.230222-58.595555z" /></svg>