<?xml version="1.0" standalone="no"?><!DOCTYPE svg PUBLIC "-//W3C//DTD SVG 1.1//EN" "http://www.w3.org/Graphics/SVG/1.1/DTD/svg11.dtd"><svg class="icon" width="200px" height="200.00px" viewBox="0 0 1024 1024" version="1.1" xmlns="http://www.w3.org/2000/svg"><path d="M759.466667 66.56h33.28c8.96 0 14.933333-5.973333 14.933333-14.933333 0-8.96-8.96-14.933333-14.933333-14.933334h-33.28c-8.96 0-14.933333 8.96-14.933334 14.933334-0.426667 5.973333 5.973333 14.933333 14.933334 14.933333zM581.546667 958.293333h-33.28c-8.96 0-14.933333 8.96-14.933334 14.933334s8.96 14.933333 14.933334 14.933333h33.28c8.96 0 14.933333-8.96 14.933333-14.933333s-5.973333-14.933333-14.933333-14.933334zM792.32 958.293333h-32.853333c-8.96 0-14.933333 8.96-14.933334 14.933334s8.96 14.933333 14.933334 14.933333h33.28c8.96 0 14.933333-8.96 14.933333-14.933333s-5.973333-14.933333-15.36-14.933334zM370.773333 958.293333h-32.853333c-8.96 0-14.933333 8.96-14.933333 14.933334s8.96 14.933333 14.933333 14.933333h33.28c8.96 0 14.933333-8.96 14.933333-14.933333s-6.4-14.933333-15.36-14.933334zM262.4 958.293333h-33.28c-8.96 0-14.933333 8.96-14.933333 14.933334s8.96 14.933333 14.933333 14.933333h33.28c8.96 0 14.933333-8.96 14.933333-14.933333s-2.986667-14.933333-14.933333-14.933334zM476.16 958.293333h-33.28c-8.96 0-14.933333 8.96-14.933333 14.933334s8.96 14.933333 14.933333 14.933333h33.28c8.96 0 14.933333-8.96 14.933333-14.933333s-5.973333-14.933333-14.933333-14.933334zM1007.786667 914.773333h-14.933334v-48.213333c-2.986667-8.96-11.946667-17.92-20.906666-17.92-8.96 0-23.893333 17.92-23.893334 17.92v48.213333h-14.933333c-8.96 0-17.92 8.96-17.92 17.92v27.306667H866.133333c-8.96 0-14.933333 8.96-14.933333 14.933333 0 5.973333 8.96 14.933333 14.933333 14.933334h48.213334v14.933333c0 8.96 8.96 17.92 17.92 17.92h72.106666c8.96 0 17.92-8.96 17.92-17.92v-69.12a15.829333 15.829333 0 0 0-14.506666-20.906667zM108.373333 945.493333v-14.933333c0-8.96-8.96-17.92-17.92-17.92h-23.893333v-54.186667c0-8.96-8.96-17.92-14.933333-17.92-5.973333 0-14.933333 8.96-14.933334 17.92v54.186667H18.346667c-8.96 0-18.346667 8.96-18.346667 17.92v72.106667c0 12.373333 9.386667 21.333333 18.346667 21.333333h72.106666c8.96 0 17.92-8.96 17.92-17.92v-14.933333h48.213334c8.96-2.986667 17.92-11.946667 17.92-20.906667 0-8.96-14.933333-23.893333-14.933334-23.893333h-51.2zM958.293333 686.933333c0 8.96 8.96 14.933333 14.933334 14.933334 5.973333 0 14.933333-8.96 14.933333-14.933334v-33.28c0-8.96-8.96-14.933333-14.933333-14.933333-5.973333 0-14.933333 8.96-14.933334 14.933333v33.28zM958.293333 370.773333c0 8.96 8.96 14.933333 14.933334 14.933334 5.973333 0 14.933333-8.96 14.933333-14.933334v-32.853333c0-8.96-8.96-14.933333-14.933333-14.933333-5.973333 0-14.933333 8.96-14.933334 14.933333v32.853333zM1006.506667 0.426667H934.4c-8.96 0-17.92 8.96-17.92 17.92v14.933333h-48.213333c-8.96 2.986667-17.92 11.946667-17.92 20.906667 0 8.96 17.92 23.893333 17.92 23.893333h48.213333v11.946667c0 8.96 8.96 17.92 17.92 17.92h27.306667V162.133333c0 8.96 8.96 17.92 14.933333 17.92 5.973333 0 14.933333-8.96 14.933333-17.92V108.8h14.933334c8.96 0 17.92-5.973333 17.92-17.92V18.346667c0-8.96-8.96-17.92-17.92-17.92zM958.293333 792.32c0 8.96 8.96 14.933333 14.933334 14.933333 5.973333 0 14.933333-8.96 14.933333-14.933333v-32.853333c0-8.96-8.96-14.933333-14.933333-14.933334-5.973333 0-14.933333 8.96-14.933334 14.933334v32.853333zM958.293333 581.546667c0 8.96 8.96 14.933333 14.933334 14.933333 5.973333 0 14.933333-8.96 14.933333-14.933333v-33.28c0-8.96-8.96-14.933333-14.933333-14.933334-5.973333 0-14.933333 8.96-14.933334 14.933334v33.28zM988.16 265.386667v-36.266667c0-8.96-8.96-14.933333-14.933333-14.933333-8.96 0-14.933333 8.96-14.933334 14.933333v33.28c0 11.946667 5.973333 17.92 14.933334 17.92 8.96 0 14.933333-8.96 14.933333-14.933333zM958.293333 476.16c0 8.96 8.96 14.933333 14.933334 14.933333 5.973333 0 14.933333-8.96 14.933333-14.933333v-33.28c0-8.96-8.96-14.933333-14.933333-14.933333-5.973333 0-14.933333 8.96-14.933334 14.933333v33.28zM686.933333 958.293333h-33.28c-8.96 0-14.933333 8.96-14.933333 14.933334s8.96 14.933333 14.933333 14.933333h33.28c8.96 0 14.933333-8.96 14.933334-14.933333s-5.546667-14.933333-14.933334-14.933334zM443.306667 66.56h33.28c8.96 0 14.933333-8.96 14.933333-14.933333 0-5.973333-8.96-14.933333-14.933333-14.933334h-33.28c-8.96 0-14.933333 8.96-14.933334 14.933334-0.426667 5.973333 5.546667 14.933333 14.933334 14.933333zM337.92 66.56h33.28c8.96 0 14.933333-8.96 14.933333-14.933333 0-5.973333-8.96-14.933333-14.933333-14.933334h-33.28c-8.96 0-14.933333 8.96-14.933333 14.933334-0.426667 5.973333 5.546667 14.933333 14.933333 14.933333zM232.106667 66.56h33.28c8.96 0 14.933333-8.96 14.933333-14.933333 0-5.973333-5.973333-17.92-14.933333-17.92h-33.28c-8.96 0-14.933333 8.96-14.933334 17.92s2.986667 14.933333 14.933334 14.933333zM18.346667 108.8h14.933333v48.213333c3.413333 8.96 12.373333 17.92 21.333333 17.92 8.96 0 23.893333-17.92 23.893334-17.92V108.8h11.946666c8.96 0 17.92-8.96 17.92-17.92v-24.32h48.213334c8.96 0 14.933333-8.96 14.933333-14.933333 3.413333-11.946667-2.56-17.92-14.506667-17.92H108.8V18.346667c0-8.96-8.96-17.92-17.92-17.92H18.346667C9.386667 0.426667 0.426667 9.386667 0.426667 18.346667v72.106666c0 9.386667 8.96 18.346667 17.92 18.346667zM548.693333 66.56h33.28c8.96 0 14.933333-8.96 14.933334-14.933333 0-5.973333-8.96-14.933333-14.933334-14.933334h-33.28c-8.96 0-14.933333 8.96-14.933333 14.933334-0.426667 5.973333 5.546667 14.933333 14.933333 14.933333zM654.08 66.56h33.28c8.96 0 14.933333-8.96 14.933333-14.933333 0-5.973333-8.96-14.933333-14.933333-14.933334h-33.28c-8.96 0-14.933333 8.96-14.933333 14.933334-0.426667 5.973333 5.973333 14.933333 14.933333 14.933333zM63.573333 654.08c0-8.96-8.96-14.933333-14.933333-14.933333-5.973333 0-14.933333 8.96-14.933333 14.933333v33.28c0 8.96 8.96 14.933333 14.933333 14.933333 5.973333 0 14.933333-8.96 14.933333-14.933333v-33.28zM63.573333 443.306667c0-8.96-8.96-14.933333-14.933333-14.933334-5.973333 0-14.933333 8.96-14.933333 14.933334v33.28c0 8.96 8.96 14.933333 14.933333 14.933333 5.973333 0 14.933333-8.96 14.933333-14.933333v-33.28zM63.573333 548.693333c0-8.96-8.96-14.933333-14.933333-14.933333-5.973333 0-14.933333 8.96-14.933333 14.933333v33.28c0 8.96 8.96 14.933333 14.933333 14.933334 5.973333 0 14.933333-8.96 14.933333-14.933334v-33.28zM63.573333 337.92c0-8.96-8.96-14.933333-14.933333-14.933333-5.973333-0.426667-14.933333 8.533333-14.933333 14.933333v33.28c0 8.533333 8.96 14.933333 14.933333 14.933333 5.973333 0 14.933333-8.96 14.933333-14.933333v-33.28zM63.573333 229.12c0-8.96-8.96-14.933333-14.933333-14.933333-5.973333 0-14.933333 8.96-14.933333 17.92v33.28c0 8.96 5.973333 14.933333 14.933333 14.933333 8.96 0 14.933333-8.96 14.933333-14.933333v-36.266667zM33.706667 759.466667v33.28c0 8.96 5.973333 14.933333 14.933333 14.933333 8.96 0 14.933333-8.96 14.933333-14.933333v-33.28c0-8.96-8.96-14.933333-14.933333-14.933334-5.973333-0.426667-14.933333 8.96-14.933333 14.933334zM904.106667 843.52V180.906667c0-33.28-27.306667-60.16-60.16-60.16H180.906667c-33.28 0-60.16 27.306667-60.16 60.16v662.613333c0 33.28 27.306667 60.16 60.16 60.16h662.613333c33.28 0.426667 60.586667-26.88 60.586667-60.16zM734.293333 376.746667c0 18.773333-14.933333 37.546667-37.546666 37.546666s-37.546667-14.933333-37.546667-37.546666v-37.973334H546.133333v376.32h37.546667c22.613333 0 37.546667 14.933333 37.546667 37.546667s-18.773333 37.546667-37.546667 37.546667h-150.613333c-22.613333 0-37.546667-14.933333-37.546667-37.546667s18.773333-37.546667 37.546667-37.546667h37.546666V338.773333H357.546667v37.546667c0 18.773333-14.933333 37.546667-37.546667 37.546667s-37.546667-14.933333-37.546667-37.546667V301.226667c0-11.093333 3.84-18.773333 11.093334-26.453334 7.68-7.253333 15.36-11.093333 26.453333-11.093333h376.32c11.093333 0 18.773333 3.84 26.453333 11.093333 7.68 7.68 11.093333 14.933333 11.093334 26.453334v75.52z" /></svg>