<?xml version="1.0" standalone="no"?><!DOCTYPE svg PUBLIC "-//W3C//DTD SVG 1.1//EN" "http://www.w3.org/Graphics/SVG/1.1/DTD/svg11.dtd"><svg class="icon" width="200px" height="200.00px" viewBox="0 0 1024 1024" version="1.1" xmlns="http://www.w3.org/2000/svg"><path d="M515.44593086-0.52118796C234.73510163-0.52118796 6.39484799 227.93266779 6.39484799 508.52989492c0 280.71082923 228.34025364 509.05108288 509.05108287 509.05108289 280.71082923 0 509.05108288-228.34025364 509.05108288-509.05108288 0-280.59722711-228.45385576-509.05108288-509.05108288-509.05108289z m0 909.38494052c-220.72891185 0-400.33385764-179.60494578-400.33385763-400.33385763 0-220.72891185 179.60494578-400.33385764 400.33385763-400.33385764 220.72891185 0 400.33385764 179.60494578 400.33385764 400.33385764 0 220.72891185-179.60494578 400.33385764-400.33385764 400.33385763zM393.66446224 462.97544631c41.69197667 0 75.43180519-33.73982852 75.43180519-75.4318052s-33.73982852-75.43180519-75.43180519-75.43180516-75.43180519 33.73982852-75.43180516 75.43180516c0.11360212 41.69197667 33.85343064 75.43180519 75.43180516 75.4318052z m243.44933511 0c41.69197667 0 75.43180519-33.73982852 75.43180519-75.4318052s-33.73982852-75.43180519-75.43180519-75.43180516-75.43180519 33.73982852-75.43180519 75.43180516c0.11360212 41.69197667 33.85343064 75.43180519 75.43180519 75.4318052z m91.44970358 89.06405914c-28.85493753-8.97456718-59.07310044 7.27053545-67.9340655 35.89826873-19.76676822 64.07159356-78.27185809 107.12679562-145.4107088 107.1267956-66.68444223 0-124.96232785-42.71439571-145.06990244-106.21797868-8.97456718-28.62773329-39.76074067-44.53202955-68.16126975-35.33025815-28.62773329 9.0881693-44.41842746 39.64713857-35.44386026 68.27487188 34.53504334 108.94442947 134.50490562 181.99059022 248.67503245 181.99059022 115.19254587 0 215.38961239-73.84137555 249.24304304-183.80822409 8.86096507-28.62773329-7.27053545-59.07310044-35.89826874-67.93406551z" /></svg>