<?xml version="1.0" standalone="no"?><!DOCTYPE svg PUBLIC "-//W3C//DTD SVG 1.1//EN" "http://www.w3.org/Graphics/SVG/1.1/DTD/svg11.dtd"><svg t="1583734441575" class="icon" viewBox="0 0 1024 1024" version="1.1" xmlns="http://www.w3.org/2000/svg" p-id="3936" xmlns:xlink="http://www.w3.org/1999/xlink" width="200" height="200"><defs><style type="text/css"></style></defs><path d="M512 0C229.376 0 0 229.376 0 512s229.376 512 512 512 512-229.376 512-512S794.624 0 512 0z m0 957.44c-245.76 0-445.44-199.68-445.44-445.44s199.68-445.44 445.44-445.44 445.44 199.68 445.44 445.44-199.68 445.44-445.44 445.44z" p-id="3937"></path><path d="M647.168 471.04L444.416 354.304c-31.232-17.92-70.656 4.608-70.656 40.96v232.96c0 36.352 39.424 58.88 70.656 40.96l202.752-116.736c31.232-17.408 31.232-63.488 0-81.408z" p-id="3938"></path></svg>