<?xml version="1.0" standalone="no"?><!DOCTYPE svg PUBLIC "-//W3C//DTD SVG 1.1//EN" "http://www.w3.org/Graphics/SVG/1.1/DTD/svg11.dtd"><svg t="1565144627445" class="icon" viewBox="0 0 12288 1024" version="1.1" xmlns="http://www.w3.org/2000/svg" p-id="19448" xmlns:xlink="http://www.w3.org/1999/xlink" width="2400" height="200"><defs><style type="text/css"></style></defs><path d="M12018.346667 150.186667C11917.653333 49.493333 11798.186667 0 11656.533333 0c-141.653333 0-262.826667 49.493333-361.813333 150.186667-56.32 56.32-95.573333 121.173333-119.466667 191.146666H170.666667c-93.866667 0-170.666667 76.8-170.666667 170.666667s76.8 170.666667 170.666667 170.666667h11002.88c23.893333 69.973333 63.146667 134.826667 119.466666 191.146666 100.693333 100.693333 221.866667 150.186667 363.52 150.186667 141.653333 0 262.826667-49.493333 361.813334-150.186667A494.933333 494.933333 0 0 0 12168.533333 512c0-141.653333-51.2-262.826667-150.186666-361.813333z" p-id="19449"></path></svg>