<?xml version="1.0" standalone="no"?><!DOCTYPE svg PUBLIC "-//W3C//DTD SVG 1.1//EN" "http://www.w3.org/Graphics/SVG/1.1/DTD/svg11.dtd"><svg t="1585379722903" class="icon" viewBox="0 0 1025 1024" version="1.1" xmlns="http://www.w3.org/2000/svg" p-id="8148" xmlns:xlink="http://www.w3.org/1999/xlink" width="200.1953125" height="200"><defs><style type="text/css"></style></defs><path d="M939.050475 0H86.484758C29.169415 0 1.023488 28.657671 1.023488 85.461269v853.077462c0 56.803598 28.657671 85.461269 85.46127 85.461269h853.077461c56.803598 0 85.461269-28.657671 85.461269-85.461269V85.461269C1024.511744 28.657671 995.854073 0 939.050475 0z m-107.466267 822.372814c-15.864068 40.427786-61.921039 60.385807-102.348826 44.521739-40.427786-15.864068-60.385807-61.921039-44.521739-102.348826l-388.925537-388.413793c-29.169415 11.258371-62.432784 4.605697-84.437781-17.3993-30.704648-30.704648-30.704648-80.855572 0-111.56022s80.855572-30.704648 111.56022 0c22.004998 22.004998 29.169415 55.268366 17.3993 84.437781l388.413793 388.413793c29.169415-11.258371 62.432784-4.605697 84.437781 17.3993 23.028486 22.516742 29.681159 55.78011 18.422789 84.949526z" p-id="8149"></path></svg>