<?xml version="1.0" standalone="no"?><!DOCTYPE svg PUBLIC "-//W3C//DTD SVG 1.1//EN" "http://www.w3.org/Graphics/SVG/1.1/DTD/svg11.dtd"><svg class="icon" width="200px" height="200.00px" viewBox="0 0 1024 1024" version="1.1" xmlns="http://www.w3.org/2000/svg"><path d="M730.68672755 336.18857484h-311.92349624c-24.84045298 0-46.05125071-21.32422447-46.05125072-46.05125072s21.32422447-46.05125071 46.05125072-46.05125073h311.92349624c24.84045298 0 46.05125071 21.32422447 46.05125071 46.05125073S755.52718053 336.18857484 730.68672755 336.18857484m0 237.51556405h-311.92349624c-24.84045298 0-46.05125071-21.32422447-46.05125072-46.05125071 0-24.84045298 21.32422447-46.05125071 46.05125072-46.05125075h311.92349624c24.84045298 0 46.05125071 21.32422447 46.05125071 46.05125075 0.11342672 24.72702623-21.21079774 46.05125071-46.05125071 46.05125071m0 241.03179256h-311.92349624c-24.84045298 0-46.05125071-21.32422447-46.05125072-46.05125073 0-24.84045298 21.32422447-46.05125071 46.05125072-46.0512507h311.92349624c24.84045298 0 46.05125071 21.32422447 46.05125071 46.0512507s-21.21079774 46.05125071-46.05125071 46.05125073M273.46359541 336.18857484c-24.84045298 0-46.05125071-21.32422447-46.05125071-46.05125072s21.32422447-49.68090595 46.05125071-49.68090595 46.05125071 21.32422447 46.05125072 49.68090595-21.21079774 46.05125071-46.05125072 46.05125072m0 237.51556405c-24.84045298 0-42.53502222-24.84045298-42.53502221-49.68090594S252.25279768 477.97198222 273.46359541 477.97198222c24.84045298 0 46.05125071 21.32422447 46.05125072 46.05125073 0 28.35668147-21.21079774 49.68090595-46.05125072 49.68090594m0 241.03179256c-24.84045298 0-42.53502222-24.84045298-42.53502221-49.68090595s21.32422447-46.05125071 42.53502221-46.05125071c24.84045298 0 46.05125071 21.32422447 46.05125072 46.05125071 0 28.35668147-21.21079774 49.68090595-46.05125072 49.68090595M900.59996296 3.05428085H127.5968259c-47.6392249 0-85.18347115 41.06047478-85.18347116 92.4427816v832.43874146c0 51.38230684 37.43081954 92.4427816 85.18347116 92.44278161h773.00313706c47.6392249 0 85.18347115-41.06047478 85.18347116-92.44278161V95.49706245c3.40280179-51.38230684-37.54424628-92.4427816-85.18347116-92.4427816" /></svg>