<?xml version="1.0" standalone="no"?><!DOCTYPE svg PUBLIC "-//W3C//DTD SVG 1.1//EN" "http://www.w3.org/Graphics/SVG/1.1/DTD/svg11.dtd"><svg class="icon" width="200px" height="200.00px" viewBox="0 0 1024 1024" version="1.1" xmlns="http://www.w3.org/2000/svg"><path d="M230.942187 754.372066L311.244419 674.069834l40.44419 40.44419-80.302232 80.302232-40.44419-40.44419z m240.906697-241.492844l40.44419 40.44419 83.819118-80.302233-40.44419-40.44419-83.819118 80.302233z m-117.229537 122.504865l37.513452 38.685747L474.779622 595.526045l-40.44419-40.44419-79.716085 80.302232z m237.975959-243.251288l80.302233-80.302232 40.44419 40.44419L633.039496 432.576989l-40.44419-40.44419z"  /><path d="M967.143675 796.574699h-56.856325V182.291929c0-37.513452-30.479679-68.579279-68.579279-68.579279H227.425301V56.856325c0-31.651975-25.790498-56.856325-56.856326-56.856325-31.651975 0-56.856325 25.790498-56.856325 56.856325v56.856325H56.856325c-31.651975 0-56.856325 25.790498-56.856325 56.856325s25.790498 56.856325 56.856325 56.856326h56.856325v614.28277c0 37.513452 30.479679 68.579279 68.579279 68.579279h614.28277v56.856325c0 31.651975 25.790498 56.856325 56.856326 56.856325s56.856325-25.790498 56.856325-56.856325v-56.856325h56.856325c31.651975 0 56.856325-25.790498 56.856325-56.856325s-25.20435-56.856325-56.856325-56.856326z m-739.718374 0V227.425301h526.946765l-32.238122 30.479679 40.44419 40.44419 33.410418-32.238122v529.877504h-568.563251z"  /></svg>