<?xml version="1.0" standalone="no"?><!DOCTYPE svg PUBLIC "-//W3C//DTD SVG 1.1//EN" "http://www.w3.org/Graphics/SVG/1.1/DTD/svg11.dtd"><svg t="1573716375941" class="icon" viewBox="0 0 1024 1024" version="1.1" xmlns="http://www.w3.org/2000/svg" p-id="10995" xmlns:xlink="http://www.w3.org/1999/xlink" width="200" height="200"><defs><style type="text/css"></style></defs><path d="M270.541106 626.032885c-25.255605 0-43.623318 15.306428-43.623318 43.623318 0 25.255605 15.306428 43.623318 43.623318 43.623319 20.663677 0 43.623318-15.306428 43.623319-43.623319-3.061286-29.082212-18.367713-43.623318-43.623319-43.623318z" p-id="10996"></path><path d="M946.31988 0.765321H79.210762C35.587444 0.765321 2.678625 33.674141 2.678625 77.297459v867.109118c0 40.562033 32.908819 76.532138 76.532137 76.532137h867.109118c43.623318 0 76.532138-35.970105 76.532138-76.532137V77.297459c0-43.623318-32.908819-76.532138-76.532138-76.532138zM270.541106 794.403587c-68.878924 0-122.45142-53.572496-122.45142-122.45142s53.572496-122.45142 122.45142-122.45142c63.521674 0 122.45142 48.215247 122.45142 122.45142 0 71.174888-53.572496 122.45142-122.45142 122.45142z m163.013453-487.509716L290.439462 450.008969c-15.306428 5.35725-15.306428 9.949178-32.908819 9.949177s-25.255605-5.35725-32.908819-9.949177l-84.185352-84.185352c-15.306428-9.949178-15.306428-38.266069 0-53.572496 9.949178-15.306428 38.266069-15.306428 53.572497 0l53.572496 53.572496 117.09417-117.09417c15.306428-9.949178 38.266069-9.949178 68.878924 5.35725 17.602392 9.183857 17.602392 34.439462 0 52.807174z m420.926756 397.967116h-367.35426c-20.663677 0-38.266069-15.306428-38.266068-38.266069 0-20.663677 9.949178-38.266069 38.266068-38.266069h367.35426c20.663677 0 38.266069 15.306428 38.266069 38.266069s-9.949178 38.266069-38.266069 38.266069z m0-319.139014h-367.35426c-20.663677 0-38.266069-9.949178-38.266068-38.266069 0-20.663677 9.949178-38.266069 38.266068-38.266068h367.35426c20.663677 0 38.266069 15.306428 38.266069 38.266068s-9.949178 38.266069-38.266069 38.266069z" p-id="10997"></path></svg>