<?xml version="1.0" standalone="no"?><!DOCTYPE svg PUBLIC "-//W3C//DTD SVG 1.1//EN" "http://www.w3.org/Graphics/SVG/1.1/DTD/svg11.dtd"><svg class="icon" width="200px" height="199.80px" viewBox="0 0 1025 1024" version="1.1" xmlns="http://www.w3.org/2000/svg"><path d="M1024.592936 256.74117c0-1.185871-0.592936-2.371743-0.592936-3.557615 0-4.15055-0.592936-7.708164-1.778807-11.858714-0.592936-2.371743-1.778807-4.15055-2.371743-6.522293-1.185871-2.371743-2.371743-5.336422-3.557614-7.708165-1.185871-2.371743-2.964679-4.15055-4.743486-5.929357-1.778807-1.778807-2.964679-4.15055-5.336422-5.929357-2.371743-1.778807-4.15055-3.557614-6.522293-5.336422-1.185871-1.185871-2.371743-2.371743-4.15055-2.964678-0.592936-0.592936-1.778807-0.592936-2.371743-1.185872-1.185871-0.592936-1.778807-1.185871-2.371743-1.778807L586.413434 13.637522C562.103069 2.371743 535.420961 0 517.039954 0c-27.275043 0-53.957151 5.336422-73.52403 15.416329L33.204401 214.642733C13.044586 224.72264 0 244.882455 0 267.414013V758.364794c0 33.797336 30.239722 73.52403 68.187609 91.905038l397.859872 166.614939c8.894036 4.743486 18.381008 6.522293 28.460915 6.522293 7.115229 0 14.823393-1.778807 21.938622-4.15055 6.522293-0.592936 13.044586-2.371743 18.973943-4.743486l418.612623-176.10191c39.726694-18.973943 69.966416-58.700637 69.966416-92.497974l0.592936-489.171974z m-498.066011 147.04806c-7.115229 2.964679-27.867979 2.964679-34.390272 1.185871L198.040533 266.228141l300.618413-146.455124c1.778807-0.592936 8.3011-2.371743 18.381008-2.371743 8.3011 0 14.230457 1.185871 16.009264 1.778807l294.096121 138.74696c-0.592936 0-300.618413 145.862189-300.618414 145.862189z m375.921251 328.486392c-0.592936 0.592936-1.185871 0.592936-1.185871 0.592936l-333.822815 153.570353-11.265778-362.283729c0.592936-0.592936 1.185871-1.185871 2.371743-1.185871l343.902721-169.579618v378.885929z" /></svg>