<?xml version="1.0" standalone="no"?><!DOCTYPE svg PUBLIC "-//W3C//DTD SVG 1.1//EN" "http://www.w3.org/Graphics/SVG/1.1/DTD/svg11.dtd"><svg class="icon" width="200px" height="200.00px" viewBox="0 0 1024 1024" version="1.1" xmlns="http://www.w3.org/2000/svg"><path d="M546.048 0H204.032C157.952 0 121.088 36.864 121.088 82.944v858.112c0 46.08 36.864 82.944 82.944 82.944h616.96c46.08 0 82.944-36.864 82.944-82.944V361.984c0-13.312-11.264-24.576-24.576-24.576H595.712c-13.312 0-24.576-11.264-24.576-24.576V24.576c0-13.312-11.264-24.576-25.088-24.576z m193.536 849.92H317.696c-15.36 0-27.648-12.288-27.648-27.648s12.288-27.648 27.648-27.648h421.376c15.36 0 27.648 12.288 27.648 27.648s-12.288 27.648-27.136 27.648z m0-133.12H317.696c-15.36 0-27.648-12.288-27.648-27.648s12.288-27.648 27.648-27.648h421.376c15.36 0 27.648 12.288 27.648 27.648s-12.288 27.648-27.136 27.648z m27.648-160.256c0 15.36-12.288 27.648-27.648 27.648H317.696c-15.36 0-27.648-12.288-27.648-27.648s12.288-27.648 27.648-27.648h421.376c15.36 0 28.16 12.8 28.16 27.648z"  /><path d="M669.952 273.408h194.56c8.704 0 15.872-7.168 15.872-15.872 0-4.608-1.536-8.704-5.12-11.776L658.176 27.648c-6.144-6.656-16.384-6.656-22.528-0.512-3.072 3.072-5.12 7.168-5.12 11.776v194.56c0 22.016 17.408 39.936 39.424 39.936z"  /></svg>