<?xml version="1.0" standalone="no"?><!DOCTYPE svg PUBLIC "-//W3C//DTD SVG 1.1//EN" "http://www.w3.org/Graphics/SVG/1.1/DTD/svg11.dtd"><svg class="icon" width="200px" height="200.00px" viewBox="0 0 1024 1024" version="1.1" xmlns="http://www.w3.org/2000/svg"><path d="M1019.427748 445.946239C990.43698 217.857101 806.26033 33.680452 578.171193 5.116018A511.814971 511.814971 0 0 0 4.324504 578.962707c28.990769 228.089137 213.167418 412.265786 440.83022 440.830221 334.672846 42.207149 616.053838-239.173843 574.273024-573.846689z m-206.772395 349.16823h-37.9438v37.943801c0 20.890407-16.627059 37.9438-37.517466 37.9438s-37.9438-17.053393-37.9438-37.9438v-37.943801H270.783776c-14.495384 0-26.43276-11.937375-26.432759-26.43276V340.215199h-37.943801a37.773266 37.773266 0 1 1 0-75.461266h37.943801v-37.9438c0-20.890407 17.053393-37.9438 37.9438-37.943801s37.9438 17.053393 37.9438 37.943801v37.9438h428.040176c14.921719 0 26.43276 11.937375 26.43276 26.43276v428.040175h37.9438c20.890407 0 37.9438 17.053393 37.9438 37.943801s-17.053393 37.9438-37.9438 37.9438z"  /><path d="M676.65454 387.538366l-26.859094-26.859095 21.316741-20.464072H320.238617v379.011669h379.01167V366.221624l-22.595747 21.316742zM355.198074 708.994832L328.338979 682.135738l53.71819-53.291855 26.859094 26.859095-53.718189 53.291854z m80.577284-80.150949l-25.153755-26.006425 53.718189-53.291854 26.859095 26.859094-55.423529 52.439185z m80.150949-80.577284l-26.859095-26.859095 55.849864-53.291854 26.859095 26.859095-55.849864 53.291854z m80.577284-80.150949l-26.859095-26.859095 53.291855-53.718189 26.859095 27.285429-53.291855 53.291855z"  /></svg>