<?xml version="1.0" standalone="no"?><!DOCTYPE svg PUBLIC "-//W3C//DTD SVG 1.1//EN" "http://www.w3.org/Graphics/SVG/1.1/DTD/svg11.dtd"><svg class="icon" width="200px" height="156.46px" viewBox="0 0 1309 1024" version="1.1" xmlns="http://www.w3.org/2000/svg"><path d="M1231.101124 430.638844H438.857143c-43.556982 0-78.895666 40.269663-78.895666 89.579455s35.338684 89.579454 78.895666 89.579454h792.243981c43.556982 0 78.895666-40.269663 78.895666-89.579454 0-50.131621-35.338684-89.579454-78.895666-89.579455z"  /><path d="M89.579454 520.218299m-89.579454 0a89.579454 89.579454 0 1 0 179.158909 0 89.579454 89.579454 0 1 0-179.158909 0Z"  /><path d="M89.579454 89.579454m-89.579454 0a89.579454 89.579454 0 1 0 179.158909 0 89.579454 89.579454 0 1 0-179.158909 0Z"  /><path d="M438.857143 179.980738h792.243981c43.556982 0 78.895666-40.269663 78.895666-89.579454s-35.338684-90.401284-78.895666-90.401284H438.857143c-43.556982 0-78.895666 40.269663-78.895666 89.579454s34.516854 90.401284 78.895666 90.401284zM1231.101124 844.019262H438.857143c-43.556982 0-78.895666 40.269663-78.895666 89.579454s35.338684 89.579454 78.895666 89.579454h792.243981c43.556982 0 78.895666-40.269663 78.895666-89.579454s-35.338684-89.579454-78.895666-89.579454z"  /><path d="M89.579454 933.598716m-89.579454 0a89.579454 89.579454 0 1 0 179.158909 0 89.579454 89.579454 0 1 0-179.158909 0Z"  /></svg>