<?xml version="1.0" standalone="no"?><!DOCTYPE svg PUBLIC "-//W3C//DTD SVG 1.1//EN" "http://www.w3.org/Graphics/SVG/1.1/DTD/svg11.dtd"><svg t="1581774491857" class="icon" viewBox="0 0 1034 1024" version="1.1" xmlns="http://www.w3.org/2000/svg" p-id="4097" xmlns:xlink="http://www.w3.org/1999/xlink" width="201.953125" height="200"><defs><style type="text/css"></style></defs><path d="M54.75555555 33.19807437h923.54430376v117.41130376H54.75555555V33.19807437zM528.67960587 396.55696156H54.75555555v117.41130375h363.87234844c27.55571438-46.72490625 65.38063781-86.77482656 110.05170188-117.41130375zM54.75555555 578.15082875v117.41130375h312.52629657c0.68461406-41.07684094 8.21536781-80.6133 21.22303499-117.41130375H54.75555555z m0 181.76502094v117.41130281h356.5127475c-19.34034563-35.94223594-33.03262594-75.64984875-39.53645906-117.41130281H54.75555555z m885.89053312-261.52255312c-54.42681375-54.42681375-126.82474594-84.37867687-203.67266905-84.37867688-77.01907687 0-149.24585531 29.95186313-203.67266907 84.37867688-54.42681375 54.42681375-84.37867687 126.82474594-84.37867688 203.67266905 0 77.01907687 29.95186313 149.24585531 84.37867688 203.67266907 54.42681375 54.42681375 126.82474594 84.37867687 203.67266907 84.37867687 77.01907687 0 149.24585531-29.95186313 203.67266905-84.37867687 54.42681375-54.42681375 84.37867687-126.82474594 84.37867688-203.67266907 0-76.84792313-29.95186313-149.24585531-84.37867688-203.67266905z m-203.67266905 398.27420249c-107.31324656 0-194.60153344-87.28828687-194.60153344-194.60153344s87.28828687-194.60153344 194.60153344-194.60153343 194.60153344 87.28828687 194.60153344 194.60153343-87.28828687 194.60153344-194.60153344 194.60153344z m165.16313062-163.62274969v-61.61526093h-134.35549969v-134.35550063h-61.61526188v195.79960781h195.97076157z m76.16330907-518.08165406H54.75555555v117.41130281h923.54430376v-117.41130281z m0 0" p-id="4098"></path></svg>