<?xml version="1.0" standalone="no"?><!DOCTYPE svg PUBLIC "-//W3C//DTD SVG 1.1//EN" "http://www.w3.org/Graphics/SVG/1.1/DTD/svg11.dtd"><svg class="icon" width="200px" height="200.00px" viewBox="0 0 1024 1024" version="1.1" xmlns="http://www.w3.org/2000/svg"><path d="M512 512m-512 0a512 512 0 1 0 1024 0 512 512 0 1 0-1024 0Z"  /><path d="M607.963429 392.045714l-99.474286 344.649143c-5.266286 19.894857-8.192 32.768-8.192 38.619429 0 3.510857 1.755429 7.021714 4.096 9.947428 2.925714 2.925714 5.851429 4.681143 9.362286 4.681143 5.266286 0 11.117714-2.340571 16.384-7.021714 14.628571-12.288 32.182857-33.353143 52.077714-64.950857l16.384 9.947428c-48.566857 84.845714-100.644571 127.561143-155.648 127.561143-21.065143 0-37.449143-5.851429-50.322286-17.554286s-18.724571-26.916571-18.724571-45.056c0-12.288 2.925714-26.916571 8.192-45.641142L450.56 514.925714c6.436571-22.235429 9.947429-39.204571 9.947429-50.322285 0-7.021714-2.925714-13.458286-9.362286-18.724572-6.436571-5.266286-14.628571-8.192-25.161143-8.192-4.681143 0-10.532571 0-17.554286 0.585143l6.436572-19.309714 163.84-26.916572h29.257143zM628.443429 290.816c-14.043429 14.043429-31.012571 21.065143-50.322286 21.065143s-36.278857-7.021714-49.737143-21.065143c-14.043429-14.043429-21.065143-31.012571-21.065143-50.322286s7.021714-36.278857 20.48-50.322285c13.458286-14.043429 30.427429-21.065143 50.322286-21.065143 19.894857 0 36.864 7.021714 50.907428 21.065143 13.458286 14.043429 20.48 31.012571 20.48 50.322285s-7.606857 36.278857-21.065142 50.322286z" fill="#ffffff" /></svg>