<?xml version="1.0" standalone="no"?><!DOCTYPE svg PUBLIC "-//W3C//DTD SVG 1.1//EN" "http://www.w3.org/Graphics/SVG/1.1/DTD/svg11.dtd"><svg class="icon" width="200px" height="200.00px" viewBox="0 0 1024 1024" version="1.1" xmlns="http://www.w3.org/2000/svg"><path d="M446.459318 632.871155c-101.719036 0-184.285952-82.992519-184.285951-184.285951 0-101.719036 82.566916-184.285952 184.285951-184.285952s184.285952 82.992519 184.285952 184.285952c0 101.719036-82.992519 184.285952-184.285952 184.285951z"  /><path d="M446.459318 264.299252c-101.719036 0-184.285952 82.566916-184.285951 184.285952s82.566916 184.285952 184.285951 184.285951 184.285952-82.566916 184.285952-184.285951-82.992519-184.285952-184.285952-184.285952z"  /><path d="M510.72532 2.553616c-282.174564 0-510.723192 228.548628-510.723192 510.723192s228.548628 510.723192 510.723192 510.723192 510.723192-228.548628 510.723192-510.723192-228.548628-510.723192-510.723192-510.723192z m330.267664 840.990856a56.392352 56.392352 0 0 1-80.0133 0l-163.005819-163.005819a32.133001 32.133001 0 0 1-4.681629-5.958437c-42.134663 27.664173-92.78138 43.837074-146.832918 43.837074-148.960931 0-269.406484-120.871155-269.406483-269.406484s120.871155-269.406484 269.406483-269.406483c148.960931 0 269.406484 120.445553 269.406484 269.406483 0 54.051538-16.172901 104.698254-43.411471 146.832918 2.128013 1.702411 4.256027 2.979219 5.958437 5.107232l163.005819 163.005819c21.705736 21.280133 21.705736 57.456359-0.425603 79.587697z"  /></svg>