<?xml version="1.0" standalone="no"?><!DOCTYPE svg PUBLIC "-//W3C//DTD SVG 1.1//EN" "http://www.w3.org/Graphics/SVG/1.1/DTD/svg11.dtd"><svg class="icon" width="200px" height="200.00px" viewBox="0 0 1024 1024" version="1.1" xmlns="http://www.w3.org/2000/svg"><path d="M512 155.648C175.33155555 155.648 2.84444445 512 2.84444445 512S133.23377778 868.46577778 512 868.46577778c343.15377778 0 509.15555555-355.10044445 509.15555555-355.10044445S853.67466667 155.648 512 155.648z m0.79644445 579.01511111c-122.99377778 0-211.968-97.28-211.968-222.77688889 0-125.38311111 88.97422222-222.77688889 211.968-222.77688889 122.88 0 212.08177778 97.39377778 212.08177777 222.77688889-0.11377778 125.26933333-89.088 222.77688889-212.08177777 222.77688889z m0-356.352c-70.20088889 0-127.20355555 62.23644445-127.20355556 133.57511111 0 71.45244445 56.88888889 133.57511111 127.20355556 133.57511111s127.31733333-62.12266667 127.31733333-133.57511111c0-71.45244445-56.88888889-133.80266667-127.31733333-133.57511111z m0 0" /></svg>