<?xml version="1.0" standalone="no"?><!DOCTYPE svg PUBLIC "-//W3C//DTD SVG 1.1//EN" "http://www.w3.org/Graphics/SVG/1.1/DTD/svg11.dtd"><svg class="icon" width="200px" height="200.00px" viewBox="0 0 1024 1024" version="1.1" xmlns="http://www.w3.org/2000/svg"><path d="M512 3.84826793C228.88689213 3.84826793 3.84826793 228.88689213 3.84826793 512s225.03862419 508.15173207 508.15173207 508.15173207 508.15173207-225.03862419 508.15173207-508.15173207S795.11310787 3.84826793 512 3.84826793z m268.59448695 370.22483337L446.66620588 708.00138237c-14.51862092 14.51862092-36.29655229 14.51862092-50.81517321 0L243.40551305 548.29655229c-14.51862092-14.51862092-14.51862092-36.29655229 0-50.81517321 14.51862092-14.51862092 36.29655229-14.51862092 50.81517321 0l130.66758824 130.66758825L729.77931374 315.99861763c14.51862092-14.51862092 36.29655229-14.51862092 50.81517321 0 14.51862092 14.51862092 14.51862092 43.55586275 0 58.07448367z" /></svg>