<?xml version="1.0" standalone="no"?><!DOCTYPE svg PUBLIC "-//W3C//DTD SVG 1.1//EN" "http://www.w3.org/Graphics/SVG/1.1/DTD/svg11.dtd"><svg class="icon" width="200px" height="200.00px" viewBox="0 0 1024 1024" version="1.1" xmlns="http://www.w3.org/2000/svg"><path d="M511.5633 1022.752285C229.330084 1022.752285 0.499086 793.921287 0.499086 511.688071 0.499086 229.454856 229.330084 0.623858 511.5633 0.623858c282.233216 0 511.064213 228.830998 511.064213 511.064213 0 282.233216-228.830998 511.064213-511.064213 511.064214zM224.214451 492.722798c-28.198367-24.33045-51.405873-13.101011-61.512367-5.989034-30.194712 21.335933-6.113805 56.771049-6.113806 56.771049l202.753747 262.394541c42.796637 47.787498 78.855611 0.499086 78.855611 0.499086l470.13915-527.534056c20.462532-27.57451 11.35421-45.167296 3.493603-51.281101-26.326794-20.587304-56.521506 5.739491-56.521506 5.73949L405.133179 630.595345l-180.918728-137.872547z m0 0" /></svg>