<?xml version="1.0" standalone="no"?><!DOCTYPE svg PUBLIC "-//W3C//DTD SVG 1.1//EN" "http://www.w3.org/Graphics/SVG/1.1/DTD/svg11.dtd"><svg class="icon" width="200px" height="200.00px" viewBox="0 0 1024 1024" version="1.1" xmlns="http://www.w3.org/2000/svg"><path d="M601.3 580.9C544.4 631.5 511.9 704 512 780.1c0 54.8 16.5 105.8 44.9 148.2H126.6c-16.4 0-29.6-13.3-29.6-29.6v-88.9C97 652 373.5 572.6 512 572.6c25.9 0 56.5 2.7 89.3 8.3zM512 513.3c-114.6 0-207.5-92.8-207.5-207.4v-0.1c0-89.3 56.1-171 141.4-197.3 142.8-44.1 273.6 61.2 273.6 197.3 0 114.6-92.8 207.5-207.5 207.5z m371.4 192.8c24 0 43.6 19.6 43.6 43.6v1.8c0 24-19.6 43.6-43.6 43.6h-89.8v89.5c0 24-19.6 43.6-43.6 43.6h-1.5c-24 0-43.7-19.6-43.8-43.6v-89.5h-89.4c-24.2 0.1-43.9-19.5-44-43.8v-1.5c0.4-24.1 19.9-43.4 44-43.6h89.4v-90c0-24.1 19.6-43.6 44-43.6h1.4c24.1 0 43.6 19.5 43.6 43.6v90h89.7z" /></svg>