<?xml version="1.0" standalone="no"?><!DOCTYPE svg PUBLIC "-//W3C//DTD SVG 1.1//EN" "http://www.w3.org/Graphics/SVG/1.1/DTD/svg11.dtd"><svg class="icon" width="200px" height="200.00px" viewBox="0 0 1024 1024" version="1.1" xmlns="http://www.w3.org/2000/svg"><path d="M928.758951 135.889816c-7.678186 0-14.076674-0.639849-18.555616-0.639849-131.80886-8.318035-275.774848-47.988663-355.116104-108.134453-6.398488-5.118791-12.796977-10.237581-19.195465-17.275919a33.400109 33.400109 0 0 0-47.348813 0c-5.75864 6.398488-11.517279 11.517279-16.63607 15.356372-78.061558 60.785639-222.667395 101.096116-355.116104 110.054-5.75864 0.639849-12.796977 0.639849-21.75486 1.279698-9.597733 0.639849-17.275919 8.957884-17.275919 19.195465V550.511862c0 90.218686 32.632291 177.238127 90.858535 243.142557 40.310477 56.946546 84.460046 106.854756 133.088557 149.724628 123.490825 108.774302 315.445476 109.414151 428.69872-13.436826 42.869872-41.590174 83.820197-83.180349 115.81264-127.969767 61.425488-66.544279 99.816418-164.441151 99.816418-257.219232v-390.30779c0-9.597733-7.678186-17.915767-17.275919-18.555616z m-167.640394 310.966534c0 10.237581-4.478942 19.195465-10.877431 26.233802-7.038337 7.038337-16.63607 10.87743-26.233802 10.877431H606.914987a38.007021 38.007021 0 0 1-37.751081-37.111233c0-20.475163 16.63607-37.111232 37.751081-37.111232h30.712744c-47.988663-35.191686-110.054-47.348814-167.640395-31.352593-50.548058 12.796977-93.41793 45.429267-119.651732 90.858534a192.850439 192.850439 0 0 0 71.66307 265.537267c45.429267 25.593953 98.536721 32.632291 149.084778 19.195465 50.548058-12.796977 93.41793-45.429267 119.651733-90.218686 10.237581-17.915767 33.272139-23.674407 51.187906-13.436825s24.314256 32.632291 13.436826 50.548058a270.016209 270.016209 0 0 1-165.081 125.410372c-69.743523 18.555616-143.326139 8.957884-206.031325-26.873651a268.160647 268.160647 0 0 1-126.690069-163.161453c-17.915767-69.743523-8.318035-143.326139 28.153349-204.751628a270.016209 270.016209 0 0 1 165.080999-125.410372c81.260802-21.115012 168.280244-4.478942 235.464372 46.708965v-21.75486c0-20.475163 16.63607-37.111232 37.751081-37.111233s37.751081 16.63607 37.751081 37.111233v115.812639z" /></svg>