<?xml version="1.0" standalone="no"?><!DOCTYPE svg PUBLIC "-//W3C//DTD SVG 1.1//EN" "http://www.w3.org/Graphics/SVG/1.1/DTD/svg11.dtd"><svg class="icon" width="200px" height="200.00px" viewBox="0 0 1024 1024" version="1.1" xmlns="http://www.w3.org/2000/svg"><path d="M510.515973 2.977981c-282.057333 0-510.51101 228.453677-510.51101 510.511009s228.453677 510.51101 510.51101 510.51101 510.51101-228.453677 510.511009-510.51101-228.453677-510.51101-510.511009-510.511009z m327.152472 695.57125s-65.941005 101.676776-170.170337 156.131284c-104.229331 54.454508-232.707935 38.713752-316.516826-14.039053-84.234317-52.752804-112.737848-97.422518-112.737848-97.422517l-72.747818 41.266306s-14.889904 7.232239-14.889905-9.784794v-259.509763s0-22.972995 17.44246-14.889905c14.464479 6.806813 173.999169 97.422518 224.199418 125.926049 27.65268 12.337349 3.403407 22.122144 3.403407 22.122144l-70.195264 39.990029s39.990029 49.774823 98.273369 76.576652c62.537599 32.75779 120.820939 36.586622 192.717906 9.359368 46.796843-17.442459 101.676776-62.963025 141.666805-129.754881l79.554633 54.029081z m19.144163-144.644786c-14.464479-6.806813-173.999169-97.422518-224.199419-125.926049-27.65268-12.337349-3.403407-22.122144-3.403406-22.122143l69.769838-39.990029s-39.990029-50.200249-98.27337-76.576652c-62.537599-32.332364-120.820939-36.586622-192.717906-9.359368-46.796843 17.442459-101.676776 62.963025-141.241379 129.754881L187.617759 355.656003s65.941005-101.676776 169.744911-156.131283c104.229331-54.454508 232.707935-38.713752 316.516826 14.039052 84.234317 52.752804 112.737848 97.422518 112.737848 97.422518l72.322393-41.266307s14.889904-7.232239 14.889904 9.784795v259.509763c0.425426 0 0.425426 23.398421-17.017033 14.889904z" /></svg>