<?xml version="1.0" standalone="no"?><!DOCTYPE svg PUBLIC "-//W3C//DTD SVG 1.1//EN" "http://www.w3.org/Graphics/SVG/1.1/DTD/svg11.dtd"><svg class="icon" width="200px" height="200.00px" viewBox="0 0 1024 1024" version="1.1" xmlns="http://www.w3.org/2000/svg"><path d="M584.36266667 309.248l-62.35022222 61.89511111-56.20622223 55.86488889c-16.95288889 16.83911111-64.28444445 62.57777778-75.54844444 74.06933333-11.15022222 11.37777778-18.432 18.65955555-21.504 21.73155556-7.28177778 7.168-12.62933333 13.65333333-16.49777778 19.56977778-3.98222222 5.91644445-7.39555555 12.51555555-10.46755555 19.456-2.61688889 4.66488889-5.91644445 13.08444445-10.01244445 25.25866666-4.096 12.17422222-8.30577778 25.71377778-12.62933333 40.16355556-4.32355555 14.56355555-8.41955555 28.672-12.288 42.09777778-3.86844445 13.53955555-6.37155555 23.89333333-7.39555556 31.06133333-2.048 13.08444445-0.68266667 22.64177778 3.86844444 28.21688889 4.66488889 5.57511111 13.88088889 7.73688889 27.76177778 6.144 6.59911111-1.024 16.83911111-3.41333333 30.37866667-6.82666667 13.53955555-3.64088889 27.87555555-7.73688889 43.008-12.62933333 15.13244445-4.89244445 29.58222222-9.78488889 43.46311111-14.90488889 13.88088889-5.23377778 24.34844445-9.44355555 31.51644444-13.08444445 7.28177778-3.072 14.10844445-7.168 20.82133334-12.17422222 6.59911111-5.00622222 12.51555555-10.01244445 17.74933333-14.44977778 1.93422222-1.59288889 8.41955555-7.73688889 19.11466667-18.432 10.58133333-10.80888889 24.34844445-24.46222222 40.73244444-40.96 16.384-16.61155555 68.03911111-66.44622222 88.51911112-86.35733333l61.66755555-61.89511111 160.768-162.13333333-145.18044445-139.94666667-159.28888888 158.26488889z m367.50222222-82.03377778c4.43733333-4.32355555 9.78488889-9.44355555 15.81511111-15.13244444 6.144-5.57511111 12.97066667-12.40177778 20.59377778-19.91111111 7.05422222-7.62311111 12.288-15.58755555 15.47377777-23.89333334 3.29955555-8.30577778 4.89244445-16.61155555 4.89244445-24.80355555 0-1.82044445-0.11377778-3.64088889-0.11377778-5.34755556 0.91022222-14.336-3.072-30.03733333-11.49155555-45.056-5.57511111-10.12622222-13.42577778-20.13866667-22.98311112-28.89955555-17.29422222-15.81511111-37.54666667-25.82755555-57.00266666-29.35466667-4.55111111-0.79644445-9.10222222-1.25155555-13.88088889-1.36533333h-2.38933333c-8.53333333-0.11377778-17.06666667 1.13777778-25.94133334 3.75466666-9.55733333 2.84444445-18.88711111 7.73688889-27.87555555 14.79111112-7.05422222 5.80266667-15.92888889 13.53955555-26.39644445 23.32444444s-19.56977778 18.20444445-27.30666666 25.25866666l144.27022222 139.94666667c4.43733333-3.75466667 9.10222222-8.30577778 14.336-13.312z m44.71466666 67.584L559.90044445 723.05777778c-7.85066667 7.73688889-17.63555555 18.77333333-28.33066667 22.30044444l-218.56711111 59.392c-36.06755555 9.67111111-90.45333333-36.06755555-83.17155556-71.11111111l43.23555556-204.45866666c0.11377778-0.45511111 0.22755555-0.79644445 0.34133333-1.13777778 3.86844445-13.42577778 14.79111111-25.6 24.91733333-35.61244445L757.53244445 26.05511111c8.98844445-8.76088889 2.38933333-23.552-10.46755556-23.552h-510.86222222c-125.04177778 0-227.55555555 94.32177778-233.35822222 212.42311111h-0.34133334v594.48888889h0.34133334c5.80266667 118.10133333 108.20266667 212.30933333 233.24444444 212.30933334h551.936c125.04177778 0 227.55555555-94.32177778 233.35822222-212.30933334h0.11377778V304.46933333c0.11377778-12.51555555-15.81511111-18.65955555-24.91733334-9.67111111z" /></svg>