<?xml version="1.0" standalone="no"?><!DOCTYPE svg PUBLIC "-//W3C//DTD SVG 1.1//EN" "http://www.w3.org/Graphics/SVG/1.1/DTD/svg11.dtd"><svg class="icon" width="200px" height="200.00px" viewBox="0 0 1024 1024" version="1.1" xmlns="http://www.w3.org/2000/svg"><path d="M912.052805 162.217822h-45.20132c-40.132013 0-71.815182 21.122112-71.815181 70.970297v141.518152c0 33.372937-29.148515 60.831683-67.590759 60.831683H280.50165c-36.752475 0-67.590759-27.036304-67.590759-60.831683V233.188119c0-41.39934-19.854785-70.970297-71.815181-70.970297H92.937294C42.244224 162.217822 0.844884 199.815182 0.844884 245.016502v606.627062c0 46.468647 40.976898 82.376238 92.09241 82.376238h65.056105c33.79538 0 46.046205-18.587459 46.046205-47.313531v-55.762377c0-33.372937 29.570957-60.831683 67.590759-60.831683h475.247525c36.752475 0 67.590759 27.036304 67.590759 60.831683v57.874588c0 26.191419 22.811881 46.891089 51.115511 46.891089h57.452146c50.693069 0 91.669967-37.59736 91.669967-82.376238V256.844884C1017.663366 204.462046 971.617162 162.217822 913.320132 162.217822"  /><path d="M322.745875 382.732673l354.851485-1.689769c29.148515 0 55.339934-16.052805 55.339934-38.019802V113.214521c-4.646865-24.50165-28.726073-41.39934-55.339934-38.442244H343.023102c-39.287129 0-71.392739 21.966997-71.392739 49.425743V348.092409c0 19.854785 21.122112 34.217822 50.270627 34.217822l0.844885 0.422442z"  /><path d="M708.858086 851.643564H312.607261c-24.50165 0-46.046205 14.363036-46.046205 33.79538v76.462046c3.379538 21.122112 22.389439 35.907591 43.511551 33.79538h390.759076c27.458746 0 49.0033-16.052805 49.0033-36.330033v-77.306931c-0.422442-16.052805-19.432343-30.415842-40.976897-30.415842"  /></svg>