<?xml version="1.0" standalone="no"?><!DOCTYPE svg PUBLIC "-//W3C//DTD SVG 1.1//EN" "http://www.w3.org/Graphics/SVG/1.1/DTD/svg11.dtd"><svg class="icon" width="200px" height="193.94px" viewBox="0 0 1056 1024" version="1.1" xmlns="http://www.w3.org/2000/svg"><path d="M1056.199769 642.811561l-129.98289-338.571099c-4.73526-18.467514-23.202775-31.963006-46.642313-31.963005h-246.233526v98.019884h208.588209l93.047861 246.233526h-158.157688c-28.174798 0-51.377572 23.202775-51.377572 51.377572v51.377573H335.493179v-51.377573c0-28.174798-23.202775-51.377572-51.377572-51.377572H125.957919l93.047861-246.233526h208.588208v-97.783121h-246.233526c-23.202775 0-36.935029 13.495491-46.642312 31.963005L4.73526 642.811561c0 4.73526-4.73526 9.707283-4.73526 18.467514v311.343353c0 28.174798 23.202775 51.377572 51.377572 51.377572h942.553526c28.174798 0 51.377572-23.202775 51.377573-51.377572L1051.227746 665.304046c1.894104-6.866127 2.841156-8.760231 4.972023-22.492485z"  /><path d="M691.111214 162.892948c0-13.495491-4.972023-28.174798-13.495491-32.910058L561.128324 13.495491c-9.707283-9.707283-23.202775-13.495491-32.910058-13.495491-13.495491 0-28.174798 4.73526-31.963006 13.495491l-116.487399 116.487399c-9.707283 9.707283-13.495491 23.202775-13.495491 32.910058 0 28.174798 23.202775 51.377572 51.377572 51.377572 13.495491 0 28.174798-4.972023 32.910058-13.495491l32.910058-32.910058v344.253411c0 28.174798 23.202775 51.377572 51.377572 51.377572s51.377572-23.202775 51.377572-51.377572V167.864971l32.910058 32.910058c9.707283 9.707283 23.202775 13.495491 32.910058 13.495491 15.626358-4.73526 39.065896-23.202775 39.065896-51.377572z"  /></svg>