<?xml version="1.0" standalone="no"?><!DOCTYPE svg PUBLIC "-//W3C//DTD SVG 1.1//EN" "http://www.w3.org/Graphics/SVG/1.1/DTD/svg11.dtd"><svg t="1581774537233" class="icon" viewBox="0 0 1137 1024" version="1.1" xmlns="http://www.w3.org/2000/svg" p-id="4345" xmlns:xlink="http://www.w3.org/1999/xlink" width="222.0703125" height="200"><defs><style type="text/css"></style></defs><path d="M123.42065626 58.65299479h896.02734375l-111.97265625 952.01367188H235.3933125L123.42065626 58.65299479z m369.01757812 671.95898439h2.83007812c3.32226563-10.58203125 14.02734375-44.78906251 18.45703126-60.53906251 91.30078125 20.671875 183.46289063-31.13085937 213.36328125-119.84765625 29.90039063-88.71679688 0-3.32226563 0 0-35.4375 33.34570313-80.96484375 54.01757813-129.32226564 58.81640626a121.69335938 121.69335938 0 0 1-62.75390625-11.81250001l17.96484376-64.96875s0-5.04492188-3.32226562 0l-146.1796875 61.64648438v3.9375l88.96289062 132.76757813z m-76.65820313-265.41210938c35.92968751-32.11523438 81.33398438-51.80273438 129.32226563-55.98632813 21.90234375-1.72265625 43.92773438 2.33789063 63.86132813 11.8125l-18.45703127 67.18359375s0 4.42968751 3.32226563 0c23.50195313-12.30468751 140.02734375-64.35351563 143.96484375-66.07617187 3.9375-1.72265625 0-5.04492188 0-5.04492188l-86.74804687-134.36718749s-2.83007813-3.32226563-4.42968749 0c-1.72265625 3.32226563-14.02734375 44.296875-18.45703125 59.30859374-92.65429688-20.42578125-185.67773438 32.23828125-215.70117189 122.0625-1.23046875 3.9375 0 4.55273438 3.32226563 1.10742188z m0 0" p-id="4346"></path><path d="M1075.43432813 114.63932292H67.43432813C36.54956249 114.63932292 11.44800001 89.53776043 11.44800001 58.65299479S36.54956249 2.66666667 67.43432813 2.66666667h1008c30.88476563 0 55.98632813 25.10156251 55.98632813 55.98632813S1106.31909376 114.63932292 1075.43432813 114.63932292z m0 0" p-id="4347"></path></svg>