<?xml version="1.0" standalone="no"?><!DOCTYPE svg PUBLIC "-//W3C//DTD SVG 1.1//EN" "http://www.w3.org/Graphics/SVG/1.1/DTD/svg11.dtd"><svg class="icon" width="200px" height="200.00px" viewBox="0 0 1024 1024" version="1.1" xmlns="http://www.w3.org/2000/svg"><path d="M512 3.67872052C231.40211514 3.67872052 3.67872052 231.40211514 3.67872052 512s227.72339464 508.32127948 508.32127948 508.32127948 508.32127948-227.72339464 508.32127948-508.32127948S792.59788486 3.67872052 512 3.67872052z m208.43441751 649.58467075c8.16944913 8.16944913 14.18307142 20.31015826 14.18307142 33.58551313 0 26.43724511-21.3313394 47.76858451-47.76858453 47.76858453-13.16189028 0-25.41606398-5.10590571-33.58551313-14.18307142L512 579.05756165 370.62314415 720.43441751c-8.16944913 8.16944913-20.31015826 14.18307142-33.58551312 14.18307142-26.43724511 0-47.76858451-21.3313394-47.76858451-47.76858453 0-13.16189028 5.10590571-25.41606398 14.1830714-33.58551313L444.71550922 512 303.56558249 370.73660873c-8.16944913-8.16944913-14.18307142-20.31015826-14.18307142-33.58551313 0-26.43724511 21.3313394-47.76858451 47.76858453-47.76858453 13.16189028 0 25.41606398 5.10590571 33.58551313 14.18307142L512 444.82897379l141.26339127-141.2633913c8.16944913-8.16944913 20.31015826-14.18307142 33.58551313-14.18307142 26.43724511 0 47.76858451 21.3313394 47.76858453 47.76858453 0 13.16189028-5.10590571 25.41606398-14.18307142 33.58551313L579.05756165 512l141.37685586 141.26339127z" /></svg>