<?xml version="1.0" standalone="no"?><!DOCTYPE svg PUBLIC "-//W3C//DTD SVG 1.1//EN" "http://www.w3.org/Graphics/SVG/1.1/DTD/svg11.dtd"><svg class="icon" width="200px" height="167.05px" viewBox="0 0 1226 1024" version="1.1" xmlns="http://www.w3.org/2000/svg"><path d="M1164.375132 2.058636L27.664795 367.123471c-62.445301 20.071704 0.343106 79.600603 0.343106 79.600603l211.696432 176.699615L898.296392 233.312113S453.287847 576.075054 317.589406 682.437929l349.281956 264.36321c-30.536438-43.574468-48.549506-96.584352-48.549505-154.054615 0-148.221813 120.087117-268.308929 268.308929-268.30893 56.955604 0 109.965488 17.841514 153.368403 48.2064l183.047077-509.512481c12.180265-31.22265-22.13034-66.905679-58.671134-61.072877zM318.447171 1022.28447l176.013402-122.488859-175.32719-130.894958-0.686212 253.383817z m0 0"  /><path d="M998.998017 723.953761h-92.810186v-92.810186c0-20.243257-16.46909-36.712347-36.712347-36.712347-20.243257 0-36.712347 16.46909-36.712348 36.712347V723.953761h-92.810185c-20.243257 0-36.712347 16.46909-36.712348 36.712347 0 20.243257 16.46909 36.712347 36.712348 36.712347h92.810185V890.360194c0 20.243257 16.46909 36.712347 36.712348 36.712347 20.243257 0 36.712347-16.46909 36.712347-36.712347v-92.810186h92.810186c20.243257 0 36.712347-16.46909 36.712347-36.712347 0-20.41481-16.640643-36.8839-36.712347-36.8839z m0 0"  /></svg>