<?xml version="1.0" standalone="no"?><!DOCTYPE svg PUBLIC "-//W3C//DTD SVG 1.1//EN" "http://www.w3.org/Graphics/SVG/1.1/DTD/svg11.dtd"><svg class="icon" width="200px" height="200.00px" viewBox="0 0 1024 1024" version="1.1" xmlns="http://www.w3.org/2000/svg"><path d="M26.778243 596.619247v114.075314c0 20.351464 16.066946 36.41841 36.41841 36.41841h325.087866c19.280335 0 35.34728-14.995816 36.41841-34.276151 5.355649-117.288703 74.979079-177.271967 108.1841-199.230125 10.711297-6.962343 16.60251-19.280335 16.066946-31.598327l-2.14226-54.09205c0-7.497908 1.606695-14.460251 5.891214-20.887029l28.920502-46.058578c0.535565-1.07113 1.07113-2.142259 2.142259-3.213389C742.292887 39.631799 512 1.07113 443.447699 0c-11.246862 0-21.958159 0.535565-33.205021 1.606695C79.263598 42.309623 270.995816 353.472803 309.556485 408.100418c4.284519 6.426778 6.962343 13.389121 6.426779 20.88703 0 65.338912-35.34728 102.292887-54.627615 117.824267-6.962343 5.355649-15.531381 8.033473-24.100419 8.033473-35.882845-1.606695-142.460251-4.820084-177.271966-2.677824-36.953975 2.677824-34.276151 32.669456-33.205021 40.167364v4.284519zM428.451883 824.23431H48.736402c-12.317992 0-22.493724 10.175732-22.493724 22.493723v16.602511c0 12.317992 10.175732 22.493724 22.493724 22.493724h379.715481c12.317992 0 22.493724-10.175732 22.493724-22.493724v-16.602511c0-12.317992-10.175732-22.493724-22.493724-22.493723z"  /><path d="M716.050209 1024c-155.313808 0-281.171548-126.393305-281.171548-281.171548s126.393305-281.171548 281.171548-281.171548c155.313808 0 281.171548 126.393305 281.171548 281.171548s-125.857741 281.171548-281.171548 281.171548z m0-509.322176c-125.857741 0-227.615063 102.292887-227.615063 227.615063s102.292887 227.615063 227.615063 227.615063 227.615063-102.292887 227.615063-227.615063-101.757322-227.615063-227.615063-227.615063z"  /><path d="M857.974895 772.820084h-138.175732c-1.606695 0.535565-2.677824 0.535565-4.284519 0.535565-10.711297 0-19.280335-9.104603-19.280334-20.351465v-148.887029c0-11.246862 8.569038-20.351464 19.280334-20.351465s19.280335 9.104603 19.280335 20.351465v128.535565h123.179916c10.711297 0 19.280335 9.104603 19.280335 20.351464 0 10.711297-8.569038 19.8159-19.280335 19.8159z"  /></svg>