<?xml version="1.0" standalone="no"?><!DOCTYPE svg PUBLIC "-//W3C//DTD SVG 1.1//EN" "http://www.w3.org/Graphics/SVG/1.1/DTD/svg11.dtd"><svg class="icon" width="200px" height="200.00px" viewBox="0 0 1024 1024" version="1.1" xmlns="http://www.w3.org/2000/svg"><path d="M866.133333 0.853333H159.573333C73.386667 0.853333 3.413333 70.4 3.413333 156.586667v708.693333a156.16 156.16 0 0 0 156.16 155.733333H866.133333c86.186667 0 156.16-69.546667 156.16-155.733333V156.586667c0-86.186667-69.973333-155.733333-156.16-155.733334zM388.266667 204.8c40.96 0 72.96 32 72.96 72.96s-32 75.946667-72.96 75.946667-72.533333-32.426667-72.533334-73.386667c2.986667-43.52 34.986667-75.52 72.533334-75.52zM266.666667 854.613333c-38.826667 0-72.96-34.133333-72.96-72.96 0-38.826667 34.133333-72.96 72.96-72.96 38.826667 0 72.96 34.133333 72.96 72.96 0 38.826667-34.133333 72.96-72.96 72.96z m243.626666 0c-38.826667 0-72.96-34.133333-72.96-72.96 0-38.826667 34.133333-72.96 72.96-72.96 38.826667 0 72.96 34.133333 72.96 72.96 0 38.826667-34.133333 72.96-72.96 72.96z m243.626667 0c-38.826667 0-72.96-34.133333-72.96-72.96 0-38.826667 34.133333-72.96 72.96-72.96 38.826667 0 72.96 34.133333 72.96 72.96 0 38.826667-34.133333 72.96-72.96 72.96z m114.773333-300.373333H172.8c-8.533333 0-17.493333-5.973333-23.466667-11.52-8.533333-11.52-5.973333-32 5.973334-40.96l98.986666-72.96c20.48-14.506667 43.52-14.506667 64-2.986667l107.52 66.986667 232.96-145.493333c23.893333-14.506667 52.906667-11.52 70.4 5.973333l160 151.466667c5.973333 5.973333 8.533333 14.506667 8.533334 20.48 0 17.493333-11.52 29.013333-29.013334 29.013333z" /></svg>