<?xml version="1.0" standalone="no"?><!DOCTYPE svg PUBLIC "-//W3C//DTD SVG 1.1//EN" "http://www.w3.org/Graphics/SVG/1.1/DTD/svg11.dtd"><svg t="1574429054104" class="icon" viewBox="0 0 1024 1024" version="1.1" xmlns="http://www.w3.org/2000/svg" p-id="11116" xmlns:xlink="http://www.w3.org/1999/xlink" width="32" height="32"><defs><style type="text/css"></style></defs><path d="M512 1014.7488005c-276.51184005 0-502.7488005-226.23696045-502.7488005-502.7488005s226.23696045-502.7488005 502.7488005-502.7488005 502.7488005 226.23696045 502.7488005 502.7488005-226.23696045 502.7488005-502.7488005 502.7488005z m0-125.68719975c207.38388041 0 377.06160075-169.67772034 377.06160075-377.06160075s-169.67772034-377.06160075-377.06160075-377.06160075-377.06160075 169.67772034-377.06160075 377.06160075 169.67772034 377.06160075 377.06160075 377.06160075z m0-251.374401c-69.12795966 0-125.68719975-56.55924012-125.68719975-125.68719975s56.55924012-125.68719975 125.68719975-125.68719975 125.68719975 56.55924012 125.68719975 125.68719975-56.55924012 125.68719975-125.68719975 125.68719975z" p-id="11117"></path></svg>