<?xml version="1.0" standalone="no"?><!DOCTYPE svg PUBLIC "-//W3C//DTD SVG 1.1//EN" "http://www.w3.org/Graphics/SVG/1.1/DTD/svg11.dtd"><svg class="icon" width="200px" height="200.00px" viewBox="0 0 1024 1024" version="1.1" xmlns="http://www.w3.org/2000/svg"><path d="M921.6 0.426667H102.4C47.36 0.426667 0 48.213333 0 102.826667v817.92c0 54.613333 47.36 102.4 102.4 102.4h819.2c55.04 0 102.4-47.36 102.4-102.4V102.826667c0-54.613333-47.36-102.4-102.4-102.4z m29.44 901.973333c0 25.6-21.76 47.36-47.36 47.36H120.746667c-25.6 0-47.36-21.76-47.36-47.36V121.173333c0-25.6 21.76-47.36 47.36-47.36h779.093333c29.44 0 51.2 21.76 51.2 47.36v781.226667z m0 0"  /><path d="M841.386667 840.533333H768v-36.693333h72.96v-72.96h-109.653333v-36.693333h146.346666v145.92h-36.266666z m-658.346667 0h-36.693333v-145.92H256v36.693334H183.04v72.96h109.653333v36.693333H183.04zM841.386667 329.386667H768v-36.693334h72.96V219.733333h-109.653333v-36.693333h146.346666v145.92h-36.266666z m-658.346667 0h-36.693333V183.04H256v36.693333H183.04v72.96h109.653333v36.693334H183.04z m-36.693333 109.226666h731.306666v145.92H146.346667v-145.92z m439.04-255.573333h109.653333v36.693333h-109.653333v-36.693333z m-146.346667 0h109.653333v36.693333h-109.653333v-36.693333z m-146.346667 0h109.653334v36.693333H292.693333v-36.693333z m36.693334 109.653333h109.653333v36.693334H329.386667v-36.693334z m145.92 0h109.653333v36.693334h-109.653333v-36.693334z m146.346666 0h109.653334v36.693334h-109.653334v-36.693334z m-36.266666 401.493334h109.653333v36.693333h-109.653333v-36.693333z m-146.346667 0h109.653333v36.693333h-109.653333v-36.693333z m-146.346667 0h109.653334v36.693333H292.693333v-36.693333z m36.693334 109.653333h109.653333v36.693333H329.386667v-36.693333z m145.92 0h109.653333v36.693333h-109.653333v-36.693333z m146.346666 0h109.653334v36.693333h-109.653334v-36.693333z m0 0"  /></svg>