<?xml version="1.0" standalone="no"?><!DOCTYPE svg PUBLIC "-//W3C//DTD SVG 1.1//EN" "http://www.w3.org/Graphics/SVG/1.1/DTD/svg11.dtd"><svg t="1571726212292" class="icon" viewBox="0 0 1024 1024" version="1.1" xmlns="http://www.w3.org/2000/svg" p-id="21365" xmlns:xlink="http://www.w3.org/1999/xlink" width="200" height="200"><defs><style type="text/css"></style></defs><path d="M912.725333 455.111111L796.444444 327.168 839.111111 284.444444 1024 483.555556 839.111111 682.666667l-42.666667-42.723556L912.725333 512H682.666667V455.111111h230.058666zM796.444444 227.555556h-56.888888V113.777778H113.777778v796.444444h625.777778v-113.777778h56.888888v113.777778a56.888889 56.888889 0 0 1-56.888888 56.888889H113.777778a56.888889 56.888889 0 0 1-56.888889-56.888889V113.777778a56.888889 56.888889 0 0 1 56.888889-56.888889h625.777778a56.888889 56.888889 0 0 1 56.888888 56.888889v113.777778zM227.555556 284.444444h398.222222v56.888889H227.555556V284.444444z m0 170.666667h398.222222v56.888889H227.555556V455.111111z m0 170.666667h398.222222v56.888889H227.555556v-56.888889z" p-id="21366"></path></svg>