<?xml version="1.0" standalone="no"?><!DOCTYPE svg PUBLIC "-//W3C//DTD SVG 1.1//EN" "http://www.w3.org/Graphics/SVG/1.1/DTD/svg11.dtd"><svg class="icon" width="200px" height="200.00px" viewBox="0 0 1024 1024" version="1.1" xmlns="http://www.w3.org/2000/svg"><path d="M885.40765888 171.43165572l-169.20773433 0 0-42.30193391c0-71.91448003-54.99264599-126.90712604-126.90712603-126.90712603l-169.20773433 0c-71.91315443 0-126.90580172 54.99264599-126.90580173 126.90712603l0 42.30193391-169.20773432 0c-25.38142546 0-42.30193391 16.92050844-42.30193391 42.30325822 0 25.38142546 16.92050844 42.30193391 42.30193391 42.30193391l169.20773432 0 423.02198641 0 169.20773434 0c25.38142546 0 42.30193391-16.92050844 42.30193389-42.30193391C927.70959279 188.35348848 910.78908435 171.43165572 885.40765888 171.43165572zM377.78180467 171.43165572l0-42.30193391c0-25.38142546 16.92050844-42.30325823 42.30193391-42.30325818l169.20773433 0c25.38142546 0 42.30325823 16.92050844 42.30325823 42.30325818l0 42.30193391L377.78180467 171.43165572z"  /><path d="M800.80379106 340.64071438l-592.22972072 0c-25.38142546 0-42.30193391 16.92050844-42.30193391 42.30325822l0 592.22839643c0 25.38142546 16.92050844 42.30325823 42.30193391 42.30325819l592.22972072 0c25.38142546 0 42.30193391-16.92050844 42.30193391-42.30325819l0-592.22839643C843.10572497 357.56122411 826.18389223 340.64071438 800.80379106 340.64071438zM462.3869968 805.96463469c0 25.38142546-16.92050844 42.30325823-42.30325822 42.30325822-25.38142546 0-42.30193391-16.92050844-42.30193391-42.30325822l0-253.81292646c0-25.38142546 16.92050844-42.30193391 42.30193391-42.30193391 25.38142546 0 42.30325823 16.92050844 42.30325822 42.30193391L462.3869968 805.96463469zM631.59473242 805.96463469c0 25.38142546-16.92050844 42.30325823-42.30325821 42.30325822-25.38142546 0-42.30193391-16.92050844-42.30193391-42.30325822l0-253.81292646c0-25.38142546 16.92050844-42.30193391 42.30193391-42.30193391 25.38142546 0 42.30325823 16.92050844 42.30325821 42.30193391L631.59473242 805.96463469z"  /></svg>