<?xml version="1.0" standalone="no"?><!DOCTYPE svg PUBLIC "-//W3C//DTD SVG 1.1//EN" "http://www.w3.org/Graphics/SVG/1.1/DTD/svg11.dtd"><svg class="icon" width="200px" height="200.00px" viewBox="0 0 1024 1024" version="1.1" xmlns="http://www.w3.org/2000/svg"><path d="M877.714286 1024H146.285714c-40.537005 0-73.436604-30.549627-73.436603-68.149168V443.557085c0-37.599541 32.899598-68.149168 73.436603-68.149168H877.714286c40.537005 0 73.436604 30.549627 73.436603 68.149168v512.293747c-0.587493 37.599541-33.487091 68.149168-73.436603 68.149168zM511.706254 546.36833C451.194492 546.36833 401.845095 592.192771 401.845095 648.592083c0 37.599541 22.324727 70.499139 54.636833 88.123924V834.239816c0 29.374641 24.674699 53.461847 54.636833 53.461848 30.549627 0 54.636833-24.087206 54.636833-53.461848v-97.523809c32.899598-17.624785 54.636833-50.524383 54.636833-88.123924C621.567413 592.192771 572.218015 546.36833 511.706254 546.36833z m0-444.144578c-121.023523 0-219.722318 91.648881-219.722318 205.034997H182.71027C182.71027 137.473322 330.17097 0 511.706254 0s328.995984 137.473322 328.995984 307.258749H730.841079c0.587493-113.386116-98.111302-205.034997-219.134825-205.034997z" /></svg>