<?xml version="1.0" standalone="no"?><!DOCTYPE svg PUBLIC "-//W3C//DTD SVG 1.1//EN" "http://www.w3.org/Graphics/SVG/1.1/DTD/svg11.dtd"><svg class="icon" width="200px" height="200.00px" viewBox="0 0 1024 1024" version="1.1" xmlns="http://www.w3.org/2000/svg"><path d="M653.860702 626.790036c-6.247077-2.082359-46.332486-20.302999-21.344179-96.309101h-0.52059C697.069649 463.32486 747.046263 355.562786 747.046263 249.362481 747.046263 85.897306 638.24301 0 512.260295 0c-126.503305 0-234.265379 85.897306-234.265379 249.362481 0 106.720895 49.456024 215.003559 115.050331 282.159634 25.508897 67.156075-20.302999 91.623793-29.673615 95.267921C230.621251 674.163701 75.485511 761.622776 75.485511 847.520081v32.276564c0 117.132689 227.497712 144.203355 437.815963 144.203355 210.838841 0 435.213015-26.550076 435.213015-144.203355v-32.276564c0-88.500254-155.656329-174.918149-294.653787-220.730045z" /></svg>