<?xml version="1.0" standalone="no"?><!DOCTYPE svg PUBLIC "-//W3C//DTD SVG 1.1//EN" "http://www.w3.org/Graphics/SVG/1.1/DTD/svg11.dtd"><svg t="1571211566988" class="icon" viewBox="0 0 1146 1024" version="1.1" xmlns="http://www.w3.org/2000/svg" p-id="29924" xmlns:xlink="http://www.w3.org/1999/xlink" width="15.66796875" height="14"><defs><style type="text/css"></style></defs><path d="M1064.96 0H81.92C36.864 0 0 36.864 0 81.92v655.36c0 45.056 36.864 81.92 81.92 81.92h409.6v122.88H286.72c-22.528 0-40.96 18.432-40.96 40.96v40.96h655.36v-40.96c0-22.528-18.432-40.96-40.96-40.96h-204.8v-122.88h409.6c45.056 0 81.92-36.864 81.92-81.92V81.92c0-45.056-36.864-81.92-81.92-81.92zM517.632 720.896c-1.024-30.72 23.04-56.832 53.76-57.856s56.832 24.064 57.856 55.296v3.072c-1.024 30.72-27.136 49.152-57.856 48.128-29.184-1.024-52.736-17.408-53.76-46.592M92.16 92.16h962.56v527.36H92.16V92.16z" p-id="29925"></path></svg>