<?xml version="1.0" standalone="no"?><!DOCTYPE svg PUBLIC "-//W3C//DTD SVG 1.1//EN" "http://www.w3.org/Graphics/SVG/1.1/DTD/svg11.dtd"><svg class="icon" width="200px" height="174.00px" viewBox="0 0 1177 1024" version="1.1" xmlns="http://www.w3.org/2000/svg"><path d="M884.938272 952.601571h-128.287318V890.684624H420.20202v61.916947H291.771044c-19.393939 0-35.05275 15.65881-35.05275 35.05275s15.65881 35.05275 35.05275 35.05275h593.167228c19.393939 0 35.05275-15.65881 35.052749-35.05275 0-19.393939-15.65881-35.05275-35.052749-35.05275zM0 690.998878v94.671156c0 19.393939 15.65881 35.05275 35.05275 35.052749h1106.891133c19.393939 0 35.05275-15.65881 35.05275-35.052749V690.998878H0zM1141.800224 1.14927H35.05275C15.65881 1.14927 0 16.808081 0 36.20202v584.835017h1176.852974V36.20202c0-19.393939-15.65881-35.05275-35.05275-35.05275z m0 0" /></svg>