<?xml version="1.0" standalone="no"?><!DOCTYPE svg PUBLIC "-//W3C//DTD SVG 1.1//EN" "http://www.w3.org/Graphics/SVG/1.1/DTD/svg11.dtd"><svg t="1565144623507" class="icon" viewBox="0 0 2688 1024" version="1.1" xmlns="http://www.w3.org/2000/svg" p-id="19336" xmlns:xlink="http://www.w3.org/1999/xlink" width="525" height="200"><defs><style type="text/css"></style></defs><path d="M2635.172693 317.44c-30.293333-29.866667-73.813333-46.506667-115.2-37.12-62.72-95.146667-128.853333-193.706667-227.84-250.026667-27.733333-15.786667-58.453333-28.16-90.026666-29.44-64-2.56-122.026667 39.68-160 90.88-37.973333 51.2-60.586667 112.213333-90.026667 168.96-102.4 197.12-294.826667 345.173333-511.573333 393.386667-194.133333 43.093333-395.946667 9.386667-594.773334 4.693333-58.026667-1.28-119.893333 0.426667-168.96 32-91.306667 58.026667-109.226667 196.693333-205.226666 247.04-22.186667 11.52-46.506667 17.493333-71.253334 18.346667-25.173333 1.28-50.773333-2.56-75.52-7.68-26.026667-5.546667-52.053333-13.226667-77.653333-20.48-25.6-7.68-51.626667-14.933333-78.08-20.48-25.173333-5.12-50.773333-8.533333-76.373333-7.253333-25.6 1.28-54.186667 6.826667-75.52 22.186666-10.666667 7.68-20.906667 18.346667-15.786667 32.426667 4.266667 11.093333 15.786667 18.346667 27.306667 18.773333 8.533333 0.426667 17.493333-1.706667 26.026666-2.133333 9.386667-0.853333 18.773333-1.28 28.16-1.706667 18.773333-0.426667 37.546667 0 55.893334 1.28 30.72 2.133333 61.44 6.826667 91.306666 14.08 72.96 17.493333 147.2 49.92 220.16 33.28 81.066667-18.346667 136.533333-92.16 176.64-164.693333 23.893333-43.093333 48.213333-90.88 91.733334-113.92 33.28-17.493333 72.96-17.92 110.933333-16.64 256.426667 7.253333 523.946667 49.92 761.6-46.933333 206.933333-84.053333 362.24-265.813333 460.8-466.773334 17.066667-34.56 32.853333-70.4 58.453333-99.413333 25.6-29.013333 63.573333-49.92 101.546667-44.373333 26.88 3.84 49.92 19.626667 71.253333 36.266666 72.533333 56.746667 133.546667 128.426667 177.92 209.066667-60.16 55.04-44.8 169.386667 27.733334 206.933333s174.506667-16.213333 184.746666-96.853333c5.546667-38.826667-11.093333-76.373333-38.4-103.68z" p-id="19337"></path></svg>