<?xml version="1.0" standalone="no"?><!DOCTYPE svg PUBLIC "-//W3C//DTD SVG 1.1//EN" "http://www.w3.org/Graphics/SVG/1.1/DTD/svg11.dtd"><svg t="1565144618264" class="icon" viewBox="0 0 2804 1024" version="1.1" xmlns="http://www.w3.org/2000/svg" p-id="19224" xmlns:xlink="http://www.w3.org/1999/xlink" width="547.65625" height="200"><defs><style type="text/css"></style></defs><path d="M2792.848696 148.257391c0-36.507826-12.911304-68.118261-38.733913-93.940869-25.822609-25.822609-57.433043-38.733913-93.94087-38.733913s-68.118261 12.911304-93.94087 38.733913-38.733913 57.433043-38.733913 93.940869c0 36.507826 12.911304 68.118261 38.733913 93.94087 13.801739 13.801739 29.384348 23.596522 45.857392 30.274782-16.027826 47.193043-44.076522 101.509565-93.94087 140.688696-70.344348 55.206957-169.627826 69.89913-293.398261 43.186087-615.735652-171.853913-804.062609-91.269565-1003.52-5.787826-108.187826 46.302609-219.937391 94.386087-410.490434 103.735652C408.709565 560.083478 37.398261 935.846957 21.815652 951.874783c-12.911304 13.356522-12.466087 34.281739 0.445218 47.193043 6.678261 6.233043 14.692174 9.349565 23.151304 9.349565s17.363478-3.561739 24.041739-10.24c3.561739-3.561739 367.304348-372.201739 743.513044-377.09913 203.909565-10.24 321.446957-60.549565 434.977391-109.078261 196.34087-84.146087 366.413913-157.161739 960.77913 8.904348 146.476522 31.165217 264.013913 12.466087 350.831305-55.652174 67.673043-53.426087 102.845217-126.441739 120.653913-186.546087 28.048696-4.006957 52.98087-16.027826 73.906087-36.953044 25.822609-25.822609 38.733913-56.987826 38.733913-93.495652z" p-id="19225"></path></svg>