<?xml version="1.0" standalone="no"?><!DOCTYPE svg PUBLIC "-//W3C//DTD SVG 1.1//EN" "http://www.w3.org/Graphics/SVG/1.1/DTD/svg11.dtd"><svg class="icon" width="200px" height="199.80px" viewBox="0 0 1025 1024" version="1.1" xmlns="http://www.w3.org/2000/svg"><path d="M949.791631 386.399h-145.859225c-20.897959 0-40.089963 11.088713-50.752187 29.00125-75.488546 124.961266-179.125364 255.893378-230.30404 318.160766a38.810496 38.810496 0 0 1-60.561432-0.426489c-49.47272-62.267389-149.271137-193.625989-221.774261-318.587255-9.809246-17.059559-27.721783-27.721783-47.766764-27.721783H80.607125C40.090673 386.825489 6.824534 420.091628 6.824534 460.60808v489.18284c0 38.810496 31.560183 70.370679 70.370679 70.370679h873.022907c40.516451 0 73.782591-33.266139 73.782591-73.78259V456.769679c-0.426489-38.810496-31.986672-70.370679-74.20908-70.370679zM147.139403 826.53561c-31.560183-14.074136-59.708455-35.398584-91.695127-56.296543l21.324448-28.148271c28.148272 21.324448 59.708455 38.810496 87.856727 56.296543l-17.486048 28.148271z m162.065806 73.782591c-31.560183-14.074136-63.546855-24.73636-98.51895-38.810496l14.074135-31.560183c31.560183 14.074136 63.546855 28.148272 95.107039 35.398584l-10.662224 34.972095z m119.41691 21.324448c-14.074136 0-28.148272-3.411912-45.634319-6.823824l6.823823-35.398583c14.074136 3.411912 31.560183 3.411912 45.634319 6.823823 17.486047 3.411912 35.398584 0 52.884631 0l3.411912 35.398584c-20.47147 3.411912-41.795918 3.411912-63.120366 0z m137.329446-17.912537l-10.662224-31.560183c28.148272-10.662224 56.296543-21.324448 95.107038-42.222407l14.074136 31.560183c-38.384007 17.486047-70.370679 31.560183-98.51895 42.222407z m162.065806-77.194502l-14.074136-31.560183c38.810496-17.486047 66.958767-31.560183 98.51895-45.634319l14.074136 31.560183c-31.560183 13.647647-59.708455 27.721783-98.51895 45.634319z m257.172844-81.032903c-31.560183 3.411912-63.546855 6.823823-98.51895 17.486048l-10.662224-35.398584c35.398584-10.662224 73.782591-14.074136 109.181174-17.486048v35.398584z"  /><path d="M760.857021 254.187422C760.857021 112.166597 635.469266 0 496.860353 0S236.275596 112.166597 236.275596 254.187422c0 101.077884 160.786339 314.322366 229.877551 400.899625 15.780092 20.044981 46.060808 20.044981 62.267389 0.426489 69.94419-85.724282 232.436485-295.556851 232.436485-401.326114z m-359.530196 13.221158c0-55.870054 46.060808-102.357351 98.945439-98.94544 52.884631 0 98.945439 42.648896 98.94544 98.94544 0 52.884631-43.075385 98.945439-98.94544 98.945439-52.884631-0.426489-98.945439-43.075385-98.945439-98.945439z"  /></svg>