<?xml version="1.0" standalone="no"?><!DOCTYPE svg PUBLIC "-//W3C//DTD SVG 1.1//EN" "http://www.w3.org/Graphics/SVG/1.1/DTD/svg11.dtd"><svg class="icon" width="200px" height="200.00px" viewBox="0 0 1024 1024" version="1.1" xmlns="http://www.w3.org/2000/svg"><path d="M510.80268848 1011.93212429c-277.47694269 0-503.46949036-225.99254772-503.46949036-503.46949036 0-277.47694269 225.99254772-503.46949036 503.46949036-503.46949037 277.47694269 0 503.46949036 225.99254772 503.46949037 503.46949037 0 277.47694269-225.6932198 503.46949036-503.46949037 503.46949036z m0-929.11373249c-234.67305614 0-425.64424216 190.97118602-425.64424213 425.64424213s190.97118602 425.64424216 425.64424213 425.64424214S936.44693065 743.13569007 936.44693065 508.46263393 745.47574465 82.8183918 510.80268848 82.8183918z"  /><path d="M432.67811238 718.59080412c-9.87781996 0-20.05496783-3.89126242-27.53816475-11.37445939l-186.18193991-186.18193994c-15.26572175-15.26572175-15.26572175-39.81060775 0-55.07632949 15.26572175-15.26572175 39.81060775-15.26572175 55.07632946 0l186.18193998 186.18193995c15.26572175 15.26572175 15.26572175 39.81060775 0 55.07632948-7.48319694 7.48319694-17.36101691 11.37445935-27.53816478 11.37445939z"  /><path d="M432.67811238 718.59080412c-9.87781996 0-20.05496783-3.89126242-27.53816475-11.37445939-15.26572175-15.26572175-15.26572175-39.81060775 0-55.07632948l342.43109217-342.43109213c15.26572175-15.26572175 39.81060775-15.26572175 55.07632952 0 15.26572175 15.26572175 15.26572175 39.81060775 0 55.07632948L460.21627716 707.21634473c-7.48319694 7.48319694-17.36101691 11.37445935-27.53816478 11.37445939z"  /></svg>