<?xml version="1.0" standalone="no"?><!DOCTYPE svg PUBLIC "-//W3C//DTD SVG 1.1//EN" "http://www.w3.org/Graphics/SVG/1.1/DTD/svg11.dtd"><svg class="icon" width="200px" height="200.00px" viewBox="0 0 1024 1024" version="1.1" xmlns="http://www.w3.org/2000/svg"><path d="M908.8 836.266667v-235.946667c0-33.28-27.306667-60.16-60.16-60.16H186.026667c-33.28 0-60.16 27.306667-60.16 60.16v235.946667c0 33.28 27.306667 60.16 60.16 60.16h662.613333c33.28 0.426667 60.16-26.88 60.16-60.16z m-518.4-30.72c-0.853333 2.986667-3.84 5.12-7.253333 5.12H332.373333c-4.266667 0-7.253333-2.986667-8.106666-6.826667a8.533333 8.533333 0 0 1 7.253333-8.96l-14.08-35.84H250.026667l-15.36 35.84c5.12 0.853333 8.106667 5.12 7.253333 8.96 0 3.84-4.266667 6.826667-8.106667 6.826667h-24.32c-5.973333 0-10.24-5.973333-8.106666-11.093334 0.853333-2.986667 4.266667-5.12 7.253333-5.12h5.973333l72.96-179.2c2.133333-2.986667 5.12-5.12 8.106667-5.12 4.266667 0 7.253333 2.133333 8.106667 5.12l75.093333 179.2H384c6.4 0 10.666667 5.12 6.4 11.093334z"  /><path d="M260.266667 741.973333h44.8c2.56 0 3.84-2.56 2.986666-4.693333l-22.186666-53.76c-1.28-2.56-5.12-2.56-6.4 0l-22.186667 53.76c-0.853333 2.133333 0.853333 4.693333 2.986667 4.693333zM120.746667 180.906667v235.946666c0 33.28 27.306667 60.16 60.16 60.16h662.613333c33.28 0 60.16-27.306667 60.16-60.16V180.906667c0-33.28-27.306667-60.16-60.16-60.16H180.906667c-33.28-0.426667-60.16 26.88-60.16 60.16z m69.546666 183.04c0.853333-2.986667 4.266667-5.12 7.253334-5.12h5.973333l72.96-179.2c2.133333-2.56 5.12-4.693333 8.106667-4.693334 4.266667 0 7.253333 2.133333 8.106666 5.12l75.093334 179.2h5.12c5.973333 0 10.24 5.12 5.973333 11.093334-0.853333 2.986667-4.266667 5.12-7.253333 5.12H321.28c-4.266667 0-7.253333-2.986667-8.106667-6.826667a8.533333 8.533333 0 0 1 7.253334-8.96l-14.506667-36.266667H238.933333l-14.933333 35.84c5.12 0.853333 8.106667 5.12 7.253333 8.96 0 3.84-4.266667 6.826667-8.106666 6.826667h-24.746667c-5.973333 0-10.24-5.973333-8.106667-11.093333z"  /><path d="M268.8 247.466667l-23.04 54.613333c-0.853333 2.133333 0.853333 4.266667 2.986667 4.266667H294.4c2.133333 0 3.84-2.133333 2.986667-4.266667L274.346667 247.466667c-0.853333-2.56-4.693333-2.56-5.546667 0zM33.28 759.04v33.28c0 8.96 5.973333 14.933333 14.933333 14.933333 8.96 0 14.933333-8.96 14.933334-14.933333v-33.28c0-8.96-8.96-14.933333-14.933334-14.933333-5.973333 0-14.933333 8.96-14.933333 14.933333zM63.146667 548.266667c0-8.96-8.96-14.933333-14.933334-14.933334-5.973333 0-14.933333 8.96-14.933333 14.933334v33.28c0 8.96 8.96 14.933333 14.933333 14.933333 5.973333 0 14.933333-8.96 14.933334-14.933333v-33.28zM63.146667 442.88c0-8.96-8.96-14.933333-14.933334-14.933333-5.973333 0-14.933333 8.96-14.933333 14.933333v33.28c0 8.96 8.96 14.933333 14.933333 14.933333 5.973333 0 14.933333-8.96 14.933334-14.933333v-33.28zM63.146667 337.493333c0-8.96-8.96-14.933333-14.933334-14.933333-5.973333 0-14.933333 8.96-14.933333 14.933333v33.28c0 8.96 8.96 14.933333 14.933333 14.933334 5.973333 0 14.933333-8.96 14.933334-14.933334v-33.28zM110.933333 945.066667v-14.933334c0-8.96-8.96-17.92-17.92-17.92h-24.32V857.6c0-8.96-8.96-17.92-14.933333-17.92-5.973333 0-14.933333 8.96-14.933333 17.92v54.186667H20.906667c-8.96 0-17.92 8.96-17.92 17.92v72.106666c0 11.946667 8.96 20.906667 17.92 20.906667h72.106666c8.96 0 17.92-8.96 17.92-17.92v-14.933333h48.213334c8.96-2.986667 17.92-11.946667 17.92-20.906667 0-8.96-14.933333-23.893333-14.933334-23.893333H110.933333zM63.146667 229.12c0-8.96-8.96-14.933333-14.933334-14.933333-5.973333 0-14.933333 8.96-14.933333 17.92v33.28c0 8.96 5.973333 14.933333 14.933333 14.933333 8.96 0 14.933333-8.96 14.933334-14.933333v-36.266667zM261.973333 957.866667h-32.853333c-8.96 0-14.933333 8.96-14.933333 14.933333 0 5.973333 8.96 14.933333 14.933333 14.933333h33.28c8.96 0 14.933333-8.96 14.933333-14.933333 0-5.973333-2.986667-14.933333-15.36-14.933333zM548.266667 66.133333h33.28c8.96 0 14.933333-8.96 14.933333-14.933333 0-5.973333-8.96-14.933333-14.933333-14.933333h-33.28c-8.96 0-14.933333 8.96-14.933334 14.933333 0 5.973333 5.973333 14.933333 14.933334 14.933333zM442.88 66.133333h33.28c8.96 0 14.933333-8.96 14.933333-14.933333 0-5.973333-8.96-14.933333-14.933333-14.933333h-33.28c-8.96 0-14.933333 8.96-14.933333 14.933333 0 5.973333 5.973333 14.933333 14.933333 14.933333zM653.653333 66.133333h33.28c8.96 0 14.933333-8.96 14.933334-14.933333 0-5.973333-8.96-14.933333-14.933334-14.933333h-33.28c-8.96 0-14.933333 8.96-14.933333 14.933333 0 5.973333 5.973333 14.933333 14.933333 14.933333zM63.146667 653.653333c0-8.96-8.96-14.933333-14.933334-14.933333-5.973333 0-14.933333 8.96-14.933333 14.933333v33.28c0 8.96 8.96 14.933333 14.933333 14.933334 5.973333 0 14.933333-8.96 14.933334-14.933334v-33.28zM759.04 66.133333h33.28c8.96 0 14.933333-5.973333 14.933333-14.933333 0-8.96-8.96-14.933333-14.933333-14.933333h-33.28c-8.96 0-14.933333 8.96-14.933333 14.933333 0 5.973333 5.973333 14.933333 14.933333 14.933333zM18.346667 108.373333h14.933333v48.213334c2.986667 9.386667 11.946667 18.346667 21.333333 18.346666 8.96 0 23.893333-17.92 23.893334-17.92V108.373333h11.946666c8.96 0 17.92-8.96 17.92-17.92v-23.893333h48.213334c8.96 0 14.933333-8.96 14.933333-14.933333 3.413333-12.373333-2.56-18.346667-14.506667-18.346667H108.8V18.346667c0-8.96-9.386667-18.346667-18.346667-18.346667H18.346667C9.386667 0 0 9.386667 0 18.346667v72.106666c0 8.96 9.386667 17.92 18.346667 17.92zM337.493333 66.133333h33.28c8.96 0 14.933333-8.96 14.933334-14.933333 0-5.973333-8.96-14.933333-14.933334-14.933333h-33.28c-8.96 0-14.933333 8.96-14.933333 14.933333-0.426667 5.973333 5.973333 14.933333 14.933333 14.933333zM232.106667 66.133333h33.28c8.96 0 14.933333-8.96 14.933333-14.933333 0-5.973333-5.973333-17.92-14.933333-17.92h-33.28c-8.96 0-14.933333 8.96-14.933334 17.92-0.426667 8.96 2.56 14.933333 14.933334 14.933333zM987.733333 264.96v-35.84c0-8.96-8.96-14.933333-14.933333-14.933333-8.96 0-14.933333 8.96-14.933333 14.933333v33.28c0 11.946667 5.973333 17.92 14.933333 17.92 8.96 0 14.933333-9.386667 14.933333-15.36zM957.866667 581.12c0 8.96 8.96 14.933333 14.933333 14.933333 5.973333 0 14.933333-8.96 14.933333-14.933333v-33.28c0-8.96-8.96-14.933333-14.933333-14.933333-5.973333 0-14.933333 8.96-14.933333 14.933333v33.28zM957.866667 475.733333c0 8.96 8.96 14.933333 14.933333 14.933334 5.973333 0 14.933333-8.96 14.933333-14.933334v-33.28c0-8.96-8.96-14.933333-14.933333-14.933333-5.973333 0-14.933333 8.96-14.933333 14.933333v33.28zM957.866667 370.346667c0 8.96 8.96 14.933333 14.933333 14.933333 5.973333 0 14.933333-8.96 14.933333-14.933333v-32.853334c0-8.96-8.96-14.933333-14.933333-14.933333-5.973333 0-14.933333 8.96-14.933333 14.933333v32.853334zM957.866667 686.506667c0 8.96 8.96 14.933333 14.933333 14.933333 5.973333 0 14.933333-8.96 14.933333-14.933333v-33.28c0-8.96-8.96-14.933333-14.933333-14.933334-5.973333 0-14.933333 8.96-14.933333 14.933334v33.28zM1005.226667 0.426667h-72.106667c-8.96 0-17.92 8.96-17.92 17.92v14.933333h-48.213333c-8.96 2.986667-17.92 11.946667-17.92 20.906667 0 8.96 17.92 23.893333 17.92 23.893333h48.213333v11.946667c0 8.96 8.96 17.92 17.92 17.92h27.306667V162.133333c0 8.96 8.96 17.92 14.933333 17.92 5.973333 0 14.933333-8.96 14.933333-17.92V108.8h14.933334c8.96 0 17.92-5.973333 17.92-17.92V18.773333c0.426667-8.96-8.533333-18.346667-17.92-18.346666zM957.866667 792.32c0 8.96 8.96 14.933333 14.933333 14.933333 5.973333 0 14.933333-8.96 14.933333-14.933333v-33.28c0-8.96-8.96-14.933333-14.933333-14.933333-5.973333 0-14.933333 8.96-14.933333 14.933333v33.28zM370.346667 957.866667h-32.853334c-8.96 0-14.933333 8.96-14.933333 14.933333 0 5.973333 8.96 14.933333 14.933333 14.933333h33.28c8.96 0 14.933333-8.96 14.933334-14.933333 0-5.973333-5.973333-14.933333-15.36-14.933333zM1008.213333 915.2h-14.933333v-48.213333c-2.986667-8.96-11.946667-17.92-20.906667-17.92-8.96 0-23.893333 17.92-23.893333 17.92v48.213333h-14.933333c-8.96 0-17.92 8.96-17.92 17.92v27.306667h-48.213334c-8.96 0-14.933333 8.96-14.933333 14.933333 0 5.973333 8.96 14.933333 14.933333 14.933333h48.213334v14.933334c0 8.96 8.96 17.92 17.92 17.92h72.106666c8.96 0 17.92-8.96 17.92-17.92v-69.12c2.56-11.946667-6.4-20.906667-15.36-20.906667zM581.546667 957.866667h-33.28c-8.96 0-14.933333 8.96-14.933334 14.933333 0 5.973333 8.96 14.933333 14.933334 14.933333h33.28c8.96 0 14.933333-8.96 14.933333-14.933333 0-5.973333-5.973333-14.933333-14.933333-14.933333zM475.733333 957.866667h-33.28c-8.96 0-14.933333 8.96-14.933333 14.933333 0 5.973333 8.96 14.933333 14.933333 14.933333h33.28c8.96 0 14.933333-8.96 14.933334-14.933333 0.426667-5.973333-5.546667-14.933333-14.933334-14.933333zM686.933333 957.866667h-33.28c-8.96 0-14.933333 8.96-14.933333 14.933333 0 5.973333 8.96 14.933333 14.933333 14.933333h33.28c8.96 0 14.933333-8.96 14.933334-14.933333 0-5.973333-5.973333-14.933333-14.933334-14.933333zM792.32 957.866667h-33.28c-8.96 0-14.933333 8.96-14.933333 14.933333 0 5.973333 8.96 14.933333 14.933333 14.933333h33.28c8.96 0 14.933333-8.96 14.933333-14.933333 0-5.973333-5.973333-14.933333-14.933333-14.933333z"  /></svg>