<?xml version="1.0" standalone="no"?><!DOCTYPE svg PUBLIC "-//W3C//DTD SVG 1.1//EN" "http://www.w3.org/Graphics/SVG/1.1/DTD/svg11.dtd"><svg class="icon" width="200px" height="199.80px" viewBox="0 0 1025 1024" version="1.1" xmlns="http://www.w3.org/2000/svg"><path d="M718.08 176.213333H130.133333c-71.68 0-130.133333 57.6-130.133333 128.426667v585.386667c0 70.826667 58.026667 128.426667 130.133333 128.426666h587.946667c71.68 0 130.133333-57.6 130.133333-128.426666V305.066667c0-71.253333-58.453333-128.853333-130.133333-128.853334zM320.426667 344.746667c33.706667 0 60.586667 26.453333 60.586666 60.16 0 33.706667-26.453333 62.72-60.586666 62.72s-60.586667-26.453333-60.586667-60.16c2.56-36.266667 29.44-62.72 60.586667-62.72zM219.306667 881.92c-32.426667 0-61.013333-28.16-61.013334-60.586667 0-32.426667 28.586667-60.586667 61.013334-60.586666 32.426667 0 61.013333 28.16 61.013333 60.586666-0.426667 32.426667-28.586667 60.586667-61.013333 60.586667z m202.666666 0c-32.426667 0-61.013333-28.16-61.013333-60.586667 0-32.426667 28.586667-60.586667 61.013333-60.586666 32.426667 0 61.013333 28.16 61.013334 60.586666 0 32.426667-28.586667 60.586667-61.013334 60.586667z m202.666667 0c-32.426667 0-61.013333-28.16-61.013333-60.586667 0-32.426667 28.586667-60.586667 61.013333-60.586666 32.426667 0 61.013333 28.16 61.013333 60.586666 0 32.426667-28.586667 60.586667-61.013333 60.586667z m95.573333-248.32H141.226667c-7.253333 0-14.506667-4.693333-19.2-9.813333-7.253333-9.813333-4.693333-26.453333 4.693333-33.706667l82.346667-60.16c17.066667-11.946667 36.266667-11.946667 53.333333-2.56l89.6 55.466667 193.706667-120.32c19.2-11.946667 43.52-9.813333 58.026666 4.693333l133.12 125.013333c4.693333 4.693333 7.253333 11.946667 7.253334 16.64 0.426667 14.933333-9.386667 24.746667-23.893334 24.746667z"  /><path d="M197.973333 117.333333c-6.4 0-11.946667-5.546667-11.093333-11.946666 4.693333-35.413333 28.586667-67.84 61.013333-82.773334C274.773333 10.24 308.053333 0.853333 337.493333 0.853333h552.96c28.16 0 56.746667 10.24 81.066667 24.746667 23.466667 14.08 37.973333 39.253333 45.226667 65.28s7.253333 53.76 7.253333 81.066667l1.28 547.413333c0 31.146667 0 62.72-8.533333 93.013333-11.52 41.386667-48.213333 87.04-95.146667 83.626667-5.546667-0.426667-9.813333-5.546667-9.813333-11.093333l-1.28-587.093334c0-52.053333-2.986667-110.506667-41.386667-145.493333-34.133333-31.146667-84.48-32.853333-130.56-32.853333-180.053333-0.426667-360.533333-1.28-540.586667-2.133334z"  /></svg>