<?xml version="1.0" standalone="no"?><!DOCTYPE svg PUBLIC "-//W3C//DTD SVG 1.1//EN" "http://www.w3.org/Graphics/SVG/1.1/DTD/svg11.dtd"><svg class="icon" width="200px" height="200.00px" viewBox="0 0 1024 1024" version="1.1" xmlns="http://www.w3.org/2000/svg"><path d="M833.28 96l-640 0C140.35456 96 97.28 139.07456 97.28 192l0 640c0 52.93056 43.07456 96 96 96l640 0c52.93056 0 96-43.06944 96-96l0-640C929.28 139.07456 886.21056 96 833.28 96zM736.15872 389.79072l-256.22528 259.00544c-0.09728 0.06656-0.18944 0.09728-0.256 0.18944-0.09728 0.06656-0.128 0.19456-0.19456 0.26112-2.048 2.01728-4.54144 3.2-6.94272 4.54144-1.18272 0.64-2.14528 1.664-3.39456 2.18112-3.84 1.536-7.90528 2.33472-11.96544 2.33472-4.096 0-8.22272-0.79872-12.09856-2.40128-1.28-0.51712-2.27328-1.63328-3.52256-2.304-2.36544-1.34656-4.864-2.56-6.88128-4.54656-0.06144-0.06656-0.09728-0.18944-0.15872-0.256-0.06144-0.09728-0.19456-0.09728-0.256-0.18944l-126.01856-129.50528c-12.31872-12.64128-12.032-32.93184 0.64-45.25056 12.64128-12.288 32.896-12.06272 45.25056 0.64L457.40544 580.608 690.688 344.80128c12.416-12.57472 32.70144-12.70272 45.24544-0.256C748.48256 356.992 748.61056 377.24672 736.15872 389.79072z" /></svg>