<?xml version="1.0" standalone="no"?><!DOCTYPE svg PUBLIC "-//W3C//DTD SVG 1.1//EN" "http://www.w3.org/Graphics/SVG/1.1/DTD/svg11.dtd"><svg t="1574429060720" class="icon" viewBox="0 0 1024 1024" version="1.1" xmlns="http://www.w3.org/2000/svg" p-id="11248" xmlns:xlink="http://www.w3.org/1999/xlink" width="32" height="32"><defs><style type="text/css"></style></defs><path d="M892.67451323 17.89286526h-763.54974152c-62.37214846 0-113.11804871 50.74590025-113.1180487 113.11804871v763.54974152c0 62.37214846 50.74590025 113.11804871 113.1180487 113.1180487h763.54974152c62.37214846 0 113.11804871-50.74590025 113.11804871-113.1180487v-763.54974152c0-62.37214846-50.74590025-113.11804871-113.11804871-113.11804871zM811.60664304 333.52459757l-362.76457623 362.76457624c-14.61015893 14.61015893-38.6484401 14.61015893-53.25989357 0l-185.38953134-185.38953134c-14.61015893-14.61015893-14.61015893-38.6484401 0-53.25989357s38.6484401-14.61015893 53.25989357 0l158.67932318 158.67932319 336.05695716-336.05695716c14.61015893-14.61015893 38.6484401-14.61015893 53.25989356 0 14.92602627 14.61015893 14.92602627 38.49050643 0.15793367 53.25989357z" p-id="11249"></path></svg>