<?xml version="1.0" standalone="no"?><!DOCTYPE svg PUBLIC "-//W3C//DTD SVG 1.1//EN" "http://www.w3.org/Graphics/SVG/1.1/DTD/svg11.dtd"><svg class="icon" width="200px" height="200.00px" viewBox="0 0 1024 1024" version="1.1" xmlns="http://www.w3.org/2000/svg"><path d="M919.893333 0.853333H104.106667C49.493333 0.853333 2.133333 48.213333 2.133333 102.826667v817.066666c0 54.613333 47.36 101.973333 101.973334 101.973334h815.786666c54.613333 0 101.973333-47.36 101.973334-101.973334V103.253333c0-55.04-47.36-102.4-101.973334-102.4z m29.013334 901.12c0 25.6-21.76 47.36-47.36 47.36H122.453333c-25.6 0-47.36-21.76-47.36-47.36V121.173333c0-25.6 21.76-47.36 47.36-47.36h775.68c29.013333 0 50.773333 21.76 50.773334 47.36v780.8z m0 0"  /><path d="M839.68 840.106667h-72.96v-36.693334h72.96v-72.96h-109.226667v-36.693333h145.493334v145.92h-36.266667z m-655.36 0h-36.266667v-145.92h109.226667v36.693333H184.32v72.96h109.226667v36.693333H184.32z m-36.266667-401.493334h728.32v145.92H148.053333v-145.92z m0-255.146666h728.32v145.92H148.053333V183.466667z m436.906667 510.72h109.226667v36.693333h-109.226667v-36.693333z m-145.92 0h109.226667v36.693333h-109.226667v-36.693333z m-145.493333 0h109.226666v36.693333H293.546667v-36.693333z m36.266666 109.226666h109.226667v36.693334H329.813333v-36.693334z m145.92 0h109.226667v36.693334h-109.226667v-36.693334z m145.493334 0h109.226666v36.693334h-109.226666v-36.693334z m0 0"  /></svg>