<?xml version="1.0" standalone="no"?><!DOCTYPE svg PUBLIC "-//W3C//DTD SVG 1.1//EN" "http://www.w3.org/Graphics/SVG/1.1/DTD/svg11.dtd"><svg class="icon" width="200px" height="200.00px" viewBox="0 0 1024 1024" version="1.1" xmlns="http://www.w3.org/2000/svg"><path d="M832 928l-640 0c-52.92544 0-96-43.06944-96-96l0-640c0-52.92544 43.07456-96 96-96l640 0c52.93056 0 96 43.07456 96 96l0 640C928 884.93056 884.93056 928 832 928zM192 160c-17.63328 0-32 14.36672-32 32l0 640c0 17.664 14.36672 32 32 32l640 0c17.664 0 32-14.336 32-32l0-640c0-17.63328-14.336-32-32-32L192 160z" /></svg>