<?xml version="1.0" standalone="no"?><!DOCTYPE svg PUBLIC "-//W3C//DTD SVG 1.1//EN" "http://www.w3.org/Graphics/SVG/1.1/DTD/svg11.dtd"><svg class="icon" width="200px" height="200.00px" viewBox="0 0 1024 1024" version="1.1" xmlns="http://www.w3.org/2000/svg"><path d="M840.533333 1024l0-91.733333-93.866667 0L746.666667 1024 840.533333 1024zM840.533333 1024"  /><path d="M981.333333 1024c23.466667 0 42.666667-19.2 42.666667-42.666667l0-51.2-91.733333 0L932.266667 1024"  /><path d="M371.2 93.866667l0 279.466667L93.866667 373.333333 93.866667 93.866667 371.2 93.866667M422.4 0 42.666667 0C19.2 0 0 19.2 0 42.666667l0 379.733333c0 23.466667 19.2 42.666667 42.666667 42.666667l379.733333 0c23.466667 0 42.666667-19.2 42.666667-42.666667L465.066667 42.666667C465.066667 19.2 445.866667 0 422.4 0L422.4 0 422.4 0zM422.4 0"  /><path d="M185.6 232.533333c0 12.8 4.266667 23.466667 12.8 32 8.533333 8.533333 21.333333 12.8 32 12.8 12.8 0 23.466667-4.266667 32-12.8 8.533333-8.533333 12.8-21.333333 12.8-32 0-12.8-4.266667-23.466667-12.8-32-8.533333-8.533333-21.333333-12.8-32-12.8-12.8 0-23.466667 4.266667-32 12.8C189.866667 206.933333 185.6 219.733333 185.6 232.533333L185.6 232.533333zM185.6 232.533333"  /><path d="M930.133333 93.866667l0 279.466667L652.8 373.333333 652.8 93.866667 930.133333 93.866667M981.333333 0 601.6 0c-23.466667 0-42.666667 19.2-42.666667 42.666667l0 379.733333c0 23.466667 19.2 42.666667 42.666667 42.666667L981.333333 465.066667c23.466667 0 42.666667-19.2 42.666667-42.666667L1024 42.666667C1024 19.2 1004.8 0 981.333333 0L981.333333 0 981.333333 0zM981.333333 0"  /><path d="M744.533333 232.533333c0 12.8 4.266667 23.466667 12.8 32 8.533333 8.533333 21.333333 12.8 32 12.8 12.8 0 23.466667-4.266667 32-12.8 8.533333-8.533333 12.8-21.333333 12.8-32 0-12.8-4.266667-23.466667-12.8-32-8.533333-8.533333-21.333333-12.8-32-12.8-12.8 0-23.466667 4.266667-32 12.8C750.933333 206.933333 744.533333 219.733333 744.533333 232.533333L744.533333 232.533333zM744.533333 232.533333"  /><path d="M371.2 652.8l0 279.466667L93.866667 932.266667 93.866667 652.8 371.2 652.8M422.4 558.933333 42.666667 558.933333c-23.466667 0-42.666667 19.2-42.666667 42.666667L0 981.333333c0 23.466667 19.2 42.666667 42.666667 42.666667l379.733333 0c23.466667 0 42.666667-19.2 42.666667-42.666667L465.066667 601.6C465.066667 578.133333 445.866667 558.933333 422.4 558.933333L422.4 558.933333 422.4 558.933333zM422.4 558.933333"  /><path d="M185.6 791.466667c0 12.8 4.266667 23.466667 12.8 32 8.533333 8.533333 21.333333 12.8 32 12.8 12.8 0 23.466667-4.266667 32-12.8 8.533333-8.533333 12.8-21.333333 12.8-32 0-12.8-4.266667-23.466667-12.8-32-8.533333-8.533333-21.333333-12.8-32-12.8-12.8 0-23.466667 4.266667-32 12.8C189.866667 768 185.6 780.8 185.6 791.466667L185.6 791.466667zM185.6 791.466667"  /><path d="M981.333333 558.933333l-51.2 0 0 185.6-93.866667 0 0-185.6-234.666667 0c-23.466667 0-42.666667 19.2-42.666667 42.666667L558.933333 981.333333c0 23.466667 19.2 42.666667 42.666667 42.666667l51.2 0 0-93.866667 0-93.866667 0-93.866667 93.866667 0 0 93.866667L1024 836.266667 1024 601.6C1024 578.133333 1004.8 558.933333 981.333333 558.933333L981.333333 558.933333zM981.333333 558.933333"  /></svg>