<?xml version="1.0" standalone="no"?><!DOCTYPE svg PUBLIC "-//W3C//DTD SVG 1.1//EN" "http://www.w3.org/Graphics/SVG/1.1/DTD/svg11.dtd"><svg class="icon" width="200px" height="200.00px" viewBox="0 0 1024 1024" version="1.1" xmlns="http://www.w3.org/2000/svg"><path d="M1006.687394 6.987206c12.601925 9.108322 17.717558 21.335933 15.346899 36.433289L876.051595 919.566224c-1.871573 10.979895-7.985378 19.589131-18.216644 25.702936-5.365176 2.994517-11.478981 4.616547-17.717558 4.491776-4.741318-0.124772-9.357865-0.998172-13.724869-2.869746l-258.401852-105.556719-137.99732 168.316802c-6.862435 8.734008-16.095528 13.225783-27.948824 13.225783-4.242232 0.124772-8.609236-0.623858-12.601925-2.245887-7.111978-2.495431-13.101011-7.236749-17.343244-13.350555-4.367004-6.113805-6.612891-13.350554-6.612891-20.836846V787.183624l492.722798-604.019008-609.508956 527.658827-225.337395-92.455708C9.263731 613.002559 1.652668 602.646521 0.529724 587.050079c-0.748629-15.222127 5.365176-26.451566 18.216644-33.688315L967.883446 5.739491c5.739491-3.368831 11.853296-5.115633 18.216645-5.115633 7.735835 0 14.59827 2.121116 20.587303 6.363348z m0 0" /></svg>