<?xml version="1.0" standalone="no"?><!DOCTYPE svg PUBLIC "-//W3C//DTD SVG 1.1//EN" "http://www.w3.org/Graphics/SVG/1.1/DTD/svg11.dtd"><svg t="1565333130652" class="icon" viewBox="0 0 1087 1024" version="1.1" xmlns="http://www.w3.org/2000/svg" p-id="10527" xmlns:xlink="http://www.w3.org/1999/xlink" width="212.3046875" height="200"><defs><style type="text/css"></style></defs><path d="M913.090092 7.411031c-5.622161-5.622161-14.822061-7.411031-22.99975-4.59995L12.777639 357.518343c-7.155478 2.811081-12.777639 10.222111-12.777639 18.3998 0 8.177689 4.59995 15.58872 12.010981 19.422012l293.8857 138.254055 245.075118-179.653606c9.1999-7.411031 22.233092 4.59995 14.822062 14.822061l-179.653606 245.075119 138.254055 293.8857c3.577739 7.411031 10.98877 12.010981 19.422011 12.010981h1.022212c8.177689 0 15.58872-5.622161 18.3998-12.777639L917.690042 29.38857c2.811081-7.155478 1.022211-16.610931-4.59995-21.977539z m0 0" fill="currentColor" p-id="10528"></path><path d="M1079.966059 111.421013c-5.622161-5.622161-14.822061-7.411031-22.99975-4.59995L179.653606 461.528325c-7.411031 2.811081-12.777639 10.222111-12.777639 18.399801 0 8.177689 4.59995 15.58872 12.010981 19.422011l293.8857 138.254056 245.075118-179.653607c9.1999-7.411031 22.233092 4.59995 14.822062 14.822062l-179.653606 245.075118 138.254055 293.8857c3.577739 7.411031 10.98877 12.010981 19.422011 12.010981h1.022212c8.177689 0 15.58872-5.622161 18.3998-12.777639L1084.566009 133.654105c3.577739-7.411031 1.788869-15.844273-4.59995-22.233092z m0 0" fill="" p-id="10529"></path></svg>