<?xml version="1.0" standalone="no"?><!DOCTYPE svg PUBLIC "-//W3C//DTD SVG 1.1//EN" "http://www.w3.org/Graphics/SVG/1.1/DTD/svg11.dtd"><svg t="1586414705344" class="icon" viewBox="0 0 1073 1024" version="1.1" xmlns="http://www.w3.org/2000/svg" p-id="4297" xmlns:xlink="http://www.w3.org/1999/xlink" width="209.5703125" height="200"><defs><style type="text/css"></style></defs><path d="M50.157761 0H1022.697201c33.221374 0 50.157761 16.936387 50.157761 50.157761s-16.936387 50.157761-50.157761 50.157761H50.157761C16.936387 100.315522 0 84.030534 0 50.157761 0 16.936387 16.936387 0 50.157761 0zM50.157761 461.19084h167.409669c33.221374 0 50.157761 16.936387 50.157761 50.157761s-16.936387 50.157761-50.157761 50.15776H50.157761c-33.221374 0-50.157761-16.936387-50.157761-50.15776s16.936387-50.157761 50.157761-50.157761zM855.287532 461.19084H1022.697201c33.221374 0 50.157761 16.936387 50.157761 50.157761s-16.936387 50.157761-50.157761 50.15776h-167.409669c-33.221374 0-50.157761-16.936387-50.157761-50.15776s16.936387-50.157761 50.157761-50.157761zM452.722646 461.19084h167.40967c33.221374 0 50.157761 16.936387 50.15776 50.157761s-16.936387 50.157761-50.15776 50.15776H452.722646c-33.221374 0-50.157761-16.936387-50.157761-50.15776s16.936387-50.157761 50.157761-50.157761zM50.157761 923.684478H1022.697201c33.221374 0 50.157761 16.936387 50.157761 50.157761s-16.936387 50.157761-50.157761 50.157761H50.157761c-33.221374 0-50.157761-16.936387-50.157761-50.157761s16.936387-50.157761 50.157761-50.157761z" p-id="4298"></path></svg>