<?xml version="1.0" standalone="no"?><!DOCTYPE svg PUBLIC "-//W3C//DTD SVG 1.1//EN" "http://www.w3.org/Graphics/SVG/1.1/DTD/svg11.dtd"><svg t="1586414722988" class="icon" viewBox="0 0 1024 1024" version="1.1" xmlns="http://www.w3.org/2000/svg" p-id="4431" xmlns:xlink="http://www.w3.org/1999/xlink" width="200" height="200"><defs><style type="text/css"></style></defs><path d="M980.647399 57.102413V296.493298c0 31.296515-25.256836 57.102413-57.102413 57.102412h-823.592493C68.655978 353.046649 43.399142 327.789812 43.399142 296.493298V57.102413C43.399142 25.256836 68.655978 0 100.501554 0h823.592494c31.296515 0 56.553351 25.256836 56.553351 57.102413z m0 670.404289v239.390885c0 31.296515-25.256836 57.102413-57.102413 57.102413h-823.592493c-31.296515 0-57.102413-25.256836-57.102413-57.102413v-239.390885c0-31.296515 25.256836-57.102413 57.102413-57.102412h823.592493c31.845576 0 57.102413 25.256836 57.102413 57.102412z m-42.82681-240.489008c15.922788 0 28.551206 12.628418 28.551207 28.551207 0 15.922788-12.628418 28.551206-28.551207 28.551206H77.990026c-15.922788 0-28.551206-12.628418-28.551206-28.551206 0-15.922788 12.628418-28.551206 28.551206-28.551207h859.830563z" p-id="4432"></path></svg>