<?xml version="1.0" standalone="no"?><!DOCTYPE svg PUBLIC "-//W3C//DTD SVG 1.1//EN" "http://www.w3.org/Graphics/SVG/1.1/DTD/svg11.dtd"><svg class="icon" width="200px" height="199.03px" viewBox="0 0 1029 1024" version="1.1" xmlns="http://www.w3.org/2000/svg"><path d="M851.41573 986.287141l132.314607-132.314607c48.579276-48.579276 48.579276-127.200999 0-175.780274l-132.314607-131.675406c-48.579276-48.579276-127.200999-48.579276-175.780274 0L543.320849 678.19226c-48.579276 48.579276-48.579276 127.200999 0 175.780274l132.314607 132.314607c48.579276 48.579276 127.200999 48.579276 175.780274 0z m-150.212234-45.383271l-104.828964-104.828964c-38.35206-38.35206-38.35206-100.993758 0-139.345817l104.828964-104.828964c38.35206-38.35206 100.993758-38.35206 139.345817 0l104.828964 104.828964c38.35206 38.35206 38.35206 100.993758 0 139.345817l-104.828964 104.828964c-38.35206 38.35206-100.993758 38.35206-139.345817 0zM442.327091 313.84769V126.561798C442.327091 58.167291 386.716604 2.556804 318.322097 2.556804H131.036205C62.641698 2.556804 7.031211 58.167291 7.031211 126.561798v187.285892c0 68.394507 55.610487 124.004994 124.004994 124.004994h187.285892c68.394507 0 124.004994-55.610487 124.004994-124.004994z m110.581773-187.285892v187.285892c0 68.394507 55.610487 124.004994 124.004994 124.004994h187.285892c68.394507 0 124.004994-55.610487 124.004994-124.004994V126.561798c0-68.394507-55.610487-124.004994-124.004994-124.004994h-187.285892c-68.394507 0-124.004994 55.610487-124.004994 124.004994zM442.327091 859.725343v-187.285892c0-68.394507-55.610487-124.004994-124.004994-124.004994H131.036205c-68.394507 0-124.004994 55.610487-124.004994 124.004994v187.285892c0 68.394507 55.610487 124.004994 124.004994 124.004994h187.285892c68.394507 0 124.004994-55.610487 124.004994-124.004994z" /></svg>