<?xml version="1.0" standalone="no"?><!DOCTYPE svg PUBLIC "-//W3C//DTD SVG 1.1//EN" "http://www.w3.org/Graphics/SVG/1.1/DTD/svg11.dtd"><svg class="icon" width="200px" height="200.00px" viewBox="0 0 1024 1024" version="1.1" xmlns="http://www.w3.org/2000/svg"><path d="M151.66577778 685.39733333c77.71022222-28.89955555 119.58044445-43.12177778 134.59911111-47.90044444 13.99466667-3.75466667 27.19288889-9.67111111 39.25333333-17.74933334 6.82666667-4.096 13.08444445-9.216 18.54577778-15.13244444v-2.61688889c-2.50311111-6.37155555-3.98222222-13.08444445-4.32355555-19.79733333-0.45511111-3.52711111-0.45511111-7.168 0-10.80888889l-17.29422223-15.92888889c-12.06044445-11.15022222-21.61777778-24.68977778-28.10311111-39.70844444-4.32355555-10.35377778-8.64711111-20.25244445-12.06044444-31.06133334v-7.73688888c-8.192-7.39555555-15.58755555-15.58755555-21.95911112-24.576-9.55733333-13.99466667-16.61155555-29.696-20.70755555-46.19377778-6.82666667-20.36622222-9.32977778-41.984-7.28177778-63.488 1.36533333-12.85688889 4.32355555-25.37244445 8.64711111-37.54666667 2.048-6.03022222 4.43733333-11.94666667 7.28177778-17.74933333 0.11377778-22.98311111 1.70666667-45.85244445 4.77866667-68.608 2.73066667-23.552 7.05422222-46.99022222 12.97066667-69.85955556h-8.64711112c-10.92266667 0.11377778-21.73155555 1.25155555-32.31288888 3.41333334-11.264 2.048-22.30044445 5.34755555-32.768 9.89866666-11.49155555 5.57511111-22.30044445 12.40177778-32.3128889 20.25244444-11.37777778 9.216-21.16266667 20.25244445-28.89955555 32.768-9.44355555 14.79111111-16.49777778 30.94755555-21.16266667 47.90044445-4.55111111 16.49777778-7.96444445 33.45066667-9.89866666 50.51733333-2.16177778 18.65955555-3.072 37.31911111-2.61688889 56.09244445-7.05422222 9.55733333-11.15022222 20.93511111-12.06044445 32.768-1.25155555 7.39555555-1.25155555 15.01866667 0 22.41422222 1.93422222 6.71288889 4.77866667 13.08444445 8.64711112 19.00088889 2.61688889 3.64088889 5.46133333 7.168 8.6471111 10.35377778 3.072 2.27555555 6.37155555 3.98222222 9.89866667 5.23377778l6.48533333 22.41422222c2.61688889 6.48533333 4.77866667 12.51555555 7.7368889 19.00088888 2.16177778 5.34755555 5.46133333 10.12622222 9.44355555 14.22222223 7.28177778 6.144 14.22222222 12.85688889 20.70755555 19.79733333 6.82666667 7.39555555 10.46755555 17.18044445 10.35377778 27.19288889v20.25244445c0.11377778 6.37155555-0.91022222 12.62933333-3.072 18.54577777-2.50311111 6.48533333-6.144 12.51555555-10.80888888 17.74933333-6.59911111 7.168-14.10844445 13.42577778-22.41422223 18.54577778-13.312 8.53333333-27.87555555 14.90488889-43.12177777 19.00088889-11.264 3.072-50.06222222 17.29422222-76.3448889 26.73777778v182.95466667h3.86844445c0-10.80888889 2.61688889-22.86933333 4.77866667-38.79822222v-4.32355556c4.096-36.97777778 21.84533333-71.11111111 49.60711111-95.80088889 22.75555555-17.97688889 48.69688889-31.63022222 76.34488889-40.16355555h5.57511111v-1.47911112zM978.48888889 656.49777778c-12.62933333-3.52711111-24.91733333-7.73688889-37.09155556-12.51555556-10.69511111-4.55111111-20.59377778-10.80888889-29.35466666-18.54577777-6.71288889-6.03022222-12.17422222-13.312-15.92888889-21.61777778-2.95822222-7.28177778-4.77866667-15.01866667-5.23377778-22.86933334-0.91022222-12.62933333 0.91022222-25.25866667 5.23377778-37.09155555 1.70666667-3.98222222 3.98222222-7.62311111 6.94044444-10.80888889 2.95822222-3.18577778 6.25777778-5.91644445 9.89866667-8.192l11.264-9.89866667c4.32355555-4.096 7.62311111-9.10222222 9.89866666-14.67733333 3.072-6.03022222 5.57511111-12.17422222 7.7368889-18.54577778 0-7.28177778 4.32355555-15.13244445 6.03022222-22.86933333 5.00622222-1.59288889 9.55733333-4.32355555 13.42577778-7.73688889 3.86844445-4.32355555 7.05422222-9.32977778 9.44355555-14.67733334 3.52711111-7.73688889 5.68888889-16.04266667 6.48533333-24.576 0.91022222-6.59911111 0.91022222-13.312 0-19.79733333-1.25155555-4.43733333-2.84444445-8.76088889-4.77866666-12.97066667-1.024-3.64088889-3.29955555-6.82666667-6.48533334-9.10222222 0.34133333-19.56977778-0.79644445-39.25333333-3.41333333-58.70933333-2.61688889-17.97688889-6.48533333-35.72622222-11.60533333-53.13422222-6.59911111-18.54577778-16.04266667-35.84-28.10311112-51.31377778-5.57511111-7.73688889-12.288-14.56355555-19.79733333-20.25244445-18.432-14.22222222-39.36711111-24.91733333-61.66755555-31.51644444-12.17422222-3.41333333-24.80355555-5.23377778-37.54666667-5.23377778h-17.29422222c6.144 21.39022222 10.58133333 43.12177778 13.42577777 65.19466667 3.072 21.73155555 4.77866667 43.69066667 5.23377778 65.64977778 7.50933333 13.42577778 12.74311111 27.98933333 15.58755556 43.12177777 2.38933333 16.04266667 2.38933333 32.31288889 0 48.35555556-2.16177778 18.31822222-6.94044445 36.18133333-14.22222222 53.13422222-7.85066667 16.61155555-19.11466667 31.40266667-33.22311112 43.12177778L770.27555555 477.86666667v2.61688888c-3.98222222 10.35377778-8.30577778 20.70755555-12.97066666 31.06133334-8.53333333 20.70755555-22.41422222 38.912-40.16355556 52.67911111v19.00088889c0 8.41955555-1.82044445 16.61155555-5.57511111 24.12088889 7.05422222 5.68888889 14.90488889 10.35377778 23.32444445 13.76711111 13.99466667 6.03022222 28.44444445 10.92266667 43.12177778 14.67733333 14.79111111 4.55111111 29.24088889 10.12622222 43.12177777 16.83911111l43.12177778 19.79733334 24.576 10.80888888c21.504 8.64711111 41.52888889 20.36622222 59.50577778 34.92977778 21.39022222 19.00088889 37.20533333 43.46311111 45.73866667 70.76977778 4.89244445 16.72533333 8.07822222 33.90577778 9.44355555 51.31377778 1.82044445 7.05422222 2.73066667 14.336 2.61688889 21.61777778h2.61688889V673.792c-14.10844445-6.48533333-28.44444445-12.288-43.12177778-17.29422222H978.48888889z"  /><path d="M959.94311111 815.67288889c-5.34755555-16.72533333-15.13244445-31.63022222-28.44444444-43.12177778a198.20088889 198.20088889 0 0 0-45.73866667-26.73777778c-16.83911111-6.94044445-91.02222222-43.12177778-109.568-46.19377778-17.408-4.89244445-34.58844445-10.80888889-51.31377778-17.74933333-14.67733333-6.144-28.33066667-14.79111111-40.16355555-25.48622222-9.216-8.30577778-16.61155555-18.432-21.61777778-29.80977778-4.32355555-9.78488889-6.82666667-20.36622222-7.28177778-31.06133333-1.024-17.63555555 1.82044445-35.27111111 8.192-51.76888889 2.27555555-5.46133333 5.46133333-10.35377778 9.44355556-14.67733333 3.86844445-4.20977778 8.30577778-7.96444445 12.97066666-11.264 5.68888889-4.096 11.03644445-8.76088889 15.92888889-13.76711112 5.68888889-5.68888889 10.35377778-12.17422222 13.76711111-19.456 3.86844445-8.64711111 7.28177778-17.29422222 10.80888889-25.94133333 3.41333333-8.64711111 5.57511111-20.70755555 8.192-31.06133333 5.80266667-2.61688889 10.92266667-6.37155555 15.13244445-11.264 5.68888889-5.80266667 10.35377778-12.51555555 13.76711111-19.79733334 4.66488889-10.69511111 7.50933333-22.07288889 8.64711111-33.67822222 1.47911111-8.98844445 1.47911111-18.20444445 0-27.19288888-1.25155555-6.25777778-3.29955555-12.40177778-6.03022222-18.09066667-1.59288889-5.12-4.77866667-9.44355555-9.10222222-12.51555556 0.56888889-26.96533333-1.024-53.93066667-4.77866667-80.66844444-3.072-24.80355555-8.64711111-49.152-16.384-72.93155556-7.50933333-25.6-19.34222222-49.60711111-34.92977778-71.22488889-7.85066667-10.46755555-17.18044445-19.79733333-27.648-27.648-11.71911111-9.78488889-24.34844445-18.20444445-38.00177778-25.03111111-15.01866667-7.168-30.60622222-13.08444445-46.64888889-17.74933333-16.83911111-4.66488889-34.24711111-7.05422222-51.76888888-6.94044444-14.44977778 0.22755555-28.89955555 1.70666667-43.12177778 4.32355555-14.90488889 2.84444445-29.35466667 7.50933333-43.12177778 13.76711111-36.29511111 15.01866667-67.35644445 40.39111111-89.31555556 72.93155556-12.85688889 20.25244445-22.528 42.32533333-28.44444444 65.64977778C321.64977778 207.07555555 316.64355555 256 318.69155555 304.92444445c-4.77866667 6.37155555-8.64711111 13.53955555-11.264 21.16266666-3.072 7.05422222-5.34755555 14.44977778-6.94044444 21.95911111-0.91022222 10.35377778 0.34133333 20.70755555 3.41333334 30.60622223 2.16177778 9.32977778 5.91644445 18.31822222 11.264 26.28266666 3.64088889 5.12 7.62311111 9.78488889 12.06044444 14.22222222 3.98222222 3.18577778 8.53333333 5.46133333 13.42577778 6.94044445l9.44355555 31.51644444c3.072 8.64711111 6.48533333 17.29422222 9.89866667 25.48622223 3.072 7.50933333 7.62311111 14.22222222 13.42577778 19.79733333 10.12622222 8.64711111 19.56977778 17.74933333 28.44444444 27.19288889 9.216 10.24 14.336 23.43822222 14.67733334 37.09155555v28.44444445c-0.11377778 8.64711111-1.59288889 17.29422222-4.32355556 25.48622222-3.64088889 8.87466667-8.76088889 16.95288889-15.13244444 24.12088889-8.87466667 9.67111111-19.00088889 18.09066667-30.2648889 25.03111111a176.95857778 176.95857778 0 0 1-56.54755555 26.28266666c-21.95911111 6.03022222-116.05333333 40.96-136.41955555 48.81066667-19.34222222 6.59911111-37.31911111 16.72533333-53.13422223 29.80977778-15.58755555 15.01866667-25.48622222 35.04355555-28.10311111 56.54755555-5.68888889 25.48622222-7.05422222 51.76888889-3.86844444 77.71022223-0.34133333 17.63555555 5.00622222 34.816 15.13244444 49.152 15.36 7.85066667 31.85777778 13.42577778 48.81066667 16.83911111 129.36533333 26.73777778 261.12 40.27733333 393.10222222 40.61866666 129.47911111 1.59288889 258.50311111-16.15644445 382.74844445-52.6791111 9.89866667-2.73066667 19.11466667-7.73688889 26.73777777-14.67733334 5.00622222-10.12622222 8.30577778-21.04888889 9.44355556-32.31288889 2.16177778-15.01866667 3.072-30.15111111 3.072-45.28355555 0-15.58755555 0-3.072-2.16177778-18.54577778-0.91022222-13.19822222-3.29955555-26.16888889-6.94044445-38.79822222l1.25155556 1.93422222z m-366.36444444 96.71111111c-5.00622222 6.48533333-10.46755555 12.51555555-16.384 18.09066667-5.80266667 5.80266667-12.17422222 10.92266667-19.00088889 15.58755555-4.20977778 3.52711111-9.216 5.80266667-14.67733333 6.48533333-5.00622222-0.91022222-9.78488889-2.95822222-13.76711112-6.03022222-6.82666667-4.66488889-13.312-9.89866667-19.456-15.58755555-6.144-5.68888889-11.83288889-11.83288889-16.83911111-18.54577778-3.75466667-3.75466667-6.144-8.64711111-6.94044444-13.76711111 0.22755555-8.41955555 1.25155555-16.83911111 3.072-25.03111111 0-10.80888889 4.77866667-22.86933333 7.28177777-34.92977778s5.57511111-24.12088889 9.10222223-35.84 4.77866667-17.74933333 7.28177777-26.28266667c-6.37155555-5.68888889-12.06044445-12.288-16.8391111-19.456-3.29955555-4.66488889-5.12-10.24-5.23377778-15.92888888 0.11377778-5.80266667 1.82044445-11.37777778 4.77866666-16.384 2.84444445-5.00622222 6.37155555-9.67111111 10.35377778-13.76711112 4.89244445-5.34755555 10.24-10.24 15.92888889-14.67733333h46.64888889l15.92888889 14.67733333c4.77866667 4.096 8.76088889 9.10222222 11.60533333 14.67733334 3.41333333 4.77866667 5.23377778 10.46755555 5.23377778 16.384-0.22755555 7.05422222-2.50311111 13.99466667-6.48533334 19.79733333-5.23377778 6.71288889-11.15022222 12.74311111-17.74933333 18.09066667 0 7.73688889 4.32355555 16.83911111 6.48533333 28.89955555l7.7368889 35.84c0 11.60533333 4.77866667 22.86933333 6.48533333 33.22311111 1.36533333 6.94044445 2.27555555 13.99466667 2.61688889 21.16266667-0.79644445 5.34755555-3.18577778 10.35377778-6.94044445 14.22222222l-0.22755555-0.91022222z"  /></svg>