<?xml version="1.0" standalone="no"?><!DOCTYPE svg PUBLIC "-//W3C//DTD SVG 1.1//EN" "http://www.w3.org/Graphics/SVG/1.1/DTD/svg11.dtd"><svg class="icon" width="200px" height="200.00px" viewBox="0 0 1024 1024" version="1.1" xmlns="http://www.w3.org/2000/svg"><path d="M862.875574 731.430894c-45.240299 0-85.175741 20.990039-112.019727 53.243643-104.182555-58.945868-208.354272-117.877287-312.538634-176.821349a218.301105 218.301105 0 0 0 22.276066-95.85951c0-33.05737-7.531922-64.290462-20.625184-92.418668l233.87069-150.667337a145.21437 145.21437 0 0 0 79.3236 23.659627c80.792054 0 146.281844-65.491596 146.281844-146.28365C899.444229 65.491596 833.954439 0 753.160579 0s-146.28365 65.491596-146.28365 146.28365c0 24.56996 6.621589 47.360797 17.33787 67.689761-75.210846 48.442721-150.409048 96.885441-225.609057 145.340805a218.673186 218.673186 0 0 0-157.438842-66.74511c-121.198918-0.021675-219.45889 98.193142-219.478758 219.383029-0.021675 121.189887 98.194948 219.448053 219.383029 219.480565a219.424572 219.424572 0 0 0 154.597663-63.67093c107.881686 61.023017 215.750728 122.046034 323.630608 183.069051a147.990524 147.990524 0 0 0-2.709324 26.885529c0 80.790248 65.502433 146.28365 146.28365 146.28365 80.792054 0 146.281844-65.493402 146.281844-146.28365 0.001806-80.79386-65.487984-146.285456-146.280038-146.285456z" /></svg>