<?xml version="1.0" standalone="no"?><!DOCTYPE svg PUBLIC "-//W3C//DTD SVG 1.1//EN" "http://www.w3.org/Graphics/SVG/1.1/DTD/svg11.dtd"><svg class="icon" width="200px" height="200.00px" viewBox="0 0 1024 1024" version="1.1" xmlns="http://www.w3.org/2000/svg"><path d="M114.19273351 407.66886806L932.55767379 95.88724629l-194.84665445 701.47493071-231.62204981-144.76378113a33.718272 33.718272 0 1 0-35.7413683 57.18618932l269.92600678 168.6812754a33.718272 33.718272 0 0 0 50.35261951-19.55659777l224.78848-809.23852801a33.718272 33.718272 0 0 0-44.50811905-40.55184179l-944.11161598 359.661568a33.718272 33.718272 0 0 0-5.84450049 60.10843954l195.20631605 122.01518696a33.718272 33.718272 0 1 0 35.74136831-57.18618932l-137.70542285-86.04903014z"  /><path d="M387.22082131 617.71122379L1005.38914131 65.76558998a33.718272 33.718272 0 0 0-44.95769598-50.26270414L319.78427733 587.49965205V984.74585394a33.718272 33.718272 0 0 0 67.43654398 0v-367.03463015z"  /></svg>