<?xml version="1.0" standalone="no"?><!DOCTYPE svg PUBLIC "-//W3C//DTD SVG 1.1//EN" "http://www.w3.org/Graphics/SVG/1.1/DTD/svg11.dtd"><svg t="1571211590488" class="icon" viewBox="0 0 1024 1024" version="1.1" xmlns="http://www.w3.org/2000/svg" p-id="30035" xmlns:xlink="http://www.w3.org/1999/xlink" width="14" height="14"><defs><style type="text/css"></style></defs><path d="M773.546667 275.626667h192.853333c15.786667 0 23.893333-17.92 12.373333-28.16L747.093333 30.72c-11.52-10.666667-30.293333-2.986667-30.293333 11.946667v180.48c0.426667 29.013333 25.6 52.48 56.746667 52.48zM166.826667 738.56c0 2.986667 0 5.546667 0.426666 8.533333v-17.066666c-0.426667 2.986667-0.426667 5.546667-0.426666 8.533333z m0 0c0 2.986667 0 5.546667 0.426666 8.533333v-17.066666c-0.426667 2.986667-0.426667 5.546667-0.426666 8.533333z" p-id="30036"></path><path d="M971.52 321.28h-274.773333c-21.333333 0-38.4-14.933333-38.4-32.853333V55.466667c0-28.16-22.613333-50.773333-50.773334-50.773334H148.906667C68.693333 4.693333 3.413333 61.44 3.413333 131.413333v762.026667c0 69.973333 65.28 126.72 145.493334 126.72h727.893333c80.213333 0 145.493333-56.746667 145.493333-126.72V372.053333c0-28.16-22.613333-50.773333-50.773333-50.773333z m-232.533333 270.933333l-270.933334 271.36a176.128 176.128 0 0 1-300.8-116.48c-0.426667-2.986667-0.426667-5.546667-0.426666-8.533333s0-5.546667 0.426666-8.533333c1.706667-42.24 19.2-84.053333 51.2-116.48l215.04-215.466667c4.266667-4.693333 9.813333-7.253333 15.786667-8.533333h11.52c5.973333 1.28 11.093333 3.84 15.786667 8.533333 11.946667 11.946667 11.946667 31.146667 0 43.093333l-215.04 215.466667c-45.226667 45.226667-45.226667 118.613333 0 163.84s118.186667 45.226667 163.413333 0l252.16-252.586667a27.306667 27.306667 0 0 0 0-37.973333l-56.746667-56.746667a26.538667 26.538667 0 0 0-37.973333 0l-252.16 252.586667c-7.253333 7.253333-7.253333 18.773333 0 25.6 7.253333 7.253333 18.773333 7.253333 25.6 0l215.04-215.466667c11.946667-11.946667 31.146667-11.946667 43.093333 0s11.946667 31.146667 0 43.093334l-215.04 215.466666c-30.72 30.72-80.64 30.72-111.786666 0-30.72-30.72-30.72-81.066667 0-111.786666l270.933333-271.36c23.893333-23.893333 62.293333-23.893333 86.186667 0l94.72 94.72c11.946667 11.946667 17.92 27.306667 17.92 43.093333s-5.973333 31.146667-17.92 43.093333z" p-id="30037"></path></svg>