<?xml version="1.0" standalone="no"?><!DOCTYPE svg PUBLIC "-//W3C//DTD SVG 1.1//EN" "http://www.w3.org/Graphics/SVG/1.1/DTD/svg11.dtd"><svg t="1579165035538" class="icon" viewBox="0 0 1024 1024" version="1.1" xmlns="http://www.w3.org/2000/svg" p-id="3830" xmlns:xlink="http://www.w3.org/1999/xlink" width="200" height="200"><defs><style type="text/css"></style></defs><path d="M238.340447 411.632754s-0.508189 0 0 0" p-id="3831"></path><path d="M512.254094 454.320596V518.352357s92.998511 21.852109 197.177172-6.606451c0 0 25.917618-64.031762 25.409429-73.179157 0 0-102.654094 56.917122-222.586601 15.753847z" fill="#FFFFFF" p-id="3832"></path><path d="M234.783127 349.125558v-5.590074M937.60794 786.167742c-30.999504-27.950372-73.687345-53.86799-126.538957-76.736476-87.916625-38.114144-174.308685-54.884367-178.374194-55.900745l-20.835732-4.065509-99.604963 149.915633-99.604962-149.407444-20.327544 3.55732c-4.065509 0.508189-90.457568 15.753846-178.882382 52.851613-53.359801 22.360298-96.047643 48.277916-127.047146 76.736476C43.704218 821.740943 22.360298 865.95335 22.360298 913.723077c0 31.507692 4.573697 60.474442 13.212903 87.916625l7.11464 21.852109h936.591563l7.622829-20.835732c9.655583-26.933995 14.737469-56.917122 14.737469-88.933002 0-46.245161-21.852109-88.933002-64.031762-127.555335zM515.811414 534.614392l-0.508188-76.228288s50.818859 16.262035 117.391563 9.655583c44.720596-4.573697 74.703722-10.67196 107.227792-29.474938 0 0-31.507692 79.277419-34.048636 85.883871 1.016377 0 5.590074-1.524566 6.098263-1.524565 54.884367-17.7866 105.195037-48.786104 132.129033-100.62134 12.704715-23.884864 20.327543-51.327047 21.34392-77.752854C871.543424 152.456576 703.333002 0 512.762283 0 322.191563 0 167.702233 154.48933 167.702233 345.06005c0 20.835732 2.032754 41.671464 5.590075 61.490818v5.081886h111.801489c12.704715 128.063524 110.276923 227.668486 229.193052 227.668487 80.293797 0 150.93201-45.736973 192.603474-114.850621-14.737469 5.081886-46.75335 12.704715-90.965757 14.229281 0 0-49.802481 2.032754-100.113152-4.065509z m-3.049131-469.058064c154.48933 0 279.503722 125.014392 279.503722 279.503722 0 31.507692-21.852109 71.146402-49.802481 90.457568-1.016377 0.508189-2.032754 1.016377-3.049132 2.032754 3.55732-17.278412 5.081886-35.065012 5.081886-53.86799 0-141.276427-103.162283-255.618859-230.717618-255.618858-116.883375 0-213.439206 96.047643-228.684863 221.062034H233.258561v-4.573697c0-153.981141 125.014392-278.995533 279.503722-278.995533z" p-id="3833"></path></svg>