<?xml version="1.0" standalone="no"?><!DOCTYPE svg PUBLIC "-//W3C//DTD SVG 1.1//EN" "http://www.w3.org/Graphics/SVG/1.1/DTD/svg11.dtd"><svg t="1571211430921" class="icon" viewBox="0 0 1024 1024" version="1.1" xmlns="http://www.w3.org/2000/svg" p-id="29474" xmlns:xlink="http://www.w3.org/1999/xlink" width="14" height="14"><defs><style type="text/css"></style></defs><path d="M220.891429 146.285714v45.056H146.285714a73.142857 73.142857 0 0 0-73.142857 73.142857V877.714286a73.142857 73.142857 0 0 0 73.142857 73.142857h583.533715a73.142857 73.142857 0 0 0 73.142857-73.142857v-45.056H877.714286a73.142857 73.142857 0 0 0 73.142857-73.142857V146.285714a73.142857 73.142857 0 0 0-73.142857-73.142857H294.034286a73.142857 73.142857 0 0 0-73.142857 73.142857z m50.688-23.844571h628.516571v660.918857h-97.28V264.484571a73.142857 73.142857 0 0 0-73.142857-73.142857H271.652571v-68.900571z m-147.748572 779.117714h628.443429V240.64H123.830857v660.918857zM412.525714 398.555429v147.968H260.534857v49.298285h152.137143v147.968h50.614857V595.821714h152.064v-49.298285H463.286857V398.555429h-50.688z" p-id="29475"></path></svg>