<?xml version="1.0" standalone="no"?><!DOCTYPE svg PUBLIC "-//W3C//DTD SVG 1.1//EN" "http://www.w3.org/Graphics/SVG/1.1/DTD/svg11.dtd"><svg t="1571211499796" class="icon" viewBox="0 0 1024 1024" version="1.1" xmlns="http://www.w3.org/2000/svg" p-id="29702" xmlns:xlink="http://www.w3.org/1999/xlink" width="14" height="14"><defs><style type="text/css"></style></defs><path d="M235.168556 678.278047 235.168556 290.001907l-53.962006 0c-61.049424 0-110.548792 49.499367-110.548792 110.556978l0 442.22996c0 61.048401 49.499367 110.556978 110.548792 110.556978l442.227913 0c61.058634 0 110.559025-49.508577 110.559025-110.556978l0-53.953819L345.717348 788.835026C284.667923 788.835026 235.168556 739.327472 235.168556 678.278047zM842.78424 70.654176 400.55428 70.654176c-61.049424 0-110.548792 49.499367-110.548792 110.556978l0 442.22996c0 61.048401 49.499367 110.556978 110.548792 110.556978l442.22996 0c61.056588 0 110.556978-49.508577 110.556978-110.556978L953.341219 181.211155C953.341219 120.153544 903.840828 70.654176 842.78424 70.654176z" p-id="29703"></path></svg>