<?xml version="1.0" standalone="no"?><!DOCTYPE svg PUBLIC "-//W3C//DTD SVG 1.1//EN" "http://www.w3.org/Graphics/SVG/1.1/DTD/svg11.dtd"><svg class="icon" width="200px" height="200.00px" viewBox="0 0 1024 1024" version="1.1" xmlns="http://www.w3.org/2000/svg"><path d="M881.02937446 3.18677159L277.1631253 3.18677159C203.08886541 3.18677159 142.9706255 63.30501149 142.9706255 137.37927139l0 603.86624914c0 74.07425989 60.11823991 134.19249981 134.1924998 134.19249981l603.86624916 0c74.07425989 0 134.19249981-60.11823991 134.19249981-134.19249981L1015.22187427 137.37927139C1015.22187427 63.30501149 955.10363436 3.18677159 881.02937446 3.18677159zM847.4812495 472.86052092L612.64437484 472.86052092l0 234.83687466C612.64437484 726.21596056 597.61481486 741.24552053 579.09624988 741.24552053S545.54812493 726.21596056 545.54812493 707.69739558L545.54812493 472.86052092 310.71125027 472.86052092C292.19268529 472.86052092 277.1631253 457.83096093 277.1631253 439.31239596S292.19268529 405.764271 310.71125027 405.764271L545.54812493 405.764271 545.54812493 170.92739635C545.54812493 152.40883136 560.57768491 137.37927139 579.09624988 137.37927139S612.64437484 152.40883136 612.64437484 170.92739635L612.64437484 405.764271l234.83687466 0C865.99981448 405.764271 881.02937446 420.79383099 881.02937446 439.31239596S865.99981448 472.86052092 847.4812495 472.86052092zM713.28874969 942.53427025L142.9706255 942.53427025c-37.1042262 0-67.0962499-29.99202371-67.0962499-67.09624991L75.8743756 305.11989616C75.8743756 286.60133118 60.84481561 271.57177119 42.32625065 271.57177119S8.77812569 286.60133118 8.77812569 305.11989616L8.77812569 875.43802034c0 74.07425989 60.11823991 134.19249981 134.19249981 134.19249981l570.31812419 0c18.51856497 0 33.54812495-15.02955998 33.54812497-33.54812494S731.80731467 942.53427025 713.28874969 942.53427025z" /></svg>