<?xml version="1.0" standalone="no"?><!DOCTYPE svg PUBLIC "-//W3C//DTD SVG 1.1//EN" "http://www.w3.org/Graphics/SVG/1.1/DTD/svg11.dtd"><svg class="icon" width="200px" height="200.00px" viewBox="0 0 1024 1024" version="1.1" xmlns="http://www.w3.org/2000/svg"><path d="M839.014708 0.916741H375.012661c-61.683591 0-110.008953 56.314107-110.008952 128.736667h517.696892c29.466684 0 53.694846 29.466684 53.694846 64.433815v638.313851c59.06433 0 110.008953-56.314107 110.008953-128.736667V129.653408c2.619261-69.8033-45.706101-128.736667-107.389692-128.736667zM675.441872 384.376519H184.592403v-64.433815h490.849469v64.433815z m0 190.420258H184.592403v-64.433815h490.849469v64.433815zM130.897557 193.95626c-29.466684 0-53.694846 29.466684-53.694846 64.433815v699.997443c0 34.836168 24.097199 64.433815 53.694846 64.433815h600.858422c29.466684 0 53.694846-29.466684 53.694846-64.433815V255.639852c0-34.836168-24.097199-64.433815-53.694846-64.433815H130.897557v2.750223z m0 0" /></svg>