<?xml version="1.0" standalone="no"?><!DOCTYPE svg PUBLIC "-//W3C//DTD SVG 1.1//EN" "http://www.w3.org/Graphics/SVG/1.1/DTD/svg11.dtd"><svg class="icon" width="200px" height="200.00px" viewBox="0 0 1024 1024" version="1.1" xmlns="http://www.w3.org/2000/svg"><path d="M769.154137 737.150238H254.471549c-20.212989 0-36.55806 17.218472-36.558061 38.429633s16.345071 38.429633 36.558061 38.429633h514.682588c20.212989 0 36.55806-17.218472 36.55806-38.429633s-16.345071-38.429633-36.55806-38.429633zM769.154137 538.763495H254.471549c-20.212989 0-36.55806 17.218472-36.558061 38.429633s16.345071 38.429633 36.558061 38.429633h514.682588c20.212989 0 36.55806-17.218472 36.55806-38.429633s-16.345071-38.429633-36.55806-38.429633z"  /><path d="M941.5884 283.480931L688.676496 0.748629H223.652979C147.542342 0.748629 85.780431 62.635311 85.780431 138.745949v746.133788c0 76.110637 61.886682 137.872548 137.99732 137.872548H803.591081c76.110637 0 137.997319-61.886682 137.997319-137.872548v-601.398806zM640.514683 76.734495l224.463994 240.809065-227.084197 1.996345 2.620203-242.80541z m227.458511 808.145242c0 35.559888-28.946996 64.382113-64.382113 64.382113H223.652979c-35.559888 0-64.382113-28.822225-64.382113-64.382113v-746.133788c0-35.559888 28.946996-64.382113 64.382113-64.382113h341.499696l-0.249544 319.789448h303.070063v490.726453z m0 0"  /></svg>