<?xml version="1.0" standalone="no"?><!DOCTYPE svg PUBLIC "-//W3C//DTD SVG 1.1//EN" "http://www.w3.org/Graphics/SVG/1.1/DTD/svg11.dtd"><svg class="icon" width="200px" height="200.00px" viewBox="0 0 1024 1024" version="1.1" xmlns="http://www.w3.org/2000/svg"><path d="M695.513 57.183c-0.781-0.779-1.565-1.442-2.353-2.183L643.031 4.981C640.273 2.229 634.879 0 630.978 0H215.393c-58.106 0-105.38 47.164-105.38 105.142v465.521h82.471V105.142c0-12.386 10.497-22.854 22.909-22.854h364.366V234.2c0 57.977 47.273 105.144 105.38 105.144h152.377v579.511c0 12.386-10.495 22.857-22.909 22.857H215.393c-12.413 0-22.909-10.472-22.909-22.857v-57.908h-82.471v57.908c0 57.979 47.274 105.145 105.38 105.145h599.214c58.108 0 105.381-47.166 105.381-105.145V288.361c0-3.89-2.234-9.275-4.994-12.028l-50.154-50.042c-0.771-0.813-1.461-1.62-2.282-2.439L695.513 57.183zM662.229 234.2V129.106c0-3.89 2.235-4.816 4.993-2.064L792.54 252.076c2.759 2.752 1.828 4.981-2.068 4.981H685.139c-12.413 0.001-22.91-10.468-22.91-22.857z"  /><path d="M110.013 568.001h82.471v297.005h-82.471M685.619 384.136l-208.803 63.886c-25.298 7.208-45.81 33.601-45.81 58.883V727.145s-15.126-10.188-48.821-5.416c-49.484 7.037-89.6 45.008-89.6 84.859 0 39.854 40.115 64.24 89.6 57.217 49.53-6.977 85.818-43.818 85.818-83.67V592.09c0-17.673 21.239-25.251 21.239-25.251l184.616-57.865s20.423-6.853 20.423 12.04v151.045s-18.817-10.82-52.511-6.73c-49.484 6.006-89.618 43.188-89.618 83.025 0 39.854 40.134 65.088 89.618 59.068 49.528-5.986 89.646-43.17 89.646-83.039V416.857c0-25.313-20.528-39.961-45.811-32.736l0.014 0.015z"  /></svg>