<?xml version="1.0" standalone="no"?><!DOCTYPE svg PUBLIC "-//W3C//DTD SVG 1.1//EN" "http://www.w3.org/Graphics/SVG/1.1/DTD/svg11.dtd"><svg class="icon" width="200px" height="200.00px" viewBox="0 0 1024 1024" version="1.1" xmlns="http://www.w3.org/2000/svg"><path d="M695.841 57.183c-0.781-0.779-1.565-1.442-2.353-2.183L643.359 4.981C640.602 2.229 635.207 0 631.306 0H215.721c-58.106 0-105.38 47.164-105.38 105.142v465.521h82.471V105.142c0-12.386 10.497-22.854 22.909-22.854h364.366V234.2c0 57.977 47.273 105.144 105.38 105.144h152.377v579.511c0 12.386-10.495 22.857-22.909 22.857H215.721c-12.413 0-22.909-10.472-22.909-22.857v-57.908h-82.471v57.908c0 57.979 47.274 105.145 105.38 105.145h599.214c58.108 0 105.381-47.166 105.381-105.145V288.361c0-3.89-2.234-9.275-4.994-12.028l-50.154-50.042c-0.771-0.813-1.461-1.62-2.282-2.439L695.841 57.183zM662.558 234.2V129.106c0-3.89 2.235-4.816 4.993-2.064l125.317 125.034c2.759 2.752 1.828 4.981-2.068 4.981H685.467c-12.413 0.001-22.909-10.468-22.909-22.857z"  /><path d="M110.013 568.001h82.471v297.005h-82.471M459.66 721.534l125.376-62.688c11.535-5.768 11.535-22.257 0-28.023L459.66 568.135c-10.437-5.202-22.69 2.351-22.69 14.01v125.377c-0.001 11.661 12.253 19.213 22.69 14.012z m259.56-264.766H311.437c-25.797 0-46.861 21.252-46.861 47.236v281.627c0 26.107 20.907 47.268 46.861 47.268H719.22c25.798 0 46.861-21.253 46.861-47.268V504.004c0-26.077-20.908-47.236-46.861-47.236zM358.608 785.723c0 8.746-6.707 15.831-15.829 15.831h-31.031c-8.744 0-15.829-6.707-15.829-15.831v-31.026c0-8.746 6.708-15.831 15.829-15.831h31.063c8.713 0 15.797 6.707 15.797 15.831v31.026z m0-125.376c0 8.747-6.707 15.83-15.829 15.83h-31.031c-8.744 0-15.829-6.707-15.829-15.83V629.32c0-8.747 6.708-15.829 15.829-15.829h31.063c8.713 0 15.797 6.706 15.797 15.829v31.027z m0-125.374c0 8.744-6.707 15.829-15.829 15.829h-31.031c-8.744 0-15.829-6.708-15.829-15.829v-31.03c0-8.744 6.708-15.829 15.829-15.829h31.063c8.713 0 15.797 6.709 15.797 15.829v31.03z m282.096 266.581H389.952v-313.44h250.752v313.44z m94.033-15.831c0 8.746-6.707 15.831-15.831 15.831h-31.061c-8.715 0-15.797-6.707-15.797-15.831v-31.026c0-8.746 6.707-15.831 15.83-15.831h31.062c8.714 0 15.797 6.707 15.797 15.831v31.026z m0-125.376c0 8.747-6.707 15.83-15.831 15.83h-31.061c-8.715 0-15.797-6.707-15.797-15.83V629.32c0-8.747 6.707-15.829 15.83-15.829h31.062c8.714 0 15.797 6.706 15.797 15.829v31.027z m0-125.374c0 8.744-6.707 15.829-15.831 15.829h-31.061c-8.715 0-15.797-6.708-15.797-15.829v-31.03c0-8.744 6.707-15.829 15.83-15.829h31.062c8.714 0 15.797 6.709 15.797 15.829v31.03z"  /></svg>