<?xml version="1.0" standalone="no"?><!DOCTYPE svg PUBLIC "-//W3C//DTD SVG 1.1//EN" "http://www.w3.org/Graphics/SVG/1.1/DTD/svg11.dtd"><svg class="icon" width="200px" height="200.00px" viewBox="0 0 1024 1024" version="1.1" xmlns="http://www.w3.org/2000/svg"><path d="M695.841 57.183c-0.781-0.779-1.565-1.442-2.353-2.183L643.359 4.981C640.602 2.229 635.207 0 631.306 0H215.721c-58.106 0-105.38 47.164-105.38 105.142v465.521h82.471V105.142c0-12.386 10.497-22.854 22.909-22.854h364.366V234.2c0 57.977 47.273 105.144 105.38 105.144h152.377v579.511c0 12.386-10.495 22.857-22.909 22.857H215.721c-12.413 0-22.909-10.472-22.909-22.857v-57.908h-82.471v57.908c0 57.979 47.274 105.145 105.38 105.145h599.214c58.108 0 105.381-47.166 105.381-105.145V288.361c0-3.89-2.234-9.275-4.994-12.028l-50.154-50.042c-0.771-0.813-1.461-1.62-2.282-2.439L695.841 57.183zM662.558 234.2V129.106c0-3.89 2.235-4.816 4.993-2.064l125.317 125.034c2.759 2.752 1.828 4.981-2.068 4.981H685.467c-12.413 0.001-22.909-10.468-22.909-22.857z"  /><path d="M110.013 568.001h82.471v297.005h-82.471M389.456 80.675h108.512v72.341H389.456V80.675zM280.943 153.016h108.513v72.342H280.943v-72.342zM389.456 225.358h108.512v72.341H389.456v-72.341zM280.943 297.699h108.513v72.341H280.943v-72.341zM389.456 370.04h108.512v72.341H389.456V370.04zM280.943 442.381h108.513v72.343H280.943v-72.343zM389.456 514.724h108.512v72.339H389.456v-72.339z"  /><path d="M280.943 587.063h217.025v72.342H280.943v-72.342zM280.943 659.405h23.048v72.342h-23.048v-72.342zM473.994 659.405h23.974v72.342h-23.974v-72.342z"  /><path d="M497.968 786.488c0 19.956-16.808 17.532-37.528 17.532H318.47c-20.729 0-37.527 2.667-37.527-17.288v-18.85-36.136h217.024V786.488z"  /></svg>