<?xml version="1.0" standalone="no"?><!DOCTYPE svg PUBLIC "-//W3C//DTD SVG 1.1//EN" "http://www.w3.org/Graphics/SVG/1.1/DTD/svg11.dtd"><svg class="icon" width="200px" height="200.00px" viewBox="0 0 1024 1024" version="1.1" xmlns="http://www.w3.org/2000/svg"><path d="M695.841 57.183c-0.781-0.779-1.565-1.442-2.353-2.183L643.359 4.981C640.602 2.229 635.207 0 631.306 0H215.721c-58.106 0-105.38 47.164-105.38 105.142v465.521h82.471V105.142c0-12.386 10.497-22.854 22.909-22.854h364.366V234.2c0 57.977 47.273 105.144 105.38 105.144h152.377v579.511c0 12.386-10.495 22.857-22.909 22.857H215.721c-12.413 0-22.909-10.472-22.909-22.857v-57.908h-82.471v57.908c0 57.979 47.274 105.145 105.38 105.145h599.214c58.108 0 105.381-47.166 105.381-105.145V288.361c0-3.89-2.234-9.275-4.994-12.028l-50.154-50.042c-0.771-0.813-1.461-1.62-2.282-2.439L695.841 57.183zM662.558 234.2V129.106c0-3.89 2.235-4.816 4.993-2.064l125.317 125.034c2.759 2.752 1.828 4.981-2.068 4.981H685.467c-12.413 0.001-22.909-10.468-22.909-22.857z"  /><path d="M110.013 568.001h82.471v297.005h-82.471M726.074 399.839H303.985c-21.192 0-38.372 17.182-38.372 38.372v383.718c0 21.19 17.18 38.373 38.372 38.373h422.089c21.191 0 38.372-17.183 38.372-38.373V438.211c0-21.19-17.18-38.372-38.372-38.372z m0 422.09H303.985V438.211h422.089v383.718z"  /><path d="M399.915 572.513c21.19 0 38.372-17.182 38.372-38.371 0-21.211-17.181-38.372-38.372-38.372-21.172 0-38.373 17.161-38.373 38.372 0 21.189 17.201 38.371 38.373 38.371zM591.772 551.735l-113.71 172.221L419.1 636.03l-95.93 147.526h383.717L591.772 551.735z"  /></svg>