<?xml version="1.0" standalone="no"?><!DOCTYPE svg PUBLIC "-//W3C//DTD SVG 1.1//EN" "http://www.w3.org/Graphics/SVG/1.1/DTD/svg11.dtd"><svg class="icon" width="200px" height="200.00px" viewBox="0 0 1024 1024" version="1.1" xmlns="http://www.w3.org/2000/svg"><path d="M695.513 57.183c-0.781-0.779-1.565-1.442-2.353-2.183L643.031 4.981C640.273 2.229 634.879 0 630.978 0H215.393c-58.106 0-105.38 47.164-105.38 105.142v465.521h82.471V105.142c0-12.386 10.497-22.854 22.909-22.854h364.366V234.2c0 57.977 47.273 105.144 105.38 105.144h152.377v579.511c0 12.386-10.495 22.857-22.909 22.857H215.393c-12.413 0-22.909-10.472-22.909-22.857v-57.908h-82.471v57.908c0 57.979 47.274 105.145 105.38 105.145h599.214c58.108 0 105.381-47.166 105.381-105.145V288.361c0-3.89-2.234-9.275-4.994-12.028l-50.154-50.042c-0.771-0.813-1.461-1.62-2.282-2.439L695.513 57.183zM662.229 234.2V129.106c0-3.89 2.235-4.816 4.993-2.064L792.54 252.076c2.759 2.752 1.828 4.981-2.068 4.981H685.139c-12.413 0.001-22.91-10.468-22.91-22.857z"  /><path d="M378.041 123.955H552.96V164H378.041v-40.045zM221.476 123.955h120.898v113.649H221.476V123.955zM686.984 790.109h120.898V903.76H686.984V790.109zM378.041 197.559H552.96v40.045H378.041v-40.045zM221.476 271.164H552.96v40.045H221.476v-40.045zM221.476 344.768H552.96v40.045H221.476v-40.045zM221.476 418.373h586.406v40.045H221.476v-40.045zM221.476 491.977h586.406v40.045H221.476v-40.045zM221.476 568h586.406v40.046H221.476V568zM221.476 641.605h586.406v40.045H221.476v-40.045zM221.476 716.504h586.406v40.046H221.476v-40.046zM221.476 790.109h419.931v40.045H221.476v-40.045zM221.476 865.006h419.931v40.045H221.476v-40.045zM110.013 568.001h82.471v297.005h-82.471"  /></svg>