<?xml version="1.0" standalone="no"?><!DOCTYPE svg PUBLIC "-//W3C//DTD SVG 1.1//EN" "http://www.w3.org/Graphics/SVG/1.1/DTD/svg11.dtd"><svg class="icon" width="200px" height="200.00px" viewBox="0 0 1024 1024" version="1.1" xmlns="http://www.w3.org/2000/svg"><path d="M518.4 570.24c57.6 0 104.96-44.8 104.96-100.48 0-55.68-46.72-100.48-104.96-100.48-58.24 0-104.96 44.8-104.96 100.48 0.64 55.68 47.36 100.48 104.96 100.48z"  /><path d="M960 106.88H537.6c-17.28 0-32-6.4-44.8-19.2L424.32 19.84c-10.88-12.8-27.52-19.2-44.8-19.2H64c-34.56 0-61.44 25.6-64 59.52v734.08c1.92 33.92 28.8 59.52 64 59.52h896c36.48 0 64-27.52 64-64V170.88c0-35.84-27.52-64-64-64zM257.28 435.2c1.92-10.88 13.44-22.4 24.32-24.32l8.32-1.92c20.48-5.76 38.4-18.56 49.92-37.76 11.52-18.56 14.08-40.32 8.96-60.16l-2.56-7.04c-3.2-10.88 1.28-25.6 10.24-32.64 0 0 7.68-6.4 30.72-19.2 22.4-12.8 32.64-16 32.64-16 10.88-3.84 26.88 0 34.56 8.32l5.76 5.76c15.36 13.44 35.84 22.4 58.24 22.4s43.52-8.32 58.24-22.4l5.76-6.4c8.32-8.32 23.68-12.16 34.56-8.32 0 0 9.6 3.2 32.64 16 22.4 12.8 30.72 19.2 30.72 19.2 8.96 7.04 13.44 21.76 10.24 32.64l-2.56 7.68c-5.12 19.84-1.92 40.96 8.96 60.16 11.52 18.56 29.44 31.36 49.28 37.12l8.32 1.92c11.52 2.56 22.4 13.44 24.32 24.32 0 0 1.92 9.6 1.92 35.2 0 24.96-1.92 35.2-1.92 35.2-1.92 10.88-13.44 21.76-24.32 24.32l-7.68 1.92c-20.48 5.76-38.4 18.56-49.92 37.76-11.52 18.56-14.08 40.32-8.96 59.52l2.56 7.68c3.2 10.88-1.28 25.6-10.24 32.64 0 0-7.68 6.4-30.72 19.2-22.4 12.16-32 16-32 16a35.84 35.84 0 0 1-34.56-8.32l-5.76-5.76c-15.36-14.08-35.84-22.4-58.88-22.4s-43.52 8.32-58.88 22.4l-5.12 5.76c-8.32 8.32-23.68 12.16-34.56 8.32 0 0-9.6-3.2-32.64-16-22.4-12.8-30.72-19.2-30.72-19.2a32.96 32.96 0 0 1-10.24-32.64l2.56-7.68c5.12-19.84 1.92-40.96-8.96-60.16-11.52-19.2-29.44-32-49.92-37.76l-7.68-1.28a35.456 35.456 0 0 1-24.96-24.32s-1.92-9.6-1.92-35.2c0-24.96 1.92-34.56 1.92-34.56z"  /></svg>