<?xml version="1.0" standalone="no"?><!DOCTYPE svg PUBLIC "-//W3C//DTD SVG 1.1//EN" "http://www.w3.org/Graphics/SVG/1.1/DTD/svg11.dtd"><svg class="icon" width="200px" height="181.40px" viewBox="0 0 1129 1024" version="1.1" xmlns="http://www.w3.org/2000/svg"><path d="M1117.147081 407.190225L634.883089 23.325388c-39.853975-29.658772-94.382863-29.658772-134.236838 0L12.82124 407.190225C1.544728 413.678081-3.089455 427.580631 2.317092 439.475034c3.707347 10.349676 12.975713 17.764369 23.943279 19.000151h56.228089v472.377734c-0.617891 24.870116 9.268366 48.967868 27.032735 66.268819 17.918841 17.30095 42.171067 26.414844 67.041182 25.024589h281.140444c7.26022 0.463418 14.211495-2.317092 19.309096-7.414693 5.097601-5.097601 7.723639-12.203349 7.414693-19.309097V798.7787c-0.154473-21.16277 8.187057-41.398703 23.325389-56.228089 15.138332-14.674913 35.68321-22.707497 56.691507-21.935134h5.56102c42.171067-0.463418 76.92744 33.057173 78.008749 75.22824v199.887766c-0.463418 7.26022 2.317092 14.211495 7.414693 19.309096s12.203349 7.723639 19.309096 7.414693h281.140444c24.252225 1.081309 47.886559-8.34153 64.878564-25.796952 16.992005-17.455423 25.64248-41.398703 23.788807-65.650928V455.076784H1098.301403c12.048876 2.317092 24.097752-4.170765 28.886408-15.447277 4.325238-10.504148 1.081309-22.553025-7.723638-29.5043l-2.317092-2.934982z" /></svg>