<?xml version="1.0" standalone="no"?><!DOCTYPE svg PUBLIC "-//W3C//DTD SVG 1.1//EN" "http://www.w3.org/Graphics/SVG/1.1/DTD/svg11.dtd"><svg class="icon" width="200px" height="200.00px" viewBox="0 0 1024 1024" version="1.1" xmlns="http://www.w3.org/2000/svg"><path d="M960 106.88H537.6c-17.28 0-32-6.4-44.8-19.2L424.32 19.2C413.44 6.4 396.8 0 379.52 0H64C28.8 0 1.92 25.6 0 60.16v734.08c1.92 33.92 28.8 59.52 64 59.52h896c35.2 0 64-28.8 64-64V170.88c0-35.2-28.8-64-64-64zM562.56 573.44c16.64-16 39.04-26.24 64-25.6 48.64 0.64 87.68 40.96 87.68 89.6 0 49.28-40.32 88.96-88.96 88.96-45.44 0-83.2-34.56-88.32-78.72a16.96 16.96 0 0 0-8.96-14.08L364.8 542.72a9.472 9.472 0 0 0-8.32 0c-14.08 7.68-29.44 11.52-46.08 11.52-48-1.28-87.04-41.6-86.4-89.6 0-49.28 40.32-88.96 88.96-88.96 23.68 0 45.44 9.6 61.44 24.96 3.2 2.56 7.04 3.2 10.24 1.28l149.12-87.04c1.92-1.28 2.56-2.56 2.56-4.48 0-49.92 40.96-90.24 91.52-88.96 47.36 1.28 85.76 39.68 87.04 87.04 1.28 49.92-39.04 91.52-88.96 91.52-21.76 0-41.6-7.68-57.6-21.12a13.76 13.76 0 0 0-15.36-1.92l-147.2 85.76a7.04 7.04 0 0 0-3.84 6.4c0 5.12-0.64 9.6-1.92 14.72-0.64 3.2 0.64 6.4 3.84 7.68l148.48 82.56c3.2 2.56 7.68 1.92 10.24-0.64z" /></svg>