<?xml version="1.0" standalone="no"?><!DOCTYPE svg PUBLIC "-//W3C//DTD SVG 1.1//EN" "http://www.w3.org/Graphics/SVG/1.1/DTD/svg11.dtd"><svg t="1583288738135" class="icon" viewBox="0 0 1024 1024" version="1.1" xmlns="http://www.w3.org/2000/svg" p-id="8977" xmlns:xlink="http://www.w3.org/1999/xlink" width="200" height="200"><defs><style type="text/css"></style></defs><path d="M512 2.27555555c-284.28060446 0-509.72444445 226.02638222-509.72444445 509.72444445s226.02638222 509.72444445 509.72444445 509.72444445 509.72444445-226.02638222 509.72444445-509.72444445S796.28060445 2.27555555 512 2.27555555zM817.83466666 388.50104889L453.74577778 694.33571555l0 0c-7.57304889 7.57304889-14.56355555 7.57304889-29.12711111 7.5730489-7.57304888 0-22.13660444-7.57304889-29.12711112-14.56355556l0 0-138.06250666-174.76266667c-14.56355555-14.56355555-7.57304889-36.70016 7.57304889-51.26371555 14.56355555-14.56355555 36.70016-7.57304889 51.26371555 7.57304888l124.08149334 145.63555556L774.144 329.66428445c14.56355555-14.56355555 36.70016-7.57304889 51.26371555 7.57304888C839.97127111 351.80088889 832.39822222 373.93749333 817.83466666 388.50104889z" p-id="8978"></path></svg>