<?xml version="1.0" standalone="no"?><!DOCTYPE svg PUBLIC "-//W3C//DTD SVG 1.1//EN" "http://www.w3.org/Graphics/SVG/1.1/DTD/svg11.dtd"><svg t="1581774620617" class="icon" viewBox="0 0 1024 1024" version="1.1" xmlns="http://www.w3.org/2000/svg" p-id="4979" xmlns:xlink="http://www.w3.org/1999/xlink" width="200" height="200"><defs><style type="text/css"></style></defs><path d="M989.86666667 512c0-266.24-211.62666667-477.86666667-477.86666667-477.86666667S34.13333333 245.76 34.13333333 512s211.62666667 477.86666667 477.86666667 477.86666667 477.86666667-211.62666667 477.86666667-477.86666667zM703.14666667 750.93333333L512 559.78666667 320.85333333 750.93333333c-13.65333333 13.65333333-34.13333333 13.65333333-47.78666666 0-13.65333333-13.65333333-13.65333333-34.13333333 0-47.78666666L464.21333333 512 273.06666667 320.85333333c-13.65333333-13.65333333-13.65333333-34.13333333 0-47.78666666 13.65333333-13.65333333 34.13333333-13.65333333 47.78666666 0L512 464.21333333 703.14666667 273.06666667c13.65333333-13.65333333 34.13333333-13.65333333 47.78666666 0 13.65333333 13.65333333 13.65333333 34.13333333 0 47.78666666L559.78666667 512 750.93333333 703.14666667c13.65333333 13.65333333 13.65333333 34.13333333 0 47.78666666-13.65333333 13.65333333-34.13333333 13.65333333-47.78666666 0z" p-id="4980"></path></svg>