<?xml version="1.0" standalone="no"?><!DOCTYPE svg PUBLIC "-//W3C//DTD SVG 1.1//EN" "http://www.w3.org/Graphics/SVG/1.1/DTD/svg11.dtd"><svg class="icon" width="200px" height="200.00px" viewBox="0 0 1024 1024" version="1.1" xmlns="http://www.w3.org/2000/svg"><path d="M926.22247253 804.43619555c5.82542222 39.61287111 39.61869653 33.78744889 45.44411876 51.26371556 0 11.0624768-5.82542222 51.26371555-22.71914667 56.50659556-16.89372445 0-39.61287111-5.82542222-56.50659555 0-11.0624768 5.82542222-22.71332125 11.06830222-28.53874347 22.71914666-11.06830222 28.53874347 11.0624768 51.25789013 0 62.32619236-16.89372445 11.06830222-51.26954098 28.54456889-62.33201778 16.89372444-16.89372445-16.89372445-16.89372445-39.61869653-51.26371555-39.61869653-45.44411875 0-45.44411875 45.44411875-68.15744 45.44411875-22.71914667 0-62.33201778-16.89372445-62.33201778-33.7932743 5.82542222-22.71332125 16.89372445-39.60704569-5.82542222-62.32619236-28.54456889-22.71914667-62.33201778 0-73.98286222-11.06830222-16.88789902-11.06830222-22.71332125-39.61287111-16.88789903-56.50077014 5.82542222-16.89372445 45.43829333-16.89372445 45.43829333-62.3378432 0-33.78162347-39.61287111-39.60704569-45.43829333-62.32619235-5.82542222-16.89372445 5.82542222-45.44411875 22.71332125-51.26954098 28.54456889-11.0624768 45.43829333 11.06830222 73.98286222-11.0624768 16.89372445-16.88789902 11.06830222-56.50659555 11.06830222-68.15744 5.82542222-16.89372445 28.53874347-22.71914667 45.43829334-22.71914667 33.78744889 0 22.71332125 39.61869653 68.15744 45.44411876 45.43829333 0 39.61287111-16.89372445 62.32619235-45.44411876 28.54456889 0 51.26954098 11.06830222 56.50659555 22.71914667 11.06830222 22.71914667-11.0624768 56.50659555 22.71914667 79.22574222 28.53874347 16.89372445 56.50659555-5.82542222 73.98286223 0 11.0624768 5.82542222 16.88789902 22.71914667 22.71332124 45.44411876-11.0624768 33.19325582-62.33201778 27.3678336-56.50659556 78.63737457z m-204.46649458-113.59573333c-136.31488 33.78744889-85.05116445 232.43434667 45.43829334 210.29774223 131.072-28.55039431 113.59573333-238.84231111-45.43829334-210.29774223z m-232.43434666-198.64107235c-136.31488 0-244.08519111-107.77031111-244.08519111-244.08519112s107.77031111-244.08519111 244.08519111-244.0851911c136.30905458 0 244.07936569 107.77031111 244.07936569 244.0851911 0.00582542 130.48945778-107.76448569 244.08519111-244.07936569 244.08519112z m198.64689778 56.50077013s-90.88241209 0-85.05698987 62.33201778c5.82542222 68.15744-85.05116445 16.88789902-101.93906347 73.98286222-22.71914667 68.15161458 11.0624768 56.50077013 28.53874347 101.94488889 11.06830222 28.54456889-45.43829333 45.43829333-39.61287111 96.70200889 11.06830222 68.15744 68.15744 33.79327431 85.05116444 73.98286222 11.06830222 33.78744889-28.53874347 56.50659555-119.42115555 56.50659555-73.9770368 0-215.54062222 0-266.80433778-5.82542222 0 0-147.38318222-5.82542222-147.38318222-101.94488888 0 0-5.82542222-142.14030222 85.05116444-244.08519112 0 0 96.70200889-124.66403555 260.98474098-124.66403555l300.59178667 11.06830222z" /></svg>