<?xml version="1.0" standalone="no"?><!DOCTYPE svg PUBLIC "-//W3C//DTD SVG 1.1//EN" "http://www.w3.org/Graphics/SVG/1.1/DTD/svg11.dtd"><svg class="icon" width="200px" height="200.00px" viewBox="0 0 1024 1024" version="1.1" xmlns="http://www.w3.org/2000/svg"><path d="M428.3958643 860.80741768H145.3753073c-38.37566907 0-69.89853923-31.52287018-69.89854055-69.8985392V233.09112152c0-38.37566907 31.52287018-69.89853923 69.89854055-69.8985392H428.3958643V93.97932154H145.3753073c-76.75133812 0-139.11180001 62.36046187-139.11180002 139.11179998v557.81775696c0 76.75133812 62.36046187 139.11180001 139.11180002 139.11179998H428.3958643v-69.21326078z m400.20340348 0h50.02542492c38.37566907 0 69.89853923-31.52287018 69.89854055-69.8985392H1017.73649272c0 76.75133812-62.36046187 139.11180001-139.11180002 139.11179998h-50.02542492v-69.21326078z m-69.8985392 0v69.89854059h-158.29963458v-69.89854059h158.29963458z m189.82250467-139.79707844v-174.06106897H1017.73649272v174.06106897h-69.21325947z m0-243.95960951V302.98966076H1017.73649272v174.06106897h-69.21325947z m0-243.95960821c0-38.37566907-31.52287018-69.89853923-69.89854055-69.8985392h-50.02542492V93.97932154h50.02542492c76.75133812 0 139.11180001 62.36046187 139.11180002 139.11179998h-69.21325947z m-189.82250467-69.8985392h-158.29963458V93.97932154h158.29963458v69.21326078zM484.58880838 24.08078227h69.89853922v975.83843546H484.58880838V24.08078227z m0 0"  /><path d="M249.53783703 325.60389405h60.98990238L435.24866188 699.08138567h-56.87822251l-29.46703222-93.88333337h-137.05595943L181.69513577 698.39610595h-56.87822255L249.53783703 325.60389405z m-21.92895356 229.56873331H332.45669297l-51.39598579-163.78187262h-2.05583927l-51.39598444 163.78187262zM626.44172614 325.60389405h149.39099634c32.20815125 0 58.24878335 8.90863684 76.06605838 26.7259119 17.13199529 16.4467155 25.35535234 39.06094882 25.35535234 67.15742151 0 21.24367379-4.79695829 38.37566907-13.0203154 53.45182372-8.90863684 13.70559645-21.92895355 24.6700726-37.6903893 30.83759172 21.24367379 4.79695829 37.69038932 14.39087623 48.65486543 29.46703089 10.27919638 14.39087623 15.76143576 34.94927027 15.76143573 60.30462263 0 37.69038932-11.64975718 65.10158095-33.57871077 82.91885596-19.18783451 14.39087623-46.59902614 21.92895355-81.54829641 21.92895357h-150.07627615V325.60389405z m53.45182503 50.02542628v106.90364879h81.54829644c22.61423331 0 39.06094882-4.79695829 48.65486539-13.02031672 8.90863684-8.90863684 14.39087623-23.29951308 14.39087625-42.48734762 0-17.81727501-4.79695829-30.83759041-14.39087625-38.37566904-10.27919638-8.2233571-25.35535234-12.33503696-47.28430594-12.33503565l-82.91885589-0.68527976z m0 156.92907371v115.81228563h88.40109401c19.87311428 0 36.31982979-3.42639882 47.28430589-10.96447615 14.39087623-9.59391658 21.92895355-23.98479285 21.92895357-45.2284666 0-21.24367379-5.48223802-36.31982979-15.76143444-45.91374639-10.96447747-9.59391658-28.09647138-14.39087623-52.08126552-14.39087625l-89.77165351 0.68527976z m0 0"  /></svg>