<?xml version="1.0" standalone="no"?><!DOCTYPE svg PUBLIC "-//W3C//DTD SVG 1.1//EN" "http://www.w3.org/Graphics/SVG/1.1/DTD/svg11.dtd"><svg t="1581773780488" class="icon" viewBox="0 0 1190 1024" version="1.1" xmlns="http://www.w3.org/2000/svg" p-id="3600" xmlns:xlink="http://www.w3.org/1999/xlink" width="232.421875" height="200"><defs><style type="text/css"></style></defs><path d="M1196.50338913 573.10960567l-146.47629-381.532048c-5.336113-20.810839-26.14695201-36.01876-52.56070802-36.01876h-277.47785297v110.45753h235.05575799l104.854612 277.477853h-178.22616002c-31.74987001 0-57.896821 26.14695201-57.89682099 57.896822v57.896821H384.34705812v-57.896821c0-31.74987001-26.14695201-57.896821-57.89682099-57.896822H148.22407713l104.854612-277.477853h235.055758V155.82560366h-277.477853c-26.14695201 0-41.62167801 15.207921-52.560709 36.01876001L11.61959613 573.10960567c0 5.336113-5.336113 10.939031-5.336113 20.81083899v350.84940103c0 31.74987001 26.14695201 57.896821 57.89682101 57.89682098h1062.15320498c31.74987001 0 57.896821-26.14695201 57.89682101-57.89682098l6.670141-346.31370502c2.134445-7.737363 3.201668-9.871808 5.60291799-25.346535z m0 0" p-id="3601"></path><path d="M432.37207113 387.41288867c0 15.207921 5.60291798 31.74987001 15.20792101 37.085982l131.26836899 131.268369c10.939031 10.939031 26.14695201 15.207921 37.08598199 15.207921 15.207921 0 31.74987001-5.336113 36.01876-15.207921l131.268369-131.268369c10.939031-10.939031 15.207921-26.14695201 15.20791999-37.085982 0-31.74987001-26.14695201-57.896821-57.89682098-57.896821-15.207921 0-31.74987001 5.60291798-37.08598201 15.207921l-37.08598199 37.085982V36.56348767c0-31.74987001-26.14695201-57.896821-57.89682199-57.896821C576.71391612-21.33333333 550.56696412 4.81361867 550.56696412 36.56348767v345.246483l-37.08598199-37.085982c-10.939031-10.939031-26.14695201-15.207921-37.085983-15.207921-17.609171 5.336113-44.02292901 26.14695201-44.022928 57.896821z m0 0" p-id="3602"></path></svg>