<?xml version="1.0" standalone="no"?><!DOCTYPE svg PUBLIC "-//W3C//DTD SVG 1.1//EN" "http://www.w3.org/Graphics/SVG/1.1/DTD/svg11.dtd"><svg class="icon" width="200px" height="200.00px" viewBox="0 0 1024 1024" version="1.1" xmlns="http://www.w3.org/2000/svg"><path d="M362.474498 627.133204M73.591065 278.392498c-29.520337 0-53.537334-24.016996-53.537334-53.53631 0-29.520337 24.016996-53.537334 53.537334-53.537334l876.816846 0c29.521361 0 53.537334 24.016996 53.537334 53.537334 0 29.519314-24.015973 53.53631-53.537334 53.53631L73.591065 278.392498zM73.591065 592.350003c-29.520337 0-53.537334-24.01802-53.537334-53.541427 0-29.520337 24.016996-53.537334 53.537334-53.537334l876.816846 0c29.521361 0 53.537334 24.016996 53.537334 53.537334 0 29.523407-24.015973 53.541427-53.537334 53.541427L73.591065 592.350003zM73.591065 903.797337c-29.520337 0-53.537334-24.015973-53.537334-53.537334 0-29.521361 24.016996-53.537334 53.537334-53.537334l876.816846 0c29.521361 0 53.537334 24.015973 53.537334 53.537334 0 29.521361-24.015973 53.537334-53.537334 53.537334L73.591065 903.797337z" /></svg>