<?xml version="1.0" standalone="no"?><!DOCTYPE svg PUBLIC "-//W3C//DTD SVG 1.1//EN" "http://www.w3.org/Graphics/SVG/1.1/DTD/svg11.dtd"><svg class="icon" width="200px" height="200.00px" viewBox="0 0 1024 1024" version="1.1" xmlns="http://www.w3.org/2000/svg"><path d="M511.15910356 348.11652661c-78.53999109 0-138.60070425 60.0607145-138.60070425 138.60070425s60.0607145 138.60070425 138.60070425 138.60070427 138.60070425-60.05935204 138.60070427-138.60070427S589.69909464 348.11652661 511.15910356 348.11652661zM511.15910356 717.71840688c-129.36038473 0-231.00117465-101.64078993-231.00117464-231.0011747 0-129.36038473 101.64078993-231.00117465 231.00117464-231.00117464s231.00117465 101.64078993 231.00117466 231.00117464C742.16027822 616.07761693 640.51948964 717.71840688 511.15910356 717.71840688zM511.15910356 140.21478829c-231.00117465 0-429.66259343 143.22086401-508.20258452 346.50244389 78.53999109 203.28157852 277.20140986 346.50244388 508.20258452 346.50244392s429.66259343-143.22086401 508.20258453-346.50244392C940.82169699 283.43565234 742.16027822 140.21478829 511.15910356 140.21478829z" /></svg>