<?xml version="1.0" standalone="no"?><!DOCTYPE svg PUBLIC "-//W3C//DTD SVG 1.1//EN" "http://www.w3.org/Graphics/SVG/1.1/DTD/svg11.dtd"><svg class="icon" width="200px" height="200.00px" viewBox="0 0 1024 1024" version="1.1" xmlns="http://www.w3.org/2000/svg"><path d="M508.10114339 348.18739974l143.01401857 143.01401861c0-4.61269866 0-4.61269866 0-9.22675422 0-78.42809467-59.97322662-138.4013213-138.40132126-138.40132132C512.71520027 348.18739974 512.71520027 348.18739974 508.10114339 348.18739974zM309.7265968 385.09441928l69.19998085 69.20134046c0 13.84081111 0 23.06756667 0 32.29432088 0 78.42673641 59.97322662 138.39996301 138.40132128 138.39996303 9.22675421 0 18.45350977 0 32.29296262-4.61405695l69.19998087 69.20134047c-32.29296266 18.45350977-64.58728354 27.68026399-101.49430178 27.68026396-129.17456709 0-230.66751052-101.49430173-230.66751053-230.66751051C286.6603884 449.68170283 295.88714392 417.38874019 309.7265968 385.09441928zM55.99287919 131.36070165l106.10700039 106.1070004 18.45350977 18.45350976c-78.42673641 59.97322662-138.4013213 138.39996301-170.69428394 230.66751053 78.42673641 202.98724521 276.80128296 346.00126514 507.4701518 346.00126514 69.19998084 0 138.4013213-13.84081111 202.98724522-36.90701954l18.45350977 18.45350978 133.78726437 133.78726437 59.97322663-59.97322661-816.5643987-816.56439874L55.99287919 131.36070165zM517.32789893 255.92121181c129.17456709 0 230.66751052 101.49430173 230.66751054 230.66751053 0 27.68026399-4.61405691 59.97322662-18.45350976 83.04079331l133.78726437 133.78726436c69.19998084-59.97458489 124.56051016-133.78726441 156.85483106-216.82805767-78.42673641-202.98860483-276.80128296-346.0026234-507.47015179-346.00262337-64.58728354 0-124.56051016 13.83945287-184.53509503 32.29296258l101.49430171 101.49430179C457.35467233 260.53390912 489.64763495 255.92121181 517.32789893 255.92121181z" /></svg>