<?xml version="1.0" standalone="no"?><!DOCTYPE svg PUBLIC "-//W3C//DTD SVG 1.1//EN" "http://www.w3.org/Graphics/SVG/1.1/DTD/svg11.dtd"><svg class="icon" width="200px" height="170.24px" viewBox="0 0 1203 1024" version="1.1" xmlns="http://www.w3.org/2000/svg"><path d="M721.720824 1020.652501c-15.231121 2.0085-19.415495 1.506375-30.127493 1.506374-49.877738 0-90.215103-40.337365-90.215103-90.215103 0-49.877738 40.337365-90.215103 90.215103-90.215103 10.711997 0 15.398496 0.502125 30.127493-3.012749 168.379209-15.398496 300.772802-155.323962 300.772801-327.72017 0-182.60608-148.126839-330.732919-330.732919-330.732919-172.396208 0-312.321674 132.226218-327.72017 300.772802h177.417457L270.645309 781.808434 0 481.035633h181.936581C197.502452 212.900948 419.441648 0 691.593331 0c282.361556 0 511.163125 228.968944 511.163125 511.163125 0 271.984309-212.733573 493.923504-481.035632 509.489376z m0 0" /></svg>