<?xml version="1.0" standalone="no"?><!DOCTYPE svg PUBLIC "-//W3C//DTD SVG 1.1//EN" "http://www.w3.org/Graphics/SVG/1.1/DTD/svg11.dtd"><svg class="icon" width="200px" height="200.00px" viewBox="0 0 1024 1024" version="1.1" xmlns="http://www.w3.org/2000/svg"><path d="M951.63933118 2.01837581h-879.27866236c-38.79377459 0-70.34229299 31.54851842-70.34229301 70.34229301v879.27866236c0 38.79377459 31.54851842 70.34229299 70.34229301 70.34229301h879.27866236c38.79377459 0 70.34229299-31.54851842 70.34229301-70.34229301v-879.27866236c0-38.79377459-31.54851842-70.34229299-70.34229301-70.34229301z m-879.27866236 949.62095537v-879.27866236h879.27866236l0.07034229 879.27866236H72.36066882z"  /><path d="M354.71463289 160.28853506a35.17114649 35.17114649 0 0 0-35.17114651 35.17114649v116.38132376H195.45968155a35.17114649 35.17114649 0 0 0 0 70.34229299h159.25495134a35.17114649 35.17114649 0 0 0 35.17114647-35.1711465V195.45968155a35.17114649 35.17114649 0 0 0-35.17114647-35.17114649zM811.90436616 311.84100531H687.85573247V195.45968155a35.17114649 35.17114649 0 1 0-70.34229299 0v151.55247025a35.17114649 35.17114649 0 0 0 35.1711465 35.1711465h159.21978018a35.17114649 35.17114649 0 1 0 0-70.34229299zM354.71463289 652.68458598H195.45968155a35.17114649 35.17114649 0 1 0 0 70.34229298h124.08380483v116.41649491a35.17114649 35.17114649 0 1 0 70.34229298 0V687.85573247a35.17114649 35.17114649 0 0 0-35.17114647-35.17114649zM811.90436616 652.68458598H652.68458598a35.17114649 35.17114649 0 0 0-35.1711465 35.17114649v151.5876414a35.17114649 35.17114649 0 1 0 70.34229299 0V723.02687896h124.04863369a35.17114649 35.17114649 0 1 0 0-70.34229298z"  /></svg>