<?xml version="1.0" standalone="no"?><!DOCTYPE svg PUBLIC "-//W3C//DTD SVG 1.1//EN" "http://www.w3.org/Graphics/SVG/1.1/DTD/svg11.dtd"><svg class="icon" width="200px" height="186.01px" viewBox="0 0 1101 1024" version="1.1" xmlns="http://www.w3.org/2000/svg"><path d="M688.244678 1022.464768c72.770015 0.307046 144.618891-16.58051 209.712743-49.434483l110.536732 44.368216c26.252474 10.593103 56.189505-2.149325 66.629085-28.401799 5.21979-13.202999 4.912744-28.094753-1.228186-40.990705L1033.211394 861.87946c44.061169-56.189505 68.164318-125.582009 68.471365-196.816791-0.153523-177.31934-150.29925-324.855172-346.655473-352.642879 0-0.614093-0.153523-1.074663-0.153523-1.688756-20.87916-1.535232-42.065367-2.456372-63.098051-2.456371-227.521439 0-411.902849 159.203598-411.902848 355.406297 0 32.853973 3.991604 66.782609 11.360719 100.864767 50.202099 148.917541 209.252174 257.91904 397.011095 257.919041z m133.258171-372.447377c2.149325-1.381709 4.452174-2.609895 6.755022-3.531034 2.456372-0.921139 4.912744-1.688756 7.522639-2.302849 5.066267-0.921139 10.286057-0.921139 15.352324 0 2.609895 0.46057 5.066267 1.381709 7.522638 2.302849 2.302849 0.921139 4.605697 2.149325 6.755023 3.531034 10.90015 7.369115 17.501649 19.650975 17.501649 32.853973 0 10.43958-4.145127 20.418591-11.514243 27.94123-1.842279 1.842279-3.838081 3.531034-5.987406 4.912743-2.149325 1.535232-4.452174 2.763418-6.755023 3.684558-2.456372 0.921139-4.912744 1.688756-7.522638 2.149325-2.609895 0.614093-5.21979 0.921139-7.676162 0.92114-2.609895 0-5.21979-0.307046-7.676162-0.92114-2.609895-0.46057-5.066267-1.074663-7.522639-2.149325-2.302849-1.074663-4.605697-2.302849-6.755022-3.684558-2.149325-1.381709-4.145127-3.070465-5.987407-4.912743-7.369115-7.369115-11.514243-17.501649-11.667766-27.94123 0.307046-13.202999 6.755022-25.484858 17.655173-32.853973z m-124.814393-6.601499c21.8003 0 39.608996 17.655172 39.608995 39.608996 0 21.8003-17.655172 39.608996-39.608995 39.608995-21.8003 0-39.608996-17.655172-39.608996-39.608995 0.153523-21.953823 17.808696-39.608996 39.608996-39.608996zM521.97901 655.083658c1.842279-1.842279 3.838081-3.531034 5.987407-5.066267 2.149325-1.381709 4.452174-2.609895 6.755022-3.531034 2.456372-0.921139 4.912744-1.688756 7.522639-2.302849 5.066267-0.921139 10.286057-0.921139 15.352324 0 2.609895 0.46057 5.066267 1.381709 7.522638 2.302849 2.302849 0.921139 4.605697 2.149325 6.755023 3.531034 10.90015 7.369115 17.501649 19.650975 17.501649 32.853973 0 10.43958-4.145127 20.418591-11.514243 27.94123-1.842279 1.842279-3.838081 3.531034-5.987406 4.912743-2.149325 1.535232-4.452174 2.763418-6.755023 3.684558-2.456372 0.921139-4.912744 1.688756-7.522638 2.149325-5.066267 1.074663-10.286057 1.074663-15.352324 0-2.609895-0.307046-5.066267-1.074663-7.522639-2.149325-2.302849-1.074663-4.605697-2.302849-6.755022-3.684558-2.149325-1.381709-4.145127-3.070465-5.987407-4.912743-7.369115-7.369115-11.514243-17.501649-11.514242-27.94123 0-10.43958 4.145127-20.418591 11.514242-27.787706z m0 0"  /><path d="M691.775712 265.595202c19.497451 0 38.687856 1.074663 57.571215 3.223988C717.414093 116.217091 562.969715 0.153523 377.667166 0.153523 169.489655 0.153523 0 146.768216 0 327.465067c0.307046 64.786807 21.953823 127.577811 61.716342 178.854573L21.646777 591.064468c-11.053673 22.414393-1.842279 49.434483 20.572114 60.488156 6.447976 3.223988 13.510045 4.75922 20.572113 4.605697 5.833883 0 11.667766-1.074663 17.194603-3.377511l107.466267-43.14003c14.584708 7.369115 29.629985 13.817091 44.982309 19.343928C252.69925 425.412894 450.590705 265.595202 691.775712 265.595202z m0 0"  /></svg>