<?xml version="1.0" standalone="no"?><!DOCTYPE svg PUBLIC "-//W3C//DTD SVG 1.1//EN" "http://www.w3.org/Graphics/SVG/1.1/DTD/svg11.dtd"><svg class="icon" width="200px" height="200.00px" viewBox="0 0 1024 1024" version="1.1" xmlns="http://www.w3.org/2000/svg"><path d="M13.50093446 78.55172156c0-39.77102122 32.31956579-72.00081043 71.91103385-72.00081042h861.67553426A71.94694448 71.94694448 0 0 1 1018.99853643 78.55172156v717.85346657A71.87512323 71.87512323 0 0 1 947.05159195 868.40599855H661.34663048l-98.87991598 123.47869658c-24.81424439 30.9729172-65.07005909 31.11655973-89.97408006 0.25137441L372.60722086 868.40599855H85.32219174c-39.68124466 0-71.82125727-32.21183389-71.82125728-72.00081042V78.55172156zM516.24973544 545.21034077a107.73188592 107.73188592 0 1 0 0-215.46377185 107.73188592 107.73188592 0 0 0 0 215.46377185z m-287.28502915 0a107.73188592 107.73188592 0 1 0 0-215.46377185 107.73188592 107.73188592 0 0 0 0 215.46377185z m574.5700583 0a107.73188592 107.73188592 0 1 0 0-215.46377185 107.73188592 107.73188592 0 0 0 0 215.46377185z" /></svg>