<?xml version="1.0" standalone="no"?><!DOCTYPE svg PUBLIC "-//W3C//DTD SVG 1.1//EN" "http://www.w3.org/Graphics/SVG/1.1/DTD/svg11.dtd"><svg class="icon" width="200px" height="200.00px" viewBox="0 0 1024 1024" version="1.1" xmlns="http://www.w3.org/2000/svg"><path d="M713.716371 42.04061c62.460399 26.622465 115.70533 63.48434 161.782673 109.561684 46.077344 46.077344 81.915278 100.346215 108.537743 161.782673 26.622465 61.436458 38.909757 127.992621 37.885816 197.620607-2.047882 66.556163-14.335174 127.992621-38.909757 186.357257-24.574583 57.340694-56.316753 107.513802-96.250451 151.543263-12.287292 14.335174-20.478819 28.670347-22.526701 45.053403-3.071823 15.359115 4.095764 27.646406 19.454878 36.861875 29.694288 15.359115 64.508281 26.622465 105.46592 33.790052 8.191528 2.047882-8.191528 8.191528-47.101285 20.478819s-99.322274 22.526701-179.189669 29.694288c-36.861875 4.095764-69.627986 6.143646-98.298333 7.167587-28.670347 1.023941-55.292812 1.023941-78.843455 0s-45.053403-2.047882-64.508281-3.071823c-19.454878-2.047882-37.885816-3.071823-54.268872-6.143646-65.532222-7.167587-126.96868-25.598524-184.309374-54.268871-57.340694-29.694288-107.513802-67.580104-149.495382-112.633507s-74.747691-97.274392-98.298333-155.639027C11.292866 631.830609 0.029515 569.370209 1.053456 502.814046 2.077397 432.162119 15.38863 366.629897 43.035036 305.193439S107.543317 190.512051 153.620661 145.458648s101.370156-80.891337 163.830555-107.513802S445.443837-0.964911 516.095764 0.05903c69.627986 1.023941 136.184149 14.335174 197.620607 41.98158z m-424.935502 467.941023c0-20.478819-7.167587-36.861875-20.47882-51.197048-14.335174-14.335174-30.718229-20.478819-51.197048-20.47882s-36.861875 7.167587-52.22099 20.47882-21.50276 30.718229-21.50276 51.197048 7.167587 36.861875 21.50276 51.197049c14.335174 14.335174 31.74217 21.50276 52.22099 21.50276s36.861875-7.167587 51.197048-21.50276c13.311233-14.335174 20.478819-31.74217 20.47882-51.197049zM558.077344 456.736703c-14.335174-14.335174-31.74217-21.50276-52.22099-21.502761s-38.909757 7.167587-53.24493 21.502761c-14.335174 14.335174-21.50276 31.74217-21.502761 52.220989 0 20.478819 7.167587 37.885816 21.502761 52.22099 14.335174 14.335174 31.74217 22.526701 53.24493 22.526701 20.478819 0 37.885816-7.167587 52.22099-22.526701 14.335174-14.335174 22.526701-31.74217 22.526701-52.22099S573.436458 471.071876 558.077344 456.736703z m288.751353 0c-14.335174-14.335174-31.74217-21.50276-52.220989-21.502761s-38.909757 7.167587-53.244931 21.502761c-14.335174 14.335174-21.50276 31.74217-21.50276 51.197048s7.167587 37.885816 21.50276 52.22099c14.335174 14.335174 31.74217 22.526701 53.244931 22.526701 20.478819 0 36.861875-7.167587 52.220989-22.526701 14.335174-14.335174 21.50276-31.74217 21.50276-52.22099 0-19.454878-7.167587-36.861875-21.50276-51.197048z" /></svg>