<?xml version="1.0" standalone="no"?><!DOCTYPE svg PUBLIC "-//W3C//DTD SVG 1.1//EN" "http://www.w3.org/Graphics/SVG/1.1/DTD/svg11.dtd"><svg class="icon" width="200px" height="200.00px" viewBox="0 0 1024 1024" version="1.1" xmlns="http://www.w3.org/2000/svg"><path d="M828.545388 126.393566h-62.884854c-7.860607 0-15.721214-7.860607-15.721214-15.721213V79.229926c0-43.295723-35.435116-78.606068-78.606068-78.606068H356.784209c-43.295723 0-78.606068 35.435116-78.606068 78.606068v27.574509c0 7.860607-7.860607 15.721214-15.721214 15.721214H195.704155c-43.295723 0-78.606068 35.435116-78.606068 78.606068v59.016937c-3.992689 15.721214 3.867918 23.58182 11.728524 23.58182h758.735714c11.728524 0 19.713903-7.860607 19.713903-19.713903v-59.016937c-0.124772-43.170952-35.435116-78.606068-78.73084-78.606068zM683.186548 110.672353c0 7.860607-7.860607 15.721214-15.721214 15.721213H352.916291c-7.860607 0-15.721214-7.860607-15.721214-15.721213V79.229926c0-7.860607 7.860607-15.721214 15.721214-15.721214H667.465334c7.860607 0 15.721214 7.860607 15.721214 15.721214v31.442427z m192.522481 220.221762H148.415743c-19.713903 0-31.442427 11.853296-27.57451 31.442427l62.884854 625.105398c0 23.58182 15.721214 35.435116 31.442428 35.435116H800.970879c19.713903 0 35.435116-11.853296 35.435116-31.442427l62.884854-625.105398c7.860607-19.713903-3.867918-35.435116-23.58182-35.435116zM490.539296 806.523212c0 11.853296-7.860607 19.713903-19.713903 19.713903h-102.187888c-11.853296 0-27.57451-7.860607-35.435117-15.721214l-59.016937-74.73815c-7.860607-7.860607-7.860607-23.58182-7.860606-35.435117l7.860606-19.713902c3.992689-7.860607 0-23.58182-11.728524-23.581821-7.860607-3.992689-15.721214-7.860607-23.58182-7.860607-7.860607-3.867918-7.860607-7.860607 0-11.728524l82.598757-15.721214c7.860607-3.867918 23.58182 3.992689 31.442427 11.853296 11.853296 19.713903 35.435116 47.163641 47.163641 66.877544 7.860607 7.860607 3.867918 11.853296-7.860607 7.860607l-15.721214-3.867918c-7.860607-3.992689-19.713903-7.860607-23.58182 0 0 3.867918 3.992689 11.853296 7.860607 23.58182l7.860607 7.860607c7.860607 7.860607 23.58182 15.721214 35.435116 15.721214h62.884854c11.728524 0 19.713903 7.860607 19.713903 19.713903 3.867918-4.117461 3.867918 35.185573 3.867918 35.185573z m11.728524-267.260631l19.713903-7.860607c7.860607-7.860607 15.721214-11.853296 15.721214-15.721214-3.867918-3.867918-11.728524-7.860607-23.581821-7.860606h-7.860607c-11.853296 0-23.58182 7.860607-35.435116 15.721213l-43.295723 47.163641c-7.860607 7.860607-19.713903 7.860607-27.57451 3.867918l-31.442427-23.581821c-7.860607-7.860607-7.860607-19.713903-3.992689-27.574509l62.884854-78.606068c7.860607-11.728524 27.57451-19.713903 39.303034-19.713903h94.327282c11.853296 0 23.58182 7.860607 27.574509 19.713903l7.860607 19.713902c11.853296 7.860607 23.58182 11.853296 31.442427 7.860607l23.581821-11.853296c7.860607-7.860607 11.853296 0 7.860607 7.860607L616.309005 543.130498c-7.860607 7.860607-19.713903 15.721214-31.442428 15.721214-23.58182 0-59.016937-3.992689-82.598757-7.860607-7.860607-3.867918-11.728524-11.728524 0-11.728524z m235.942976 196.51517l-51.15633 78.606068c-7.860607 7.860607-19.713903 15.721214-31.442427 15.721213h-23.581821c-11.853296 0-23.58182 7.860607-23.58182 19.713903 0 7.860607 0 15.721214-3.867918 23.58182 0 11.728524-7.860607 11.728524-11.853296 3.867918l-39.303034-70.745461c-7.860607-7.860607-3.992689-23.58182 3.867918-35.435116 11.853296-19.713903 35.435116-47.163641 51.15633-66.877544 7.860607-7.860607 11.853296-7.860607 7.860607 3.867918v23.58182c0 11.853296 0 19.713903 7.860606 23.58182 3.867918 0 11.728524-7.860607 15.721214-15.721213l3.992689-7.860607c7.860607-7.860607 7.860607-23.58182 3.867918-39.303034l-23.581821-62.884854c-3.992689-7.860607 3.867918-23.58182 11.728525-23.581821l39.303034-11.853296c7.860607-3.867918 23.58182 3.992689 23.58182 11.853296l31.442427 94.327282c11.853296 8.11015 11.853296 23.831363 7.985379 35.559888z m0 0" /></svg>