<?xml version="1.0" standalone="no"?><!DOCTYPE svg PUBLIC "-//W3C//DTD SVG 1.1//EN" "http://www.w3.org/Graphics/SVG/1.1/DTD/svg11.dtd"><svg class="icon" width="200px" height="200.00px" viewBox="0 0 1024 1024" version="1.1" xmlns="http://www.w3.org/2000/svg"><path d="M459.447932 709.580468c-37.628301 226.535127 110.206278 309.062282 153.702043 309.062282l-139.033383-0.765321c-24.36273 0.127554-48.597907-0.510214-72.833084-1.530643-28.699552-1.275536-57.27155-3.061286-85.843548-5.229696-29.464873-2.423518-58.802192-5.102143-88.011958-8.163428-26.531141-2.678625-52.934728-5.867464-79.338316-9.566517-20.281016-2.806178-40.434479-6.122571-60.460389-10.076731-16.581963-3.443946-26.913802-6.760339-31.378176-10.204285-7.908321-5.35725-13.775785-22.19432-17.857499-50.256104-3.95416-28.061784-2.295964-64.031888 4.847036-108.037868 2.806178-16.964624 8.801196-30.740409 17.857498-41.582461s19.898356-20.153463 32.90882-27.93423c13.520678-8.035874 28.061784-14.413553 43.240657-18.750374 15.816642-4.719482 32.015944-9.31141 48.597908-13.648231 16.581963-4.336821 32.526158-9.056303 48.087693-14.158445 15.433981-5.102143 29.71998-11.352267 42.60289-18.750374 15.178874-8.801196 26.786248-17.474838 35.077229-25.893373 8.290982-8.418535 14.158445-16.709517 17.729945-24.872945 3.5715-8.035874 5.484803-16.581963 5.35725-25.383159 0-8.801196-0.382661-18.62282-1.020428-29.464873-1.403089-15.561535-7.270553-27.806677-17.347285-36.990533-10.842053-9.694071-21.939213-19.005481-33.419033-27.806677-6.377678-5.612357-11.734928-12.245142-15.689088-19.770802-4.591928-8.418535-8.801196-17.092177-12.50025-25.893373-3.699053-10.459392-7.270553-20.918784-10.714499-31.50573-5.35725-1.530643-10.459392-3.95416-15.178874-7.143-5.102143-4.209268-9.821624-8.928749-14.030892-14.158445-4.974589-6.122571-9.31141-14.923767-13.010463-26.403587-3.443946-10.076731-4.847035-20.791231-4.336821-31.50573 0.765321-9.438964 2.933732-17.857499 6.505231-25.383159 2.933732-7.398107 7.52566-14.541106 14.030892-21.301445 0-25.76582 1.403089-51.404086 4.336821-77.169906 2.933732-21.684106 7.908321-45.026408 15.051321-70.026905 6.760339-24.235177 18.240159-46.939711 33.546587-66.965621 13.010463-17.602392 28.699552-33.163926 46.429497-46.174389 15.944195-11.479821 33.419033-20.918784 51.9143-27.934231 17.219731-6.505232 35.204783-11.224714 53.444942-13.648231C439.67713 2.295964 456.769307 1.147982 473.989038 1.020429c20.918784 0 41.582461 2.168411 62.118585 6.632785s39.796712 10.331839 57.781764 17.729945c16.83707 6.760339 32.908819 15.306428 48.087693 25.383159 14.030892 9.438964 25.000498 19.005481 32.908819 28.444444 18.240159 20.918784 32.271051 45.281515 41.072247 71.557549 8.673642 26.020927 14.796213 50.893871 18.367713 74.618834 3.5715 27.041355 5.35725 54.465371 5.35725 82.144494 5.102143 3.443946 9.056303 7.780767 11.862481 13.265571 2.806178 4.719482 5.229696 10.842053 7.015446 18.240159 1.78575 7.398107 2.040857 16.581963 0.510215 27.424016-1.403089 14.923767-4.591928 26.531141-9.183857 34.949676-3.95416 7.52566-9.183857 14.285999-15.689088 19.770802-6.505232 5.35725-13.265571 9.056303-20.536124 11.09716-1.403089 4.081714-2.806178 8.418535-4.336821 13.138017l-5.357249 14.158446c-1.403089 4.719482-3.316393 9.821624-5.35725 15.178874-36.735426 14.158445-69.134031 34.567015-101.022422 56.761335-85.460887 59.184853-129.339312 124.747384-138.140508 178.064773z m509.576483-16.071749c12.500249 28.827105 18.750374 59.567514 18.750373 92.221226 0 32.653712-6.250125 63.266567-18.750373 92.221226-12.117588 28.189337-29.337319 53.827603-50.766318 75.639262-21.556552 21.684106-47.067265 38.903837-75.256602 50.766318-29.209766 12.372696-60.587942 18.62282-92.221226 18.495267-31.888391 0.255107-63.521674-5.995017-92.986547-18.495267-28.189337-11.862481-53.70005-29.082212-75.256602-50.766318-21.556552-21.811659-38.776283-47.449925-50.766318-75.639262-12.627803-29.082212-19.005481-60.460389-18.750373-92.221226 0-32.653712 6.250125-63.394121 18.750373-92.221226 12.117588-28.189337 29.337319-53.827603 50.766318-75.639262 21.556552-21.684106 47.067265-39.158944 75.256602-51.148979 29.337319-12.627803 60.970603-19.005481 92.986547-18.750373 32.653712 0 63.394121 6.250125 92.221226 18.750373 28.189337 12.117588 53.70005 29.464873 75.256602 51.148979 21.428999 21.811659 38.648729 47.449925 50.766318 75.639262zM761.239661 949.381166l156.890882-266.331839h-69.771799l-87.119083 157.911311-69.644245-157.911311h-69.771799l136.099652 252.173393 3.316392 14.158446z m0 0" /></svg>