<?xml version="1.0" standalone="no"?><!DOCTYPE svg PUBLIC "-//W3C//DTD SVG 1.1//EN" "http://www.w3.org/Graphics/SVG/1.1/DTD/svg11.dtd"><svg t="1565333143350" class="icon" viewBox="0 0 1092 1024" version="1.1" xmlns="http://www.w3.org/2000/svg" p-id="10753" xmlns:xlink="http://www.w3.org/1999/xlink" width="213.28125" height="200"><defs><style type="text/css"></style></defs><path d="M591.359261 273.152939c0 58.879926-37.375953 108.799864-89.599888 127.99984 6.911991 68.863914 65.279918 122.879846 135.93583 122.879846 75.263906 0 136.447829-61.183924 136.447829-136.447829s-61.183924-136.447829-136.447829-136.44783c-16.38398 0-32.25596 3.071996-46.847942 8.44799 0.256 4.351995 0.511999 8.959989 0.512 13.567983z" fill="currentColor" p-id="10754"></path><path d="M181.759773 636.416484c0-6.911991 1.279998-13.567983 3.327996-20.223974-1.535998-15.61598-2.559997-31.231961-2.559997-47.103941 0-128.511839 53.503933-244.479694 139.263826-327.167591a136.678229 136.678229 0 0 1 132.863834-105.471869c10.751987 0 21.247973 1.535998 31.48796 3.839996 47.359941-16.639979 98.303877-25.855968 151.295811-25.855968 50.175937 0 98.303877 8.19199 143.359821 23.295971A452.505034 452.505034 0 0 0 454.655432 0.00128C203.775745 0.00128 0 203.777025 0 454.656712c0 200.959749 130.815836 371.711535 312.06361 431.61546a453.887433 453.887433 0 0 1-122.367847-239.103701c-2.815996-3.327996-5.375993-6.911991-7.93599-10.751987zM854.782932 671.232441c-35.583956-23.039971-83.455896-39.93595-128.76784-49.919938 1.279998 4.863994 2.047997 9.983988 2.047998 15.103981a326.322792 326.322792 0 0 1-273.151659 146.687817c-25.087969 0-49.151939-2.815996-72.447909-8.19199 48.639939 60.415924 117.503853 103.167871 196.863754 117.247854 118.527852-33.791958 217.599728-114.431857 275.455656-220.927724z" fill="currentColor" p-id="10755"></path><path d="M780.799024 137.729108c-45.055944-15.103981-93.183884-23.295971-143.359821-23.295971-52.991934 0-103.93587 9.215988-151.295811 25.855968-61.951923 22.015972-118.015852 56.831929-164.351794 101.631873-85.759893 82.687897-139.263826 198.655752-139.263826 327.167591 0 15.87198 0.767999 31.74396 2.559997 47.103941a453.887433 453.887433 0 0 0 126.719841 270.335662A453.887433 453.887433 0 0 0 637.439203 1024c250.879686 0 454.655432-203.775745 454.655432-454.655432 0.256-200.959749-130.303837-371.455536-311.295611-431.61546z m-6.655992 249.855688c0 75.263906-61.183924 136.447829-136.447829 136.447829a136.883029 136.883029 0 0 1-136.703829-136.447829c0-58.879926 37.375953-108.799864 89.599888-127.99984 14.591982-5.375993 30.463962-8.447989 46.847941-8.44799 75.263906-0.256 136.703829 61.183924 136.703829 136.44783zM637.439203 897.536158c-19.967975 0-39.423951-1.791998-58.623927-5.375993-79.359901-14.335982-148.223815-57.087929-196.863753-117.247854-6.143992-7.67999-12.287985-15.61598-17.919978-23.80797 1.023999-90.367887 182.783772-140.543824 273.151659-140.543824 24.575969 0 55.80793 3.839995 88.319889 11.007986 45.311943 9.983988 93.183884 26.879966 128.767839 49.919938 33.023959 21.247973 55.551931 48.12794 55.80793 79.6159-58.623927 88.06389-159.231801 146.431817-272.639659 146.431817z" fill="" p-id="10756"></path></svg>