<?xml version="1.0" standalone="no"?><!DOCTYPE svg PUBLIC "-//W3C//DTD SVG 1.1//EN" "http://www.w3.org/Graphics/SVG/1.1/DTD/svg11.dtd"><svg class="icon" width="200px" height="200.00px" viewBox="0 0 1024 1024" version="1.1" xmlns="http://www.w3.org/2000/svg"><path d="M615.56306132-5.81530905H201.31081482C144.35113127-5.81530905 98.26556799 40.78806873 98.26556799 97.74775349L97.74775349 926.25224651c0 56.95968355 46.08556206 103.56306132 103.04524561 103.56306254H822.68918518c56.95968355 0 103.56306132-46.60337778 103.56306133-103.56306254V304.87387614L615.56306132-5.81530905z m-103.56306132 828.50449423c-106.15213868 0-197.02872534-63.95019022-237.15941095-155.34459259h88.54641778c32.88127169 46.86228502 86.99297185 77.6722963 148.35408592 77.6722963 100.19726222 0 181.23535762-81.03809539 181.23535762-181.23535762s-81.03809539-181.23535762-181.23535762-181.23535883c-70.16397392 0-130.23055053 40.13068683-160.26383883 98.64381629L434.3277037 563.78153127h-207.12612386v-207.12612386l67.31599053 67.31599053c46.08556206-71.45851259 126.08802725-119.09752059 217.48242963-119.0975218 142.91702518 0 258.90765392 115.99062873 258.90765392 258.90765513s-115.99062873 258.90765392-258.90765392 258.90765391z" /></svg>