<?xml version="1.0" standalone="no"?><!DOCTYPE svg PUBLIC "-//W3C//DTD SVG 1.1//EN" "http://www.w3.org/Graphics/SVG/1.1/DTD/svg11.dtd"><svg class="icon" width="200px" height="200.00px" viewBox="0 0 1024 1024" version="1.1" xmlns="http://www.w3.org/2000/svg"><path d="M1006.346275 182.16777872c-16.91727271-15.86520351-43.59774759-15.10771369-59.46295109 1.8516418L385.66753064 781.5526425l-306.57296444-302.07010828C62.51395563 463.15442026 35.87556352 463.32275133 19.54744956 479.9033619c-16.32811396 16.5385278-16.11770013 43.21900268 0.46291045 59.50503387l337.29338505 332.28553566c0.12624831 0.12624831 0.29457937 0.16833107 0.42082767 0.29457937 0.12624831 0.12624831 0.16833107 0.29457937 0.29457937 0.42082769 2.65121437 2.52496607 5.84950474 3.95578018 8.92154681 5.63909089 1.51497965 0.88373813 2.81954545 2.18830393 4.41869063 2.81954545 4.96576661 1.93580733 10.22611261 2.94579376 15.44437582 2.94579377 5.51284261 0 11.0256852-1.09415196 16.15978291-3.2824559 1.72539349-0.71540706 3.07204207-2.18830393 4.67118723-3.11412483 3.15620759-1.85164179 6.4386635-3.4087042 9.13196066-6.14408412 0.12624831-0.12624831 0.16833107-0.33666214 0.29457937-0.46291045 0.08416554-0.12624831 0.25249661-0.16833107 0.37874491-0.29457938l590.71581358-628.8848841C1024.14728584 224.75553988 1023.2635477 198.11714777 1006.346275 182.16777872z" /></svg>