<?xml version="1.0" standalone="no"?><!DOCTYPE svg PUBLIC "-//W3C//DTD SVG 1.1//EN" "http://www.w3.org/Graphics/SVG/1.1/DTD/svg11.dtd"><svg class="icon" width="200px" height="37.50px" viewBox="0 0 5461 1024" version="1.1" xmlns="http://www.w3.org/2000/svg"><path d="M519.006316 21.018947l-116.232983 547.031579c-14.551579 68.625965-38.624561 119.287018-71.859649 151.983158-33.235088 32.69614-76.530526 49.044211-129.527017 49.044211-18.683509 0-41.319298-4.850526-67.907369-14.731228-26.58807-9.880702-49.762807-22.815439-69.703859-38.804211L5.569123 989.507368c30.540351 10.958596 61.44 19.222456 92.16 24.791579 30.899649 5.569123 57.667368 8.26386 80.662456 8.26386 283.306667 0 455.949474-145.695439 517.748772-437.265965l120.005614-564.277895H519.006316zM1562.408421 253.125614l49.22386-232.106667H998.669474L789.557895 1005.316491h635.598596l49.22386-231.927017H1135.382456l30.72-144.797193h297.319298l49.22386-232.106667H1215.505965l30.540351-143.36zM2338.133333 253.125614l49.22386-232.106667H1774.394386L1565.103158 1005.316491h635.598596l49.403509-231.927017h-338.997895l30.72-144.797193h297.13965l49.403508-232.106667h-297.319298l30.540351-143.36zM2813.484912 326.422456c56.230175-46.169825 124.676491-69.344561 205.159299-69.344561 38.98386 0 76.350877 4.491228 112.46035 13.653333s66.110877 21.917193 90.004211 38.444912l58.206316-273.964912C3204.042105 14.551579 3123.918596 4.311579 3038.764912 4.311579c-106.711579 0-205.518596 22.096842-296.96 66.290526-91.261754 44.193684-167.97193 106.711579-230.130526 187.733334-62.158596 81.021754-104.196491 173.361404-126.113684 277.378245-20.48 96.651228-18.683509 181.804912 5.748772 255.640702 24.252632 73.835789 70.242807 130.964211 137.611228 170.846316 67.368421 40.061754 153.6 60.002807 258.335438 60.002807 106.711579 0 203.722105-14.731228 291.390878-44.014035l56.230175-264.26386c-81.021754 36.648421-157.372632 54.972632-229.232281 54.972632-77.78807 0-135.09614-22.815439-171.92421-68.266667-36.82807-45.451228-46.708772-107.609825-30.001404-186.29614 17.066667-78.865965 53.535439-141.563509 109.765614-187.912983zM4191.932632 21.018947l-239.472281 531.941053c-22.995088 56.769123-41.498947 105.992982-55.33193 147.49193h-4.13193c2.515088-18.324211 4.670877-44.193684 6.647018-77.967719 1.97614-33.594386 2.335439-55.870877 1.437193-67.009123l-21.557895-534.63579h-444.092632l-209.291228 984.297544h260.13193l98.627369-464.033684c8.26386-38.444912 25.330526-134.557193 51.738947-288.336842h8.26386c-3.233684 97.010526-4.311579 152.881404-3.413334 167.432982l27.486316 584.757895h278.63579L4218.161404 413.192982c14.012632-29.821754 36.648421-83.357193 67.727719-160.606315h8.263859l-11.677193 45.271579c-16.168421 60.901053-29.642105 116.77193-40.421052 167.432982l-114.616141 539.486316h292.468772l209.291228-984.297544h-437.265964zM5082.992281 243.424561c22.815439-12.395789 50.661053-18.50386 83.536842-18.503859 80.123509 0 156.654035 22.635789 229.950877 67.907368l53.17614-250.610526c-40.061754-11.497544-71.500351-19.222456-94.315789-23.354386-22.635789-4.13193-48.145965-7.545263-76.350877-10.24-28.204912-2.694737-59.46386-4.13193-93.776842-4.13193-121.802105 0-224.741053 28.564211-309.176141 85.512983-84.435088 56.948772-136.712982 133.12-157.013333 228.154385-28.923509 135.994386 29.282807 234.262456 174.798596 295.163509 45.09193 18.324211 75.452632 32.69614 91.441404 43.295439 15.809123 10.599298 26.947368 21.917193 33.235088 33.953684 6.287719 12.21614 7.724912 26.228772 4.491228 42.217544-4.670877 22.45614-17.246316 39.522807-37.546667 51.2-20.300351 11.677193-46.708772 17.425965-79.225263 17.425965-42.93614 0-87.489123-9.341754-133.479298-27.845614-45.990175-18.50386-86.231579-42.93614-121.083509-73.117193l-57.30807 269.832982c78.147368 34.85193 168.690526 52.098246 271.629473 52.098246 88.746667 0 167.253333-11.856842 235.52-35.750176 68.266667-23.713684 125.035789-60.002807 170.307369-108.50807 45.271579-48.505263 74.913684-105.454035 88.746666-170.846316 14.37193-67.188772 5.389474-125.395088-26.408421-174.439298-31.977544-49.044211-94.495439-93.956491-187.912982-135.275789-47.06807-21.557895-77.428772-38.98386-90.722807-52.457544-13.473684-13.473684-17.964912-30.540351-13.473684-51.2 4.491228-21.198596 18.144561-38.085614 40.96-50.481404z" /></svg>