<?xml version="1.0" standalone="no"?><!DOCTYPE svg PUBLIC "-//W3C//DTD SVG 1.1//EN" "http://www.w3.org/Graphics/SVG/1.1/DTD/svg11.dtd"><svg t="1581774652520" class="icon" viewBox="0 0 1024 1024" version="1.1" xmlns="http://www.w3.org/2000/svg" p-id="5233" xmlns:xlink="http://www.w3.org/1999/xlink" width="200" height="200"><defs><style type="text/css"></style></defs><path d="M512 40.8352c-260.81493333 0-472.24746667 210.9472-472.24746667 471.1648s211.43253333 471.1648 472.24746667 471.1648 472.24746667-210.9472 472.24746667-471.1648-211.43253333-471.1648-472.24746667-471.1648M749.91466667 561.71093333h-188.2048v188.2048c0 27.45386667-22.25706667 49.71093333-49.71093334 49.71093334s-49.71093333-22.25706667-49.71093333-49.71093334v-188.2048h-188.2048c-27.45386667 0-49.71093333-22.25706667-49.71093333-49.71093333s22.25706667-49.71093333 49.71093333-49.71093333h188.2048v-188.2048c0-27.45386667 22.25706667-49.71093333 49.71093333-49.71093334s49.71093333 22.25706667 49.71093334 49.71093334v188.2048h188.2048c27.45386667 0 49.71093333 22.25706667 49.71093333 49.71093333s-22.25706667 49.71093333-49.71093333 49.71093333z" p-id="5234"></path></svg>