<?xml version="1.0" standalone="no"?><!DOCTYPE svg PUBLIC "-//W3C//DTD SVG 1.1//EN" "http://www.w3.org/Graphics/SVG/1.1/DTD/svg11.dtd"><svg class="icon" width="200px" height="200.00px" viewBox="0 0 1024 1024" version="1.1" xmlns="http://www.w3.org/2000/svg"><path d="M880.035635 280.516704V62.146993c0-34.77951-27.937639-58.726058-59.86637-62.146993H538.512249c-35.349666 0-59.86637 27.367483-59.866369 62.146993v145.389755c45.612472-17.104677 91.7951-23.946548 140.828508-23.946548 95.216036 0 189.861915 34.209354 260.561247 96.926504zM224.926503 522.262806c3.420935-27.367483 10.262806-51.884187 17.674833-75.830735H87.518931C52.169265 446.432071 27.652561 473.799555 27.652561 508.579065v276.525612c0 34.77951 27.937639 58.726058 59.86637 62.146993h242.886414c-10.262806-10.262806-21.095768-20.525612-27.937639-31.358574-63.857461-86.093541-91.7951-189.861915-77.541203-293.63029zM986.084633 940.757238L876.614699 802.77951c3.420935-6.841871 3.420935-10.262806 3.420936-17.104677v-13.683742c87.804009-114.03118 91.7951-276.525612-3.420936-394.547884l-3.420935-6.841871C774.556793 252.579065 608.641425 217.799555 475.224944 280.516704c-14.253898 6.841871-31.928731 13.683742-45.612472 24.516704-6.841871 3.420935-10.262806 6.841871-14.253897 10.262806-31.928731 24.516704-59.86637 51.884187-80.962138 86.663697-6.841871 13.683742-17.674833 27.367483-24.516704 45.042316-45.612472 103.768374-31.928731 232.053452 42.191536 328.4098 17.674833 20.525612 35.349666 41.621381 56.445435 55.305122 105.478842 83.242762 257.140312 93.505568 376.873051 23.946548l116.311804 148.810691c6.841871 10.262806 21.095768 17.104677 35.349666 20.525612 14.253898 0 27.937639-3.420935 38.770601-10.262806 10.262806-6.841871 17.674833-20.525612 21.095769-34.77951-0.570156-13.683742-3.991091-27.367483-10.832962-38.200446z m-215.518931-169.336303c-87.804009 65.567929-208.106904 68.988864-295.910914 10.262807-17.674833-10.262806-31.928731-23.946548-45.612472-38.200446-6.841871-6.841871-10.262806-10.262806-14.253897-17.104677-63.287305-82.672606-70.129176-190.432071-21.095769-276.525612 17.674833-31.358575 38.770601-55.305122 66.708241-75.830735 102.057906-79.821826 250.298441-68.988864 341.523385 27.367483 14.253898 13.683742 24.516704 31.358575 35.349666 48.463252 63.857461 107.18931 35.919822 245.737194-66.70824 321.567928zM87.518931 401.389755h172.757238c27.937639-55.305122 66.708241-100.347439 112.890869-138.547884 17.674833-13.683742 35.349666-23.946548 56.445434-34.77951V62.146993c0-17.104677-6.841871-31.358575-17.674833-41.621381s-27.937639-17.104677-42.191537-17.104677H87.518931C52.169265 3.420935 27.652561 31.358575 27.652561 65.567929V342.093541c-3.991091 31.358575 24.516704 59.296214 59.86637 59.296214z" /></svg>