<?xml version="1.0" standalone="no"?><!DOCTYPE svg PUBLIC "-//W3C//DTD SVG 1.1//EN" "http://www.w3.org/Graphics/SVG/1.1/DTD/svg11.dtd"><svg class="icon" width="200px" height="200.00px" viewBox="0 0 1024 1024" version="1.1" xmlns="http://www.w3.org/2000/svg"><path d="M782.043596 901.12c11.117714 18.724571 4.681143 43.300571-14.043429 53.248-18.724571 11.117714-42.715429 4.681143-53.248-14.043429-11.702857-18.139429-4.681143-42.715429 13.458286-53.248 19.309714-11.117714 42.715429-4.096 53.833143 14.043429z m-230.546286 83.675429c0 21.065143-17.554286 39.204571-39.789714 39.204571-21.065143 0-39.204571-17.554286-39.204572-39.204571v-27.501715c0-21.650286 17.554286-39.204571 39.204572-39.204571s39.789714 17.554286 39.789714 39.204571v27.501715z m-241.664-44.470858c-11.117714 19.309714-35.108571 25.746286-53.833143 14.628572-19.309714-10.532571-25.746286-34.523429-14.628571-53.833143l29.257143-50.907429c11.117714-18.724571 35.108571-25.161143 54.418285-14.628571 18.724571 11.117714 25.161143 35.108571 14.043429 53.833143l-29.257143 50.907428z m-187.245714-157.988571c-19.309714 10.532571-43.300571 4.096-53.833143-14.628571-11.117714-18.139429-4.681143-42.715429 14.043429-53.833143l78.409142-45.056c18.724571-10.532571 42.715429-4.681143 53.833143 14.628571 10.532571 18.724571 4.096 42.715429-14.628571 53.833143l-77.824 45.056zM39.49731 551.204571a39.204571 39.204571 0 0 1 0-78.409142h121.709714a39.204571 39.204571 0 0 1 0 78.409142H39.49731z m43.300572-241.664c-19.309714-10.532571-25.161143-34.523429-14.043429-53.248 10.532571-19.309714 34.523429-25.161143 53.833143-14.628571l132.242286 76.653714c18.724571 10.532571 25.161143 34.523429 14.628571 53.248-11.117714 19.309714-35.108571 25.161143-53.833143 14.628572L82.797882 309.540571z m159.158857-187.245714L333.824167 282.038857c11.117714 18.724571 35.108571 25.161143 53.833143 14.043429 18.724571-10.532571 24.576-35.108571 14.043429-53.833143L309.248167 83.090286c-10.532571-18.139429-34.523429-25.161143-53.248-14.043429-18.724571 10.532571-25.161143 34.523429-14.043428 53.248zM472.503024 39.204571c0-21.065143 17.554286-39.204571 39.204572-39.204571s39.789714 17.554286 39.789714 39.204571v184.32c0 21.650286-17.554286 39.204571-39.789714 39.789715-21.065143 0-39.204571-17.554286-39.204572-39.789715V39.204571z m241.664 43.885715c11.117714-19.309714 35.108571-25.161143 53.833143-14.628572 18.724571 10.532571 25.746286 34.523429 14.628572 53.833143l-92.452572 160.329143c-10.532571 18.724571-35.108571 25.161143-53.248 14.628571-18.724571-11.117714-25.161143-35.108571-14.043428-53.833142L714.167024 83.090286z m187.830858 158.573714l-160.329143 92.452571c-18.724571 10.532571-25.161143 34.523429-14.628572 53.833143 11.117714 18.139429 35.108571 24.576 53.833143 14.043429l160.329143-92.452572c18.139429-10.532571 25.161143-34.523429 14.043429-53.248-11.117714-19.309714-35.108571-25.746286-53.248-14.628571z m81.92 231.131429c22.235429 0 39.204571 17.554286 39.204571 39.204571s-16.969143 39.204571-39.204571 39.204571h-184.905143c-21.065143 0-39.204571-17.554286-39.204572-39.204571s18.139429-39.204571 39.204572-39.204571h184.905143z" /></svg>