<?xml version="1.0" standalone="no"?><!DOCTYPE svg PUBLIC "-//W3C//DTD SVG 1.1//EN" "http://www.w3.org/Graphics/SVG/1.1/DTD/svg11.dtd"><svg class="icon" width="200px" height="200.00px" viewBox="0 0 1024 1024" version="1.1" xmlns="http://www.w3.org/2000/svg"><path d="M512 0C229.232818 0 0 229.234525 0 512s229.232818 512 512 512C794.762062 1024 1023.993173 794.763768 1023.993173 512 1023.993173 229.234525 794.762062 0 512 0z m-28.236612 737.747828l-30.779528 29.796495c-27.96696 27.062433-64.716369 40.575729-101.43847 40.57573-36.732342 0-73.452737-13.518417-101.404338-40.56549-27.187019-26.302971-42.139026-61.280871-42.139025-98.491077 0-37.235805 14.953714-72.223945 42.123665-98.542276l113.250232-109.558736c15.875307-15.356484 32.281385-27.719495 48.798395-37.094153l26.277371 70.648702c-8.350664 6.04156-15.882134 12.682155-22.0022 18.600836l-113.248525 109.56727c-12.815275 12.376664-19.843281 28.857834-19.843281 46.374944 0 17.50175 7.028006 33.97268 19.843281 46.359584 26.654542 25.797801 70.030893 25.761962 96.683729 0l30.782942-29.801614c14.764275-14.272758 38.623316-14.202785 53.280071 0.189438 14.660169 14.392224 14.581663 37.655642-0.184319 51.940347z m146.980567 93.502524c-17.595616 6.545023-37.346738-2.496837-43.891761-20.092453L373.156766 236.639702c-6.545023-17.595616 2.496837-37.346738 20.092452-43.89176 17.595616-6.545023 37.346738 2.496837 43.891761 20.092452l213.693722 574.518197c6.545023 17.597323-2.496837 37.348444-20.090746 43.891761z m143.111579-374.160279l-120.810714 116.859807c-12.95522 12.53709-26.137426 22.915261-39.384484 31.131099l-26.664783-71.686348a205.01026 205.01026 0 0 0 12.951807-11.571123l120.846555-116.870048c12.789675-12.393731 19.836454-28.878314 19.836454-46.39201 0-17.50175-7.03654-33.96756-19.872294-46.374945-24.0536-23.266832-60.937834-34.578543-89.118126-7.297658l-38.328064 37.11122c-14.767688 14.279585-38.613076 14.201079-53.283485-0.189439-14.670409-14.404171-14.574836-37.657349 0.204798-51.954l38.343425-37.109513c54.370624-52.623009 136.527303-49.53055 195.278911 7.313018 27.169952 26.309798 42.142439 61.280871 42.142439 98.497903-0.001707 37.235805-14.972487 72.220532-42.142439 98.532037z" /></svg>