<?xml version="1.0" standalone="no"?><!DOCTYPE svg PUBLIC "-//W3C//DTD SVG 1.1//EN" "http://www.w3.org/Graphics/SVG/1.1/DTD/svg11.dtd"><svg t="1573105191324" class="icon" viewBox="0 0 1024 1024" version="1.1" xmlns="http://www.w3.org/2000/svg" p-id="11540" xmlns:xlink="http://www.w3.org/1999/xlink" width="200" height="200"><defs><style type="text/css"></style></defs><path d="M933.357072 811.052027H637.945969c-2.482541-55.57883-41.130769-110.160959-93.553723-124.017548v-74.581626h318.337255c22.269189 0 40.49018-18.22099 40.49018-40.49018v-79.652108h-782.440385v79.652108c0 22.269189 18.22099 40.49018 40.490179 40.49018h318.338279v74.597999c-51.940976 13.879102-90.572832 68.437695-93.546559 124.001175H90.649068c-13.997805 0-25.40153 11.403724-25.40153 25.385157 0 13.997805 11.403724 25.40153 25.40153 25.401529h303.707047c18.134009 47.164183 64.262606 80.853469 117.643373 80.85347s99.509365-33.689287 117.650537-80.85347h303.707047c13.989619 0 25.393343-11.403724 25.393343-25.401529 0-13.981433-11.403724-25.385157-25.393343-25.385157zM903.218658 123.843586c0-22.269189-18.22099-40.49018-40.49018-40.49018H161.269475c-22.269189 0-40.49018 18.22099-40.490179 40.49018v327.9768h782.439362V123.843586z" p-id="11541"></path></svg>