<?xml version="1.0" standalone="no"?><!DOCTYPE svg PUBLIC "-//W3C//DTD SVG 1.1//EN" "http://www.w3.org/Graphics/SVG/1.1/DTD/svg11.dtd"><svg t="1571211634976" class="icon" viewBox="0 0 1024 1024" version="1.1" xmlns="http://www.w3.org/2000/svg" p-id="30147" xmlns:xlink="http://www.w3.org/1999/xlink" width="14" height="14"><defs><style type="text/css"></style></defs><path d="M389.306344 0H80.760338C37.273988 0 2.070753 35.72093 2.070753 78.689585v866.62083c-0.517695 43.48635 35.203236 78.689585 78.689585 78.689585h308.546006c43.48635 0 78.689585-35.72093 78.689586-78.689585V78.689585C467.99593 35.203236 432.274999 0 389.306344 0z m-5.694641 457.124368L250.56418 601.043478c-4.141557 4.659252-9.836198 7.247725-15.530839 7.247725-6.212336 0-11.906977-2.588473-15.530839-7.247725L86.454979 457.124368c-6.73003-6.73003-8.283114-16.566229-5.176946-25.367037 3.106168-8.800809 11.389282-15.013145 20.707785-15.53084h265.577351c9.318504 1.035389 17.601618 6.73003 20.707786 15.53084 4.141557 8.800809 2.070779 18.637007-4.659252 25.367037zM943.23961 0h-308.546006C591.207254 0 556.004019 35.72093 556.004019 78.689585v866.62083c0 43.48635 35.72093 78.689585 78.689585 78.689585h308.546006c43.48635 0 78.689585-35.72093 78.689586-78.689585V78.689585c0.517695-43.48635-35.203236-78.689585-78.689586-78.689585z m-5.694641 457.124368L804.497446 601.043478c-4.141557 4.659252-9.836198 7.247725-15.530839 7.247725-6.212336 0-11.906977-2.588473-15.530839-7.247725l-133.047523-143.401415c-6.73003-6.73003-8.283114-16.566229-5.176946-25.367038s11.389282-15.013145 20.707785-15.530839h265.577351c9.318504 1.035389 17.601618 6.73003 20.707786 15.530839 4.141557 8.283114 2.070779 18.119312-4.659252 24.849343z" p-id="30148"></path></svg>