<?xml version="1.0" standalone="no"?><!DOCTYPE svg PUBLIC "-//W3C//DTD SVG 1.1//EN" "http://www.w3.org/Graphics/SVG/1.1/DTD/svg11.dtd"><svg class="icon" width="200px" height="186.69px" viewBox="0 0 1097 1024" version="1.1" xmlns="http://www.w3.org/2000/svg"><path d="M447.828287 117.942507c0.784975 0.196244 1.766194 0.588731 2.158681 0.784975L75.750096 1.56995C71.432733 0.784975 67.11537 0.196244 62.798007 0.392488 28.062859 0.392488 0 28.455347 0 62.994251v896.245304c0 34.735148 28.062859 62.798007 62.601763 62.798007 4.513607 0 8.83097-0.588731 12.952089-1.373706L459.210425 900.758911c26.100422-13.344576 42.388655-40.229973 42.584899-69.666538V192.51514c0-34.735148-22.568034-64.367957-53.967037-74.572633z m-40.03373 685.871981L94.19701 887.414335V134.623227l313.597547 83.599847v585.591414zM1034.40092 0.392488c-4.513607 0-8.83097 0.588731-12.952089 1.177462L651.529322 117.353775c0.588731-0.196244 0.981219-0.196244 1.177462-0.196243-33.165197 9.223457-57.695669 39.444998-57.695669 75.553852v638.577232c0 30.417785 17.269452 56.518206 42.388655 69.666539l383.46033 119.904945c4.121119 0.784975 8.634726 1.373706 13.148332 1.373706 34.538904 0 62.601763-28.062859 62.601763-62.798007V62.994251c0.588731-34.538904-27.474128-62.601763-62.209275-62.601763z m0 0" /></svg>