<?xml version="1.0" standalone="no"?><!DOCTYPE svg PUBLIC "-//W3C//DTD SVG 1.1//EN" "http://www.w3.org/Graphics/SVG/1.1/DTD/svg11.dtd"><svg t="1571211297831" class="icon" viewBox="0 0 1259 1024" version="1.1" xmlns="http://www.w3.org/2000/svg" p-id="29362" xmlns:xlink="http://www.w3.org/1999/xlink" width="17.212890625" height="14"><defs><style type="text/css"></style></defs><path d="M1088.959041 859.300699c-14.833167 14.833167-36.315684 14.833167-51.148851 0l-208.175824-204.595404c-14.833167-14.833167-14.833167-36.315684 0-51.148851s36.315684-14.833167 51.148851 0l208.175824 208.175824c14.321678 11.252747 14.321678 33.246753 0 47.568431zM622.481518 740.123876c0-32.223776 5.114885-62.913087 14.833167-92.067932-5.626374-6.137862-9.718282-12.787213-12.787212-19.436563-4.603397-10.22977-7.672328-20.971029-8.183817-31.2008-0.511489-10.741259 0-20.971029 2.045954-31.200799 1.534466-8.183816 3.58042-15.344655 6.137863-20.971029s5.626374-10.22977 10.22977-14.833167c4.091908-4.091908 8.695305-8.183816 14.321678-11.764235 5.626374-3.58042 11.252747-8.183816 17.390609-13.81019 5.114885-4.603397 10.22977-11.252747 14.833167-19.948052 4.091908-8.183816 8.183816-16.879121 11.764236-26.085914 3.58042-9.718282 6.649351-20.45954 9.206793-31.200799 6.649351-2.045954 13.298701-5.626374 19.436564-11.252748 5.114885-4.603397 10.22977-11.252747 14.833167-19.948052 4.091908-8.695305 7.672328-19.436563 9.718281-33.758241 1.534466-10.741259 1.022977-19.948052-0.511488-27.62038s-4.091908-13.298701-6.649351-18.413586c-2.557443-5.626374-6.137862-9.718282-11.252747-12.275725 0.511489-27.108891-1.022977-54.217782-5.114885-81.326673-3.068931-23.016983-9.206793-47.568432-17.902098-73.654346s-21.482517-50.125874-38.361639-71.608391c-7.672328-9.718282-17.390609-18.925075-29.666333-28.131868-12.787213-8.695305-27.108891-16.367632-42.453547-24.03996-15.856144-7.672328-32.223776-13.298701-50.125874-18.413587-17.902098-4.603397-36.827173-7.160839-56.263736-7.160839-15.856144 0-31.712288 1.534466-48.07992 4.091908-16.879121 3.068931-33.246753 7.672328-49.102897 14.321678-16.367632 6.649351-32.223776 15.856144-48.07992 28.131869-15.856144 11.764236-30.177822 27.108891-42.965035 45.522477-13.298701 19.436563-24.03996 41.430569-31.200799 65.982018-7.160839 24.551449-12.275724 47.568432-14.833167 69.050949-3.58042 26.085914-4.603397 51.66034-4.091908 77.234765-5.626374 7.160839-9.718282 13.81019-12.275725 21.482518-2.557443 6.649351-4.603397 14.833167-5.626373 24.03996-1.022977 9.206793 0 19.436563 3.580419 31.200799s7.672328 20.45954 12.275725 26.597403 9.206793 10.741259 13.298701 14.321678c4.091908 3.068931 9.206793 5.626374 14.321678 7.160839 3.58042 10.741259 6.649351 21.482517 10.22977 31.200799 3.58042 8.695305 7.160839 17.390609 11.252748 26.085914s8.695305 15.344655 14.321678 19.948052c11.764236 9.718282 21.994006 18.925075 31.200799 27.62038 9.206793 8.695305 14.321678 21.482517 15.856144 37.338661 0.511489 10.22977 1.022977 19.948052 1.022977 28.643357s-1.534466 17.390609-4.603397 25.574426-8.695305 16.367632-16.367632 24.551448-18.925075 16.879121-33.246753 25.574426c-17.390609 11.764236-37.85015 20.45954-61.378622 26.597402s-125.826174 41.430569-147.820179 49.102897c-21.994006 7.160839-40.919081 17.390609-57.286714 30.177823-15.856144 12.787213-26.085914 31.712288-30.177822 56.775224-6.649351 43.476523-8.183816 50.125874-4.603396 78.257743 3.58042 27.62038 9.206793 43.988012 16.87912 49.614385 6.137862 4.603397 23.528472 10.22977 52.683317 16.879121s212.779221 40.919081 426.06993 40.919081c110.481518 0 206.12987-10.741259 277.738262-22.505495-93.090909-52.171828-154.46953-149.354645-154.469531-261.370629z m-66.493506 162.141858c-0.511489 3.58042-2.557443 8.183816-7.672328 14.321679s-10.741259 12.275724-17.902098 18.413586c-6.649351 6.137862-13.81019 11.252747-20.971029 15.856144-7.160839 4.603397-12.275724 6.649351-15.856143 6.649351-3.068931 0-8.183816-2.557443-15.344656-6.137863-6.649351-4.603397-13.81019-9.718282-20.971029-15.856143-7.160839-6.137862-13.298701-12.275724-18.413586-18.413587-5.114885-6.137862-7.160839-10.741259-7.672328-14.321678-0.511489-5.626374 1.022977-13.81019 3.58042-25.062937s5.114885-23.016983 8.183816-35.804196 6.649351-24.551449 9.718282-36.315684c2.045954-8.695305 5.114885-17.902098 8.183816-26.597403-7.160839-6.137862-13.298701-12.275724-18.925075-19.436563-5.114885-6.649351-7.672328-12.275724-7.672328-16.367633 0-5.626374 1.534466-10.741259 5.114885-16.367632s7.160839-10.22977 11.252748-14.321678c4.603397-4.603397 10.741259-9.718282 17.390609-14.321679h50.637363c6.137862 4.603397 11.764236 9.718282 17.390609 14.321679 4.603397 4.091908 9.206793 8.695305 12.787213 14.833166 3.58042 5.626374 5.626374 11.252747 5.626373 16.879121 0 6.649351-2.557443 13.298701-7.160839 19.948052-4.603397 6.137862-10.741259 12.275724-17.390609 17.902098 2.045954 7.672328 4.603397 16.879121 7.160839 29.154845 2.557443 11.764236 5.626374 24.03996 8.183816 36.315685 2.557443 11.764236 5.114885 23.016983 7.160839 33.246753 2.557443 10.22977 4.091908 17.390609 3.58042 21.482517z" p-id="29363"></path><path d="M959.040959 1022.977023c-164.699301 0-298.709291-134.00999-298.709291-298.709291s134.00999-298.709291 298.709291-298.70929 298.709291 134.00999 298.709291 298.70929-134.00999 298.709291-298.709291 298.709291z m0-530.925075c-127.872128 0-232.215784 104.343656-232.215784 232.215784s104.343656 232.215784 232.215784 232.215784 232.215784-104.343656 232.215784-232.215784-104.343656-232.215784-232.215784-232.215784z" p-id="29364"></path></svg>