<?xml version="1.0" standalone="no"?><!DOCTYPE svg PUBLIC "-//W3C//DTD SVG 1.1//EN" "http://www.w3.org/Graphics/SVG/1.1/DTD/svg11.dtd"><svg t="1573802468508" class="icon" viewBox="0 0 1024 1024" version="1.1" xmlns="http://www.w3.org/2000/svg" p-id="10766" xmlns:xlink="http://www.w3.org/1999/xlink" width="200" height="200"><defs><style type="text/css"></style></defs><path d="M511.741805 0C229.276853 0 0 229.276853 0 511.741805s229.276853 511.741805 511.741805 511.741806 511.741805-229.276853 511.741806-511.741806S794.723147 0 511.741805 0z m296.407464 586.618255H489.537065c-22.72113 0-41.311145-18.590015-41.311145-41.311145 0-3.098336 0.516389-5.680282 1.032779-8.262229V225.145739c0-17.557237 14.458901-32.016137 32.016137-32.016137h21.171962c17.557237 0 32.016137 14.458901 32.016137 32.016137v278.850227h273.686334c22.72113 0 41.311145 18.590015 41.311145 41.311144s-18.590015 41.311145-41.311145 41.311145z" p-id="10767"></path></svg>