<?xml version="1.0" standalone="no"?><!DOCTYPE svg PUBLIC "-//W3C//DTD SVG 1.1//EN" "http://www.w3.org/Graphics/SVG/1.1/DTD/svg11.dtd"><svg class="icon" width="200px" height="156.46px" viewBox="0 0 1309 1024" version="1.1" xmlns="http://www.w3.org/2000/svg"><path d="M1288.233918 888.51462C1148.25731 678.175439 882.526316 247.017544 743.298246 37.426901c-29.94152-38.175439-101.80117-59.883041-145.216375 0C459.602339 246.269006 159.438596 699.883041 19.461988 910.97076c-32.935673 46.409357-32.187135 109.28655 69.614035 112.280702h1163.976609c68.116959-3.74269 68.116959-85.333333 35.181286-134.736842z m-617.54386 0c-36.678363 0-66.619883-29.94152-66.619883-67.368421s29.94152-67.368421 66.619883-67.368421 66.619883 29.94152 66.619884 67.368421-29.94152 67.368421-66.619884 67.368421z m50.152047-236.538012c0.748538 16.467836-15.719298 33.684211-33.68421 33.684211h-33.684211c-17.964912 0-32.935673-17.216374-33.68421-33.684211l-33.684211-321.122807c0-27.695906 22.45614-50.900585 50.152047-50.900585h66.619883c27.695906 0 50.152047 22.45614 50.152047 50.900585l-32.187135 321.122807z" /></svg>