<?xml version="1.0" standalone="no"?><!DOCTYPE svg PUBLIC "-//W3C//DTD SVG 1.1//EN" "http://www.w3.org/Graphics/SVG/1.1/DTD/svg11.dtd"><svg t="1571726191600" class="icon" viewBox="0 0 1075 1024" version="1.1" xmlns="http://www.w3.org/2000/svg" p-id="20861" xmlns:xlink="http://www.w3.org/1999/xlink" width="209.9609375" height="200"><defs><style type="text/css"></style></defs><path d="M935.079646 883.539823c-77.59292 0-139.893805-62.300885-139.893805-139.327434 0-77.026549 62.867257-139.327434 139.893805-139.327433s139.893805 62.300885 139.893805 139.327433c0.566372 77.026549-62.300885 139.327434-139.893805 139.327434z m0.566372-323.964602c-7.929204 0-15.858407 0.566372-23.787611 1.699115v-2.265486c0-146.123894-84.955752-271.858407-207.858407-333.026549 14.159292-26.619469 21.522124-56.070796 21.522124-86.088496 0-2.265487-0.566372-5.097345-0.566372-7.362832 164.814159 71.929204 280.920354 235.610619 280.920354 426.477877 0 4.530973-0.566372 9.061947-0.566371 13.59292-22.654867-8.495575-46.442478-13.026549-69.663717-13.026549zM538.053097 278.654867c-77.59292 0-140.460177-62.300885-140.460177-139.327433C397.59292 62.300885 460.460177 0 538.053097 0s140.460177 62.300885 140.460177 139.327434c0 77.026549-62.867257 139.327434-140.460177 139.327433zM163.681416 559.00885v2.265486c-7.929204-1.132743-15.858407-1.699115-23.787611-1.699115-24.353982 0-47.575221 5.097345-69.097345 13.026549 0-4.530973-0.566372-9.061947-0.566372-13.59292 0-190.300885 115.539823-354.548673 280.353983-425.911505 0 2.265487-0.566372 4.530973-0.566372 6.79646 0 31.150442 7.929204 60.60177 21.522124 86.088496-122.902655 60.60177-207.858407 186.902655-207.858407 333.026549z m116.672566 185.203539c0 77.026549-62.867257 139.327434-139.893805 139.327434S0 821.238938 0 744.212389c0-77.026549 62.867257-139.327434 139.893805-139.327433s140.460177 62.867257 140.460177 139.327433z m18.123894 100.247788c65.132743 53.80531 148.389381 86.654867 239.575221 86.654867s175.00885-32.849558 239.575222-86.654867c16.99115 26.619469 40.212389 48.707965 68.530973 64-82.123894 71.929204-189.734513 115.539823-307.539823 115.539823-118.371681 0-225.415929-44.176991-308.106195-115.539823 27.185841-15.292035 50.973451-37.380531 67.964602-64z" p-id="20862"></path></svg>