<?xml version="1.0" standalone="no"?><!DOCTYPE svg PUBLIC "-//W3C//DTD SVG 1.1//EN" "http://www.w3.org/Graphics/SVG/1.1/DTD/svg11.dtd"><svg class="icon" width="200px" height="200.00px" viewBox="0 0 1024 1024" version="1.1" xmlns="http://www.w3.org/2000/svg"><path d="M994.190861 582.359696L560.17798 791.050995c-41.513188 19.381157-58.018432 19.381157-96.405627 0L29.634433 582.359696C6.627124 569.355565 0.375137 520.840152 0.375137 494.45677c22.257071 13.254211 45.014301 25.508104 68.271689 36.5116l443.39086 218.444397 443.39086-218.444397c0.750238-0.250079 40.262791-21.506832 68.14665-36.5116-0.12504 27.00858-8.002542 77.274549-29.384335 87.902926z m0-218.569437L560.17798 572.481558c-41.513188 19.256117-58.018432 19.256117-96.405627 0L29.634433 363.790259c-34.135845-19.256117-33.135527-80.150463 0-102.907692l434.01288-245.077859c38.387195-20.506515 62.269782-21.631872 96.405627 0l434.012881 245.077859c33.135527 19.381157 32.010169 87.027648 0.12504 102.907692zM511.912647 967.857164l443.39086-218.444397c0.750238-0.12504 40.262791-21.506832 68.146649-36.511599 0 27.13362-7.877503 77.399589-29.259295 88.027965L560.17798 1009.495392c-41.513188 19.256117-58.018432 19.256117-96.405627 0L29.634433 800.929133C6.627124 787.799962 0.375137 739.409589 0.375137 712.901168c29.009216 17.755641 69.772166 37.386877 68.271689 36.511599L511.912647 967.857164z m0 0" /></svg>