<?xml version="1.0" standalone="no"?><!DOCTYPE svg PUBLIC "-//W3C//DTD SVG 1.1//EN" "http://www.w3.org/Graphics/SVG/1.1/DTD/svg11.dtd"><svg t="1586486634346" class="icon" viewBox="0 0 1024 1024" version="1.1" xmlns="http://www.w3.org/2000/svg" p-id="4199" xmlns:xlink="http://www.w3.org/1999/xlink" width="200" height="200"><defs><style type="text/css"></style></defs><path d="M990.245614 392.123229l-199.373999 199.373998c-44.165126 44.165126-115.460259 44.165126-159.625385 0l-39.748613-39.748613 79.497227-79.497228c22.082563 22.082563 57.414664 22.082563 79.497227 0l119.876772-119.876771c22.082563-22.082563 22.082563-57.414664 0-79.497227l-119.876772-119.876772c-22.082563-22.082563-57.414664-22.082563-79.497227 0l-119.876771 119.876772c-22.082563 22.082563-22.082563 57.414664 0 79.497227L471.620845 431.871842l-39.748614-39.748613c-44.165126-44.165126-44.165126-115.460259 0-159.625386L631.24623 33.123845c44.165126-44.165126 115.460259-44.165126 159.625385 0l199.373999 199.373998c44.165126 44.165126 44.165126 115.460259 0 159.625386zM352.375004 631.245841L631.24623 352.374615l39.748614 39.748614-278.871226 278.871226-39.748614-39.748614z m0-79.497227c-22.082563-22.082563-57.414664-22.082563-79.497227 0l-119.876772 119.876771c-22.082563 22.082563-22.082563 57.414664 0 79.497227l119.876772 119.876772c22.082563 22.082563 57.414664 22.082563 79.497227 0l119.876772-119.876772c22.082563-22.082563 22.082563-57.414664 0-79.497227l79.497227-79.497227 39.748614 39.748613c44.165126 44.165126 44.165126 115.460259 0 159.625386L392.123618 990.876155c-44.165126 44.165126-115.460259 44.165126-159.625385 0L33.124234 790.871226c-44.165126-44.165126-44.165126-115.460259 0-159.625385l199.373999-199.373999c44.165126-44.165126 115.460259-44.165126 159.625385 0l39.748613 39.748614-79.497227 80.128158z" p-id="4200"></path></svg>