<?xml version="1.0" standalone="no"?><!DOCTYPE svg PUBLIC "-//W3C//DTD SVG 1.1//EN" "http://www.w3.org/Graphics/SVG/1.1/DTD/svg11.dtd"><svg class="icon" width="200px" height="200.00px" viewBox="0 0 1024 1024" version="1.1" xmlns="http://www.w3.org/2000/svg"><path d="M98.070428 718.309736l268.882661-268.882662-68.873888-68.873888L29.071768 649.560619C10.730352 667.777263 0.499086 692.606799 0.499086 718.434507c0 25.827708 10.356038 50.657244 28.697454 68.873888l206.746436 206.746436c18.216644 18.341416 42.921409 28.697453 68.873888 28.697454 25.827708 0 50.657244-10.356038 68.873888-28.697454l269.007432-269.007432-68.873888-68.873889-269.007432 268.882662L98.070428 718.309736z m269.007432-268.882662L298.079201 380.553186 29.071768 649.560619C10.730352 667.777263 0.499086 692.606799 0.499086 718.434507c0 25.827708 10.356038 50.657244 28.697454 68.873888l206.746436 206.746436c18.216644 18.341416 42.921409 28.697453 68.873888 28.697454 25.827708 0 50.657244-10.356038 68.873888-28.697454l269.007432-269.007432-68.873888-68.873889-269.007432 268.882662L98.070428 718.309736l269.007432-268.882662z m82.598758-82.598757l-68.99866-68.998659L649.311076 29.321311C667.52772 10.979895 692.357256 0.748629 718.184964 0.748629s50.657244 10.356038 68.873888 28.572682L993.805288 236.067747c18.466187 18.216644 28.822225 42.921409 28.822225 68.873888 0 25.827708-10.356038 50.657244-28.822225 68.873888L725.296942 642.32387l-68.99866-68.873888 268.383575-268.508347L718.060193 98.195199 449.551846 366.703546l0.124772 0.124771zM718.184964 98.319971L449.676618 366.828317l-68.99866-68.998659L649.311076 29.321311C667.52772 10.979895 692.357256 0.748629 718.184964 0.748629s50.657244 10.356038 68.873888 28.572682L993.805288 236.067747c18.466187 18.216644 28.822225 42.921409 28.822225 68.873888 0 25.827708-10.356038 50.657244-28.822225 68.873888L725.296942 642.32387l-68.99866-68.873888 268.383575-268.508347L718.060193 98.195199l0.124771 0.124772zM342.373096 746.882417l-66.128914-66.128914 404.259778-404.259778 66.128914 66.128914-404.010235 404.135007-0.249543 0.124771z m0 0" /></svg>