<?xml version="1.0" standalone="no"?><!DOCTYPE svg PUBLIC "-//W3C//DTD SVG 1.1//EN" "http://www.w3.org/Graphics/SVG/1.1/DTD/svg11.dtd"><svg t="1594611604559" class="icon" viewBox="0 0 1448 1024" version="1.1" xmlns="http://www.w3.org/2000/svg" p-id="1213" xmlns:xlink="http://www.w3.org/1999/xlink" width="282.8125" height="200"><defs><style type="text/css"></style></defs><path d="M1232.41142007-127.92586412H226.50286589c-38.79759114 0-69.82689556 31.02930444-69.82689557 69.81645714V1113.29433777h67.22563701l160.33651463-160.31772643 162.91272263 160.31772643h20.68689837l162.91272264-160.31772643 162.91063398 160.31772643h20.66811017l160.33651462-160.31772643 162.91272263 160.31772643h67.22146092V-55.52484919c0.00208745-41.3717105-33.60759869-72.40101493-72.38848785-72.40101493z m-155.1694889 755.07912005c0 20.68272348-15.50316946 36.20468236-36.18798038 36.20468235H423.02736331c-20.69524935 0-36.21303333-15.52195888-36.21303455-36.20468235v-41.3717105c0-20.68481092 15.51987143-36.18589415 36.21303455-36.18589415h615.43785358c20.68272348 0 36.20259491 15.50108202 36.20259613 36.18589415h2.57411815v41.3717105z m0-338.75240793c0 20.68689957-15.50316946 36.20468236-36.18798038 36.20468236H423.02736331c-20.69524935 0-36.21303333-15.51778399-36.21303455-36.20468236V247.0291375c0-20.70360033 15.51987143-36.20677101 36.21303455-36.2067698h615.43785358c20.68272348 0 36.20259491 15.50316946 36.20259613 36.2067698h2.57411815v41.3717105z" p-id="1214"></path></svg>