<?xml version="1.0" standalone="no"?><!DOCTYPE svg PUBLIC "-//W3C//DTD SVG 1.1//EN" "http://www.w3.org/Graphics/SVG/1.1/DTD/svg11.dtd"><svg t="1596592134148" class="icon" viewBox="0 0 1605 1024" version="1.1" xmlns="http://www.w3.org/2000/svg" p-id="1084" xmlns:xlink="http://www.w3.org/1999/xlink" width="313.4765625" height="200"><defs><style type="text/css"></style></defs><path d="M1603.531898 511.599217c0 20.039139-6.011742 40.479061-17.834833 60.918983-83.362818 135.865362-195.782387 244.878278-336.857926 326.637964C1107.563209 981.116243 958.672407 1021.996086 801.765949 1021.996086s-305.79726-41.080235-446.872798-123.040313c-141.075538-82.16047-253.495108-190.972994-337.058317-326.237182-11.823092-20.640313-17.834834-41.080235-17.834834-61.119374 0-20.23953 6.011742-40.479061 17.834834-61.119374C101.398043 315.215656 213.617221 206.403131 354.692759 124.443053 495.968689 42.282583 644.859491 1.202348 801.765949 1.202348S1107.563209 42.282583 1248.638748 124.242661c141.075538 82.16047 253.294716 190.772603 336.857925 326.036791 12.023483 20.840705 18.035225 41.280626 18.035225 61.319765z m-114.623875 0C1398.331115 372.12681 1284.709198 267.923288 1148.04227 198.788258c36.270841 61.319765 54.506458 127.849706 54.506458 199.389433 0 109.213307-39.276712 202.595695-117.629746 280.347554-78.353033 77.551468-172.937769 116.427397-283.153033 116.427397-110.415656 0-204.8-38.87593-283.353425-116.427397s-117.629746-171.134247-117.629745-280.347554c0-71.539726 18.235616-138.069667 54.506458-199.389433C318.822701 267.923288 205.200783 372.12681 114.423483 511.599217c79.35499 121.036399 178.749119 217.625049 298.583171 289.365167 119.433268 71.740117 249.086497 107.610176 388.759295 107.610176 139.472407 0 269.125636-35.870059 388.759296-107.610176 119.633659-71.740117 219.027789-168.328767 298.382778-289.365167zM832.22544 201.393346c8.216047-8.216047 12.424266-18.235616 12.424266-30.259099 0-11.823092-4.208219-21.842661-12.424266-30.058709-8.416438-8.216047-18.436008-12.424266-30.459491-12.424266-74.545597 0-138.670841 26.451663-191.974951 79.35499-53.30411 52.702935-79.956164 116.026614-79.956164 189.971037 0 11.823092 4.208219 21.842661 12.424266 30.058709 8.416438 8.216047 18.636399 12.424266 30.459491 12.424266 11.823092 0 22.043053-4.208219 30.2591-12.424266 8.216047-8.416438 12.424266-18.436008 12.424266-30.058709 0-50.899413 18.235616-94.183953 54.506458-130.254403 36.471233-36.07045 80.356947-54.105675 131.657143-54.105675 12.223875 0.200391 22.243444-3.807436 30.659882-12.223875z m0 0" p-id="1085"></path></svg>