<?xml version="1.0" standalone="no"?><!DOCTYPE svg PUBLIC "-//W3C//DTD SVG 1.1//EN" "http://www.w3.org/Graphics/SVG/1.1/DTD/svg11.dtd"><svg class="icon" width="200px" height="200.00px" viewBox="0 0 1024 1024" version="1.1" xmlns="http://www.w3.org/2000/svg"><path d="M1019.32954864 495.68881778c-4.53088395-260.46110025-222.27222124-471.8592-490.63000494-476.26063013-275.34829037-4.53088395-503.18702617 209.7152-507.58845629 476.39008396-0.77672297 46.99173925 5.30760691 92.55948642 17.47626667 135.66761086 26.27912691 93.4656632 17.73517431 192.75674864-25.63185778 279.87917433l-1.81235358 3.75416098c-26.40858075 52.94661531 30.81001086 108.35285333 85.3100721 82.85044939l3.88361481-1.81235359c89.84095605-42.20194765 192.1094795-50.35753876 288.4231269-24.85513482 44.40266272 11.78029827 91.39440197 17.73517431 139.81013334 16.95845137 274.83047506-4.14252247 495.41979653-225.24965925 490.75945877-492.57181235z m-374.50992197 142.39920987c0 26.40858075-22.00715061 47.76846222-49.19245432 47.76846222H323.90358914c-27.1853037 0-49.19245431-21.35988148-49.19245432-47.76846222s22.00715061-47.76846222 49.19245432-47.76846222h271.59412938c27.31475753 0 49.32190815 21.35988148 49.32190815 47.76846222z m133.07853431-244.5382795c0 26.40858075-22.00715061 47.76846222-49.19245431 47.76846222H323.90358914c-27.1853037 0-49.19245431-21.35988148-49.19245432-47.76846222s22.00715061-47.76846222 49.19245432-47.76846223h404.67266369c27.1853037 0 49.32190815 21.35988148 49.32190815 47.76846223z" /></svg>