<?xml version="1.0" standalone="no"?><!DOCTYPE svg PUBLIC "-//W3C//DTD SVG 1.1//EN" "http://www.w3.org/Graphics/SVG/1.1/DTD/svg11.dtd"><svg t="1586310245514" class="icon" viewBox="0 0 1024 1024" version="1.1" xmlns="http://www.w3.org/2000/svg" p-id="4345" xmlns:xlink="http://www.w3.org/1999/xlink" width="200" height="200"><defs><style type="text/css"></style></defs><path d="M322.182618 397.658966c43.933993 0 80.545655-36.611661 80.545655-80.545655C403.291529 273.179318 366.116612 236.567657 322.182618 236.567657c-43.933993 0-80.545655 36.611661-80.545654 80.545654 0 43.933993 36.611661 80.545655 80.545654 80.545655zM807.146315 515.379538l-1.126513-3.942794-3.379538-9.575358v0.563256l-69.280528-207.278327-256.844885 330.631463-73.223322-117.720572-272.052805 279.375137h760.959296l-85.051705-272.052805z" p-id="4346"></path><path d="M924.30363 0H99.133113C44.49725 0 0 44.49725 0 99.133113v825.733774c0 54.635864 44.49725 99.133113 99.133113 99.133113h825.733774c54.635864 0 99.133113-44.49725 99.133113-99.133113V99.133113c-0.563256-54.635864-45.060506-99.133113-99.69637-99.133113z m33.232124 924.30363c0 18.024202-14.644664 33.232123-33.232124 33.232124H99.133113c-18.024202 0-33.232123-14.644664-33.232123-33.232124V99.133113c0-18.024202 14.644664-33.232123 33.232123-33.232123h825.733774c18.024202 0 33.232123 14.644664 33.232123 33.232123v825.170517z" p-id="4347"></path></svg>