<?xml version="1.0" standalone="no"?><!DOCTYPE svg PUBLIC "-//W3C//DTD SVG 1.1//EN" "http://www.w3.org/Graphics/SVG/1.1/DTD/svg11.dtd"><svg t="1578022012853" class="icon" viewBox="0 0 1024 1024" version="1.1" xmlns="http://www.w3.org/2000/svg" p-id="14089" xmlns:xlink="http://www.w3.org/1999/xlink" width="200" height="200"><defs><style type="text/css"></style></defs><path d="M354.816 55.296H91.136C40.448 55.296 2.048 93.696 2.048 140.288v263.68C2.048 450.56 40.448 493.056 91.136 493.056h263.68c46.592 0 89.088-38.4 89.088-89.088V140.288c-4.096-46.592-42.496-84.992-89.088-84.992m641.536 157.184L809.472 25.6c-33.792-33.792-89.088-33.792-123.392 0l-25.6 25.6-161.28 161.28c-16.896 16.896-25.6 38.4-25.6 63.488 0 20.992 8.704 46.592 25.6 63.488l25.6 25.6 136.192 136.192 25.6 25.6c33.792 33.792 89.088 33.792 123.392 0l161.28-161.28 25.6-25.6c33.28-38.4 33.28-93.696-0.512-127.488M354.816 582.144H91.136c-46.592 0-89.088 38.4-89.088 89.088v263.68c0 46.592 38.4 84.992 89.088 84.992h263.68c46.592 0 89.088-38.4 89.088-89.088v-263.68c-4.096-46.592-42.496-84.992-89.088-84.992m526.848 0h-263.68c-46.592 0-89.088 38.4-89.088 89.088v263.68c0 46.592 38.4 89.088 89.088 89.088h263.68c46.592 0 89.088-38.4 89.088-89.088v-263.68c-4.096-50.688-42.496-89.088-89.088-89.088" p-id="14090"></path></svg>