<?xml version="1.0" standalone="no"?><!DOCTYPE svg PUBLIC "-//W3C//DTD SVG 1.1//EN" "http://www.w3.org/Graphics/SVG/1.1/DTD/svg11.dtd"><svg class="icon" width="200px" height="200.00px" viewBox="0 0 1024 1024" version="1.1" xmlns="http://www.w3.org/2000/svg"><path d="M975.8785796 999.59585729c0 9.08122088-7.36315206 16.32165372-16.32165374 16.32165373h-892.16859103c-9.08122088 0-16.32165372-7.36315206-16.32165374-16.32165373 0-1.34991122 0.12271919-2.5771032 0.49087681-3.80429521 8.34490568-193.16002232 135.11384025-355.51752522 309.49782484-416.3862489l117.81043292 117.81043292 16.44437292-74.1223974-19.63507215-12.6400777v-37.79751389H551.27014424v37.79751389l-19.38963376 13.37639293 16.32165373 73.38608217 117.81043294-117.81043292c174.38398458 60.86872369 301.15291918 223.34894577 309.49782481 416.3862489 0.24543839 1.1044728 0.36815759 2.45438401 0.36815764 3.80429521zM513.47263034 553.51156178c-153.15356281 0-277.22267501-124.06911219-277.22267499-277.222675 0-153.15356281 124.06911219-277.22267501 277.22267499-277.22267499s277.22267501 124.06911219 277.22267499 277.22267499c0 153.15356281-124.19183137 277.22267501-277.22267499 277.222675z m-65.90021092-355.76296361c-8.71306327-18.03972254-182.36073263-37.67479471-185.91958946 83.20361827C257.48037713 419.87035193 374.43177565 530.80850959 513.47263034 530.80850959c139.1635739 0 251.94251958-107.25658164 251.94251958-246.17471714 0-138.91813551-262.98724769 27.36638181-317.8427305-86.88519428z" /></svg>