<?xml version="1.0" standalone="no"?><!DOCTYPE svg PUBLIC "-//W3C//DTD SVG 1.1//EN" "http://www.w3.org/Graphics/SVG/1.1/DTD/svg11.dtd"><svg class="icon" width="200px" height="200.00px" viewBox="0 0 1024 1024" version="1.1" xmlns="http://www.w3.org/2000/svg"><path d="M781.756062 1022.752285l184.661874-164.8232v-58.767394H767.78165l-12.726697 3.867918c-4.242232 1.996345-8.359693 4.367004-12.102839 6.987206-4.242232 2.370659-8.11015 5.365176-11.478981 8.983551-6.612891 6.48812-11.853296 14.348727-15.346899 22.957962l-3.867918 12.726697c-0.374315 4.491775-0.374315 8.983551 0 13.475326v154.591934h69.497746z m133.505544-226.086024h12.726697-12.726697z m0 0"  /><path d="M889.059583 0.748629H134.067016C113.729256-0.374315 93.76581 7.111978 79.16754 21.335933A72.607053 72.607053 0 0 0 56.833435 75.48678v866.787864c-0.873401 21.08639 6.862435 41.548922 21.460704 56.771049 14.59827 15.222127 34.811259 23.831363 55.772877 23.706592h486.733764V866.912636c-0.998172-9.981723-0.998172-20.088217 0-30.069941 1.996345-10.231266 4.990861-20.33776 8.98355-30.06994 3.992689-9.856951 8.858779-19.214817 14.723042-28.073596 6.113805-9.233094 13.101011-17.84233 21.086389-25.578165 7.486292-7.361521 15.596442-13.974412 24.33045-19.838674 8.858779-5.739491 18.341416-10.730352 28.073596-14.723041 9.856951-4.242232 20.088217-7.236749 30.693798-8.983551 9.981723-0.998172 20.088217-0.998172 30.06994 0H963.797734V75.48678c0.374315-19.963446-7.361521-39.178262-21.460705-53.277447A73.346948 73.346948 0 0 0 889.059583 0.748629zM471.324479 703.337151H279.675399c-25.079079 0-45.292068-20.33776-45.292068-45.416839 0-25.079079 20.33776-45.292068 45.292068-45.292068h191.64908c25.079079 0 45.292068 20.33776 45.292068 45.292068 0.124772 25.20385-20.212989 45.416839-45.292068 45.416839zM615.685147 532.899232H279.051541c-11.978068 0.124772-23.457049-4.491775-32.066285-12.851468-8.484464-8.359693-13.350554-19.838674-13.350554-31.816742s4.741318-23.58182 13.225783-32.066285c8.484464-8.484464 20.088217-13.225783 32.066285-13.225782H615.685147c11.978068 0 23.58182 4.741318 32.066285 13.225782 8.484464 8.484464 13.225783 20.088217 13.225783 32.066285 0 11.978068-4.741318 23.457049-13.350555 31.816742-8.484464 8.359693-19.963446 12.97624-31.941513 12.851468z m127.766053-173.182892H279.051541c-11.978068 0-23.58182-4.741318-32.066285-13.225783-8.484464-8.484464-13.225783-20.088217-13.225782-32.066285 0-11.978068 4.741318-23.457049 13.350554-31.816742 8.484464-8.359693 20.088217-13.101011 32.066285-12.851468H744.199829c11.978068-0.124772 23.457049 4.491775 32.066285 12.851468 8.484464 8.359693 13.350554 19.838674 13.350555 31.816742s-4.741318 23.58182-13.225783 32.066285c-8.484464 8.484464-20.088217 13.225783-32.066285 13.225783h-0.873401z m0 0"  /></svg>