<?xml version="1.0" standalone="no"?><!DOCTYPE svg PUBLIC "-//W3C//DTD SVG 1.1//EN" "http://www.w3.org/Graphics/SVG/1.1/DTD/svg11.dtd"><svg class="icon" width="200px" height="200.00px" viewBox="0 0 1024 1024" version="1.1" xmlns="http://www.w3.org/2000/svg"><path d="M1020.586667 259.84c-2.56-37.546667-34.133333-68.266667-75.52-68.266667h-115.626667c-6.826667 0-12.373333 5.546667-12.373333 12.8v40.106667c0 59.306667-49.066667 109.226667-111.786667 109.226667-62.293333 0-111.786667-49.493333-111.786667-109.226667v-40.106667c0-6.826667-5.546667-12.8-12.373333-12.8h-145.493333c-6.826667 0-12.373333 5.546667-12.373334 12.8v40.106667c0 59.306667-49.066667 109.226667-111.786666 109.226667-62.293333 0-111.786667-49.493333-111.786667-109.226667v-40.106667c0-6.826667-5.546667-12.8-12.373333-12.8H78.506667c-42.666667 0-75.52 32.853333-75.52 72.533334v680.533333c0 39.68 32.853333 78.506667 75.52 78.506667h866.986666c40.96 0 72.96-36.266667 75.52-73.813334V260.693333c-0.426667 0-0.426667-0.426667-0.426666-0.853333z m-584.533334 546.986667c0 6.826667-5.546667 12.8-12.373333 12.8h-46.933333c-6.826667 0-12.373333-5.546667-12.373334-12.8V554.666667a12.8 12.8 0 0 0-12.8-12.8c-7.253333 0-12.8-5.546667-12.8-12.8v-15.36c0-5.546667 3.413333-10.24 8.533334-11.946667 5.12-1.706667 10.24-2.986667 14.506666-2.986667 6.4 0 19.626667-6.4 26.453334-6.4 6.4 0 15.786667-2.986667 25.6-6.4 0.426667 0 0.853333-0.426667 1.28-0.426666 2.133333-0.853333 4.693333-1.706667 7.253333-2.133334 7.68-1.706667 15.36 4.266667 15.36 12.373334v311.04z m285.866667-93.013334c0 13.226667-3.413333 29.866667-9.813333 43.093334-6.4 13.226667-13.226667 23.04-23.04 32.853333-9.813333 9.813333-19.626667 16.64-32.853334 23.04-13.226667 6.4-26.453333 9.813333-42.666666 9.813333s-29.44-3.413333-42.666667-9.813333c-13.226667-6.4-23.04-13.226667-32.853333-23.04-9.813333-9.813333-16.213333-19.626667-23.04-32.853333a94.293333 94.293333 0 0 1-9.813334-43.093334v-125.44c0-16.64 3.413333-29.866667 9.813334-43.093333 6.4-13.226667 13.226667-23.04 23.04-32.853333 9.813333-9.813333 19.626667-16.64 32.853333-23.04 13.226667-6.4 26.453333-9.813333 42.666667-9.813334s29.44 3.413333 42.666666 9.813334c13.226667 6.4 23.04 13.226667 32.853334 23.04 9.813333 9.813333 16.213333 19.626667 23.04 32.853333 6.4 13.226667 9.813333 26.453333 9.813333 43.093333v125.44z"  /><path d="M308.48 286.72c-23.04 0-41.813333-18.773333-41.813333-41.813333V42.666667c0-23.04 18.773333-41.813333 41.813333-41.813334s41.813333 18.773333 41.813333 41.813334v202.666666c0 22.613333-18.773333 41.386667-41.813333 41.386667zM702.72 286.293333c-23.04 0-41.813333-18.773333-41.813333-41.813333V42.24c0-23.04 18.773333-41.813333 41.813333-41.813333s41.813333 18.773333 41.813333 41.813333v202.666667c0 22.613333-18.773333 41.386667-41.813333 41.386666zM611.413333 780.373333c-18.773333 0-34.133333-15.36-34.133333-34.133333v-187.733333c0-18.773333 15.36-34.133333 34.133333-34.133334 18.773333 0 34.133333 15.36 34.133334 34.133334v187.733333c0 19.2-15.36 34.133333-34.133334 34.133333z"  /></svg>