<?xml version="1.0" standalone="no"?><!DOCTYPE svg PUBLIC "-//W3C//DTD SVG 1.1//EN" "http://www.w3.org/Graphics/SVG/1.1/DTD/svg11.dtd"><svg class="icon" width="200px" height="200.00px" viewBox="0 0 1024 1024" version="1.1" xmlns="http://www.w3.org/2000/svg"><path d="M255.573333 575.573333H29.013333c-20.053333 0-28.16 6.4-29.013333 24.32v397.653334c0.853333 17.92 8.96 23.893333 29.013333 23.893333H248.32c14.506667 0 29.44-7.253333 36.693333-29.44v-387.84c0-6.826667-21.76-28.586667-29.44-28.586667zM621.653333 4.693333H387.413333c-14.506667 0-21.76 7.253333-29.44 29.44v958.72c0 21.76 7.253333 29.44 29.44 29.44h234.24c14.506667 0 29.44-14.506667 29.44-21.76V34.133333c-0.426667-22.186667-22.186667-29.44-29.44-29.44zM994.56 339.626667h-226.56c-21.76 0-29.44 7.253333-29.44 29.44v621.653333c0 21.76 7.253333 29.44 29.44 29.44h226.56c21.76 0 29.44-14.506667 29.44-29.44V369.066667c-0.426667-22.186667-7.68-29.44-29.44-29.44z" /></svg>