<?xml version="1.0" standalone="no"?><!DOCTYPE svg PUBLIC "-//W3C//DTD SVG 1.1//EN" "http://www.w3.org/Graphics/SVG/1.1/DTD/svg11.dtd"><svg class="icon" width="200px" height="200.00px" viewBox="0 0 1024 1024" version="1.1" xmlns="http://www.w3.org/2000/svg"><path d="M978.33296361 1002.45223852c0 9.08122088-7.36315206 16.56709211-16.56709213 16.56709213h-899.53174309c-9.08122088 0-16.56709211-7.36315206-16.56709214-16.56709213 0-1.34991122 0.12271919-2.5771032 0.49087679-3.92701442 8.34490568-194.75537194 136.21831305-358.58550523 312.07492806-419.94510573l144.68593795 144.68593795c4.90876804 4.90876804 13.00823531 4.90876804 17.91700335 0l144.68593793-144.68593795c175.85661498 61.35960049 303.73002241 225.18973379 312.07492805 419.94510573 0.613596 1.22719203 0.73631522 2.5771032 0.73631523 3.92701442z m-119.89665935-583.52980058c0.36815759 3.06798002 0.49087681 6.13596005 0.49087681 9.20394003 0 47.00145397-38.1656715 85.16712546-85.1671255 85.16712548-34.48409548 0-64.05942289-20.49410655-77.43581578-49.82399557-46.26513877 47.98320757-111.18359609 77.8039734-182.97432866 77.80397341-78.172131 0-148.12207556-35.34312989-194.75537192-90.93492793-9.69481688 36.32488348-42.82900111 62.9549501-82.22186466 62.95495009-47.00145397 0-85.16712546-38.1656715-85.16712547-85.16712548 0-3.06798002 0.12271919-6.25867925 0.49087679-9.20394003-12.2719201-14.72630411-19.51235294-33.62506106-19.51235292-54.24188686 0-31.17067705 16.81253055-58.41433966 41.72452831-73.26336297-4.41789124-10.30841288-6.87227525-21.59857937-6.87227526-33.50234187 0-26.38462821 12.02648168-49.94671481 30.80251945-65.5320533-1.4726304-6.25867925-2.20894563-12.76279689-2.20894559-19.51235295 0-29.82076586 15.33990013-55.95995564 38.53382908-71.17713657 31.41611544-61.97319647 95.72097675-104.31132082 169.84337413-104.31132082 34.48409548 0 66.75924533 9.20394007 94.61650396 25.15743619 27.85725863-15.95349615 60.25512768-25.1574362 94.61650392-25.15743619 70.56354055 0 132.16857945 38.4111099 165.18004451 95.35281913 32.64330744 11.90376249 55.95995564 43.19715874 55.95995566 80.01291904 0 6.74955604-0.73631522 13.25367371-2.20894563 19.51235298 18.89875693 15.58533852 30.80251946 39.14742513 30.80251947 65.53205329 0 11.90376249-2.45438401 23.19392898-6.87227528 33.50234188 25.034717 14.84902331 41.72452834 42.09268593 41.72452833 73.26336298 0.12271919 20.61682577-7.24043285 39.51558272-19.38963375 54.36460604zM638.15533851 216.31303712c-35.46584908-6.13596005-126.03261939-56.32811325-126.03261938-56.32811321s-88.23510549 64.9184573-116.21508331 73.38608215c-43.31987794 13.00823531-114.25157611 18.16244173-114.98789131 55.10092123-2.82254165 128.3642842 104.06588241 232.43016663 232.55288583 232.43016663 128.3642842 0 229.2394674-104.06588241 232.55288583-232.43016663 0.98175359-48.35136519-70.80897898-65.77749172-107.87017766-72.15889017z" /></svg>