<?xml version="1.0" standalone="no"?><!DOCTYPE svg PUBLIC "-//W3C//DTD SVG 1.1//EN" "http://www.w3.org/Graphics/SVG/1.1/DTD/svg11.dtd"><svg class="icon" width="200px" height="200.00px" viewBox="0 0 1024 1024" version="1.1" xmlns="http://www.w3.org/2000/svg"><path d="M881.97447669 371.43520769c0 12.4642182-4.56007983 23.40840979-13.68023949 32.52856942-9.12015965 9.12015965-20.06435123 13.68023948-32.52856943 13.68023949H188.23433223c-12.4642182 0-23.40840979-4.56007983-32.52856943-13.68023949-9.12015965-9.12015965-13.68023948-19.91234858-13.68023949-32.52856942 0-12.4642182 4.56007983-23.40840979 13.68023949-32.52856945l323.76566776-323.76566775c9.12015965-9.12015965 19.91234858-13.68023948 32.52856944-13.68023949 12.4642182 0 23.40840979 4.56007983 32.52856944 13.68023949l323.76566776 323.76566775c9.12015965 9.12015965 13.68023948 19.91234858 13.68023949 32.52856945z m-13.68023949 244.87628674c9.12015965 9.12015965 13.68023948 20.06435123 13.68023949 32.52856943s-4.56007983 23.40840979-13.68023949 32.52856945l-323.76566776 323.76566775c-9.12015965 9.12015965-20.06435123 13.68023948-32.52856944 13.6802395s-23.40840979-4.56007983-32.52856944-13.6802395l-323.76566776-323.76566775c-9.12015965-9.12015965-13.68023948-19.91234858-13.68023949-32.52856945 0-12.4642182 4.56007983-23.40840979 13.68023949-32.52856943 9.12015965-9.12015965 19.91234858-13.68023948 32.52856943-13.68023949h647.53133554c12.61622086 0 23.40840979 4.56007983 32.52856943 13.68023949z" /></svg>