<?xml version="1.0" standalone="no"?><!DOCTYPE svg PUBLIC "-//W3C//DTD SVG 1.1//EN" "http://www.w3.org/Graphics/SVG/1.1/DTD/svg11.dtd"><svg class="icon" width="200px" height="143.42px" viewBox="0 0 1428 1024" version="1.1" xmlns="http://www.w3.org/2000/svg"><path d="M1370.936438 426.682955H641.685818c-31.273144 0-57.464402 26.191258-57.464402 57.464401v55.118916c0 31.273144 26.191258 57.464402 57.464402 57.464402h729.25062c31.273144 0 57.464402-26.191258 57.464402-57.464402v-55.118916c0.195457-31.077687-24.823058-57.464402-57.464402-57.464401z m0 425.314754H641.685818c-31.273144 0-57.464402 26.191258-57.464402 57.464402v55.118916c0 31.273144 26.191258 57.464402 57.464402 57.464402h729.25062c31.273144 0 57.464402-26.191258 57.464402-57.464402v-55.118916c0.195457-32.445887-24.823058-57.464402-57.464402-57.464402zM641.685818 171.611376h729.25062c31.273144 0 57.464402-26.191258 57.464402-57.464401V59.028059c0-31.273144-26.191258-57.464402-57.464402-57.464402H641.685818c-31.273144 0-57.464402 26.191258-57.464402 57.464402v55.118916c0 32.445887 26.191258 57.464402 57.464402 57.464401zM402.837183 1.3682h-55.118916c-31.273144 0-57.464402 26.191258-57.464402 57.464402v577.966787h-232.594006c-31.273144 0-57.464402 26.191258-57.464402 57.464402l297.681237 299.049437c9.968315 17.591143 28.732201 28.732201 50.03703 28.732201h55.118916c31.273144 0 57.464402-26.191258 57.464401-57.464402V60.200802C460.301584 27.754915 434.110326 1.3682 402.837183 1.3682z m0 0" /></svg>