<?xml version="1.0" standalone="no"?><!DOCTYPE svg PUBLIC "-//W3C//DTD SVG 1.1//EN" "http://www.w3.org/Graphics/SVG/1.1/DTD/svg11.dtd"><svg class="icon" width="200px" height="200.00px" viewBox="0 0 1024 1024" version="1.1" xmlns="http://www.w3.org/2000/svg"><path d="M993.18143 188.779335L517.053247 387.041306 39.677349 188.779335 515.930303 0.623858l477.251127 188.155477zM0.499086 271.25332l475.130011 202.628976v548.869989c-37.805776-17.0937-76.984038-34.811259-117.659559-53.402218-34.93603-15.596442-74.239064-32.939686-118.158645-52.279274L107.17875 859.052029c-15.970757-7.486292-30.693798-17.343244-43.545266-29.446083-12.851468-11.978068-24.080907-25.453393-33.688315-40.051663C20.587304 775.205556 13.225783 759.484343 8.11015 743.139271c-4.86609-15.471671-7.486292-31.442427-7.611064-47.662727v-424.223224z m1022.128427 0v421.977337c0 19.090045-3.743146 38.055319-10.855124 55.772877-7.236749 18.091873-16.594614 35.310345-27.824052 51.15633-10.730352 15.471671-23.207506 29.695626-37.181918 42.29755-12.227611 11.104667-25.702937 20.712075-40.301206 28.447911l-120.778848 51.15633c-42.172779 17.84233-80.976727 34.187401-116.661386 49.035214-41.798465 18.091873-82.598757 35.310345-122.525649 51.655416V473.882296l476.128183-202.628976z m0 0" /></svg>