<?xml version="1.0" standalone="no"?><!DOCTYPE svg PUBLIC "-//W3C//DTD SVG 1.1//EN" "http://www.w3.org/Graphics/SVG/1.1/DTD/svg11.dtd"><svg class="icon" width="200px" height="183.02px" viewBox="0 0 1119 1024" version="1.1" xmlns="http://www.w3.org/2000/svg"><path d="M952.035139 237.633968H167.918009C74.963397 237.633968 0 312.597365 0 405.551977v449.78038c0 92.954612 74.963397 167.918009 167.918009 167.918009H952.035139c92.954612 0 167.918009-74.963397 167.918009-167.918009v-449.78038c0-92.954612-74.963397-167.918009-167.918009-167.918009z m-167.918009 432.538799H599.707174v185.15959c0 22.489019-17.991215 39.7306-39.7306 39.730601-22.489019 0-39.7306-17.991215-39.7306-39.730601V669.423133H335.836018c-22.489019-2.998536-37.481698-23.238653-34.483163-45.727672 2.248902-17.991215 16.491947-32.234261 34.483163-34.483162h183.660322V404.052709c0-22.489019 17.991215-39.7306 39.7306-39.730601 22.489019 0 40.480234 17.991215 40.480234 39.730601v185.15959h183.660322c22.489019 2.998536 37.481698 23.238653 34.483163 45.727672-2.248902 17.991215-16.491947 32.234261-34.483163 34.483162l0.749634 0.749634zM303.601757 74.963397h524.743777c20.989751 0 37.481698-16.491947 37.481699-37.481699s-16.491947-37.481698-37.481699-37.481698h-524.743777c-20.989751 0-37.481698 16.491947-37.481698 37.481698s16.491947 37.481698 37.481698 37.481699z m-149.926794 122.93997h824.597365c20.989751 0 37.481698-16.491947 37.481698-37.481698s-16.491947-37.481698-37.481698-37.481698h-824.597365c-20.989751 0-37.481698 16.491947-37.481698 37.481698s16.491947 37.481698 37.481698 37.481698z" /></svg>