<?xml version="1.0" standalone="no"?><!DOCTYPE svg PUBLIC "-//W3C//DTD SVG 1.1//EN" "http://www.w3.org/Graphics/SVG/1.1/DTD/svg11.dtd"><svg class="icon" width="200px" height="200.00px" viewBox="0 0 1024 1024" version="1.1" xmlns="http://www.w3.org/2000/svg"><path d="M960 192H537.6c-17.067 0-34.133-6.4-44.8-19.2l-68.267-68.267c-12.8-12.8-27.733-19.2-44.8-19.2H64c-36.267 0-64 27.734-64 64v725.334c0 36.266 27.733 64 64 64h896c36.267 0 64-27.734 64-64V256c0-36.267-27.733-64-64-64zM718.933 582.4l-179.2 192c-8.533 8.533-19.2 12.8-32 12.8-10.666 0-23.466-4.267-32-12.8l-179.2-192c-25.6-27.733-6.4-70.4 32-70.4h98.134V384c0-23.467 19.2-42.667 42.666-42.667h85.334c23.466 0 42.666 19.2 42.666 42.667v128h89.6c38.4 0 57.6 44.8 32 70.4z" /></svg>