<?xml version="1.0" standalone="no"?><!DOCTYPE svg PUBLIC "-//W3C//DTD SVG 1.1//EN" "http://www.w3.org/Graphics/SVG/1.1/DTD/svg11.dtd"><svg class="icon" width="200px" height="200.00px" viewBox="0 0 1024 1024" version="1.1" xmlns="http://www.w3.org/2000/svg"><path d="M571.06015889 767.26536556H960.88285803V126.00413981H63.11714197v641.26122575h325.69657656L479.93693871 865.37833311 571.06015889 767.26536556z m27.95898943 64.12612258L479.93693871 959.6437333l-119.08220963-128.25224516H63.11714197a64.12612257 64.12612257 0 0 1-64.12612258-64.12612258V126.00413981a64.12612257 64.12612257 0 0 1 64.12612258-64.12612258h897.76571606a64.12612257 64.12612257 0 0 1 64.12612258 64.12612258v641.26122575a64.12612257 64.12612257 0 0 1-64.12612258 64.12612258h-361.86370971z"  /><path d="M255.4955097 382.50863012a32.06306129 32.06306129 0 0 1 0-64.12612259h513.0089806a32.06306129 32.06306129 0 1 1 0 64.12612259H255.4955097zM255.4955097 574.88699784a32.06306129 32.06306129 0 0 1 0-64.12612258h256.5044903a32.06306129 32.06306129 0 0 1 0 64.12612258H255.4955097z"  /></svg>