<?xml version="1.0" standalone="no"?><!DOCTYPE svg PUBLIC "-//W3C//DTD SVG 1.1//EN" "http://www.w3.org/Graphics/SVG/1.1/DTD/svg11.dtd"><svg t="1565333119427" class="icon" viewBox="0 0 1127 1024" version="1.1" xmlns="http://www.w3.org/2000/svg" p-id="10413" xmlns:xlink="http://www.w3.org/1999/xlink" width="220.1171875" height="200"><defs><style type="text/css"></style></defs><path d="M207.875253 103.789778h584.00231V41.397632c0-23.064395-18.333237-41.397632-41.397632-41.397632H41.397632C18.333237 0 0 18.333237 0 41.397632v500.319954c0 23.064395 18.333237 41.397632 41.397632 41.397632h125.079989V145.18741c0-23.064395 18.333237-41.397632 41.397632-41.397632zM207.875253 686.904996c-23.064395 0-41.397632-18.333237-41.397632-41.397632v125.079988c0 8.279526 4.731158 14.784869 10.940802 18.333237 6.505342 3.548368 15.671961 2.661276 22.177303-1.774184l133.359515-95.214554v-5.026855H207.875253zM937.064973 729.18972c5.913947 0 11.532198-1.182789 17.150447-2.661276 2.661276-5.322553 4.139763-11.2365 4.139763-17.741843v-62.687843c0 23.064395-18.333237 41.397632-41.397632 41.397632v-0.887092h-264.944845l-112.069304 80.133988 37.257869 25.134277 87.822119-62.687843h272.041583zM324.675715 750.479931h8.279526v-5.913948zM670.345943 854.269708l89.300606 59.73087c4.731158 3.252671 10.349408 4.139763 15.671961 2.956973l-93.736067-62.687843h-11.2365z" fill="currentColor" p-id="10414"></path><path d="M916.957551 686.904996v0.887092c23.064395 0 41.397632-18.333237 41.397632-41.397632V145.18741c0-23.064395-18.333237-41.397632-41.397632-41.397632H207.875253c-23.064395 0-41.397632 18.333237-41.397632 41.397632v500.024256c0 23.064395 18.333237 41.397632 41.397632 41.397632h125.079988v187.472134c0 8.279526 4.731158 14.784869 10.940803 18.333237 6.505342 3.548368 15.671961 2.661276 22.177303-1.774184l173.870055-124.192896 112.069304-80.133988h264.944845z" fill="" p-id="10415"></path><path d="M1083.435172 270.267398h-83.682357v396.234479c0 28.978342-18.924632 52.634132-45.537395 60.026567-5.322553 1.478487-11.2365 2.661276-17.150447 2.661276h-272.33728l-87.82212 62.687843-86.935027 62.392145h191.3162l93.736067 62.687843 150.805659 100.832804c6.505342 4.731158 14.784869 4.731158 21.290211 0.887092 6.505342-3.548368 10.940803-10.940803 10.940803-18.333237V853.974011h125.079988c23.064395 0 41.397632-18.333237 41.397633-41.397632V312.552122c1.182789-23.064395-18.333237-42.284724-41.101935-42.284724z" fill="" p-id="10416"></path></svg>