<?xml version="1.0" standalone="no"?><!DOCTYPE svg PUBLIC "-//W3C//DTD SVG 1.1//EN" "http://www.w3.org/Graphics/SVG/1.1/DTD/svg11.dtd"><svg t="1594949267466" class="icon" viewBox="0 0 1024 1024" version="1.1" xmlns="http://www.w3.org/2000/svg" p-id="1620" xmlns:xlink="http://www.w3.org/1999/xlink" width="200" height="200"><defs><style type="text/css"></style></defs><path d="M135.68 750.08c-15.36 0-33.28 15.36-33.28 33.28 0 15.36 15.36 33.28 33.28 33.28 5.12 0 133.12 0 215.04 89.6 5.12 5.12 10.24 10.24 23.04 10.24 5.12 0 10.24 0 23.04-10.24s10.24-33.28 0-43.52c-99.84-112.64-256-112.64-261.12-112.64z m829.44-209.92l-66.56-66.56c-10.24-10.24-28.16-10.24-38.4 0L819.2 514.56c-5.12 5.12-5.12 12.8 0 17.92l89.6 89.6c5.12 5.12 15.36 5.12 17.92 0l35.84-40.96c12.8-12.8 12.8-28.16 2.56-40.96zM824.32 227.84c-5.12-15.36-15.36-23.04-28.16-23.04h-10.24c-58.88 0-117.76 12.8-166.4 33.28-38.4-71.68-79.36-117.76-122.88-151.04-23.04-17.92-43.52 0-43.52 0-48.64 33.28-84.48 87.04-122.88 145.92-48.64-23.04-102.4-30.72-161.28-30.72h-12.8c-10.24 0-23.04 10.24-28.16 20.48C81.92 332.8 99.84 476.16 168.96 588.8c53.76 97.28 138.24 156.16 240.64 171.52h20.48v66.56c17.92-10.24 15.36-20.48 23.04-28.16l389.12-391.68c5.12-66.56 5.12-128-17.92-179.2zM509.44 832c-5.12 5.12-7.68 10.24-7.68 17.92v66.56c0 15.36 10.24 28.16 25.6 28.16h66.56c7.68 0 12.8-2.56 17.92-10.24l15.36-15.36 17.92-17.92-102.4-102.4-33.28 33.28z m289.28-263.68c-7.68-7.68-20.48-7.68-28.16 0l-204.8 207.36 102.4 102.4 204.8-207.36c7.68-7.68 7.68-20.48 0-28.16l-74.24-74.24z" p-id="1621"></path></svg>