<?xml version="1.0" standalone="no"?><!DOCTYPE svg PUBLIC "-//W3C//DTD SVG 1.1//EN" "http://www.w3.org/Graphics/SVG/1.1/DTD/svg11.dtd"><svg class="icon" width="200px" height="200.00px" viewBox="0 0 1024 1024" version="1.1" xmlns="http://www.w3.org/2000/svg"><path d="M1016.662783 369.302095c-4.99534-7.49301-11.239514-13.737184-20.605776-17.483689l-157.353202-78.052184L942.981522 69.581711c11.239514-19.981359-3.122087-46.83131-32.469708-61.192912-12.488349-6.244175-26.225534-9.366262-38.713883-8.117427-13.737184 1.248835-24.976699 8.117427-29.972039 18.732524L736.923758 223.812825 560.838032 138.267632s-1.873252 0-3.122087-1.248835c0 0-1.873252 0-1.873253-1.248835-1.248835 0-1.248835 0-3.122087-1.248835h-1.248835l-4.99534-1.248835h-26.849951s-1.248835 0-1.248835 1.248835c-1.873252 0-1.873252 0-3.122087 1.248835-1.873252 0-1.873252 0-3.122087 1.248835l-3.122088 1.248835c-1.248835 0-1.248835 1.248835-1.248835 1.248835s-1.248835 0-1.248834 1.248835l-1.248835 1.248835-1.248835 1.248835-1.248835 1.248835-3.122088 3.122087-1.248835 1.248835c0 1.248835-1.248835 1.248835-1.248834 3.122087l-1.248835 1.248835 1.248835 3.122088s0 1.248835-1.248835 1.248835c-13.737184 26.225534-29.972038 53.075485-48.704563 76.17893l566.97106 274.743686c6.244175-37.465048 9.366262-76.178931 9.366262-113.643979 0.624417-8.741845-2.49767-18.108107-6.868592-25.601116z m-705.591738 13.737184c-81.174271 65.563834-174.836891 119.888154-279.739025 157.977619-17.483689 8.117427-29.972038 23.727864-31.220873 42.460388s8.117427 37.465048 23.727864 46.83131l142.367182 86.16961 118.639319-118.639318c19.981359-19.981359 54.32432-19.981359 74.930096 0 19.981359 19.981359 19.981359 54.948737 0 74.930096l-99.906795 99.906794 166.719464 99.906795 107.399804-128.005581c18.732524-21.854611 53.075485-24.976699 74.930096-6.244174s24.976699 53.075485 6.244175 74.930096L518.377644 926.282475l140.49393 84.296358c4.99534 3.122087 11.239514 4.99534 15.610437 6.244175 18.732524 11.239514 43.709223 9.366262 59.319659-6.244175 90.540533-87.418445 162.348541-184.203153 212.301939-290.354122 15.610437-31.220873 28.098786-63.690582 38.713883-96.784707L371.63954 326.841707c-19.981359 20.605776-40.587135 39.3383-60.568495 56.197572z" /></svg>