<?xml version="1.0" standalone="no"?><!DOCTYPE svg PUBLIC "-//W3C//DTD SVG 1.1//EN" "http://www.w3.org/Graphics/SVG/1.1/DTD/svg11.dtd"><svg class="icon" width="200px" height="200.00px" viewBox="0 0 1024 1024" version="1.1" xmlns="http://www.w3.org/2000/svg"><path d="M512 1024C229.236364 1024 0 794.763636 0 512S229.236364 0 512 0s512 229.236364 512 512-229.236364 512-512 512z m231.424-698.181818c-13.218909 0-25.227636 5.492364-33.885091 14.336l-277.364364 285.975273-117.713454-122.181819a47.197091 47.197091 0 0 0-33.885091-14.382545c-26.391273 0-47.848727 21.969455-47.848727 49.105454 0 13.544727 5.352727 25.832727 14.010182 34.676364l151.598545 156.997818a47.057455 47.057455 0 0 0 67.723636 0l311.156364-320.698182c8.704-8.890182 14.056727-21.178182 14.056727-34.722909C791.272727 347.834182 769.815273 325.818182 743.424 325.818182z" /></svg>