<?xml version="1.0" standalone="no"?><!DOCTYPE svg PUBLIC "-//W3C//DTD SVG 1.1//EN" "http://www.w3.org/Graphics/SVG/1.1/DTD/svg11.dtd"><svg class="icon" width="200px" height="200.00px" viewBox="0 0 1024 1024" version="1.1" xmlns="http://www.w3.org/2000/svg"><path d="M0 74.112707C0 33.944751 33.944751 0 74.112707 0h301.542542c45.259669 0 79.770166 33.944751 79.770165 74.112707v301.542542c0 45.259669-33.944751 79.770166-74.112707 79.770165H74.112707C33.944751 454.859669 0 420.914917 0 381.312707V74.112707z m0 568.574586c0-39.60221 33.944751-74.112707 74.112707-74.112707h301.542542c45.259669 0 79.770166 33.944751 79.770165 74.112707v301.542541c0 45.259669-33.944751 79.770166-74.112707 79.770166H74.112707c-39.60221 0-74.112707-33.944751-74.112707-74.112707v-307.2zM568.574586 74.112707c0-39.60221 33.944751-74.112707 74.112707-74.112707h301.542541c45.259669 0 79.770166 33.944751 79.770166 74.112707v301.542542c0 45.259669-33.944751 79.770166-74.112707 79.770165h-301.542542c-45.259669 0-79.770166-33.944751-79.770165-74.112707V74.112707z m0 568.574586c0-39.60221 33.944751-74.112707 74.112707-74.112707h301.542541c39.60221 0 74.112707 33.944751 74.112707 74.112707v301.542541c0 39.60221-33.944751 74.112707-74.112707 74.112707h-301.542541c-39.60221 0-74.112707-33.944751-74.112707-74.112707v-301.542541z" /></svg>