<?xml version="1.0" standalone="no"?><!DOCTYPE svg PUBLIC "-//W3C//DTD SVG 1.1//EN" "http://www.w3.org/Graphics/SVG/1.1/DTD/svg11.dtd"><svg class="icon" width="200px" height="191.94px" viewBox="0 0 1067 1024" version="1.1" xmlns="http://www.w3.org/2000/svg"><path d="M116.587 440.171h564.044c29.993 0 54 24.755 54 55.687v408.335c0 30.931-24.007 55.687-54 55.687h-564.044c-30.003 0-54-24.755-54-55.687v-408.335c0-30.931 23.997-55.687 54-55.687zM368.607 712.397v86.618c0 6.187 5.997 6.187 5.997 6.187h48.003c6.007 0 6.007-6.187 6.007-6.187v-86.618c23.997-12.372 36-37.118 36-61.864 0-37.128-30.003-68.059-66.003-68.059s-66.013 30.931-66.013 68.049c0 30.941 12.003 49.5 36 61.872z"  /><path d="M900.705 297.099c0-74.236-61.864-142.295-142.295-142.295-74.245 0-142.295 61.864-142.295 142.295v148.491h-80.431v-154.677c0-123.736 98.991-228.913 228.913-228.913 123.736 0 228.922 98.991 228.922 228.913v148.491h-86.618l-6.187-142.295z"  /></svg>