<?xml version="1.0" standalone="no"?><!DOCTYPE svg PUBLIC "-//W3C//DTD SVG 1.1//EN" "http://www.w3.org/Graphics/SVG/1.1/DTD/svg11.dtd"><svg t="1586397408562" class="icon" viewBox="0 0 1024 1024" version="1.1" xmlns="http://www.w3.org/2000/svg" p-id="7485" xmlns:xlink="http://www.w3.org/1999/xlink" width="200" height="200"><defs><style type="text/css"></style></defs><path d="M512 427.8191709l319.14387629-319.14387627c22.03295919-22.03164411 57.75333866-22.03164411 79.78629783 0 22.03164411 22.03295919 22.03164411 57.75333866 0 79.78629784L591.78498275 507.60546875l319.14519137 319.14387629c22.03164411 22.03295919 22.03164411 57.75333866 0 79.78629784-22.03295919 22.03164411-57.75333866 22.03164411-79.78629783 0L512 587.3904515 192.85612371 906.53695796c-22.03295919 22.03164411-57.75333866 22.03164411-79.78629783 0-22.03164411-22.03295919-22.03164411-57.75333866 0-79.78629784L432.21501725 507.60546875 113.06851079 188.46159247c-22.03164411-22.03295919-22.03164411-57.75333866 0-79.78629784 22.03295919-22.03164411 57.75333866-22.03164411 79.78629784 0L512 427.820486z" p-id="7486"></path></svg>