<?xml version="1.0" standalone="no"?><!DOCTYPE svg PUBLIC "-//W3C//DTD SVG 1.1//EN" "http://www.w3.org/Graphics/SVG/1.1/DTD/svg11.dtd"><svg class="icon" width="200px" height="190.69px" viewBox="0 0 1074 1024" version="1.1" xmlns="http://www.w3.org/2000/svg"><path d="M137.147426 561.383308c-26.610695 28.657671-19.446277 54.756622-15.352324 64.47976s18.422789 33.263368 57.827087 33.263369H332.633683c0.511744 0 1.023488 0.511744 1.023488 1.023488v281.45927c0 44.521739 36.845577 81.367316 81.367317 81.367317h293.741129c44.521739 0 81.367316-36.845577 81.367317-81.367317v-124.865567L322.398801 362.826587l-185.251375 198.556721zM790.132934 713.883058v-53.733133c0-0.511744 0.511744-1.023488 1.023488-1.023488h153.011494c39.404298 0 53.221389-23.028486 57.827086-33.263369 4.093953-9.723138 11.258371-35.822089-15.352323-64.47976l-367.432284-394.042978c-14.84058-15.864068-35.822089-25.075462-57.315343-25.075462-21.493253 0-42.474763 9.211394-57.315342 25.075462L373.061469 308.581709l417.071465 405.301349zM166.828586 80.855572H956.961519c22.516742 0 40.427786-17.911044 40.427786-40.427786 0-22.004998-17.911044-40.427786-40.427786-40.427786H166.828586c-22.004998 0-40.427786 17.911044-40.427786 40.427786s18.422789 40.427786 40.427786 40.427786zM790.132934 713.883058v102.86057l213.397301 207.256372 55.78011-49.127436zM55.78011 0.511744L0 49.63918l322.398801 313.187407 50.662668-54.244878z" /></svg>