<?xml version="1.0" standalone="no"?><!DOCTYPE svg PUBLIC "-//W3C//DTD SVG 1.1//EN" "http://www.w3.org/Graphics/SVG/1.1/DTD/svg11.dtd"><svg class="icon" width="200px" height="200.00px" viewBox="0 0 1024 1024" version="1.1" xmlns="http://www.w3.org/2000/svg"><path d="M311.287911 270.264353l-236.896601-236.8966L16.756101 91.147411l248.74143 248.741431c14.300466-18.056143 27.734236-36.978982 39.579067-58.068557 2.166737-3.755678 4.189025-7.655805 6.211313-11.555932zM1007.243899 966.220341L854.416702 813.537593c-12.133728 24.989702-27.15644 48.679362-44.923685 70.346735l140.115673 140.115672 57.635209-57.779659zM120.615037 640.198618C120.615037 830.582593 251.485964 1015.4775 507.016504 1015.4775c136.937791 0 238.052194-53.012837 302.476513-131.593172L265.497531 339.888842c-64.857667 82.191564-144.882494 144.160248-144.882494 300.309776zM893.417972 640.198618c0-134.337706-65.291014-235.163211-124.804063-307.965581-23.834109-28.023134-65.291014-11.267033-71.357879 22.389618-5.922415 61.535336-29.756524 134.337706-89.269572 156.871773-17.767245 5.489068-29.756524-11.267033-29.756524-22.389618C655.654676 231.407533 519.005784 80.169276 435.658626 13.000423c-23.834109-22.389618-65.291014-5.489068-65.291014 28.023135-5.633517 63.846523-21.95627 157.738468-59.079701 229.240795l543.128791 543.128791c26.000846-53.301735 39.00127-112.959233 39.00127-173.194526z" /></svg>