<?xml version="1.0" standalone="no"?><!DOCTYPE svg PUBLIC "-//W3C//DTD SVG 1.1//EN" "http://www.w3.org/Graphics/SVG/1.1/DTD/svg11.dtd"><svg class="icon" width="200px" height="186.52px" viewBox="0 0 1098 1024" version="1.1" xmlns="http://www.w3.org/2000/svg"><path d="M736.45801777 429.15407467c10.39635093-15.10719787 30.7017248-19.00582933 45.80892373-8.77192107 15.10719787 10.39635093 19.00582933 30.7017248 8.77192107 45.80892267L702.99476124 595.008368l191.84517226 191.8451712c83.17081067-71.4749152 134.66523947-169.91536747 134.6652384-278.42728533 0-217.67360747-206.30259733-394.73646613-460.36343466-394.73646614-101.52686933 0-195.25647467 28.26508053-271.44223574 76.02331947l357.8619072 357.8619072 80.89660907-118.42093973zM631.35740337 674.76787627h-0.48732907c-10.88368-0.16244267-21.11758827-5.84794773-27.12797973-15.10719787L543.96307377 566.9057312l-40.93563307-40.93563413-67.08895466 130.92905066c-5.84794773 11.37100907-17.38139947 17.86872853-29.40218134 17.86872854-5.03573227 0-10.0714656-1.1371008-14.9447552-3.57374614-16.081856-8.284592-22.4171328-28.26508053-14.1325408-44.1844928l76.83553494-149.77243733-230.18171734-230.18171733C152.3130247 316.74352533 108.6158599 408.19892907 108.6158599 508.42625387c0 119.88292693 64.81475307 232.6183616 177.8750752 309.29145386 15.10719787 10.23390827 84.95768427 64.48986667 87.8816576 69.36315734-3.4113024 18.680944-17.70628587 62.54055147-34.11302826 102.66396906-5.198176 12.3456672-2.11175893 26.64065067 7.4723776 36.06234454 6.3352768 6.0103904 14.45742613 9.25925013 22.90446186 9.25925013 4.5484032 0 9.09680747-0.97465813 13.32032534-2.9239744 37.361888-16.56918507 151.72175253-70.9875872 192.81982933-129.14217707 88.53142933-1.29954347 171.05246827-24.04156267 240.74051093-62.54055146L647.43925937 670.38191573c-4.8732896 2.76153067-10.39635093 4.38596053-16.081856 4.38596054zM79.53856497-34.13333333L13.91159644 31.33119147l210.20122986 215.7242912c22.0922464-21.280032 46.62113813-40.61074773 73.5866752-57.50481814L79.53856497-34.13333333zM1101.46741724 992.5063648L895.00237617 786.8535392c-23.39179093 20.1429312-49.3826688 38.1741024-77.48530667 53.60618667l218.48582187 217.67360746 65.46452587-65.62696853z"  /><path d="M632.0071751 582.3378144l-98.11556586-152.37152427c-6.3352768-9.90902293-17.70628587-15.2696416-29.23973867-15.10719786-11.69589547 0.64977173-22.4171328 7.4723776-27.6153088 17.86872853l-22.74201813 44.5093792 48.89533973 48.89533973 6.49771947-12.50810986 34.43791466 53.443744 103.47618454 103.47618453c4.38596053-2.43664533 8.12214933-5.84794773 10.88368-10.23390827l44.67182293-65.30208213-47.4333536-47.4333536-23.71667627 34.7628z"  /></svg>