<?xml version="1.0" standalone="no"?><!DOCTYPE svg PUBLIC "-//W3C//DTD SVG 1.1//EN" "http://www.w3.org/Graphics/SVG/1.1/DTD/svg11.dtd"><svg class="icon" width="200px" height="200.00px" viewBox="0 0 1024 1024" version="1.1" xmlns="http://www.w3.org/2000/svg"><path d="M960 106.88H537.6c-17.28 0-32-6.4-44.8-19.2L424.32 19.2C414.08 6.4 396.8 0 379.52 0H64C28.8 0 1.92 25.6 0 60.16v734.08c1.92 33.92 28.8 59.52 64 59.52h896c35.2 0 64-28.8 64-64V170.88c0-35.2-28.8-64-64-64zM477.44 622.08L386.56 556.16c-15.36 16.64-37.76 27.52-62.72 27.52-46.72 0-85.12-38.4-85.12-85.12s38.4-85.12 85.12-85.12c23.68-0.64 44.8 8.96 60.16 24.32l153.6-101.12a85.504 85.504 0 0 1 83.2-103.68c46.72 0 85.12 38.4 85.12 85.12 0 46.72-38.4 85.12-85.12 85.12-24.96 0-47.36-10.88-62.72-27.52L405.76 475.52a87.104 87.104 0 0 1 1.28 41.6l96 69.76c9.6 7.04 12.16 20.48 4.48 30.72s-20.48 11.52-30.08 4.48z m264.32 112.64a30.08 30.08 0 0 1-21.12 8.96 30.08 30.08 0 0 1-21.12-8.96l-74.24-74.24-74.24 74.24a30.08 30.08 0 0 1-21.12 8.96 30.08 30.08 0 0 1-21.12-8.96 29.376 29.376 0 0 1 0-41.6l74.24-74.24L510.08 544a29.376 29.376 0 1 1 41.6-41.6l74.24 74.24 74.24-74.24a29.376 29.376 0 1 1 41.6 41.6l-74.24 74.24 74.24 74.24c11.52 11.52 11.52 30.72 0 42.24z" /></svg>