<?xml version="1.0" standalone="no"?><!DOCTYPE svg PUBLIC "-//W3C//DTD SVG 1.1//EN" "http://www.w3.org/Graphics/SVG/1.1/DTD/svg11.dtd"><svg class="icon" width="200px" height="169.26px" viewBox="0 0 1210 1024" version="1.1" xmlns="http://www.w3.org/2000/svg"><path d="M804.69312942 660.99293016c0.60973677-0.60973677 1.34142136-1.09752689 1.95115813-1.70726365 22.19443216-20.60911516 39.87680897-44.02302203 52.80323711-70.36366726 12.92642697-26.34064522 19.38964162-53.53492169 19.38964161-81.46088275v-52.19349918c0-12.80448031-0.12194781-26.09674958-0.36584228-40.1207046s-0.3658423-27.19427647-0.3658423-39.51096668v-52.55934262c0-9.38995185-3.53647513-17.43848234-10.48747873-23.77974916-7.07295142-6.46321349-15.85316534-11.34111113-26.46259188-14.63369064-10.73137321-3.29258065-22.19443216-4.99984431-34.63307019-4.99984546s-24.02364364 1.82921148-34.63307019 5.36568776c-10.60942655 3.53647513-19.51158828 8.78021507-26.46259188 15.60927085-6.9510036 6.9510036-10.48747873 15.60927086-10.48747873 25.97480177v24.87727604c0 13.29226928 0.12194781 28.77959347 0.3658423 46.5839181 0.24389448 17.80432462 0.3658423 36.21838602 0.36584229 55.12023753v49.75455209c0 12.3166902-3.04868617 24.02364364-9.26800518 34.87696466-5.24373995 9.26800519-11.95084791 17.56043015-19.87743058 24.99922271l98.1676805 98.16768049zM640.55188921 593.67794908c-2.19505377 0.12194781-4.51205535 0.24389448-6.70710913 0.24389448h-80.85114482c-29.02348795 0-55.24218536 0.24389448-78.53414441 0.73168459-10.36553207 0-18.53600921-1.09752689-24.51143374-3.17063284-5.97542454-2.19505377-8.90216289-7.68268819-8.90216173-16.70679774 0-4.26815973-0.12194781-9.14605737-0.3658423-14.87758626s-0.48779011-11.58500561-0.73168459-17.80432463c-0.24389448-6.21931901-0.48779011-11.95084791-0.73168458-17.43848233-0.24389448-5.48763442-0.3658423-10.12163644-0.36584231-13.9020072 0-12.80448031-4.51205535-20.48716851-13.5361649-22.80416894-9.02410955-2.43894825-20.36522068 1.70726365-33.77943777 12.07279573-12.3166902 9.38995185-26.5845397 20.12132621-42.68160067 31.95022631-15.97511315 11.82890009-32.3160686 23.90169582-48.90091968 36.21838602-16.58484993 12.3166902-32.55996307 24.26753811-47.80339164 35.85254488s-28.65764565 21.70664205-39.99875679 30.2429615c-10.97526885 8.5363206-16.21900762 16.58484993-15.97511314 24.14559145s6.34126682 15.60927086 18.29211357 24.14559145c12.92642697 9.38995185 27.68206658 20.12132621 44.26691767 31.95022631 16.58484993 11.82890009 33.41359548 23.90169582 50.48623551 36.21838602 17.07264003 12.3166902 33.65748996 24.26753811 49.75455094 35.85254488 15.97511315 11.58500561 30.24296264 21.70664205 42.68160067 30.24296265 11.95084791 8.5363206 21.5846954 10.97526885 28.77959347 7.43879256 7.19489807-3.53647513 10.85332103-11.4630578 10.85332101-23.77974801 0-7.56074038 0.12194781-15.97511315 0.3658423-25.24311833s0.3658423-17.43848234 0.3658423-24.51143375c-0.48779011-9.51189966 3.65842295-15.73121867 12.43863801-18.53600922s20.73106299-4.26815973 35.73059592-4.26815972h36.58422946c13.53616491 0 27.07232981-0.12194781 40.85238921-0.36584229 13.65811156-0.24389448 26.46259189-0.3658423 38.41343979-0.36584229h30.36490931c32.55996307 0 63.53461032-6.21931901 92.80199388-18.53600922 6.21931901-2.56089606 12.19474239-5.3656866 18.04822027-8.41437278l-106.70400109-106.58205328z"  /><path d="M61.47842389-79.79014357l1135.20496156 1135.20496156-48.37410617 48.37410617L13.10431771-31.41603739z"  /><path d="M137.15290088 287.83379646v466.20502207c0 110.24047622 89.50941324 199.74988946 199.74988946 199.74988946h466.20502208c110.24047622 0 199.74988946-89.50941324 199.74988946-199.74988946V287.83379646c0-110.24047622-89.50941324-199.74988946-199.74988946-199.74988946H336.90279034C226.78426193 87.96195918 137.15290088 177.59332024 137.15290088 287.83379646z m-66.58329649 0C70.56960439 140.76519628 190.07808465 21.37866269 337.02473701 21.37866269h466.20502322c147.06860018 0 266.45513262 119.50848025 266.45513262 266.45513377v466.20502207c0 147.06860018-119.50848025 266.45513262-266.45513262 266.45513376H336.90279034C189.83419017 1020.49395229 70.44765658 900.98547089 70.44765658 754.03881853L70.56960439 287.83379646z"  /></svg>