<?xml version="1.0" standalone="no"?><!DOCTYPE svg PUBLIC "-//W3C//DTD SVG 1.1//EN" "http://www.w3.org/Graphics/SVG/1.1/DTD/svg11.dtd"><svg class="icon" width="200px" height="146.70px" viewBox="0 0 1396 1024" version="1.1" xmlns="http://www.w3.org/2000/svg"><path d="M1290.49820486 748.43963971C1152.03481601 540.37433447 889.17651357 113.8774816 751.45357131-93.44737704c-29.61783695-37.7627424-100.70064646-59.2356739-143.64650941 0C470.82456483 113.13703639 173.90574877 561.84726732 35.44236127 770.65301775c-32.5796205 45.90764788-31.8391753 108.10510535 68.86147114 111.0668889h1151.39341356c67.38057935-3.70223012 67.38057935-84.41083548 34.80095889-133.28026694z m-610.86788825 0c-36.28185062 0-65.89968759-29.61783695-65.89968759-66.6401328s29.61783695-66.64013279 65.89968759-66.6401328 65.89968759 29.61783695 65.89968623 66.6401328-29.61783695 66.64013279-65.89968623 66.6401328z m49.60987663-233.98091203c0.74044658 16.28981092-15.5493644 33.32006706-33.32006706 33.32006705h-33.32006574c-17.77070272 0-32.5796205-17.03025612-33.32006705-33.32006705l-33.32006709-317.65130235c0-27.39649859 22.21337803-50.3503232 49.60987665-50.3503232h65.89968759c27.39649859 0 49.60987668 22.21337803 49.60987798 50.3503232l-31.83917528 317.65130235z"  /><path d="M84.40805017-189.42397802l1313.10680431 1313.10680432-68.06178911 68.06919406L16.34626104-121.3621889z"  /></svg>