<?xml version="1.0" standalone="no"?><!DOCTYPE svg PUBLIC "-//W3C//DTD SVG 1.1//EN" "http://www.w3.org/Graphics/SVG/1.1/DTD/svg11.dtd"><svg class="icon" width="200px" height="200.00px" viewBox="0 0 1024 1024" version="1.1" xmlns="http://www.w3.org/2000/svg"><path d="M928.902009 135.557095c-7.673043-0.85256-13.640966-0.85256-18.756328-0.85256-132.146854-8.525603-275.376992-47.743379-354.665103-108.275164-5.967922-4.262802-11.935845-10.230724-19.608888-17.051207A34.528694 34.528694 0 0 0 512.85256 0c-9.378164 0-17.051207 3.410241-24.72425 9.378164-5.115362 6.820483-11.083284 11.935845-15.346086 15.346086-79.288112 61.384345-223.37081 101.454681-355.517664 109.980285-5.967922 0-12.788405 0.85256-22.166569 1.70512-10.230724 0-17.903767 8.525603-17.903767 18.756328v395.588c0 90.371397 32.397293 177.332552 91.223957 242.979698 40.070336 57.121543 84.403474 107.422604 132.146853 150.050621 123.62125 109.127724 316.299888 109.127724 428.837854-13.640965 42.628017-40.922897 83.550914-83.550914 115.948207-127.884052 61.384345-66.499707 99.74956-163.691586 99.74956-256.620664V154.313422a15.942878 15.942878 0 0 0-16.198646-18.756327zM755.832259 725.528854c14.493526 14.493526 14.493526 40.070336 0 54.563862s-40.070336 14.493526-54.563862 0L511.14744 589.971759 321.026483 780.092716c-14.493526 14.493526-40.070336 14.493526-54.563862 0s-14.493526-40.070336 0-54.563862l190.120957-190.120957-190.120957-190.120957c-14.493526-14.493526-14.493526-40.070336 0-54.563862s40.070336-14.493526 54.563862 0L511.14744 480.844035l190.120957-190.120957c14.493526-14.493526 40.070336-14.493526 54.563862 0s14.493526 40.070336 0 54.563862L565.711302 535.407897l190.120957 190.120957z" /></svg>