<?xml version="1.0" standalone="no"?><!DOCTYPE svg PUBLIC "-//W3C//DTD SVG 1.1//EN" "http://www.w3.org/Graphics/SVG/1.1/DTD/svg11.dtd"><svg class="icon" width="200px" height="200.00px" viewBox="0 0 1024 1024" version="1.1" xmlns="http://www.w3.org/2000/svg"><path d="M142.762587 343.923116H45.775233c-21.365706 0-38.846737 17.481032-38.846738 38.976226L6.540028 841.679312c0 21.754173 18.775923 37.551846 42.472433 38.199292l93.491148-0.129489 0.258978-535.825999zM317.313928 271.409206L74.651308 26.67476 23.244125 78.081942 263.057984 319.838139c17.610521-12.301467 36.515933-29.005564 54.255944-48.428933zM1017.332137 972.592817L844.593644 798.688923c-1.683359 4.532119-3.366717 8.80526-4.920586 12.689934l-6.603946 11.006575c-5.438543 12.042489-16.963075 25.638847-31.336368 36.256955l164.19221 165.357613 51.407183-51.407183zM924.229456 439.48609l0.776935-11.006576c1.942337-24.343955-3.884674-48.040465-16.574608-68.370258-20.070814-32.242792-54.644411-52.313606-90.25392-53.349519l-220.778958-1.165402c14.76176-42.472433 22.14264-86.757714 22.14264-131.560951 0-22.272129-1.942337-45.062215-6.215478-69.665149l-4.143652-17.74001c-11.654021-51.018715-56.327769-86.628225-108.770865-86.628225-61.636823 0-111.749115 50.112291-111.749114 111.749115 0 3.625695 0.129489 7.121902 0.517956 9.970662-1.42438 53.608498-33.926151 108.123419-71.866464 149.689429l527.279716 527.279717c36.256955-99.318159 77.952453-348.325746 79.635812-359.202833z"  /><path d="M217.348323 343.016692v536.991401l524.948913 0.129489c19.034901-1.294891 37.422357-7.251391 53.349519-17.351543 2.071826-1.294891 4.143652-2.719272 6.085989-4.143652l-538.67476-538.674759c-17.481032 12.301467-33.537683 20.459282-45.709661 23.049064z"  /></svg>