<?xml version="1.0" standalone="no"?><!DOCTYPE svg PUBLIC "-//W3C//DTD SVG 1.1//EN" "http://www.w3.org/Graphics/SVG/1.1/DTD/svg11.dtd"><svg class="icon" width="200px" height="200.00px" viewBox="0 0 1024 1024" version="1.1" xmlns="http://www.w3.org/2000/svg"><path d="M436.401707 11.652916c-25.199431-22.577525-69.189189-5.535135-69.189189 28.258322-6.263442 67.878236-25.199431 169.404267-69.189189 242.817638C228.542817 401.297297 102.691323 452.133144 102.691323 644.114936S241.215363 1022.543385 512 1022.543385s409.308677-186.300996 409.308677-378.428449c0-135.465149-69.189189-237.136842-132.260597-310.550213-25.199431-28.258321-69.189189-11.361593-75.598293 22.577525-6.263442 62.051778-31.462873 135.465149-94.534282 158.188335-18.790327 5.535135-31.462873-11.361593-31.462873-22.577525C669.314367 231.89303 524.672546 79.385491 436.401707 11.652916z m0 0" /></svg>