<?xml version="1.0" standalone="no"?><!DOCTYPE svg PUBLIC "-//W3C//DTD SVG 1.1//EN" "http://www.w3.org/Graphics/SVG/1.1/DTD/svg11.dtd"><svg class="icon" width="200px" height="200.00px" viewBox="0 0 1024 1024" version="1.1" xmlns="http://www.w3.org/2000/svg"><path d="M439.819013 10.285637c-24.101278-22.640595-66.022895-5.550597-66.022895 28.33726-5.988802 68.067852-24.101278 169.877493-66.022895 243.495943C241.312123 401.018478 121.243937 451.996333 121.243937 644.514421S253.435796 1024 511.976779 1024 902.709621 837.178578 902.709621 644.514421c0-135.843567-66.022895-237.799277-126.203056-311.417726-24.101278-28.33726-66.022895-11.393331-72.157766 22.640594-5.988802 62.225118-30.090081 135.843567-90.270242 158.630231-17.966407 5.550597-30.090081-11.393331-30.09008-22.640595 78.146568-260.58594-59.888024-413.519505-144.169464-481.441288z" /></svg>