<?xml version="1.0" standalone="no"?><!DOCTYPE svg PUBLIC "-//W3C//DTD SVG 1.1//EN" "http://www.w3.org/Graphics/SVG/1.1/DTD/svg11.dtd"><svg t="1587602867164" class="icon" viewBox="0 0 1024 1024" version="1.1" xmlns="http://www.w3.org/2000/svg" p-id="4076" xmlns:xlink="http://www.w3.org/1999/xlink" width="200" height="200"><defs><style type="text/css"></style></defs><path d="M527.616 632.32c25.6 15.36 54.784 26.624 86.016 31.744 13.312 0 28.672-8.704 45.056-25.6 13.312-14.336 37.888-17.92 56.32-7.68 18.944 10.752 23.552 31.744 10.24 47.104l-1.536 1.536c-24.064 31.744-65.024 52.224-110.592 55.808-39.936-2.048-77.824-12.8-110.592-31.744-25.6-15.872-55.296-27.136-86.528-32.256-13.312 0-28.672 8.192-45.568 25.088-13.312 14.336-37.888 17.92-56.32 8.192-18.944-10.752-23.552-31.744-10.24-47.104l1.536-1.536c24.064-31.744 65.024-52.736 110.592-55.808 40.448 2.048 79.36 13.312 111.616 32.256z" fill="#ffffff" p-id="4077"></path><path d="M308.48 286.208c23.04 0 41.984-18.944 41.984-41.472V41.984c0-23.04-18.944-41.984-41.984-41.984s-41.984 18.944-41.984 41.984v202.24c0 23.04 18.944 41.984 41.984 41.984zM702.72 285.696c23.04 0 41.984-18.944 41.984-41.472V41.984c0-23.04-18.944-41.984-41.984-41.984s-41.984 18.944-41.984 41.984v202.24c0 23.04 18.944 41.472 41.984 41.472z" p-id="4078"></path><path d="M1020.672 259.584c-2.56-37.376-34.304-68.096-75.776-68.096h-115.712c-6.656 0-12.288 5.632-12.288 12.8v39.936c0 59.392-49.152 109.056-111.616 109.056-62.464 0-111.616-49.664-111.616-109.056v-39.936c0-6.656-5.632-12.8-12.288-12.8H435.456c-6.656 0-12.288 5.632-12.288 12.8v39.936c0 59.392-49.152 109.056-111.616 109.056-62.464 0-111.616-49.664-111.616-109.056v-39.936c0-6.656-5.632-12.8-12.288-12.8H78.592C35.584 190.976 2.816 224.256 2.816 263.68v680.448c0 39.936 32.768 78.336 75.776 78.336h866.816c40.96 0 72.704-36.352 75.776-73.728V260.096c-0.512 0-0.512 0-0.512-0.512z m-297.984 417.792l-1.536 1.536c-24.064 31.744-65.024 52.224-110.592 55.808-39.936-2.048-77.824-12.8-110.592-31.744-25.6-15.872-55.296-27.136-86.528-32.256-13.312 0-28.672 8.192-45.568 25.088-13.312 14.336-37.888 17.92-56.32 8.192-18.944-10.752-23.552-31.744-10.24-47.104l1.536-1.536c24.064-31.744 65.024-52.736 110.592-55.808 40.448 2.048 78.848 13.312 111.616 32.256 25.6 15.36 54.784 26.624 86.016 31.744 13.312 0 28.672-8.704 45.056-25.6 13.312-14.336 37.888-17.92 56.32-7.68 18.432 10.752 23.04 31.744 10.24 47.104z" p-id="4079"></path></svg>