<?xml version="1.0" standalone="no"?><!DOCTYPE svg PUBLIC "-//W3C//DTD SVG 1.1//EN" "http://www.w3.org/Graphics/SVG/1.1/DTD/svg11.dtd"><svg class="icon" width="200px" height="177.78px" viewBox="0 0 1152 1024" version="1.1" xmlns="http://www.w3.org/2000/svg"><path d="M204.8 716.8v-153.6a51.2 51.2 0 1 1 102.4 0v153.6h153.6a51.2 51.2 0 1 1 0 102.4h-153.6v153.6a51.2 51.2 0 1 1-102.4 0v-153.6H51.2a51.2 51.2 0 1 1 0-102.4h153.6z m650.7008-321.4336a53.76 53.76 0 0 1-87.3728-41.9584V128a25.6 25.6 0 0 0-25.6-25.6H128a25.6 25.6 0 0 0-25.6 25.6v332.8768a51.2 51.2 0 1 1-102.4 0V128a128 128 0 0 1 128-128h614.528a128 128 0 0 1 128 128v124.16l131.4048-105.2416a76.8 76.8 0 0 1 124.8 59.9296v611.072a76.8 76.8 0 0 1-124.8512 59.9296l-131.328-105.344v123.4432a128 128 0 0 1-128 128h-179.3792a51.2 51.2 0 1 1 0-102.4h179.3536a25.6 25.6 0 0 0 25.6-25.6v-224.7936a53.76 53.76 0 0 1 87.3984-41.9328l168.8064 135.3728V260.1472l-168.832 135.2192z" /></svg>