<?xml version="1.0" standalone="no"?><!DOCTYPE svg PUBLIC "-//W3C//DTD SVG 1.1//EN" "http://www.w3.org/Graphics/SVG/1.1/DTD/svg11.dtd"><svg class="icon" width="200px" height="139.80px" viewBox="0 0 1465 1024" version="1.1" xmlns="http://www.w3.org/2000/svg"><path d="M1135.21102 361.026951h-3.475344C1107.612697 158.434817 935.07207 1.635456 726.346975 1.635456 517.213017 1.635456 344.876822 158.639249 320.958275 361.026951c-178.264723 5.315233-320.958275 151.279697-320.958275 330.362149 0 182.557796 148.008784 330.362148 330.362148 330.362148h336.495109v-333.224197L503.107207 852.481533c-24.531843 24.531843-64.191655 24.531843-88.92793 0-24.531843-24.531843-24.531843-64.191655 0-88.927929l261.059693-261.059693c2.862048-4.701937 6.132961-9.403873 10.221601-13.492514 12.674785-12.674785 29.438211-18.807746 45.997205-18.398882 16.763426-0.408864 33.32242 5.724097 45.997205 18.398882 4.08864 4.08864 7.563985 8.586145 10.221601 13.492514L1048.736275 763.553604c24.531843 24.531843 24.531843 64.191655 0 88.927929-24.531843 24.531843-64.191655 24.531843-88.92793 0L793.196247 685.460571v336.495109h342.423637c182.557796 0 330.362148-148.008784 330.362148-330.362148-0.204432-182.557796-148.213216-330.56658-330.771012-330.566581z m0 0" /></svg>