<?xml version="1.0" standalone="no"?><!DOCTYPE svg PUBLIC "-//W3C//DTD SVG 1.1//EN" "http://www.w3.org/Graphics/SVG/1.1/DTD/svg11.dtd"><svg class="icon" width="200px" height="200.00px" viewBox="0 0 1024 1024" version="1.1" xmlns="http://www.w3.org/2000/svg"><path d="M640 128l0 64L384 192 384 128 640 128M704 0 320 0C281.6 0 256 25.6 256 64l0 192c0 38.4 25.6 64 64 64l384 0c38.4 0 64-25.6 64-64L768 64C768 25.6 742.4 0 704 0L704 0z"  /><path d="M768 320l0 576L256 896 256 320 768 320M960 192l-128 0L192 192 64 192C25.6 192 0 217.6 0 256c0 38.4 25.6 64 64 64l64 0 0 640c0 38.4 25.6 64 64 64l640 0c38.4 0 64-25.6 64-64L896 320l64 0c38.4 0 64-25.6 64-64C1024 217.6 998.4 192 960 192L960 192z"  /><path d="M384 832 384 832c-38.4 0-64-25.6-64-64L320 448c0-38.4 25.6-64 64-64l0 0c38.4 0 64 25.6 64 64l0 320C448 806.4 422.4 832 384 832z"  /><path d="M640 832 640 832c-38.4 0-64-25.6-64-64L576 448c0-38.4 25.6-64 64-64l0 0c38.4 0 64 25.6 64 64l0 320C704 806.4 678.4 832 640 832z"  /></svg>