<?xml version="1.0" standalone="no"?><!DOCTYPE svg PUBLIC "-//W3C//DTD SVG 1.1//EN" "http://www.w3.org/Graphics/SVG/1.1/DTD/svg11.dtd"><svg class="icon" width="200px" height="190.33px" viewBox="0 0 1076 1024" version="1.1" xmlns="http://www.w3.org/2000/svg"><path d="M1075.466205 511.492944c0-153.764793-69.339936-299.416687-188.751672-396.391186 0-2.028225 0.63382-4.69027 0.633821-6.718495-0.126764-59.325576-48.170339-107.369151-107.495915-107.495915-24.845754 0-47.029463 8.746719-65.156722 22.183709C666.145085 8.239663 615.692993 0.760584 564.860609 1.014112 316.40307 0.887348 109.397376 178.990839 63.762317 414.011389 26.113394 430.871008 0 467.759346 0 511.492944c0 43.733597 26.240158 80.621936 63.128497 98.115375 45.635058 235.147314 252.513989 413.124041 501.098292 413.12404 106.10151 0 204.216885-32.198069 286.106462-87.34043 11.408765 4.05645 23.451349 6.718495 36.888339 6.718494 59.325576-0.126764 107.369151-48.170339 107.495914-107.495914 0-12.803169-2.662045-24.845754-6.718494-36.888339 57.297351-84.551622 87.720723-184.314929 87.467195-286.233226zM144.384254 612.270364c40.944788-15.465214 70.480812-54.381778 70.480812-100.77742 0-46.268878-29.536024-85.312206-70.480812-100.77742C190.019312 220.569448 360.770488 78.847239 564.226789 78.847239c37.648923 0 73.903441 5.32409 108.763555 14.197574-0.63382 4.69027-1.267641 9.38054-1.26764 14.831394 0.126764 59.325576 48.170339 107.242387 107.495914 107.495915 27.507799 0 52.353553-10.774944 71.241397-27.507799 89.368656 79.227532 145.778658 194.836346 145.778658 323.121565 0 82.650161-23.451349 159.849468-63.889082 225.766774-14.197574-6.972023-29.789552-10.64818-45.635058-10.774945-59.325576 0.126764-107.242387 48.170339-107.495915 107.495915 0 16.099034 4.05645 31.564249 10.774945 45.635058-67.945531 41.705373-146.032186 63.762317-225.64001 63.762318-203.583065 1.267641-374.334241-140.581332-419.969299-330.600644z m0 0"  /><path d="M564.226789 296.501114c-57.043823 0-111.679128 22.564001-152.116861 62.874969-40.310968 40.310968-63.001733 95.073038-62.874969 152.116861-0.126764 57.043823 22.564001 111.805893 62.874969 152.11686 40.310968 40.310968 95.073038 63.001733 152.116861 62.874969 57.043823 0 111.805893-22.564001 152.11686-62.874969 40.310968-40.310968 63.001733-95.073038 62.874969-152.11686 0.63382-118.270859-96.08715-214.99183-214.991829-214.99183z m0 0"  /></svg>