<?xml version="1.0" standalone="no"?><!DOCTYPE svg PUBLIC "-//W3C//DTD SVG 1.1//EN" "http://www.w3.org/Graphics/SVG/1.1/DTD/svg11.dtd"><svg class="icon" width="200px" height="200.00px" viewBox="0 0 1024 1024" version="1.1" xmlns="http://www.w3.org/2000/svg"><path d="M1012.48 399.36c-7.253333-32.426667-11.093333-46.933333-29.013333-87.04C906.24 131.413333 724.053333 4.693333 512 4.693333 230.826667 4.693333 0.853333 232.96 0.853333 511.573333c0 279.04 229.973333 506.88 511.146667 506.88 281.173333 0 511.146667-228.266667 511.146667-506.88 0-39.68-3.413333-75.946667-10.666667-112.213333z m-529.493333 546.133333c-232.533333-13.226667-419.84-208.213333-419.84-445.013333 0-47.786667 8.533333-95.573333 23.04-140.8 2.986667-8.96 13.226667-13.226667 21.76-8.96 19.2 9.813333 39.253333 14.506667 39.253333 37.546667 0 87.04 3.84 180.906667 87.466667 184.746666 3.84 0 47.36 14.506667 69.546666 68.693334 7.253333 17.92 36.693333 0 69.546667 0 14.506667 0 0 25.173333 0 79.786666 0 46.933333 92.16 115.2 117.76 133.12 3.84 2.986667 6.4 7.253333 6.4 12.373334 0 23.893333 0 44.8 1.706667 61.866666 0.426667 9.386667-7.253333 17.493333-16.64 16.64z m456.96-273.92c-56.32 137.386667-174.933333 238.933333-321.706667 274.773334 18.346667-68.693333 25.6-108.8 65.706667-141.226667 54.613333-43.52 7.253333-90.453333-36.693334-87.04-32.853333 3.413333-11.093333-36.266667-40.106666-39.68-29.013333-3.84-69.546667-54.186667-109.653334-72.533333-21.76-10.666667-43.946667-36.266667-80.213333-36.266667-29.013333 0-76.8 25.173333-76.8 3.413333 0-61.44-7.253333-104.96-7.253333-123.306666 0-14.506667-11.093333-3.413333 32.853333-3.413334 20.053333 0 12.373333-33.28 28.16-41.813333 2.133333-1.28 5.12-1.706667 7.68-1.706667 23.04 1.28 70.826667 17.92 84.906667 10.666667 11.093333-7.253333 91.306667 188.16 91.306666 32.426667 0-17.92-11.093333-50.773333 0-68.693334 28.16-48.64 56.746667-91.733333 69.546667-115.2 5.12-9.813333-1.28-21.76-12.373333-22.186666-14.933333-1.28-36.266667-0.426667-53.76 3.84-11.093333 3.413333 3.84 17.92-11.093334 21.76-58.453333 11.093333-109.653333-14.506667-91.306666-39.68 18.346667-25.173333 87.466667-10.666667 91.306666-61.44 2.986667-23.04 5.973333-50.346667 6.826667-73.386667 0.426667-8.96 8.96-15.786667 17.92-14.08 151.893333 26.026667 276.906667 127.146667 338.773333 261.12 2.986667 6.4 0.853333 14.08-4.693333 18.346667-145.066667 104.96-105.813333 182.186667-55.893333 224.853333 23.466667 20.053333 46.933333 52.053333 64.426666 76.373333 3.413333 3.84 3.84 9.386667 2.133334 14.08z" /></svg>