<?xml version="1.0" standalone="no"?><!DOCTYPE svg PUBLIC "-//W3C//DTD SVG 1.1//EN" "http://www.w3.org/Graphics/SVG/1.1/DTD/svg11.dtd"><svg class="icon" width="200px" height="200.00px" viewBox="0 0 1024 1024" version="1.1" xmlns="http://www.w3.org/2000/svg"><path d="M650.24 26.026667c0-12.8 10.24-23.04 22.613333-23.04h45.653334c12.373333 0 22.613333 10.24 22.613333 23.04v46.933333c0 12.373333-10.24 22.613333-22.613333 23.04h-45.653334a22.613333 22.613333 0 0 1-22.613333-23.04V26.026667z m-181.76 0c0-12.8 10.24-23.04 22.613333-23.04h45.226667c12.373333 0 22.613333 10.24 22.613333 23.04v46.933333c0 12.8-10.24 23.04-22.613333 23.04h-45.226667c-12.8 0-23.04-10.24-22.613333-23.04V26.026667z m-181.76 0c0-12.8 10.24-23.04 22.613333-23.04h45.653334c12.373333 0 22.613333 10.24 22.613333 23.04v46.933333c0 12.8-10.24 23.04-22.613333 23.04H309.76a22.613333 22.613333 0 0 1-22.613333-23.04V26.026667zM105.386667 348.16c0-25.6 16.213333-64.853333 68.266666-69.12l113.066667-0.426667V164.266667c0-12.8 10.24-23.04 23.04-23.04h45.226667c12.8 0 23.04 10.24 23.04 23.04v114.773333h90.88V164.266667c0-12.8 10.24-23.04 23.04-23.04h45.226666c12.8 0 23.04 10.24 23.04 23.04v114.773333h90.88V164.266667c0-12.8 10.24-23.04 23.04-23.04h45.226667c12.8 0 23.04 10.24 23.04 23.04v114.773333l113.92 0.426667c25.173333 0 66.986667 32 68.266667 69.12v96.426666c-17.066667-4.693333-34.986667-6.826667-52.48-6.826666-58.026667 0-89.6 14.08-114.346667 30.293333-20.053333 13.226667-33.28 19.626667-64.853333 19.626667-31.146667 0-44.373333-8.533333-64.853334-21.76-24.746667-16.213333-55.893333-48.213333-113.493333-48.213334s-88.746667 32.426667-113.493333 48.213334c-20.053333 13.226667-33.28 21.76-64.853334 21.76-31.146667 0-44.373333-8.533333-64.426666-21.76-24.746667-16.213333-55.893333-27.733333-113.493334-27.733334-20.48 0-37.546667 2.56-52.48 6.826667-0.853333-0.426667-0.426667-97.28-0.426666-97.28z m871.253333 553.386667H50.773333c-25.173333 0-45.226667-20.48-45.226666-46.08 0-25.6 20.48-46.08 45.226666-46.08h54.186667v-273.92c14.506667-8.533333 27.733333-14.08 52.48-14.08 31.146667 0 44.373333 8.533333 64.426667 21.76 24.746667 16.213333 55.893333 35.84 113.493333 35.84 72.533333 0 100.266667-69.973333 178.346667-69.973334 78.933333 0 105.813333 69.973333 178.346666 69.973334 58.026667 0 88.746667-20.053333 113.493334-35.84 20.053333-12.8 34.133333-21.76 65.28-21.76 24.746667 0 37.973333 5.546667 52.48 14.08v273.493333h53.333333c25.173333 0 45.653333 20.48 45.653333 46.08 0 25.6-20.48 46.506667-45.653333 46.506667z" /></svg>