<?xml version="1.0" standalone="no"?><!DOCTYPE svg PUBLIC "-//W3C//DTD SVG 1.1//EN" "http://www.w3.org/Graphics/SVG/1.1/DTD/svg11.dtd"><svg class="icon" width="200px" height="200.00px" viewBox="0 0 1024 1024" version="1.1" xmlns="http://www.w3.org/2000/svg"><path d="M439.04 1021.013333H154.026667c-84.053333 0-153.6-67.84-153.6-151.04V156.586667c0-85.333333 66.986667-154.88 150.186666-154.88h646.826667c84.48 0 153.6 71.253333 153.6 158.72v142.08c-40.106667-75.52-116.906667-115.626667-208.213333-115.626667-131.413333 0-233.813333 109.653333-233.813334 241.493333 0 41.386667 11.093333 79.36 25.6 113.066667-11.093333 7.68-18.346667 14.933333-29.013333 26.453333-69.546667 60.586667-157.013333 188.586667-149.76 332.373334 2.56 64.426667 32 101.973333 83.2 120.746666zM398.933333 322.56c0-11.52-7.253333-18.773333-18.346666-18.773333H161.28c-7.253333 0-18.346667 7.68-18.346667 18.773333 0 11.52 11.093333 18.773333 18.346667 18.773333h219.306667c11.093333 0.426667 18.346667-7.253333 18.346666-18.773333z m-109.653333 302.08c0-11.52-7.253333-18.773333-18.346667-18.773333H161.28c-10.24 0-18.346667 8.533333-18.346667 18.773333 0 11.52 7.253333 18.773333 18.346667 18.773333h109.653333c11.093333 0.426667 18.346667-7.253333 18.346667-18.773333z m109.653333-151.04c0-11.52-7.253333-18.773333-18.346666-18.773333H162.133333c-8.533333 0-16.64 5.973333-18.773333 14.933333-2.986667 13.653333 9.813333 23.04 17.92 23.04h219.306667c11.093333 0 18.346667-7.68 18.346666-19.2z m0 0"  /><path d="M820.48 567.04c11.093333 0 43.946667 7.68 84.053333 45.226667 51.2 49.066667 120.746667 143.36 116.906667 256.853333-3.84 113.066667-120.746667 113.066667-292.266667 113.066667-171.946667 0-288.853333 0-292.266666-113.066667-3.84-113.066667 62.293333-211.626667 116.906666-256.853333 55.04-45.226667 91.306667-45.226667 91.306667-45.226667h18.346667c-47.36-30.293333-76.8-79.36-76.8-139.52-3.84-90.453333 65.706667-162.133333 153.6-162.133333s157.013333 71.68 157.013333 162.133333c0 60.16-29.44 113.066667-76.8 139.52z m0 0"  /></svg>