<?xml version="1.0" standalone="no"?><!DOCTYPE svg PUBLIC "-//W3C//DTD SVG 1.1//EN" "http://www.w3.org/Graphics/SVG/1.1/DTD/svg11.dtd"><svg t="1574040372607" class="icon" viewBox="0 0 1024 1024" version="1.1" xmlns="http://www.w3.org/2000/svg" p-id="11818" xmlns:xlink="http://www.w3.org/1999/xlink" width="14" height="14"><defs><style type="text/css"></style></defs><path d="M878.16 668.23H698.374c-12.971-14.71-19.08-20.28-23.274-24.953-72.638-80.967-31.693-134.616 14.618-208.514 8.178-10.544 15.696-21.567 22.106-33.219 0-0.062 0.149-0.24 0.149-0.24l-0.028-0.03c17.852-32.83 28.007-70.542 28.007-110.621 0-128.296-104.092-232.357-232.416-232.357-128.385 0-232.448 104.062-232.448 232.357 0 54.097 18.601 103.672 49.514 143.152 49.905 78.12 127.276 135.154-2.755 235.38h-184.46c-21.928 0-41.877 33.132-41.877 55.089v195.272c0 21.987 17.973 39.96 39.9 39.96 251.568-0.192 503.316-0.064 754.38-0.064 21.087-1.175 37.674-18.543 37.674-39.896V724.275c0-28.426-19.82-56.046-49.304-56.046z" p-id="11819"></path><path d="M95.51 856.844h831.954v30.377H95.51v-30.377z" fill="#ffffff" p-id="11820"></path></svg>