<?xml version="1.0" standalone="no"?><!DOCTYPE svg PUBLIC "-//W3C//DTD SVG 1.1//EN" "http://www.w3.org/Graphics/SVG/1.1/DTD/svg11.dtd"><svg class="icon" width="200px" height="169.26px" viewBox="0 0 1210 1024" version="1.1" xmlns="http://www.w3.org/2000/svg"><path d="M544.359551 793.168539c0-66.157303 25.168539-126.561798 66.157303-172.584269-35.235955-43.865169-31.640449-84.853933-31.64045-84.853933-2.157303-38.11236 71.910112-131.595506 71.910113-131.595506 35.955056-43.146067 55.370787-97.797753 55.370786-155.325842C706.157303 115.05618 598.292135 5.033708 464.539326 0h-19.41573C311.370787 7.191011 203.505618 115.05618 203.505618 248.808989c0 57.52809 19.41573 112.179775 55.370786 155.325842 0 0 74.067416 93.483146 71.910113 131.595506 0 0 7.191011 71.910112-79.101124 126.561798H38.11236c-21.573034 0-38.11236 21.573034-38.11236 48.179775v174.741573l560.179775-1.438202c-10.067416-28.044944-15.820225-58.247191-15.820224-90.606742z m60.404494 166.11236H0v16.539326c0 26.606742 16.539326 48.179775 38.11236 48.179775h649.348314c-31.640449-15.820225-59.685393-37.393258-82.696629-64.719101z"  /><path d="M825.52809 991.640449l-243.775281-214.292134L645.033708 704.719101l175.460674 156.044944 321.438202-326.47191 68.314607 68.314607-384.719101 389.033707z"  /></svg>