<?xml version="1.0" standalone="no"?><!DOCTYPE svg PUBLIC "-//W3C//DTD SVG 1.1//EN" "http://www.w3.org/Graphics/SVG/1.1/DTD/svg11.dtd"><svg class="icon" width="200px" height="200.00px" viewBox="0 0 1024 1024" version="1.1" xmlns="http://www.w3.org/2000/svg"><path d="M131.32503861 907.09318334h792.64331905c25.77103219-2.5771032 23.19392898 5.15420646 23.19392898-23.19392899v-64.30486131c0-36.07944507-7.73130965-43.81075477-43.81075474-43.81075474H748.97077709c-20.61682577-15.46261933-23.19392898-36.07944507-28.34813543-41.23365152-90.07589353-100.38430639-38.6565483-167.26627091 18.03972253-259.91926766 10.30841288-12.8855161 20.61682577-25.77103219 28.34813542-41.2336515 23.19392898-41.23365151 36.07944507-87.49879029 36.07944508-138.91813552 0-159.53496127-128.73244182-290.84450629-290.8445063-290.84450626-159.53496127 0-290.84450629 128.73244182-290.84450628 290.84450626 0 66.88196453 23.19392898 128.73244182 61.72775809 177.57468382 61.72775809 97.80720317 162.11206448 177.5746838 0 303.73002238H128.74793538c-28.34813541 0-43.81075477 15.46261933-43.81075473 43.81075474v66.88196454c0 25.77103219 18.03972254 20.61682577 46.38785796 20.61682576z"  /><path d="M1001.40417347 950.90393811H27.75003302c-13.25367371 0-23.80752499 10.30841288-23.80752502 23.19392896v23.19392899c0 12.8855161 10.55385128 23.19392898 23.80752502 23.19392897h971.07703722c13.25367371 0 23.80752499-10.30841288 23.80752499-23.19392897v-23.19392899c-0.12271919-12.8855161-10.6765705-23.19392898-21.23042176-23.19392896z"  /></svg>