<?xml version="1.0" standalone="no"?><!DOCTYPE svg PUBLIC "-//W3C//DTD SVG 1.1//EN" "http://www.w3.org/Graphics/SVG/1.1/DTD/svg11.dtd"><svg class="icon" width="200px" height="200.00px" viewBox="0 0 1024 1024" version="1.1" xmlns="http://www.w3.org/2000/svg"><path d="M1024 64C1024 28.625 995.375 0 960 0H64C28.625 0 0 28.625 0 64v190.375h1024V64z m-847.125 115.375c-27 0-48.875-21.875-48.875-48.875s21.875-48.875 48.875-48.875 48.875 21.875 48.875 48.875-21.875 48.875-48.875 48.875z m683.75 0H372.25c-27 0-48.875-21.875-48.875-48.875s21.875-48.875 48.875-48.875h488.5c27 0 48.875 21.875 48.875 48.875-0.125 27-22 48.875-49 48.875zM0 960c0 35.375 28.625 64 64 64H960c35.375 0 64-28.625 64-64V316.875H0V960z m176.75-378.625c16.625-16.625 43.5-16.625 60 0l210.125 210.125L837 401.25c16.625-16.625 43.5-16.625 60 0 16.625 16.625 16.625 43.5 0 60L476.875 881.5c-16.625 16.625-43.5 16.625-60 0L176.75 641.375c-16.625-16.5-16.625-43.5 0-60z" /></svg>