<?xml version="1.0" standalone="no"?><!DOCTYPE svg PUBLIC "-//W3C//DTD SVG 1.1//EN" "http://www.w3.org/Graphics/SVG/1.1/DTD/svg11.dtd"><svg class="icon" width="200px" height="200.00px" viewBox="0 0 1024 1024" version="1.1" xmlns="http://www.w3.org/2000/svg"><path d="M909.8126124 206.91061083l-324.03543441-185.15410496c-37.73641036-21.57716236-99.22344863-21.64016137-137.05435701 0l-324.03543441 185.15410496c-37.73641036 21.57716236-68.54292802 74.5593345-68.54292801 118.18615233l0 368.89073254c0 43.65831783 30.68052061 96.57748997 68.54292801 118.18615233l324.03543441 185.15410495c37.73641036 21.57716236 99.22344863 21.64016137 137.05435701 0l324.03543441-185.15410495c37.73641036-21.57716236 68.54292802-74.5593345 68.54292801-118.18615233l0-368.89073254c0-43.62681783-30.68052061-96.57748997-68.54292801-118.18615233zM770.89978491 464.41908473l-80.95373409 80.54424099c-16.82073717 16.75773816-27.31007278 49.76922234-23.3411348 73.39385222l19.08870174 113.77622123c3.96893798 23.62463086-9.79634644 33.83047139-30.55452258 22.67964563l-100.07393583-53.73816033c-20.78967516-11.15082577-54.80914359-11.15082577-75.56731875 0l-100.07393583 53.73816033c-20.78967516 11.18232478-34.55495958 0.97648425-30.55452257-22.67964563l19.08870173-113.77622123c3.96893798-23.62463086-6.55189763-56.66761406-23.3726348-73.39385222l-80.95373409-80.54424099c-16.82073717-16.75773816-11.56031888-33.26348025 11.68631691-36.72842611l111.88625076-16.60024012c23.24663677-3.46494586 50.74570659-23.87662692 61.14054417-45.35929125l50.05271743-103.50738169c10.39483758-21.51416334 27.4045718-21.51416334 37.79940937 0l50.02121841 103.50738169c10.39483758 21.51416334 37.92540741 41.92584441 61.14054417 45.35929125l111.85475175 16.60024012c23.21513677 3.43344586 28.47555506 19.97068795 11.65481789 36.72842611z" /></svg>