<?xml version="1.0" standalone="no"?><!DOCTYPE svg PUBLIC "-//W3C//DTD SVG 1.1//EN" "http://www.w3.org/Graphics/SVG/1.1/DTD/svg11.dtd"><svg class="icon" width="200px" height="200.00px" viewBox="0 0 1024 1024" version="1.1" xmlns="http://www.w3.org/2000/svg"><path d="M1013.86718067 319.12027417c-6.38295679-34.30839274-50.26578473-47.07430633-74.99974224-22.34034874l-209.83970447 209.04183484c-29.52117514 29.52117514-78.19122066 29.52117514-108.51026541 0L512.80507272 398.10936446C482.48602798 367.7903197 482.48602798 319.91814378 512.80507272 290.39696865l211.43544366-210.63757406c24.73395755-24.73395755 12.76591356-68.61678549-21.54247919-74.99974227-123.66978778-23.93608795-256.11614117 11.968044-351.860493 107.7123958C244.72088756 216.99296555 212.00823403 367.7903197 252.69958354 501.83241227c6.38295679 21.54247917 2.39360882 45.47856714-13.56378314 61.43595909L26.10461752 775.50168464c-29.52117514 29.52117514-29.52117514 78.19122066 0 107.71239582l108.51026545 107.7123958c29.52117514 29.52117514 78.19122066 29.52117514 108.51026539 0l214.62692207-213.82905245c15.95739198-15.95739198 39.09561033-20.74460959 61.4359591-14.36165279 133.24422298 39.09561033 282.44583792 6.38295679 387.76462493-98.93583021C1000.30339752 570.44919775 1036.20752944 440.39645318 1013.86718067 319.12027417z" /></svg>