<?xml version="1.0" standalone="no"?><!DOCTYPE svg PUBLIC "-//W3C//DTD SVG 1.1//EN" "http://www.w3.org/Graphics/SVG/1.1/DTD/svg11.dtd"><svg class="icon" width="200px" height="200.00px" viewBox="0 0 1024 1024" version="1.1" xmlns="http://www.w3.org/2000/svg"><path d="M511.792 705.853c-107.25 0-194.546-87.157-194.546-194.13 0-107.111 87.296-194.27 194.546-194.27 51.824 0 100.737 20.231 137.457 56.951s57.09 85.495 57.09 137.319c0 106.973-87.297 194.13-194.547 194.13M967.673 425.12h-0.277l-91.453-20.23-2.217-7.067c-5.959-19.122-13.857-38.244-24.11-58.198l-3.188-6.374 49.19-82.03c15.105-23.972 21.479-57.09 1.802-76.766l-46.28-46.28c-11.64-11.64-26.605-14.134-37.136-14.134-14.411 0-29.93 4.71-41.293 12.609l-0.138 0.139-80.091 50.992-6.513-3.464c-18.983-9.839-38.383-18.014-57.92-24.25l-6.929-2.216-20.507-92.424v-0.277C595.763 28.96 572.9 0.693 544.078 0.693h-65.403c-27.852 0-46.558 27.852-52.932 55.565l-22.725 91.176-6.79 2.217c-20.923 6.651-41.708 15.38-61.661 25.912l-6.513 3.464-82.03-52.24-0.278-0.138c-11.362-7.898-26.882-12.61-41.292-12.61-10.531 0-25.496 2.495-37.136 14.134l-46.28 46.281c-19.677 19.676-13.303 52.794 1.8 76.765l51.547 85.911-3.049 6.236c-9.56 19.26-16.766 36.997-22.309 54.456l-2.217 7.067-91.453 20.23h-0.277C28.89 429.831 0.624 452.832 0.624 481.516v65.403c0 27.851 27.851 46.696 55.564 53.07l92.147 23.002 2.217 6.651c5.404 16.49 12.193 32.979 20.784 50.438l3.049 6.236-51.547 85.91c-15.103 23.972-21.477 57.09-1.8 76.766l46.28 46.28c11.64 11.64 26.605 13.996 37.136 13.996 14.41 0 29.93-4.712 41.292-12.61l0.139-0.138 82.03-52.378 6.513 3.464c20.23 10.67 41.016 19.4 61.939 26.05l6.79 2.217 22.724 90.9c6.374 27.574 25.22 55.564 52.933 55.564h65.403c28.821 0 51.684-28.267 56.396-54.456v-0.277l20.507-92.7 6.929-2.218c19.26-6.235 38.521-14.272 57.227-23.972l6.513-3.325 80.23 51.13 0.138 0.14c11.362 7.897 26.882 12.609 41.293 12.609 10.53 0 25.496-2.495 37.135-14.134l46.281-46.281c19.676-19.676 13.302-52.655-1.801-76.765l-49.191-82.17 3.187-6.374c9.145-17.875 16.766-36.165 22.725-54.317l2.217-6.652 92.146-23.002c27.574-6.374 55.565-25.218 55.565-53.07V481.1c0.277-28.406-27.99-51.27-54.04-55.98" /></svg>