<?xml version="1.0" standalone="no"?><!DOCTYPE svg PUBLIC "-//W3C//DTD SVG 1.1//EN" "http://www.w3.org/Graphics/SVG/1.1/DTD/svg11.dtd"><svg t="1581774572409" class="icon" viewBox="0 0 1024 1024" version="1.1" xmlns="http://www.w3.org/2000/svg" p-id="4727" xmlns:xlink="http://www.w3.org/1999/xlink" width="200" height="200"><defs><style type="text/css"></style></defs><path d="M992 255.01030906c0-123.38144343-99.62886563-223.01030906-223.01030906-223.01030906S545.97938188 131.62886563 545.97938188 255.01030906v223.01030906h223.01030906c123.38144343 0 223.01030906-99.62886563 223.01030906-223.01030906z m-364.86597937 0c0-78.51546375 64.00000031-141.85567031 141.85567031-141.85567031s141.85567031 64.00000031 141.85567031 141.85567031-64.00000031 141.85567031-141.85567031 141.85567031H627.13402063V255.01030906zM32 768.98969094c0 123.38144343 99.62886563 223.01030906 223.01030906 223.01030906s223.01030906-99.62886563 223.01030907-223.01030906V545.97938188H255.01030906C131.62886563 545.97938188 32 645.6082475 32 768.98969094z m223.01030906-290.96907281h223.01030907V255.01030906C478.02061812 131.62886563 378.3917525 32 255.01030906 32S32 131.62886563 32 255.01030906c0 123.38144343 99.62886563 223.01030906 223.01030906 223.01030906z m513.97938188 67.95876375H545.97938188v223.01030906c0 123.38144343 99.62886563 223.01030906 223.01030906 223.01030906s223.01030906-100.28865937 223.01030906-223.01030906-99.62886563-223.01030906-223.01030906-223.01030906z" p-id="4728"></path></svg>