<?xml version="1.0" standalone="no"?><!DOCTYPE svg PUBLIC "-//W3C//DTD SVG 1.1//EN" "http://www.w3.org/Graphics/SVG/1.1/DTD/svg11.dtd"><svg t="1563335761367" class="icon" viewBox="0 0 1024 1024" version="1.1" xmlns="http://www.w3.org/2000/svg" p-id="8449" xmlns:xlink="http://www.w3.org/1999/xlink" width="200" height="200"><defs><style type="text/css"></style></defs><path d="M512 0C229.638444 0 0 229.638444 0 512s229.638444 512 512 512 512-229.638444 512-512S794.361556 0 512 0z m0 938.471396c-235.496568 0-426.471396-191.560641-426.471396-426.471396 0-235.496568 191.560641-426.471396 426.471396-426.471396 235.496568 0 426.471396 191.560641 426.471396 426.471396 0 235.496568-190.974828 426.471396-426.471396 426.471396z m198.004577-301.107552L533.089245 534.846682V256c0-23.432494-19.331808-42.764302-42.764302-42.764302s-42.764302 19.331808-42.764302 42.764302v298.764302c0 15.816934 19.91762 29.290618 32.219679 36.320366 3.514874 5.272311 13.473684 9.95881 19.331808 13.473684l175.743707 106.617849c20.503432 11.716247 42.764302 4.686499 54.480549-15.816933 12.302059-19.91762 1.171625-46.279176-19.331807-57.995424z" p-id="8450"></path></svg>