<?xml version="1.0" standalone="no"?><!DOCTYPE svg PUBLIC "-//W3C//DTD SVG 1.1//EN" "http://www.w3.org/Graphics/SVG/1.1/DTD/svg11.dtd"><svg class="icon" width="200px" height="200.00px" viewBox="0 0 1024 1024" version="1.1" xmlns="http://www.w3.org/2000/svg"><path d="M898.804083 346.591073H72.945341c-40.098513 0-72.945168 30.287175-72.945168 67.826209v493.979557c0 63.560409 55.455391 115.176581 124.13476 115.176581h774.66915c68.679369 0 124.134759-51.616171 124.13476-115.176581V461.767654c0-63.560409-55.455391-115.176581-124.13476-115.176581zM255.948131 772.744422c0 7.251859-6.398699 13.650558-14.503718 13.650558H197.080101c-8.105019 0-14.503718-5.972119-14.503718-13.650558v-40.525093c0-7.251859 6.398699-13.650558 14.503718-13.650558h43.937732c8.105019 0 14.503718 5.972119 14.503718 13.650558v40.525093z m0-135.225837c0 7.251859-6.398699 13.650558-14.503718 13.650557H197.080101c-8.105019 0-14.503718-5.972119-14.503718-13.650557v-40.525094c0-7.251859 6.398699-13.650558 14.503718-13.650557h43.937732c8.105019 0 14.503718 5.972119 14.503718 13.650557v40.525094z m369.844798 69.532528c-0.42658 0.85316-1.27974 2.1329-2.55948 2.986059l-8.531598 7.678439c-0.85316 0.85316-1.27974 1.27974-2.1329 1.70632l-115.603161 70.385688c-17.916357 9.811338-39.671933 6.825279-50.763011-9.384758-0.42658-0.42658-0.42658-0.85316-0.85316-1.27974-3.412639-6.398699-6.825279-13.223978-6.825279-19.622677v-142.051116c0-20.475837 14.503718-33.699814 36.685874-33.699814 7.251859 0 14.077138 2.98606 21.328997 6.398698 0.42658 0.42658 0.85316 0.42658 1.706319 0.85316l116.029741 70.385689c17.063197 9.811338 21.328996 29.007435 11.517658 45.644052z m214.569704 65.693309c0 7.251859-6.398699 13.650558-14.503717 13.650558h-43.937733c-8.105019 0-14.503718-5.972119-14.503718-13.650558v-40.525093c0-7.251859 6.398699-13.650558 14.503718-13.650558h43.937733c8.105019 0 14.503718 5.972119 14.503717 13.650558v40.525093z m0-135.225837c0 7.251859-6.398699 13.650558-14.503717 13.650557h-43.937733c-8.105019 0-14.503718-5.972119-14.503718-13.650557v-40.525094c0-7.251859 6.398699-13.650558 14.503718-13.650557h43.937733c8.105019 0 14.503718 5.972119 14.503717 13.650557v40.525094zM35.832887 312.038099c2.98606 17.063197 23.035316 27.727695 40.098514 24.315056l819.460043-206.891266c17.063197-2.98606 27.727695-23.035316 24.315056-40.098513L903.923042 24.949807c-2.98606-17.063197-23.035316-27.727695-40.098513-24.315056L44.791066 203.686797c-14.930298 2.55948-24.741636 18.342937-25.168216 33.699814 0 2.1329 0 4.265799 0.42658 6.398699l15.783457 68.252789z" /></svg>