<?xml version="1.0" standalone="no"?><!DOCTYPE svg PUBLIC "-//W3C//DTD SVG 1.1//EN" "http://www.w3.org/Graphics/SVG/1.1/DTD/svg11.dtd"><svg class="icon" width="200px" height="200.00px" viewBox="0 0 1024 1024" version="1.1" xmlns="http://www.w3.org/2000/svg"><path d="M940.78099383 634.0792296c-11.89604188 0-23.83038799-2.75086579-34.92786603-8.29902404l-177.32171448-88.66027706c-19.26302266-9.63151133-27.06642639-33.0428851-17.43491504-52.30590779 9.61177962-19.2432898 33.00458202-27.09544435 52.30590664-17.43491504l177.32171449 88.66027707-0.79972422-302.50930598-176.46511584 88.6417057c-19.26302266 9.64079643-42.65582509 1.90355226-52.32447801-17.33045243-9.6698144-19.2432898-1.90355226-42.67439644 17.33973755-52.33376424l176.46511586-88.65099197c24.30627548-12.20130724 52.68661778-10.98256884 75.85076213 3.27434259 23.18387605 14.25691141 37.04034463 39.01005759 37.09721905 66.2192508l0.79972421 302.48957428c0.07660615 27.25678137-13.72298802 52.10626652-36.88829271 66.46764171-12.61915994 7.82313655-26.79946524 11.77184643-41.0180736 11.7718464z"  /><path d="M706.98528876 755.63150023H83.27588059c-42.99823201 0-77.96324075-34.97545534-77.96324073-77.96324075V131.92209208c0-42.98894691 34.96616908-77.96324075 77.96324073-77.96324075h623.70940817c42.99823201 0 77.96324075 34.97545534 77.96324074 77.96324075v545.7461674c0 42.98778541-34.96616908 77.96324075-77.96324074 77.96324075zM83.27588059 131.92209208v545.7461674h623.76628259l-0.05687442-545.7461674H83.27588059z"  /><path d="M141.71029787 970.04114867a38.82086292 38.82086292 0 0 1-17.39661197-4.11120838c-19.26302266-9.63151133-27.06642639-33.0428851-17.43491618-52.30590778l97.4549215-194.91912808c9.61177962-19.23400471 33.02431376-27.07571264 52.30590775-17.43491618 19.26302266 9.63151133 27.06642639 33.0428851 17.43491505 52.30590778l-97.45492147 194.91912807c-6.83421771 13.64638187-20.59550879 21.54612456-34.90929468 21.54612457zM648.54970996 970.04114867c-14.31378585 0-28.07507695-7.880011-34.90813429-21.54612457l-97.45492149-194.91912807c-9.63151133-19.26302266-1.82694613-42.67439644 17.4349162-52.30590778 19.31989708-9.64079643 42.67439644-1.79908968 52.30590663 17.43491618l97.45492148 194.91912808c9.63151133 19.26302266 1.82694613 42.67439644-17.43491506 52.30590778a38.83711246 38.83711246 0 0 1-17.39777347 4.11120838z"  /><path d="M492.59072946 511.99883964H141.75324352v58.47272035c0 21.52871358 17.45232604 38.98220112 38.98220111 38.98220113h272.87308371c21.52871358 0 38.98220112-17.45232604 38.98220112-38.98220113v-58.47272035z"  /></svg>