<?xml version="1.0" standalone="no"?><!DOCTYPE svg PUBLIC "-//W3C//DTD SVG 1.1//EN" "http://www.w3.org/Graphics/SVG/1.1/DTD/svg11.dtd"><svg class="icon" width="200px" height="200.00px" viewBox="0 0 1024 1024" version="1.1" xmlns="http://www.w3.org/2000/svg"><path d="M695.085239 2.128898H90.90395C43.216632 2.128898 2.767568 43.003742 2.767568 97.077755v828.567151c0 54.499792 40.874844 94.948857 88.136382 98.355094H695.085239c47.687318 0 88.136383-44.281081 88.136383-94.948857V97.077755c0-54.074012-40.449064-94.948857-88.136383-94.948857zM392.781705 952.894802c-47.687318 0-84.730146-37.468607-84.730146-84.730145s37.468607-84.730146 84.730146-84.730146c47.687318 0 84.730146 37.468607 84.730145 84.730146s-37.042827 84.730146-84.730145 84.730145z m285.272349-332.959667c0 27.249896-23.843659 51.093555-51.093555 51.093555v3.406237h-468.357588c-27.249896 0-51.093555-23.843659-51.093555-51.093555V161.796258c0-27.249896 23.843659-51.093555 51.093555-51.093555h468.357588c27.249896 0 51.093555 23.843659 51.093555 51.093555v458.138877z"  /><path d="M308.051559 205.651559h169.886071c20.437422 0 34.06237 13.624948 34.06237 34.06237 0 20.437422-13.624948 34.06237-34.06237 34.06237H308.051559c-20.437422 0-34.06237-13.624948-34.06237-34.06237 0-20.437422 13.624948-34.06237 34.06237-34.06237z m0 0"  /></svg>