<?xml version="1.0" standalone="no"?><!DOCTYPE svg PUBLIC "-//W3C//DTD SVG 1.1//EN" "http://www.w3.org/Graphics/SVG/1.1/DTD/svg11.dtd"><svg t="1587603164449" class="icon" viewBox="0 0 1024 1024" version="1.1" xmlns="http://www.w3.org/2000/svg" p-id="4076" xmlns:xlink="http://www.w3.org/1999/xlink" width="200" height="200"><defs><style type="text/css"></style></defs><path d="M768.23820499 0.003878H383.76179499C313.31086099-0.542254 256.51320999 56.801529 255.96707899 126.706331v769.498953c0 70.450933 57.343783 127.794716 127.794716 127.794716h383.930279c70.450933 0 127.794716-56.797652 127.794716-127.248585V127.798594C896.03292099 57.34766 838.68913899 0.003878 768.23820499 0.003878zM575.99999999 960.102642c-42.598239 0-77.004508-34.40627-77.004508-77.004508s34.40627-77.004508 77.004508-77.004509 77.004508 34.40627 77.004508 77.004509-34.40627 77.004508-77.004508 77.004508z m230.467394-230.467394H345.53260599V147.459319c0-32.221745 26.214301-57.889914 57.343783-57.889914h346.247222c31.675613 0 57.343783 25.668169 57.343783 57.889914v582.175929z" p-id="4077"></path></svg>