<?xml version="1.0" standalone="no"?><!DOCTYPE svg PUBLIC "-//W3C//DTD SVG 1.1//EN" "http://www.w3.org/Graphics/SVG/1.1/DTD/svg11.dtd"><svg class="icon" width="200px" height="200.00px" viewBox="0 0 1024 1024" version="1.1" xmlns="http://www.w3.org/2000/svg"><path d="M512.512 73.216c117.248 0 226.816 44.032 307.2 131.584 87.552 80.896 131.584 189.952 131.584 299.52 0 117.248-44.032 226.816-131.584 314.88-80.384 87.552-189.952 131.584-307.2 131.584s-226.304-44.032-307.2-131.584c-87.552-80.384-131.584-189.952-131.584-307.2S117.76 285.696 205.312 204.8c80.896-87.552 189.952-131.584 307.2-131.584M512.512 0C380.928 0 257.024 51.712 153.6 153.088c-204.8 204.8-204.8 512 0 716.8C256.512 972.288 380.416 1024 512.512 1024s256.512-51.712 357.888-153.088c204.8-204.8 204.8-519.68 0-716.8C768 51.712 644.096 0 512.512 0z m206.336 548.864h-169.472v169.472c0 22.016-14.848 36.352-36.352 36.352-21.504 0-36.352-14.848-36.352-36.352v-169.472H307.2c-21.504 0-36.352-14.848-36.352-36.352 0-21.504 14.848-36.352 36.352-36.352H476.672V306.688c0-22.016 14.848-36.352 36.352-36.352s36.352 14.848 36.352 36.352V476.16h169.472c22.016 0 36.352 14.848 36.352 36.352s-14.336 36.352-36.352 36.352z" /></svg>