<?xml version="1.0" standalone="no"?><!DOCTYPE svg PUBLIC "-//W3C//DTD SVG 1.1//EN" "http://www.w3.org/Graphics/SVG/1.1/DTD/svg11.dtd"><svg class="icon" width="200px" height="200.00px" viewBox="0 0 1024 1024" version="1.1" xmlns="http://www.w3.org/2000/svg"><path d="M699.822592 757.1456a322.2528 322.2528 0 0 1-191.5904 59.5968c-9.0112 0-17.9712-0.5632-26.7776-1.3312-3.584-0.3584-7.2192-0.9728-10.8544-1.3824a311.296 311.296 0 0 1-20.48-3.2256c-4.608-0.8192-8.4992-1.8432-12.5952-2.8672a319.488 319.488 0 0 1-19.7632-5.12c-3.1232-0.9728-6.144-2.0992-9.2672-3.1232a320.3072 320.3072 0 0 1-22.1696-8.192c-1.6384-0.6656-3.2256-1.4336-4.864-2.2016a350.464 350.464 0 0 1-24.9344-12.1344l-1.1264-0.5632a330.752 330.752 0 0 1-74.4448-56.32l-1.024-1.1264a314.368 314.368 0 0 1-19.5584-21.7088 148.1216 148.1216 0 0 1-3.84-5.12A331.2128 331.2128 0 0 1 184.801792 486.4h75.9296a5.5296 5.5296 0 0 0 4.864-2.9184 5.376 5.376 0 0 0 0-5.632L137.748992 284.3648a5.4784 5.4784 0 0 0-9.216 0L0.993792 477.696a5.4784 5.4784 0 0 0 4.608 8.5504H81.480192a435.6096 435.6096 0 0 0 76.1856 246.6304c0.6144 0.9728 1.024 1.9968 1.6384 2.9696 5.12 7.2192 10.496 13.824 15.872 20.48l5.888 7.7312c7.8336 9.6256 16.1792 18.6368 24.7296 27.4944 0.8704 0.8704 1.5872 1.7408 2.4064 2.5088a425.5744 425.5744 0 0 0 96.8192 73.3184c0.9216 0.5632 1.792 1.1264 2.816 1.6384 10.24 5.5296 20.48 10.5472 31.3344 15.36 2.6624 1.1776 5.12 2.4064 7.8848 3.584 9.1136 3.7888 18.432 7.1168 27.8528 10.24 4.4544 1.536 8.8576 3.072 13.3632 4.5056 8.2432 2.4576 16.64 4.5056 25.088 6.5536 5.632 1.3312 11.2128 2.7136 16.9472 3.84 2.3552 0.512 4.608 1.2288 6.9632 1.5872 7.9872 1.4336 16.0256 2.2016 24.0128 3.2256 2.9184 0.3072 5.7344 0.8192 8.6016 1.1776 14.4384 1.536 28.7232 2.5088 43.008 2.5088a424.448 424.448 0 0 0 246.2208-78.9504 52.5824 52.5824 0 0 0 12.6976-72.704 51.2 51.2 0 0 0-71.9872-12.8M942.715392 486.4a435.6608 435.6608 0 0 0-75.8272-246.016c-0.7168-1.1776-1.1776-2.4064-1.9456-3.5328-5.9392-8.5504-12.3904-16.5376-18.8416-24.576-0.768-0.9728-1.4336-1.9968-2.2528-2.9696A426.2912 426.2912 0 0 0 683.028992 87.04l-5.12-2.3552a476.5184 476.5184 0 0 0-30.3104-11.2128c-3.6864-1.2288-7.3728-2.56-11.1104-3.6864-8.9088-2.7136-17.92-5.12-27.0336-7.0656-5.12-1.1776-10.24-2.4576-15.36-3.4816-2.56-0.512-5.12-1.2288-7.424-1.6896-6.5024-1.2288-13.1584-1.5872-20.1728-2.4576-4.7104-0.6144-9.3696-1.3312-14.08-1.8432a449.8944 449.8944 0 0 0-34.1504-1.7408c-2.048 0-4.096-0.3072-6.1952-0.3072h-1.0752a424.0384 424.0384 0 0 0-245.76 78.5408 52.5824 52.5824 0 0 0-12.7488 72.704 51.2 51.2 0 0 0 71.9872 12.8 322.2016 322.2016 0 0 1 190.0544-59.648c9.7792 0 19.3024 0.5632 28.7744 1.4336l8.704 1.1776c7.7824 0.9728 15.36 2.048 23.0912 3.584 3.3792 0.6656 6.7072 1.536 9.9328 2.2528 7.4752 1.6896 14.8992 3.5328 22.2208 5.7344l6.8608 2.3552c8.3456 2.7648 16.4864 5.6832 24.5248 9.0624l2.4576 1.0752a329.1648 329.1648 0 0 1 123.2896 93.696l0.6144 0.8192A331.1616 331.1616 0 0 1 839.342592 486.4H763.464192a5.5296 5.5296 0 0 0-4.864 2.8672 5.4272 5.4272 0 0 0 0.256 5.632l127.5904 193.3824a5.4272 5.4272 0 0 0 4.608 2.4576 5.5296 5.5296 0 0 0 4.608-2.4576l127.488-193.3824a5.4784 5.4784 0 0 0 0-5.632 5.5296 5.5296 0 0 0-4.608-2.8672h-75.8272z" /></svg>