<?xml version="1.0" standalone="no"?><!DOCTYPE svg PUBLIC "-//W3C//DTD SVG 1.1//EN" "http://www.w3.org/Graphics/SVG/1.1/DTD/svg11.dtd"><svg class="icon" width="200px" height="164.23px" viewBox="0 0 1247 1024" version="1.1" xmlns="http://www.w3.org/2000/svg"><path d="M1195.867337 1024H51.457286c-28.301508 0-51.457286-23.155779-51.457286-51.457286V51.457286C0 23.155779 23.155779 0 51.457286 0s51.457286 23.155779 51.457287 51.457286v869.628141h1092.952764c28.301508 0 51.457286 23.155779 51.457286 51.457287s-22.641206 51.457286-51.457286 51.457286z"  /><path d="M663.798995 721.431156c-2.572864 0-5.660302 0-8.233166-0.514573-13.893467-2.058291-26.243216-9.776884-33.961809-21.61206L460.542714 468.261307l-344.249247 213.547738c-24.184925 14.922613-56.088442 7.718593-71.011055-16.466331-14.922613-24.184925-7.718593-56.088442 16.466332-71.011056L447.678392 355.055276c23.155779-14.40804 53.515578-8.233166 69.467337 14.408041l158.488442 227.441206 406.512563-303.59799c22.641206-16.980905 55.059296-12.349749 72.040201 10.291457s12.349749 55.059296-10.291458 72.040201L694.673367 711.139698c-9.262312 6.689447-20.068342 10.291457-30.874372 10.291458z"  /></svg>