<?xml version="1.0" standalone="no"?><!DOCTYPE svg PUBLIC "-//W3C//DTD SVG 1.1//EN" "http://www.w3.org/Graphics/SVG/1.1/DTD/svg11.dtd"><svg class="icon" width="200px" height="200.00px" viewBox="0 0 1024 1024" version="1.1" xmlns="http://www.w3.org/2000/svg"><path d="M957.248 693.312V247.168c0-65.92-58.368-113.6-130.112-113.6h-147.264v0.512c-3.264-0.064-5.504-0.512-8.896-0.512H594.368v-12.736c0-65.92-58.432-119.488-130.176-119.488H250.496L74.624 198.848v494.464H8v195.264c0 80.128 65.024 134.208 145.152 134.208h725.696a145.28 145.28 0 0 0 145.216-145.216v-184.256h-66.816zM594.496 223.616h51.264c20.032 0 33.856 12.224 34.112 23.296v446.4H594.496V223.616zM160 235.456l5.376-6.016 80.832 0.192a39.68 39.68 0 0 0 39.872-39.68l0.192-84.48 7.232-15.68h188.864c20.096 0 21.632 19.904 21.632 31.04v572.48H160V235.456z m499.264 675.776H370.688a58.688 58.688 0 0 1-58.688-58.752 57.6 57.6 0 0 1 10.176-31.04c1.216-1.792 2.304-3.712 3.648-5.376a55.68 55.68 0 0 1 16.896-14.208c2.432-1.344 4.8-2.88 7.424-3.904 0.96-0.384 2.112-0.32 3.072-0.64 2.944-1.152 6.272-1.344 9.408-1.856 2.688-0.512 5.184-1.6 8-1.6H659.008a58.688 58.688 0 0 1 58.752 58.624 58.24 58.24 0 0 1-58.496 58.752z m201.984-217.92h-85.376V247.168c0-8 0.384-15.936 0.64-23.488h50.624c20.096 0 34.112 12.352 34.112 23.488v446.144z"  /><path d="M424.256 337.024a39.168 39.168 0 0 0-6.016-8.832 31.744 31.744 0 0 0-3.136-3.52 43.776 43.776 0 0 0-10.752-7.168c-0.64-0.256-1.088-0.768-1.664-1.024a42.688 42.688 0 0 0-16.512-3.264H286.656c-2.56 0-4.864 0.704-7.232 1.216-2.368 0.32-4.736 0.576-6.912 1.344a42.88 42.88 0 0 0-26.112 26.688 41.216 41.216 0 0 0-2.816 13.76c0 23.872 19.264 43.072 43.072 43.072H386.176a43.072 43.072 0 0 0 43.136-43.072 41.088 41.088 0 0 0-3.136-15.104c-0.448-1.472-1.28-2.752-1.92-4.096zM424.256 523.328a38.208 38.208 0 0 0-5.952-8.832 40.96 40.96 0 0 0-13.952-10.688c-0.64-0.32-1.088-0.768-1.664-1.152a45.12 45.12 0 0 0-16.512-3.2H286.656c-2.56 0-4.864 0.704-7.232 1.216-2.368 0.384-4.736 0.576-6.912 1.408a42.688 42.688 0 0 0-26.112 26.752 40.128 40.128 0 0 0-2.816 13.632c0 23.872 19.264 43.2 43.072 43.2H386.176a43.136 43.136 0 0 0 43.136-43.2 40.512 40.512 0 0 0-3.136-15.04c-0.448-1.472-1.28-2.752-1.92-4.096z"  /></svg>