<?xml version="1.0" standalone="no"?><!DOCTYPE svg PUBLIC "-//W3C//DTD SVG 1.1//EN" "http://www.w3.org/Graphics/SVG/1.1/DTD/svg11.dtd"><svg t="1566373767687" class="icon" viewBox="0 0 1024 1024" version="1.1" xmlns="http://www.w3.org/2000/svg" p-id="9731" xmlns:xlink="http://www.w3.org/1999/xlink" width="200" height="200"><defs><style type="text/css"></style></defs><path d="M511.93670029 419.26543789L174.04107471 81.36981318c-25.4466167-25.4466167-66.71824453-25.4466167-92.16486124 0-25.4466167 25.4466167-25.4466167 66.71824453 0 92.16486124L419.64523877 511.4303 81.74961318 849.32592471c-16.45801084 16.45801084-22.91461523 40.51202695-16.83781084 62.92024191 6.07680441 22.53481523 23.54761582 40.00562666 46.08243018 46.08243104 22.53481523 6.07680441 46.46223106-0.3798 62.9202419-16.83781172l338.02222587-337.76902441 337.89562471 337.8956247c16.45801084 16.45801084 40.51202695 22.91461523 62.9202419 16.83781173 22.53481523-6.07680441 40.00562666-23.54761582 46.08243105-46.08243106 6.07680441-22.53481523-0.3798-46.46223106-16.83781172-62.9202419L604.10156153 511.4303l338.022225-337.7690253c16.45801084-16.45801084 22.91461523-40.51202695 16.83781172-62.92024189-6.07680441-22.53481523-23.54761582-40.13222695-46.08243106-46.20903135-22.53481523-6.07680441-46.46223106 0.3798-62.9202419 16.83781172l-338.022225 337.89562471z m0 0" p-id="9732"></path></svg>