<?xml version="1.0" standalone="no"?><!DOCTYPE svg PUBLIC "-//W3C//DTD SVG 1.1//EN" "http://www.w3.org/Graphics/SVG/1.1/DTD/svg11.dtd"><svg class="icon" width="200px" height="200.00px" viewBox="0 0 1024 1024" version="1.1" xmlns="http://www.w3.org/2000/svg"><path d="M887.224068 6.161347h-55.392309c-7.65682 0-13.858047 5.403641-13.858047 12.08342 0 73.417739-68.193555 151.1225-152.318878 151.1225H361.056956c-84.125324 0-152.318878-77.704761-152.318878-151.1225 0-6.679778-6.201227-12.083419-13.858047-12.08342H139.487723c-68.831623 0-124.622724 48.692591-124.622724 108.770714v797.585435c0 60.058183 55.791101 108.770714 124.622724 108.770714h761.594392c61.174803 0 110.764677-43.288949 110.764677-96.667355V114.912122c0-60.058183-55.791101-108.750774-124.622724-108.750775z m-86.737416 585.746744c0 27.516697-22.093117 49.84909-49.330659 49.849089h-173.355195v176.34614c0 27.516697-22.093117 49.84909-49.330659 49.84909h-7.896096c-27.257482 0-49.330659-22.312453-49.330659-49.84909v-176.34614h-173.993262c-27.257482 0-49.330659-22.312453-49.330659-49.849089v-7.975855c0-27.516697 22.093117-49.84909 49.330659-49.849089h173.993262v-174.531633c0-27.516697 22.093117-49.84909 49.330659-49.84909h7.896096c27.257482 0 49.330659 22.312453 49.330659 49.84909v174.531633h173.355195c27.257482 0 49.330659 22.312453 49.330659 49.849089v7.975855z"  /><path d="M318.844747 80.895103h393.089982c23.468951 0 42.511304-16.769234 42.511304-37.466576v-1.595171c0-20.697342-19.022413-37.466576-42.511304-37.466576H318.844747c-23.468951 0-42.511304 16.769234-42.511303 37.466576v1.595171c0 20.677402 19.042352 37.466576 42.511303 37.466576z"  /></svg>