<?xml version="1.0" standalone="no"?><!DOCTYPE svg PUBLIC "-//W3C//DTD SVG 1.1//EN" "http://www.w3.org/Graphics/SVG/1.1/DTD/svg11.dtd"><svg class="icon" width="200px" height="200.00px" viewBox="0 0 1024 1024" version="1.1" xmlns="http://www.w3.org/2000/svg"><path d="M310.791865 447.332336V315.070868h433.65375c46.232991 0 86.028477 29.261387 105.926219 71.397784 15.215921-23.994337 23.409109-52.670496 23.409109-84.272794 0-80.761427-58.522773-145.721705-130.505784-145.721705H310.206637V24.212685c0-19.312515-19.897743-31.01707-33.943208-19.897742L9.399583 216.167382c-12.289782 9.363644-12.289782 29.846614 0 39.210258l268.034302 211.267211c14.045466 11.704555 33.357981 0.585228 33.35798-19.312515z m702.858506 320.119569L745.61607 556.184694c-14.045466-11.119327-33.943208 0-33.943208 19.897743V708.343904H278.019112c-46.232991 0-86.028477-29.261387-105.926219-71.397783-15.215921 23.994337-23.409109 52.670496-23.40911 84.272793 0 80.761427 58.522773 145.721705 130.505785 145.721705h433.068521v132.846696c0 19.312515 19.897743 31.01707 33.943209 19.897742l268.034301-211.267211c11.704555-11.119327 11.704555-31.01707-0.585228-40.965941z" /></svg>