<?xml version="1.0" standalone="no"?><!DOCTYPE svg PUBLIC "-//W3C//DTD SVG 1.1//EN" "http://www.w3.org/Graphics/SVG/1.1/DTD/svg11.dtd"><svg class="icon" width="200px" height="200.00px" viewBox="0 0 1024 1024" version="1.1" xmlns="http://www.w3.org/2000/svg"><path d="M635.11790536 87.3303382c117.89120184 11.83267604 212.48001711 82.75613922 232.6609002 204.4221825h-68.23751831l110.12373965 163.84263704 110.19633275-163.84263704h-76.0049805c-20.18088309-163.84263705-144.24249879-270.33672145-300.97101158-285.50868031-21.70533827-1.7422345-41.81362825 16.84160026-41.81362824 40.50695236 1.45186211 20.32606928 15.38973818 38.83731094 34.04616603 40.57954545z m-170.59379576-82.82873232H81.45029673c-21.70533827 0-38.76471785 18.58383477-38.76471785 42.24918687v364.92553672c0 23.66535208 17.05937959 42.24918687 38.76471785 42.24918687h383.07381287c21.70533827 0 38.76471785-18.58383477 38.76471785-42.24918687V46.75079275c0-23.66535208-17.05937959-42.24918687-38.76471785-42.24918687z m-37.24026265 368.33741263H118.69055937V85.58810368h308.6658807v287.25091483h-0.07259312zM390.0435843 933.76593764c-131.82907792-11.83267604-232.6609002-99.67033259-237.30685888-245.00172799h72.883477L115.56905589 524.92157262l-110.12373965 163.84263703h72.88347698c3.04891039 187.58058224 134.87798829 309.17403243 304.01992201 326.08822579 21.70533827 1.6696414 41.88622136-16.91419336 41.88622132-40.57954546a40.43435925 40.43435925 0 0 0-34.19135225-40.50695234z m555.33725005-366.66777126H562.23442837c-21.77793137 0-38.76471785 18.65642788-38.76471784 42.24918686v366.66777126c0 23.59275899 16.98678647 42.17659377 38.76471784 42.17659375h383.07381287c21.70533827 0 38.69212475-18.58383477 38.69212475-42.17659375V609.34735324c0.0725931-23.59275899-18.51124166-42.24918687-38.61953164-42.24918686z m-37.31285576 368.33741265H599.47469102V649.85430561h308.59328757v285.58127342z" /></svg>