<?xml version="1.0" standalone="no"?><!DOCTYPE svg PUBLIC "-//W3C//DTD SVG 1.1//EN" "http://www.w3.org/Graphics/SVG/1.1/DTD/svg11.dtd"><svg t="1583976574276" class="icon" viewBox="0 0 1024 1024" version="1.1" xmlns="http://www.w3.org/2000/svg" p-id="3936" xmlns:xlink="http://www.w3.org/1999/xlink" width="200" height="200"><defs><style type="text/css"></style></defs><path d="M512 0C229.376 0 0 229.376 0 512s229.376 512 512 512 512-229.376 512-512S794.624 0 512 0z m0 957.44c-245.76 0-445.44-199.68-445.44-445.44s199.68-445.44 445.44-445.44 445.44 199.68 445.44 445.44-199.68 445.44-445.44 445.44z" p-id="3937"></path><path d="M630.272 352.256H393.728c-23.04 0-41.472 18.432-41.472 41.472v236.544c0 23.04 18.432 41.472 41.472 41.472h236.544c23.04 0 41.472-18.432 41.472-41.472V393.728c0-23.552-17.92-41.472-41.472-41.472z" p-id="3938"></path></svg>