<?xml version="1.0" standalone="no"?><!DOCTYPE svg PUBLIC "-//W3C//DTD SVG 1.1//EN" "http://www.w3.org/Graphics/SVG/1.1/DTD/svg11.dtd"><svg class="icon" width="200px" height="200.00px" viewBox="0 0 1024 1024" version="1.1" xmlns="http://www.w3.org/2000/svg"><path d="M512 0c281.806452 0 512 230.046083 512 512 0 281.806452-230.046083 512-512 512S0 793.806452 0 512C0 230.046083 230.046083 0 512 0z m0 687.483871c-43.207373 0-77.714286 34.506912-77.714286 77.714286 0 43.207373 34.506912 77.714286 77.714286 77.714285 43.207373 0 77.714286-34.506912 77.714286-77.714285-0.147465-43.207373-34.654378-77.714286-77.714286-77.714286z m-2.949309-60.46083c37.456221 0 66.211982-28.75576 66.211982-66.211981V247.299539c0-37.456221-28.75576-66.211982-66.211982-66.211981s-66.211982 28.75576-66.211981 66.211981v313.511521c0.147465 37.456221 28.903226 66.211982 66.211981 66.211981z m0 0" /></svg>