<?xml version="1.0" standalone="no"?><!DOCTYPE svg PUBLIC "-//W3C//DTD SVG 1.1//EN" "http://www.w3.org/Graphics/SVG/1.1/DTD/svg11.dtd"><svg class="icon" width="200px" height="200.00px" viewBox="0 0 1024 1024" version="1.1" xmlns="http://www.w3.org/2000/svg"><path d="M192 736v-320c0-154.857143 110-283.857143 256-313.571429V64c0-35.285714 28.714286-64 64-64C547.285714 0 576 28.714286 576 64v38.428571c146 29.714286 256 158.714286 256 313.571429v320h32.142857c35.285714 0 63.857143 28.428571 63.857143 64 0 35.285714-28.714286 64-63.857143 64h-704.285714C124.571429 864 96 835.571429 96 800c0-35.285714 28.714286-64 63.857143-64h32.142857z m416 192c0 53-43 96-96 96S416 981 416 928h192z m0 0" /></svg>