<?xml version="1.0" standalone="no"?><!DOCTYPE svg PUBLIC "-//W3C//DTD SVG 1.1//EN" "http://www.w3.org/Graphics/SVG/1.1/DTD/svg11.dtd"><svg class="icon" width="200px" height="194.68px" viewBox="0 0 1052 1024" version="1.1" xmlns="http://www.w3.org/2000/svg"><path d="M813.54945228 334.92502463h-50.66747959v-98.21695991c0-135.59396933-113.41720322-245.62034985-253.25944656-245.62034985-139.80326759 0-253.25944654 110.02638052-253.25944655 245.58137411v98.25593565h-50.66747964c-55.96807683 0-101.3349592 43.96378161-101.33495784 98.21695988v491.20172392c0 54.29215269 45.36688104 98.25593426 101.33495784 98.25593562h607.85385234c55.96807683 0 101.3349592-43.96378161 101.33495787-98.21695991V433.14198451c0-54.29215269-45.36688104-98.25593426-101.33495787-98.25593564zM509.66150051 777.01826861c-55.96807683 0-101.3349592-43.96378161-101.33495787-98.25593427s45.36688104-98.21695989 101.33495787-98.21695987c55.96807683 0 101.3349592 43.92480719 101.3349592 98.21695987s-45.36688104 98.21695989-101.3349592 98.21695989z m157.06918568-442.09324398H352.59231481v-98.21695991c0-84.03006537 70.4277961-152.27526219 157.0691857-152.27526355 86.60241526 0 156.99123556 68.24519679 156.99123692 152.23628781v98.25593565z" /></svg>