<?xml version="1.0" standalone="no"?><!DOCTYPE svg PUBLIC "-//W3C//DTD SVG 1.1//EN" "http://www.w3.org/Graphics/SVG/1.1/DTD/svg11.dtd"><svg class="icon" width="200px" height="200.00px" viewBox="0 0 1024 1024" version="1.1" xmlns="http://www.w3.org/2000/svg"><path d="M834.06199955-3.29919927h-644.1239991C132.68253388-3.29919927 82.58400061 46.799334 82.58400061 104.05480057v808.73346553c0 57.25546659 35.78466661 107.35399986 100.19706652 107.35399984h658.43786574c57.25546659 0 100.19706652-50.09853327 100.19706652-107.35399984V104.05480057c0-50.09853327-50.09853327-107.35399986-107.35399984-107.35399984zM647.98173315 240.03653372c64.41239992 42.94159994 107.35399986 114.51093317 107.35399984 193.23719974 0 128.82479982-107.35399986 229.02186634-229.02186634 229.02186634-21.47079998 0-42.94159994 0-64.41239992-7.15693334l57.2554666-57.25546658 50.09853326-42.94159994 14.31386664 28.62773329c57.25546659-21.47079998 100.19706652-85.88319988 100.19706653-150.29559977 0-64.41239992-35.78466661-114.51093317-85.88319988-143.13866649l50.09853327-50.09853325z m-128.82479982-35.78466663c21.47079998 0 42.94159994 0 64.4123999 7.15693334l-64.4123999 64.4123999-42.94159994 42.94159993-14.31386666-35.7846666c-57.25546659 28.62773329-100.19706652 85.88319988-100.19706653 150.2955998 0 64.41239992 35.78466661 114.51093317 85.88319988 143.13866646l-50.09853325 57.25546656c-64.41239992-42.94159994-107.35399986-114.51093317-107.35399986-200.39413302 0-128.82479982 100.19706652-229.02186634 229.02186636-229.02186637z m314.90506622 579.71159919v64.4123999h-644.1239991v-78.72626655h644.1239991v14.31386665z" /></svg>