<?xml version="1.0" standalone="no"?><!DOCTYPE svg PUBLIC "-//W3C//DTD SVG 1.1//EN" "http://www.w3.org/Graphics/SVG/1.1/DTD/svg11.dtd"><svg class="icon" width="200px" height="194.68px" viewBox="0 0 1052 1024" version="1.1" xmlns="http://www.w3.org/2000/svg"><path d="M523.09456044-11.84740077c-174.72670913 0-316.98663848 142.22033494-316.98663851 317.02623294 0 174.68711612 142.14114889 316.98663848 316.98663851 316.98663845 174.76630351 0 317.02623289-142.29952241 317.02623289-316.98663845 0-174.80589652-142.25992938-317.02623289-317.02623289-317.02623294zM771.34664998 622.16547062c-67.74470823 53.45140675-152.11874483 86.59127888-245.08459816 86.59127895-92.96585472 0-177.26070251-33.25865263-245.16378558-86.59127895-128.56053146 81.6816684-218.08173952 225.16900072-230.35576651 391.34348478 45.0179621 6.0974191 125.11588478 12.66996275 239.38311475 12.66996274h472.07490544c114.34641739 0 194.4839331-6.57254365 239.54148962-12.66996274-12.19483962-166.29326587-101.67645323-309.62222338-230.43495257-391.34348478z" /></svg>