<?xml version="1.0" standalone="no"?><!DOCTYPE svg PUBLIC "-//W3C//DTD SVG 1.1//EN" "http://www.w3.org/Graphics/SVG/1.1/DTD/svg11.dtd"><svg t="1565333138307" class="icon" viewBox="0 0 1024 1024" version="1.1" xmlns="http://www.w3.org/2000/svg" p-id="10640" xmlns:xlink="http://www.w3.org/1999/xlink" width="200" height="200"><defs><style type="text/css"></style></defs><path d="M646.272 181.76v69.12l67.328 67.328H646.272v113.408h137.472v-112.384zM782.72 750.848H418.432v90.368h362.496c1.024-4.096 1.536-8.192 2.048-12.288v-78.08zM599.936 659.456h182.784V568.32H418.432v68.096h181.504zM236.672 636.416V204.8c0-50.176 40.192-91.392 90.368-91.392h136.448V68.352l45.056 45.056h114.944L509.568 0H145.28C95.104 0 54.912 41.216 54.912 91.392V819.2c0 50.176 40.192 91.392 90.368 91.392H236.672V636.416z" fill="currentColor" p-id="10641"></path><path d="M691.328 113.408H327.04C276.864 113.408 236.672 154.624 236.672 204.8v727.808c0 50.176 40.192 91.392 90.368 91.392H874.112c50.176 0 91.392-41.216 91.392-91.392V386.56L691.328 113.408zM418.432 568.32h364.544v91.392H418.432V568.32z m362.24 272.896H418.432v-90.368h364.544v90.368h-2.304z m3.072-409.6H646.272V181.76l137.472 137.472 112.384 112.384h-112.384z" fill="" p-id="10642"></path></svg>