<?xml version="1.0" standalone="no"?><!DOCTYPE svg PUBLIC "-//W3C//DTD SVG 1.1//EN" "http://www.w3.org/Graphics/SVG/1.1/DTD/svg11.dtd"><svg class="icon" width="200px" height="200.00px" viewBox="0 0 1024 1024" version="1.1" xmlns="http://www.w3.org/2000/svg"><path d="M314.674189 619.599436c5.416079 2.708039 11.012694 3.971791 16.609309 3.971791 13.359661 0 26.177715-7.221439 32.67701-19.858956l81.782792-159.413258 104.710861 162.482369c6.679831 10.29055 18.053597 16.609309 30.149506 16.789845h0.541608c12.09591 0 23.469676-5.957687 30.149506-16.067701L758.61213 391.763047c11.373766-16.789845 7.040903-39.356841-9.748942-50.911143-16.789845-11.373766-39.356841-7.040903-50.911143 9.748942l-116.084626 170.245416-109.043724-169.342736c-7.040903-11.012694-19.67842-16.970381-32.496474-16.789845-12.99859 0.722144-24.913963 8.304654-30.691114 19.858957L298.96756 570.493653c-9.207334 17.692525-2.166432 39.898449 15.706629 49.105783zM1023.819464 438.702398c0 239.390691-224.947814 434.369535-503.334274 438.521862-45.675599 64.631876-172.77292 125.111425-214.296191 143.526093-4.693935 2.166432-9.748942 3.249647-14.80395 3.249647-9.38787 0-18.414669-3.610719-25.455571-10.29055-10.651622-10.471086-14.081805-26.358251-8.304654-40.078985 18.234133-44.592384 34.121298-93.337094 37.912553-114.09873-3.249647-5.416079-80.880113-65.715092-97.669958-77.088858C72.214386 697.229901 0.180536 571.937941 0.180536 438.702398 0.180536 196.784203 229.822285 0 512.180536 0 794.538787 0 1023.819464 196.784203 1023.819464 438.702398z m0 0" /></svg>