<?xml version="1.0" standalone="no"?><!DOCTYPE svg PUBLIC "-//W3C//DTD SVG 1.1//EN" "http://www.w3.org/Graphics/SVG/1.1/DTD/svg11.dtd"><svg class="icon" width="200px" height="200.00px" viewBox="0 0 1024 1024" version="1.1" xmlns="http://www.w3.org/2000/svg"><path d="M919.04 843.264v26.624c-1.024 1.024 0 2.048 0 3.584v2.048c0 30.208-10.24 57.344-29.184 79.36-6.656 8.704-15.872 16.896-24.576 22.528-6.656 3.584-13.312 6.656-19.968 8.704-29.184 10.24-58.368 16.896-88.576 22.528-19.968 3.584-39.424 5.632-59.392 7.68-11.264 1.024-23.552 2.048-34.816 3.584-17.92 1.024-36.864 1.024-54.784 2.048H427.52c-14.336 0-29.184 0-43.52-1.024-13.312 0-26.624-2.048-40.448-3.584-23.552-2.048-46.08-4.608-69.632-8.704-24.576-4.608-49.152-8.704-73.728-16.896-12.288-3.584-23.552-7.68-35.84-13.312-6.656-3.584-12.288-7.68-17.92-13.312-21.504-19.968-33.792-44.544-37.888-72.704-2.048-8.704-2.048-17.92-3.584-28.16v-25.6c0-10.24 2.048-21.504 3.584-31.232 2.048-14.336 5.632-29.184 12.288-43.52 6.656-16.896 14.336-33.792 22.528-49.152 12.288-26.624 26.624-51.712 43.52-76.288 11.264-16.896 23.552-32.256 35.84-47.104 6.656-7.68 14.336-15.872 22.528-23.552 18.944-17.92 40.448-34.816 64-47.104 17.92-10.24 35.84-17.92 54.784-22.528 8.704-2.048 18.944-4.608 28.16-4.608h228.864c15.872 0 30.208 2.048 44.544 6.656 23.552 6.656 46.08 17.92 66.048 31.232 15.872 10.24 29.184 21.504 42.496 33.792 17.92 15.872 33.792 33.792 47.104 52.736 17.92 22.528 32.256 47.104 47.104 72.704 14.336 26.624 28.16 54.784 39.424 83.968 4.608 10.24 5.632 21.504 7.68 31.232 2.048 11.264 3.584 22.528 3.584 33.792 0 0.512-1.024 2.56 0 3.584zM528.384 2.56c18.944 1.024 36.864 4.608 54.784 10.24 71.68 22.528 127.488 78.336 151.04 150.016 5.632 17.92 8.704 35.84 11.264 53.76 8.704 107.52-57.344 204.8-155.648 239.616-16.896 5.632-34.816 10.24-51.712 11.264-69.632 7.68-137.728-15.872-187.904-65.024C315.392 368.64 294.4 328.192 284.16 280.064c-4.608-19.968-5.632-40.448-4.608-61.44C284.16 161.28 305.152 112.128 345.6 71.68 378.368 38.4 418.304 16.896 464.384 6.656c11.264-2.048 22.528-3.584 33.792-4.608H522.24c1.024 1.024 2.048 0 3.584 0 0-1.024 1.536-1.024 2.56 0.512z" /></svg>