<?xml version="1.0" standalone="no"?><!DOCTYPE svg PUBLIC "-//W3C//DTD SVG 1.1//EN" "http://www.w3.org/Graphics/SVG/1.1/DTD/svg11.dtd"><svg class="icon" width="200px" height="200.00px" viewBox="0 0 1024 1024" version="1.1" xmlns="http://www.w3.org/2000/svg"><path d="M266.170102 773.906348c101.071945-43.196724 124.976928-58.294608 124.976929-58.294607l0.978566-99.534198s-37.884505-29.916177-49.487508-123.578976c-23.765188 7.129556-31.59372-28.65802-32.851877-51.444642-1.258157-21.94785-13.699932-90.727099 15.237679-84.436314-5.871399-45.852833-10.205051-87.232218-8.108123-109.180068 7.269352-76.887372 78.9843-157.269625 189.562321-163.141024 130.009556 5.871399 181.593993 86.253652 188.863344 163.141024 2.096928 21.94785-2.516314 63.327235-8.527508 109.180068 28.937611-6.15099 16.356041 62.488464 14.958089 84.436314-1.397952 22.786621-9.36628 58.434403-32.851877 51.304846-11.882594 93.662799-49.767099 123.439181-49.767099 123.439181l0.978566 99.114813s23.904983 14.119317 124.976928 57.31604c101.071945 43.196724 69.33843 10.904027 151.677816 53.122185 4.473447 2.376519 8.807099 4.753038 13.000956 7.409147 70.736382-87.511809 113.094334-199.068396 113.094334-320.410649 0-281.827167-228.425392-510.25256-510.25256-510.25256s-510.25256 228.425392-510.252559 510.25256c0 118.825939 40.540614 228.145802 108.620887 314.81884 1.118362-0.559181 2.236724-1.258157 3.494881-1.817338 82.339386-42.357952 50.60587-8.108123 151.677815-51.444642z"  /><path d="M512.629078 1022.462253c160.484915 0 303.635222-74.091468 397.158226-189.841912-4.193857-2.656109-8.527509-5.032628-13.000956-7.409146-82.339386-42.218157-50.60587-9.925461-151.677816-53.122185s-124.976928-57.316041-124.976928-57.316041l-0.978566-99.114812s37.884505-29.636587 49.767099-123.439181c23.625392 7.129556 31.59372-28.518225 32.851877-51.304846 1.397952-22.087645 13.979522-90.587304-14.958089-84.436314 5.871399-45.852833 10.624437-87.232218 8.527508-109.180069-7.269352-76.887372-58.713993-157.269625-188.863344-163.141023-110.57802 5.871399-182.292969 86.253652-189.562321 163.141023-2.096928 21.94785 2.096928 63.327235 8.108123 109.180069-28.937611-6.15099-16.495836 62.488464-15.237679 84.436314 1.397952 22.786621 9.226485 58.574198 32.851877 51.444641 11.742799 93.662799 49.487509 123.578976 49.487508 123.578976l-0.978566 99.534198s-23.904983 15.097884-124.976929 58.294608c-101.071945 43.336519-69.33843 8.946894-151.677815 51.304846-1.118362 0.559181-2.376519 1.258157-3.494881 1.817338 93.383208 119.105529 238.630444 195.573515 401.631672 195.573516z" fill="currentColor" /></svg>