<?xml version="1.0" standalone="no"?><!DOCTYPE svg PUBLIC "-//W3C//DTD SVG 1.1//EN" "http://www.w3.org/Graphics/SVG/1.1/DTD/svg11.dtd"><svg class="icon" width="200px" height="191.76px" viewBox="0 0 1068 1024" version="1.1" xmlns="http://www.w3.org/2000/svg"><path d="M158.465431 400.080024H45.641659c-24.854369 0-45.189762 20.335393-45.189761 45.340394L0 979.111503c0 25.306267 21.841718 43.683436 49.407473 44.436599l108.756693-0.150632 0.301265-623.317446zM1049.155634 418.909091c-23.348044-37.507502-63.566931-60.855546-104.99088-62.060606l-256.828479-1.355693c17.172109-49.407473 25.758164-100.923801 25.758165-153.04266 0-25.908797-2.259488-52.420124-7.230362-81.040306l-4.820242-20.636657c-13.556929-59.34922-65.525154-100.773169-126.531332-100.773169-71.701089 0-129.995881 58.294793-129.995881 129.995881 0 4.217711 0.150633 8.28479 0.60253 11.598706-3.313916 120.656664-141.293322 244.928508-199.88938 257.431009v624.673139l610.664313 0.150632c22.142983-1.506325 43.532804-8.435422 62.060607-20.18476 20.034128-12.803766 36.302442-31.030303 43.532803-46.997352l7.68226-12.803766c43.382171-103.183289 96.254192-419.360989 98.363048-432.616652l0.903795-12.803766c2.259488-28.318917-4.518976-55.884672-19.280965-79.53398z" /></svg>