<?xml version="1.0" standalone="no"?><!DOCTYPE svg PUBLIC "-//W3C//DTD SVG 1.1//EN" "http://www.w3.org/Graphics/SVG/1.1/DTD/svg11.dtd"><svg t="1581774075958" class="icon" viewBox="0 0 1269 1024" version="1.1" xmlns="http://www.w3.org/2000/svg" p-id="3849" xmlns:xlink="http://www.w3.org/1999/xlink" width="247.8515625" height="200"><defs><style type="text/css"></style></defs><path d="M935.5176322 501.29832637c-48.64396999-9.48557409-24.80842461-35.51009826-24.80842463-35.51009826s47.42787143-78.3167928-9.48557407-135.23023832c-70.5337569-70.5337569-241.7605331 8.99913447-241.76053311 8.99913545-65.42614037 20.18724773-48.15753037-9.24235477-38.91517658-59.58886394 0-59.34564363-20.18724773-159.55222332-194.57588196-100.20657968-174.14541392 59.58886394-323.48240324 268.27149688-323.48240324 268.27149687C-1.36523873 586.66849416 12.25507364 693.92844983 12.25507364 693.92844983 38.2795978 930.58136542 289.76892431 995.52106619 485.31768549 1010.84391672c205.76399521 16.05251046 483.52106619-70.77697719 567.67513541-249.78678833 84.15406923-179.00981112-68.83121772-249.78678831-117.47518871-259.75880202zM500.640537 944.20167779c-204.30467636 9.48557409-369.45095581-92.9099834-369.45095581-229.11310099 0-136.44633688 165.14627946-245.89527036 369.45095581-255.13762513 204.30467636-9.48557409 369.69417513 74.91171447 369.69417513 210.87161172 0 136.20311757-165.38949976 264.13675961-369.69417513 273.37911439z m-40.86093606-394.50260074c-205.52077492 24.07876568-181.68522953 216.46566885-181.68522953 216.46566884s-2.18897878 60.80496347 54.96768704 91.93710417c120.15060711 65.18292007 243.94951187 25.78130386 306.45701355-54.96768705 62.75072196-80.9922112 26.02452417-277.27063135-179.73947106-253.43508597z m-51.80582802 269.97403604c-38.42873698 4.37795758-69.31765832-17.51182931-69.31765835-49.61685022 0-31.8618006 27.48384302-65.42614037 65.91258002-69.31765735 44.0227931-4.13473727 72.72273567 21.16012698 72.72273665 53.26514787 0 31.8618006-31.13214069 61.2914031-69.31765832 65.6693597z m121.12348635-103.12521742c-12.89065241 9.7287944-28.94316288 8.26947456-35.75331855-3.40507834-7.05337599-11.43133257-4.37795758-29.67282181 8.51269484-39.1583959 15.32285053-11.43133257 31.13214069-8.02625523 37.94229735 3.40507833 6.81015568 11.67455289 1.94575849 29.1863822-10.70167364 39.15839591z m506.38373232-298.43075832c16.53895009 0 30.64570106-12.1609925 33.07790016-28.21350295 0.24322032-1.21609956 0.48643963-2.18897878 0.48643961-3.64829765 25.05164492-225.46480332-184.84708756-186.79284606-184.84708757-186.79284704-18.72792886 0-33.56433977 15.07963121-33.56433977 33.80756008 0 18.48470856 14.83641091 33.56433977 33.56433977 33.56433879 150.79630818-33.32111945 117.4751887 117.4751887 117.47518869 117.47518869 0 18.97114818 15.07963121 33.80755909 33.80755911 33.80756008z m-24.32198499-400.82631679c-72.72273567-17.02538968-147.14801051 1.21609956-168.06491818 5.35083683-1.70253917 0.24322032-3.16185803 3.40507833-4.62117689 3.89151793-0.72965993 0.24322032-1.21609956 1.70253917-1.21609955 1.70253819-20.67368734 5.83727644-35.75331857 25.29486424-35.75331856 47.91431106 0 26.75418409 21.88978689 49.1304106 48.88719031 49.1304106 0 0 26.51096379-3.40507833 44.26601339-10.45845431 17.75504961-7.05337599 168.06491817-5.35083682 242.73341235 120.15060711 40.86093507 91.45066454 17.99826893 152.74206764 15.07963121 162.71408136 0 0-9.7287944 23.83554538-9.72879438 47.18465112 0 26.99740341 21.88978689 36.7261978 48.88719027 36.72619779 22.61944584 0 41.59059499-9.97201371 46.94143182-48.40075067h0.24321934c80.50577061-269.48759642-97.7743806-385.74668559-227.65378113-415.90594701z m0 0" p-id="3850"></path></svg>