<?xml version="1.0" standalone="no"?><!DOCTYPE svg PUBLIC "-//W3C//DTD SVG 1.1//EN" "http://www.w3.org/Graphics/SVG/1.1/DTD/svg11.dtd"><svg t="1581774552952" class="icon" viewBox="0 0 1536 1024" version="1.1" xmlns="http://www.w3.org/2000/svg" p-id="4470" xmlns:xlink="http://www.w3.org/1999/xlink" width="300" height="200"><defs><style type="text/css"></style></defs><path d="M54.23295078 597.09090867h83.58041967c23.16083963 0 42.29370633 19.1328667 42.29370633 42.29370631 0 23.16083963-19.1328667 42.29370633-42.29370633 42.29370633H54.23295078c-23.16083963 0-42.29370633-19.1328667-42.29370633-42.29370633 0-23.16083963 19.1328667-42.29370633 42.29370633-42.29370633z m0-251.74825103h168.16783232c23.16083963 0 42.29370633 19.1328667 42.29370634 42.29370634 0 23.16083963-19.1328667 42.29370633-42.29370634 42.29370632H54.23295078c-23.16083963 0-42.29370633-19.1328667-42.29370633-42.29370632 0-24.16783262 19.1328667-42.29370633 42.29370633-42.29370634z m0-251.748252h251.74825201c23.16083963 0 42.29370633 19.1328667 42.29370631 42.29370634 0 23.16083963-19.1328667 42.29370633-42.29370631 42.29370633h-251.74825201c-23.16083963 0-42.29370633-19.1328667-42.29370633-42.29370633 0-24.16783262 19.1328667-42.29370633 42.29370633-42.29370634zM592.97420923 8h800.55944128L948.44274059 259.748252 592.97420923 8zM642.31686645 764.251748c-23.16083963 0-42.29370633 19.1328667-42.29370631 42.29370633s19.1328667 42.29370633 42.29370631 42.29370634h419.91608433c23.16083963 0 42.29370633-19.1328667 42.29370632-42.29370634s-19.1328667-42.29370633-42.29370632-42.29370633H642.31686645z m257.7902099-380.64335596c6.04195792 6.04195792 15.10489477 9.06293686 24.1678326 9.06293685 9.06293686 0 19.1328667-3.02097895 27.18881061-9.06293687L1490.20497898 8c26.18181858 22.15384664 38.26573438 59.41258706 30.20978953 100.69930042l-140.97902077 788.47552446c-12.08391581 65.45454498-67.46853192 118.82517512-124.86713301 118.82517512h-886.15384592c-56.39160811 0-93.65034952-53.37062917-81.56643373-118.82517512l140.97902077-788.47552446c7.04895088-41.28671335 32.22377648-78.54545475 66.46153896-100.69930042l405.81818156 375.60839202z" p-id="4471"></path></svg>