<?xml version="1.0" standalone="no"?><!DOCTYPE svg PUBLIC "-//W3C//DTD SVG 1.1//EN" "http://www.w3.org/Graphics/SVG/1.1/DTD/svg11.dtd"><svg t="1581774092950" class="icon" viewBox="0 0 1203 1024" version="1.1" xmlns="http://www.w3.org/2000/svg" p-id="3973" xmlns:xlink="http://www.w3.org/1999/xlink" width="234.9609375" height="200"><defs><style type="text/css"></style></defs><path d="M289.57424226 200.0009961c-32.15889906 0-58.40517502 27.11153845-58.40517501 60.56832928s26.24627596 60.56833027 58.40517501 60.56833027 58.40517502-27.11153845 58.40517601-60.56833027c0-16.15155473-6.05683254-31.29363756-17.16102765-42.83046194-10.95998372-11.39261397-25.66943529-17.73786833-41.24414836-17.73786734z m804.83773614 246.74383905c-62.15464287-56.38623116-145.36399167-89.69881258-234.77438342-94.02512208-10.38314205-93.1598596-58.69359586-179.39762515-135.99032156-242.99437122C645.19686541 45.26333429 543.09596593 9.64338722 436.3803371 9.64338722 322.74261325 9.64338722 216.02698443 49.30122298 135.70184295 121.26216722c-39.08099409 35.04310541-69.79778998 75.85462252-91.28512617 121.4250804C22.20832952 289.8440181 10.95992496 339.88499591 10.95992496 391.51228632c0 60.85675013 16.29576515 121.4250804 47.15677148 175.07131564 29.85153437 51.91571124 73.25883701 97.63037954 125.60717949 132.2408537 0.28842084 0.57684166 1.44210317 3.89367827-2.59578551 19.3241819-2.88420634 10.8157733-7.35472529 24.51575294-11.8252462 37.92731078-14.42103075 43.55151304-19.46839134 61.86622303-11.392614 66.19253254 1.58631359 0.86526151 3.60525744 1.29789276 5.76841269 1.29789277 13.69997964 0 37.4946805-18.45891942 62.73148454-37.92731176 22.20838727-17.16102667 47.30098188-36.62941898 58.83780628-36.62941899 0.86526151 0 1.44210317 0.14421041 2.16315427 0.28842083 48.02203298 16.00734433 97.77458995 24.0831217 148.10398758 24.08312169h1.15368236c24.65996336 0 49.60834655-2.01894385 74.12409949-5.7684117 24.80417279 57.25149268 68.35568682 106.28299759 126.03980976 141.90294366 59.70306777 36.77362842 129.93348902 56.24202075 203.33653643 56.24202076h0.72105111c39.8020452 0 79.31567052-5.9126231 117.53140214-17.73786833 6.20104296 0 30.13995423 17.88207874 49.31992571 32.30310949 27.83258955 20.91049452 45.28203705 33.60100224 53.06939359 33.60100223 0.86526151 0 1.73052401-0.14421041 2.45157608-0.43263124 12.25787647-5.19157102 3.60525744-29.27469271-6.34525436-57.10728227-6.48946378-18.02628817-16.15155473-45.13782662-10.38314205-48.74308407 44.1283547-27.83258955 80.75777272-64.75042839 105.85036733-106.71562883 26.10206555-43.40730263 39.8020452-92.4388085 39.80204519-141.90294465 0.14421041-79.60409037-34.61047417-154.88187222-97.77458996-212.27757532z m-382.7341606 142.04715409c-16.58418598 0-31.58205741-10.38314205-37.92731176-26.24627596-6.34525336-16.00734433-2.88420634-34.17784292 8.94103986-46.43571939 7.78735655-8.07577737 18.02628817-12.40208688 28.9862719-12.40208688 5.47999184 0 10.67156288 1.00947193 15.71892349 3.17262718 15.43050265 6.6336742 25.38101445 22.06417686 25.38101444 39.36941392 0 23.36206963-18.45891942 42.54204111-41.09993793 42.54204113zM585.06116637 464.48270347c-59.41464695 60.27990945-92.00617725 137.28821431-92.00617726 216.89230469 0 10.95998372 0.57684166 22.06417686 1.87473344 33.02416057-19.17997149 2.59578551-38.50415243 3.89367827-57.82833337 3.89367827h-1.5863136c-50.18518724 0-99.64932338-8.79682846-146.80609484-26.24627596-2.30736468-0.86526151-10.38314205-3.74946785-18.74734025-3.74946785-5.76841269 0-10.52735247 1.44210317-14.1326099 4.1820991l-0.14421041 0.14421041c-12.69050673 10.8157733-24.51575294 22.35259769-35.76415749 34.75468459 3.89367827-13.55576923 6.6336742-27.54416873 7.78735752-41.5325692 1.44210317-15.43050265-16.00734433-25.81364569-24.37154252-30.86100631-1.15368235-0.7210511-2.16315427-1.29789276-2.73999593-1.58631358-86.38197499-60.27990945-139.88399982-160.36186408-139.88399981-261.30908022C60.71248195 211.68203089 229.29433282 65.16435688 436.52454753 65.16435688c191.22287038 0 350.86368238 123.44402522 373.21628103 287.6995666-87.10302705 13.41155881-166.70711744 52.92518317-224.67966219 111.61877999z m375.956276 111.76298945c-7.78735655 8.07577737-18.02628817 12.40208688-28.98627188 12.40208688-22.64101852 0-41.09993795-19.03576108-41.09993796-42.54204209s18.45891942-42.54204111 41.09993796-42.54204112 41.09993795 19.03576108 41.09993793 42.54204112c-0.14421041 11.53682439-4.32630952 22.20838727-12.11366606 30.13995521z m-377.83101041-376.24469682c-32.15889906 0-58.40517502 27.11153845-58.40517501 60.56832928s26.24627596 60.56833027 58.40517501 60.56833027 58.40517502-27.11153845 58.405176-60.56833027c0-16.15155473-6.05683254-31.29363756-17.16102764-42.83046194-10.95998372-11.39261397-25.52522486-17.73786833-41.24414836-17.73786734z m0 0" p-id="3974"></path></svg>