<?xml version="1.0" standalone="no"?><!DOCTYPE svg PUBLIC "-//W3C//DTD SVG 1.1//EN" "http://www.w3.org/Graphics/SVG/1.1/DTD/svg11.dtd"><svg t="1581774043492" class="icon" viewBox="0 0 1024 1024" version="1.1" xmlns="http://www.w3.org/2000/svg" p-id="3600" xmlns:xlink="http://www.w3.org/1999/xlink" width="200" height="200"><defs><style type="text/css"></style></defs><path d="M804.975595 284.93001001v117.46807799L949.538245 197.52816699 804.975595 0v111.000341S353.10806401 62.230113 294.548829 534.200068h30.76544901C509.207757 205.394333 804.975595 284.93001001 804.975595 284.93001001z m33.562308 375.827928c-5.069307-13.634688-24.297713-24.297713-43.70092099-24.29771301H89.678907c-19.403209 0-31.464664 10.663025-26.57016 24.29771299l117.468077 337.371116c5.069307 13.634688 24.297713 24.297713 43.70092201 24.29771301h706.03209299c19.403209 0 31.464664-10.663025 26.570161-24.29771301l-118.342097-337.371116z m68.173438-234.06213701H721.943844c-40.030044-2.097644-63.80334599 58.734039-75.16558601 107.329464H326.013492c-8.565381 15.033117-16.431547 30.765449-24.297712 47.89621-5.069307 10.663025-7.86616601-35.135541-6.467737-47.196996v-0.699214h-75.16558499c-19.403209 0-35.135541 14.33390201-35.13554101 32.86309299v37.23318501h610.064868c16.431547 0 32.16387799 4.370092 45.099352 11.537044 12.935473 7.16695101 25.69614199 17.829976 31.464663 35.135541l88.800273 254.164561V500.462957c0.699215 0-2.971663-73.767156-53.664732-73.767156z m0 0" p-id="3601"></path></svg>