<?xml version="1.0" standalone="no"?><!DOCTYPE svg PUBLIC "-//W3C//DTD SVG 1.1//EN" "http://www.w3.org/Graphics/SVG/1.1/DTD/svg11.dtd"><svg class="icon" width="200px" height="200.00px" viewBox="0 0 1024 1024" version="1.1" xmlns="http://www.w3.org/2000/svg"><path d="M758.1 397.5H756c-14.8-123.8-120.2-219.7-247.9-219.7-127.8 0-233.2 96-247.9 219.8C151.3 400.8 64 490 64 599.6c0 111.6 90.5 202 202 202h205.8V597.8L371.6 698c-15 15-39.3 15-54.4 0-15-15-15-39.3 0-54.4L476.8 484c1.7-2.9 3.7-5.7 6.2-8.2 7.8-7.8 18-11.5 28.1-11.2 10.2-0.3 20.4 3.5 28.1 11.2 2.5 2.5 4.6 5.2 6.2 8.2L705 643.6c15 15 15 39.3 0 54.4-15 15-39.3 15-54.4 0L548.7 595.9v205.8h209.4c111.6 0 202-90.5 202-202 0.1-111.7-90.4-202.2-202-202.2z" /></svg>