<?xml version="1.0" standalone="no"?><!DOCTYPE svg PUBLIC "-//W3C//DTD SVG 1.1//EN" "http://www.w3.org/Graphics/SVG/1.1/DTD/svg11.dtd"><svg class="icon" width="200px" height="200.00px" viewBox="0 0 1024 1024" version="1.1" xmlns="http://www.w3.org/2000/svg"><path d="M940.73572637 940.74037005H83.26427363c-42.99126762 0-77.95163379-34.96036619-77.95163377-77.95163379V161.21126374c0-42.98198251 34.96036619-77.95163379 77.95163377-77.95163379h857.47145274c42.99126762 0 77.95163379 34.96965128 77.95163377 77.95163379v701.57747252c0 42.99126762-34.96036619 77.95163379-77.95163377 77.95163379zM83.26427363 161.21126374v701.57747252H940.79260078l-0.05687441-701.57747252H83.26427363z"  /><path d="M278.14974121 356.09441058m-58.46343527 0a58.46343526 58.46343526 0 1 0 116.92687049 0 58.46343526 58.46343526 0 1 0-116.92687049 0Z"  /><path d="M234.64428188 783.84121923l-68.8935093-68.89351046 239.20109769-239.20109766c15.22145488-15.22145488 39.89915637-15.22145488 55.12061125 0l124.80455964 124.80455966L789.36732506 396.06088798l68.89350931 68.89350931-245.82522866 245.82290684c-15.22145488 15.22145488-39.89915637 15.22145488-55.12061127 0L432.51159626 585.97274447 234.64428188 783.84121923z"  /></svg>