<?xml version="1.0" standalone="no"?><!DOCTYPE svg PUBLIC "-//W3C//DTD SVG 1.1//EN" "http://www.w3.org/Graphics/SVG/1.1/DTD/svg11.dtd"><svg t="1586310566413" class="icon" viewBox="0 0 1309 1024" version="1.1" xmlns="http://www.w3.org/2000/svg" p-id="4769" xmlns:xlink="http://www.w3.org/1999/xlink" width="255.6640625" height="200"><defs><style type="text/css"></style></defs><path d="M187.671273 758.132364l195.863272-265.122909 132.561455 169.05309h36.491636l227.141819-472.15709 81.92 240.546909c46.173091-23.086545 99.048727-36.491636 154.158545-36.491637 49.152 0 96.069818 10.426182 137.774545 29.044364V89.367273c0-49.152-40.215273-89.367273-89.367272-89.367273H89.367273C40.215273 0 0 40.215273 0 89.367273v743.982545c0 49.152 40.215273 89.367273 89.367273 89.367273h635.997091c-30.533818-48.407273-49.152-104.261818-52.875637-164.584727H187.671273zM364.916364 183.947636c43.938909 0 80.430545 36.491636 80.430545 82.664728 0 29.044364-15.639273 55.854545-40.215273 70.749091-24.576 15.639273-55.854545 15.639273-80.430545 0-25.320727-13.405091-40.215273-42.449455-40.215273-70.749091-0.744727-46.173091 35.746909-82.664727 80.430546-82.664728zM1024 1024z" p-id="4770"></path><path d="M1309.230545 738.769455c0-157.137455-128.093091-285.230545-285.975272-285.230546S737.28 580.887273 737.28 738.769455c0 157.137455 128.093091 285.230545 285.975273 285.230545 158.626909 0 285.975273-128.093091 285.975272-285.230545z m-285.230545 224.162909c-123.624727 0-224.162909-100.538182-224.162909-224.162909s100.538182-224.162909 224.162909-224.16291 224.162909 100.538182 224.162909 224.16291-100.538182 224.162909-224.162909 224.162909z" p-id="4771"></path><path d="M1024 646.423273c-51.386182 0-92.346182 40.96-92.346182 92.346182s41.704727 92.346182 92.346182 92.346181c51.386182 0 92.346182-40.96 92.346182-92.346181s-41.704727-92.346182-92.346182-92.346182z" p-id="4772"></path></svg>