<?xml version="1.0" standalone="no"?><!DOCTYPE svg PUBLIC "-//W3C//DTD SVG 1.1//EN" "http://www.w3.org/Graphics/SVG/1.1/DTD/svg11.dtd"><svg class="icon" width="200px" height="200.00px" viewBox="0 0 1024 1024" version="1.1" xmlns="http://www.w3.org/2000/svg"><path d="M46.72 124.8v187.52c0 69.12 55.68 124.8 124.8 124.8h187.52c69.12 0 124.8-55.68 124.8-124.8V124.8C483.84 55.68 428.16 0 359.68 0H171.52C103.04 0 46.72 55.68 46.72 124.8zM360.96 987.52l132.48-132.48c48.64-48.64 48.64-127.36 0-176L360.96 545.92c-48.64-48.64-127.36-48.64-176 0L51.84 678.4c-48.64 48.64-48.64 127.36 0 176l132.48 132.48c48.64 49.28 127.36 49.28 176.64 0.64z m-270.72-291.2l105.6-105.6c38.4-38.4 101.12-38.4 140.16 0l105.6 105.6c38.4 38.4 38.4 101.12 0 140.16l-105.6 105.6c-38.4 38.4-101.12 38.4-140.16 0l-105.6-105.6a98.56 98.56 0 0 1 0-140.16zM625.28 704.64h320.64c35.2 0 64-28.8 64-64s-28.8-64-64-64H625.28c-35.2 0-64 28.8-64 64 0 35.84 28.16 64 64 64zM625.28 448h320.64c35.2 0 64-28.8 64-64s-28.8-64-64-64H625.28c-35.2 0-64 28.8-64 64s28.16 64 64 64zM945.92 63.36H625.28c-35.2 0-64 28.8-64 64s28.8 64 64 64h320.64c35.2 0 64-28.8 64-64s-28.8-64-64-64zM625.28 961.28h320.64c35.2 0 64-28.8 64-64s-28.8-64-64-64H625.28c-35.2 0-64 28.8-64 64 0 35.84 28.16 64 64 64z" /></svg>