<?xml version="1.0" standalone="no"?><!DOCTYPE svg PUBLIC "-//W3C//DTD SVG 1.1//EN" "http://www.w3.org/Graphics/SVG/1.1/DTD/svg11.dtd"><svg class="icon" width="200px" height="169.26px" viewBox="0 0 1210 1024" version="1.1" xmlns="http://www.w3.org/2000/svg"><path d="M1115.229091 0H92.625455C42.356364 0 0.930909 40.494545 0 90.763636v840.610909c0.930909 50.269091 42.356364 90.763636 92.625455 90.763637h1022.138181c51.2 0 93.090909-41.890909 93.090909-93.090909V93.090909c0-51.2-41.425455-93.090909-92.625454-93.090909zM92.625455 929.512727V93.090909h1022.138181v836.421818H92.625455z"  /><path d="M690.734545 415.650909l-148.945454-148.945454a46.359273 46.359273 0 0 0-65.629091 0L190.836364 552.029091l81.92 81.92 235.985454-235.985455 148.945455 148.945455c18.152727 18.152727 47.476364 18.152727 65.629091 0l293.236363-293.236364-81.92-81.454545-243.898182 243.432727z"  /><path d="M987.229091 734.952727H212.712727c-11.636364 0-20.945455 9.309091-20.945454 20.945455v69.818182c0 11.636364 9.309091 20.945455 20.945454 20.945454h774.516364c11.636364 0 20.945455-9.309091 20.945454-20.945454v-69.818182c0-11.170909-9.309091-20.945455-20.945454-20.945455z"  /></svg>