<?xml version="1.0" standalone="no"?><!DOCTYPE svg PUBLIC "-//W3C//DTD SVG 1.1//EN" "http://www.w3.org/Graphics/SVG/1.1/DTD/svg11.dtd"><svg class="icon" width="200px" height="200.00px" viewBox="0 0 1024 1024" version="1.1" xmlns="http://www.w3.org/2000/svg"><path d="M926.19545112 177.98606966c-23.54691159 0-45.07875094 8.60367924-61.64815856 22.8250549l-0.11586998-0.14117491L364.665538 635.52467038 169.39398351 413.42188959l-0.05993278 0.05993274c-17.30325087-18.59646644-41.97023897-30.23274282-69.3714923-30.23274283-52.34792759 0-94.76965996 42.43638259-94.76965994 94.76965997 0 23.02483073 8.20945492 44.12382246 21.85680803 60.55871435l-0.02264125 0.02264128L282.14480031 828.76916607c17.38582488 21.33339536 43.85745467 34.97009373 73.51750676 34.97009377 24.28208665 0 46.409258-9.12842376 63.17844147-24.13824807h0.09322874l565.85306217-492.37284689c22.02062423-17.35119706 36.19272186-44.25034715 36.19272186-74.47243527 0-52.33460921-42.43505073-94.76965996-94.78297835-94.76965995z m0 0" /></svg>