<?xml version="1.0" standalone="no"?><!DOCTYPE svg PUBLIC "-//W3C//DTD SVG 1.1//EN" "http://www.w3.org/Graphics/SVG/1.1/DTD/svg11.dtd"><svg class="icon" width="200px" height="200.00px" viewBox="0 0 1024 1024" version="1.1" xmlns="http://www.w3.org/2000/svg"><path d="M511.31832726 5.46717887c-51.54437694 0-93.33116275 41.7769665-93.33116274 93.31994066V638.43689698c0 51.54297417 41.78538305 93.32835722 93.33116274 93.32835721 51.54297417 0 93.31994068-41.78538305 93.31994068-93.32835721V98.78852228c0.00140276-51.54297417-41.7769665-93.32134342-93.31994068-93.32134341z m0 810.75398231c-51.54437694 0-93.33116275 41.7867858-93.33116274 93.32975997v5.6769654c0 51.54297417 41.78538305 93.32835722 93.33116274 93.32835722 51.54297417 0 93.31994068-41.78538305 93.31994068-93.32835722v-5.6769654c0.00140276-51.54297417-41.7769665-93.32975999-93.31994068-93.32975997z m0 0" /></svg>