<?xml version="1.0" standalone="no"?><!DOCTYPE svg PUBLIC "-//W3C//DTD SVG 1.1//EN" "http://www.w3.org/Graphics/SVG/1.1/DTD/svg11.dtd"><svg t="1578022007677" class="icon" viewBox="0 0 1024 1024" version="1.1" xmlns="http://www.w3.org/2000/svg" p-id="13978" xmlns:xlink="http://www.w3.org/1999/xlink" width="200" height="200"><defs><style type="text/css"></style></defs><path d="M875.668332 375.432567H841.91009l-2.557443-68.027972c0-170.325674-147.308691-307.404595-327.352647-307.404595-181.066933 0-327.352647 137.078921-327.352647 307.404595l2.557442 68.027972h-38.873127C107.412587 375.432567 74.677323 405.61039 74.677323 443.460539v511.488512c0 37.85015 33.758242 68.027972 73.654345 68.027972h725.802198c40.919081 0 73.654346-30.177822 73.654346-68.027972l1.022977-511.488512c0.511489-37.85015-33.246753-68.027972-73.142857-68.027972z m-307.916084 360.599401v97.182817c0 30.177822-24.03996 53.706294-54.217782 53.706294-31.200799 0-55.752248-23.016983-55.752248-53.706294v-97.182817c-32.735265-18.413586-54.217782-51.148851-54.217782-88.487512 0-55.752248 48.07992-102.297702 108.947053-102.297703s108.947053 46.033966 109.970029 102.297703c-0.511489 38.873127-21.994006 70.585415-54.72927 88.487512z m162.141858-360.599401H293.594406V307.404595C293.594406 193.342657 391.288711 102.297702 512 102.297702c119.688312 0 217.382617 92.579421 217.382617 205.106893v68.027972z" p-id="13979"></path></svg>