<?xml version="1.0" standalone="no"?><!DOCTYPE svg PUBLIC "-//W3C//DTD SVG 1.1//EN" "http://www.w3.org/Graphics/SVG/1.1/DTD/svg11.dtd"><svg class="icon" width="200px" height="200.00px" viewBox="0 0 1024 1024" version="1.1" xmlns="http://www.w3.org/2000/svg"><path d="M694.04444445 257.13777778H329.95555555c-10.92266667 0-18.20444445 3.64088889-25.48622222 10.92266667-7.28177778 7.28177778-10.92266667 14.56355555-10.92266666 25.48622222v72.81777778c0 21.84533333 14.56355555 36.40888889 36.40888888 36.40888888s36.40888889-18.20444445 36.4088889-36.40888888v-36.4088889h109.22666666v364.0888889h-36.40888889c-18.20444445 0-36.40888889 14.56355555-36.40888889 36.40888888s14.56355555 36.40888889 36.40888889 36.40888889h145.63555556c18.20444445 0 36.40888889-14.56355555 36.40888889-36.40888889s-14.56355555-36.40888889-36.40888889-36.40888888h-36.40888889V329.95555555h109.22666666v36.4088889c0 21.84533333 14.56355555 36.40888889 36.4088889 36.40888888s36.40888889-18.20444445 36.40888888-36.40888888v-72.81777778c0-10.92266667-3.64088889-18.20444445-10.92266666-25.48622222-7.28177778-7.28177778-14.56355555-10.92266667-25.48622222-10.92266667z"  /><path d="M948.90666667 75.09333333H75.09333333c-40.04977778 0-72.81777778 32.768-72.81777778 72.81777778v728.17777778c0 40.04977778 32.768 72.81777778 72.81777778 72.81777778h873.81333334c40.04977778 0 72.81777778-32.768 72.81777778-72.81777778V147.91111111c0-40.04977778-32.768-72.81777778-72.81777778-72.81777778z m0 764.58666667c0 18.20444445-14.56355555 36.40888889-36.40888889 36.40888889H111.50222222c-21.84533333 0-36.40888889-18.20444445-36.40888889-36.40888889V184.32c0-18.20444445 14.56355555-36.40888889 36.40888889-36.40888889h800.99555556c21.84533333 0 36.40888889 18.20444445 36.40888889 36.40888889v655.36z"  /></svg>