<?xml version="1.0" standalone="no"?><!DOCTYPE svg PUBLIC "-//W3C//DTD SVG 1.1//EN" "http://www.w3.org/Graphics/SVG/1.1/DTD/svg11.dtd"><svg t="1586414738865" class="icon" viewBox="0 0 1029 1024" version="1.1" xmlns="http://www.w3.org/2000/svg" p-id="4565" xmlns:xlink="http://www.w3.org/1999/xlink" width="200.9765625" height="200"><defs><style type="text/css"></style></defs><path d="M901.632 0H127.488C57.344 0 0.512 54.784 0 121.344V901.12c0 70.144 55.296 121.344 126.976 121.344h774.656c69.632 0 126.976-54.784 126.976-121.344V116.224C1020.416 52.736 965.12 0 901.632 0zM225.28 295.936c1.536-23.552 20.48-41.984 43.52-43.52h305.664c22.016 0 43.52 16.384 43.52 38.4s-16.384 43.52-38.4 43.52H268.8c-21.504 5.12-43.52-16.384-43.52-38.4z m572.928 409.088c0 27.136-16.384 43.52-43.52 43.52H269.312c-23.552 0.512-43.008-18.432-43.52-42.496v-1.536c1.536-23.552 20.48-41.984 43.52-43.52h485.376c23.552-0.512 43.52 18.432 43.52 42.496v1.536z m-43.52-163.84H269.312c-23.552 0.512-43.008-18.432-43.52-42.496v-1.536c1.536-23.552 20.48-41.984 43.52-43.52h485.376c22.016 0 43.52 16.384 43.52 38.4s-16.384 49.152-43.52 49.152z" p-id="4566"></path></svg>