<?xml version="1.0" standalone="no"?><!DOCTYPE svg PUBLIC "-//W3C//DTD SVG 1.1//EN" "http://www.w3.org/Graphics/SVG/1.1/DTD/svg11.dtd"><svg class="icon" width="200px" height="200.00px" viewBox="0 0 1024 1024" version="1.1" xmlns="http://www.w3.org/2000/svg"><path d="M389.12 574.72h161.706667l-80.64-198.4z"  /><path d="M901.12 842.24V181.333333c0-32.853333-26.88-60.16-59.733333-60.16H183.04c-32.853333 0-59.733333 26.88-59.733333 60.16v660.906667c0 32.853333 26.88 60.16 59.733333 60.16h658.346667c32.426667 0 59.733333-27.306667 59.733333-60.16z m-113.92-75.093333c-2.986667 8.96-11.946667 14.933333-20.906667 14.933333h-149.76c-11.946667 0-20.906667-8.96-23.893333-20.906667 0-14.933333 8.96-23.893333 20.906667-26.88l-41.813334-107.946666H374.186667L329.386667 733.866667c14.933333 2.986667 23.893333 14.933333 20.906666 26.88 0 11.946667-11.946667 20.906667-23.893333 20.906666H254.72c-17.92 0-29.866667-17.92-23.893333-32.853333 2.986667-8.96 11.946667-14.933333 20.906666-14.933333h17.92l215.466667-541.013334c5.973333-8.96 14.933333-14.933333 23.893333-14.933333 11.946667 0 20.906667 5.973333 23.893334 14.933333l221.44 541.013334h14.933333c17.92 0 29.866667 15.36 17.92 33.28zM66.133333 547.84c0-8.96-8.96-14.933333-14.933333-14.933333-5.973333 0-14.933333 8.96-14.933333 14.933333v32.853333c0 8.96 8.96 14.933333 14.933333 14.933334 5.973333 0 14.933333-8.96 14.933333-14.933334v-32.853333zM36.266667 758.186667v32.853333c0 8.96 5.973333 14.933333 14.933333 14.933333 8.96 0 14.933333-8.96 14.933333-14.933333v-32.853333c0-8.96-8.96-14.933333-14.933333-14.933334-5.973333 0-14.933333 8.96-14.933333 14.933334zM66.133333 337.493333c0-8.96-8.96-14.933333-14.933333-14.933333-5.973333 0-14.933333 8.96-14.933333 14.933333v32.853334c0 8.96 8.96 14.933333 14.933333 14.933333 5.973333 0 14.933333-8.96 14.933333-14.933333v-32.853334zM66.133333 442.453333c0-8.96-8.96-14.933333-14.933333-14.933333-5.973333 0-14.933333 8.96-14.933333 14.933333v32.853334c0 8.96 8.96 14.933333 14.933333 14.933333 5.973333 0 14.933333-8.96 14.933333-14.933333v-32.853334zM110.933333 944.213333v-14.933333c0-8.96-8.96-17.92-17.92-17.92h-23.893333v-54.186667c0-8.96-8.96-17.92-14.933333-17.92-5.973333 0-14.933333 8.96-14.933334 17.92v54.186667H21.333333c-8.96 0-17.92 8.96-17.92 17.92v72.106667c0 11.946667 8.96 20.906667 17.92 20.906666h71.68c8.96 0 17.92-8.96 17.92-17.92v-14.933333h47.786667c8.96-2.986667 17.92-11.946667 17.92-20.906667 0-8.96-14.933333-23.893333-14.933333-23.893333H110.933333zM66.133333 229.12c0-8.96-8.96-14.933333-14.933333-14.933333-5.973333 0-14.933333 8.96-14.933333 17.92v32.853333c0 8.96 5.973333 14.933333 14.933333 14.933333 8.96 0 14.933333-8.96 14.933333-14.933333v-35.84zM263.68 956.16h-32.853333c-8.96 0-14.933333 8.96-14.933334 14.933333s8.96 14.933333 14.933334 14.933334h32.853333c8.96 0 14.933333-8.96 14.933333-14.933334s-2.986667-14.933333-14.933333-14.933333zM652.373333 66.986667h32.853334c8.96 0 14.933333-8.96 14.933333-14.933334 0-5.973333-8.96-14.933333-14.933333-14.933333h-32.853334c-8.96 0-14.933333 8.96-14.933333 14.933333 0 5.973333 5.973333 14.933333 14.933333 14.933334zM66.133333 652.8c0-8.96-8.96-14.933333-14.933333-14.933333-5.973333 0-14.933333 8.96-14.933333 14.933333v32.853333c0 8.96 8.96 14.933333 14.933333 14.933334 5.973333 0 14.933333-8.96 14.933333-14.933334v-32.853333zM547.84 66.986667h32.853333c8.96 0 14.933333-8.96 14.933334-14.933334 0-5.973333-8.96-14.933333-14.933334-14.933333h-32.853333c-8.96 0-14.933333 8.96-14.933333 14.933333 0 5.973333 5.973333 14.933333 14.933333 14.933334zM757.333333 66.986667h32.853334c8.96 0 14.933333-5.973333 14.933333-14.933334 0-8.96-8.96-14.933333-14.933333-14.933333h-32.853334c-8.96 0-14.933333 8.96-14.933333 14.933333 0 5.973333 5.973333 14.933333 14.933333 14.933334zM21.333333 109.226667h14.933334v48.213333c2.986667 8.96 11.946667 17.92 20.906666 17.92 8.96 0 23.893333-17.92 23.893334-17.92V109.226667h11.946666c8.96 0 17.92-8.96 17.92-17.92v-24.32h47.786667c8.96 0 14.933333-8.96 14.933333-14.933334C176.64 40.106667 170.666667 34.133333 158.72 34.133333H110.933333V18.773333c0-8.96-8.96-17.92-17.92-17.92H21.333333C12.373333 0.853333 3.413333 9.813333 3.413333 18.773333v72.106667c0 9.386667 8.96 18.346667 17.92 18.346667zM443.306667 66.986667h32.853333c8.96 0 14.933333-8.96 14.933333-14.933334 0-5.973333-8.96-14.933333-14.933333-14.933333h-32.853333c-8.96 0-14.933333 8.96-14.933334 14.933333 0 5.973333 5.973333 14.933333 14.933334 14.933334zM338.346667 66.986667h32.853333c8.96 0 14.933333-8.96 14.933333-14.933334 0-5.973333-8.96-14.933333-14.933333-14.933333h-32.853333c-8.96 0-14.933333 8.96-14.933334 14.933333 0 5.973333 5.973333 14.933333 14.933334 14.933334zM233.813333 66.986667h32.853334c8.96 0 14.933333-8.96 14.933333-14.933334 0-5.973333-5.973333-17.92-14.933333-17.92h-32.853334c-8.96 0-14.933333 8.96-14.933333 17.92s2.986667 14.933333 14.933333 14.933334zM371.2 956.16h-32.853333c-8.96 0-14.933333 8.96-14.933334 14.933333s8.96 14.933333 14.933334 14.933334h32.853333c8.96 0 14.933333-8.96 14.933333-14.933334s-5.973333-14.933333-14.933333-14.933333zM984.746667 265.386667v-36.266667c0-8.96-8.96-14.933333-14.933334-14.933333-8.96 0-14.933333 8.96-14.933333 14.933333v32.853333c0 11.946667 5.973333 17.92 14.933333 17.92 8.96 0.426667 14.933333-8.533333 14.933334-14.506666zM954.88 580.693333c0 8.96 8.96 14.933333 14.933333 14.933334 5.973333 0 14.933333-8.96 14.933334-14.933334v-32.853333c0-8.96-8.96-14.933333-14.933334-14.933333-5.973333 0-14.933333 8.96-14.933333 14.933333v32.853333zM954.88 791.04c0 8.96 8.96 14.933333 14.933333 14.933333 5.973333 0 14.933333-8.96 14.933334-14.933333v-32.853333c0-8.96-8.96-14.933333-14.933334-14.933334-5.973333 0-14.933333 8.96-14.933333 14.933334v32.853333zM954.88 686.08c0 8.96 8.96 14.933333 14.933333 14.933333 5.973333 0 14.933333-8.96 14.933334-14.933333v-33.28c0-8.96-8.96-14.933333-14.933334-14.933333-5.973333 0-14.933333 8.96-14.933333 14.933333v33.28zM1002.666667 0.853333h-71.68c-8.96 0-17.92 8.96-17.92 17.92V34.133333h-47.786667c-8.96 2.986667-17.92 11.946667-17.92 20.906667 0 8.96 17.92 23.893333 17.92 23.893333h47.786667v11.946667c0 8.96 8.96 17.92 17.92 17.92h26.88v54.186667c0 8.96 8.96 17.92 14.933333 17.92 5.973333 0 14.933333-8.96 14.933333-17.92V109.226667h14.933334c8.96 0 17.92-5.973333 17.92-17.92V18.773333c0-8.96-8.96-17.92-17.92-17.92zM954.88 370.346667c0 8.96 8.96 14.933333 14.933333 14.933333 5.973333 0 14.933333-8.96 14.933334-14.933333v-32.853334c0-8.96-8.96-14.933333-14.933334-14.933333-5.973333 0-14.933333 8.96-14.933333 14.933333v32.853334zM954.88 475.733333c0 8.96 8.96 14.933333 14.933333 14.933334 5.973333 0 14.933333-8.96 14.933334-14.933334v-32.853333c0-8.96-8.96-14.933333-14.933334-14.933333-5.973333 0-14.933333 8.96-14.933333 14.933333v32.853333zM580.693333 956.16h-32.853333c-8.96 0-14.933333 8.96-14.933333 14.933333s8.96 14.933333 14.933333 14.933334h32.853333c8.96 0 14.933333-8.96 14.933334-14.933334s-5.973333-14.933333-14.933334-14.933333zM685.653333 956.16h-32.853333c-8.96 0-14.933333 8.96-14.933333 14.933333s8.96 14.933333 14.933333 14.933334h32.853333c8.96 0 14.933333-8.96 14.933334-14.933334s-5.973333-14.933333-14.933334-14.933333zM476.16 956.16h-32.853333c-8.96 0-14.933333 8.96-14.933334 14.933333s8.96 14.933333 14.933334 14.933334h32.853333c8.96 0 14.933333-8.96 14.933333-14.933334s-5.973333-14.933333-14.933333-14.933333zM1002.666667 911.36h-14.933334v-48.213333c-2.986667-8.96-11.946667-17.92-20.906666-17.92-8.96 0-23.893333 17.92-23.893334 17.92v48.213333h-14.933333c-8.96 0-17.92 8.96-17.92 17.92v26.88H861.866667c-8.96 0-14.933333 8.96-14.933334 14.933333s8.96 14.933333 14.933334 14.933334h47.786666v14.933333c0 8.96 8.96 17.92 17.92 17.92h71.68c8.96 0 17.92-8.96 17.92-17.92v-69.12a15.658667 15.658667 0 0 0-14.506666-20.48zM790.186667 956.16h-32.853334c-8.96 0-14.933333 8.96-14.933333 14.933333s8.96 14.933333 14.933333 14.933334h32.853334c8.96 0 14.933333-8.96 14.933333-14.933334s-5.973333-14.933333-14.933333-14.933333z"  /></svg>