<?xml version="1.0" standalone="no"?><!DOCTYPE svg PUBLIC "-//W3C//DTD SVG 1.1//EN" "http://www.w3.org/Graphics/SVG/1.1/DTD/svg11.dtd"><svg class="icon" width="200px" height="200.00px" viewBox="0 0 1024 1024" version="1.1" xmlns="http://www.w3.org/2000/svg"><path d="M862.411348 724.16616h-232.397164c-35.274569 45.130699-67.436677 84.036474-79.367781 98.561297-23.862209 28.530902-54.468085 25.937183-76.255319 2.074975-16.599797-19.712259-44.611955-54.986829-82.998987-100.636272H161.588652c-51.355623 0-93.37386 35.793313-93.37386 79.886525v140.06079c0 40.98075 35.274569 74.180344 80.924012 79.367781h725.203648c45.649443-5.187437 80.924012-38.905775 80.924012-79.367781v-140.06079c0.518744-43.574468-40.98075-79.886525-92.855116-79.886525z"  /><path d="M390.35461 648.429585c40.98075 53.949341 76.774063 100.636272 82.480243 107.379939 23.862209 25.41844 57.061803 29.049645 81.442756-2.074975 5.70618-7.781155 39.424519-52.39311 78.849037-105.304964 62.767984-84.036474 140.579534-188.822695 149.398177-201.272543 21.26849-29.049645 10.374873-63.805471-28.012158-63.805472h-87.66768c-28.012158 0-40.462006-25.41844-40.462006-53.430597V59.136778c0-38.387031-16.599797-59.136778-51.874367-59.136778H457.272543c-35.274569 0-52.911854 14.524823-52.911854 48.243161 0 8.818642 0.518744 266.115502 0.518744 283.234043 0 28.530902-12.449848 52.911854-43.055725 52.911854H265.337386c-35.793313 0-43.574468 42.018237-19.193516 74.699088 10.374873 11.931104 83.51773 108.93617 144.21074 189.341439z"  /></svg>