<?xml version="1.0" standalone="no"?><!DOCTYPE svg PUBLIC "-//W3C//DTD SVG 1.1//EN" "http://www.w3.org/Graphics/SVG/1.1/DTD/svg11.dtd"><svg class="icon" width="200px" height="200.00px" viewBox="0 0 1024 1024" version="1.1" xmlns="http://www.w3.org/2000/svg"><path d="M512 1024C229.692818 1024 0 794.307182 0 512S229.692818 0 512 0 1024 229.692818 1024 512 794.307182 1024 512 1024z m0-978.740331C254.585635 45.259669 45.259669 254.585635 45.259669 512S254.585635 978.740331 512 978.740331 978.740331 769.414365 978.740331 512 769.414365 45.259669 512 45.259669z"  /><path d="M531.801105 801.096133c-10.183425 9.051934-22.064088 14.143646-36.207735 14.143646-14.143646 0-26.024309-5.091713-36.207735-14.143646-10.183425-10.183425-14.143646-22.064088-14.143646-36.207735 0-14.143646 3.960221-26.024309 14.143646-35.076243 10.183425-10.183425 22.064088-14.143646 36.207735-14.143647s26.590055 3.960221 36.773481 14.143647c9.051934 9.051934 14.143646 20.932597 14.143646 35.076243 0.565746 15.275138-4.525967 27.155801-14.709392 36.207735zM652.304972 465.60884c-8.486188 10.183425-31.116022 31.681768-67.889502 64.495027-18.669613 15.840884-31.116022 31.116022-39.60221 46.391161-10.749171 18.669613-15.840884 38.470718-15.840884 61.100552v19.235359H462.214365v-19.235359c0-27.721547 5.091713-52.048619 15.275138-72.981215 11.880663-24.892818 39.60221-57.140331 84.861878-97.308288 13.577901-13.577901 23.761326-23.761326 28.287293-29.98453 16.972376-20.932597 24.892818-42.996685 24.892818-66.192265 0-33.379006-10.183425-59.403315-28.287293-78.072928-19.235359-20.366851-46.956906-29.418785-82.033149-29.418785-41.865193 0-72.981215 13.577901-93.348067 41.299448-18.669613 23.761326-27.721547 55.443094-27.721547 96.742541H317.949171c0-58.837569 15.840884-105.794475 49.21989-140.870718 33.379006-36.773481 80.335912-55.443094 140.870718-55.443094 53.745856 0 96.742541 14.143646 128.990055 44.693923 31.116022 28.287293 46.956906 67.889503 46.956906 118.240883 0.565746 36.773481-10.749171 69.58674-31.681768 97.308288z"  /></svg>