<?xml version="1.0" standalone="no"?><!DOCTYPE svg PUBLIC "-//W3C//DTD SVG 1.1//EN" "http://www.w3.org/Graphics/SVG/1.1/DTD/svg11.dtd"><svg class="icon" width="200px" height="200.00px" viewBox="0 0 1024 1024" version="1.1" xmlns="http://www.w3.org/2000/svg"><path d="M513.131492 1024C231.390055 1024 2.262983 794.872928 2.262983 513.131492S231.390055 2.262983 513.131492 2.262983 1024 231.390055 1024 513.131492 794.872928 1024 513.131492 1024z"  /><path d="M532.932597 801.661878c-10.183425 9.051934-22.064088 14.143646-36.207735 14.143647-14.143646 0-26.024309-5.091713-36.207735-14.143647-10.183425-10.183425-14.143646-22.064088-14.143646-36.207734s3.960221-26.024309 14.143646-35.076243c10.183425-10.183425 22.064088-14.143646 36.207735-14.143647 14.143646 0 26.590055 3.960221 36.773481 14.143647 9.051934 9.051934 14.143646 20.932597 14.143646 35.076243 0.565746 15.275138-4.525967 27.155801-14.709392 36.207734zM652.870718 466.740331c-8.486188 10.183425-31.116022 31.681768-67.889503 64.495028-18.669613 15.840884-31.116022 31.116022-39.602209 46.39116-10.749171 18.669613-15.840884 38.470718-15.840884 61.100553v19.235359H463.345856v-19.235359c0-27.721547 5.091713-52.048619 15.275138-72.981216 11.880663-24.892818 39.60221-57.140331 84.861879-97.308287 13.577901-13.577901 23.761326-23.761326 28.287293-29.98453 16.972376-20.932597 24.892818-42.996685 24.892817-66.192266 0-33.379006-10.183425-59.403315-28.287292-78.072928-19.235359-20.366851-46.956906-29.418785-82.03315-29.418784-41.865193 0-72.981215 13.577901-93.348066 41.299447-18.669613 23.761326-27.721547 55.443094-27.721547 96.742542H319.646409c0-58.837569 15.840884-105.794475 49.219889-140.304973 33.379006-36.773481 80.335912-55.443094 140.304973-55.443094 53.745856 0 96.742541 14.143646 128.424309 44.693923 31.116022 28.287293 46.956906 67.889503 46.956906 118.240884 0.565746 36.207735-10.749171 69.020994-31.681768 96.742541z" fill="#ffffff" /></svg>