<?xml version="1.0" standalone="no"?><!DOCTYPE svg PUBLIC "-//W3C//DTD SVG 1.1//EN" "http://www.w3.org/Graphics/SVG/1.1/DTD/svg11.dtd"><svg t="1573029603829" class="icon" viewBox="0 0 1071 1024" version="1.1" xmlns="http://www.w3.org/2000/svg" p-id="10880" xmlns:xlink="http://www.w3.org/1999/xlink" width="209.1796875" height="200"><defs><style type="text/css"></style></defs><path d="M535.552 75.264l128 260.096 14.336 29.184 32.256 4.608 286.72 41.472-207.36 202.24-23.04 22.528 5.632 31.744 49.152 285.184-256.512-134.656-28.672-14.848-28.672 14.848L250.88 952.32l49.152-285.184 5.632-31.744-23.04-22.528-207.872-202.24 286.208-41.472 31.744-4.608 14.336-29.184 128.512-260.096m0-75.264c-18.944 0-36.352 10.24-45.056 27.648l-138.24 280.576L42.496 353.28c-18.432 2.56-34.304 15.872-39.936 33.792-5.632 17.92-1.024 37.376 12.8 51.2l223.744 218.624-53.248 308.224c-3.072 18.432 4.096 37.376 19.968 48.64 8.704 6.144 18.944 9.216 29.184 9.216 8.192 0 15.872-2.048 23.04-5.632l276.992-145.408 276.992 145.408c7.168 3.584 15.36 5.632 23.552 5.632 10.24 0 20.48-3.072 29.696-9.216 15.36-11.264 23.04-30.208 19.968-48.64l-53.248-308.224 223.744-218.624c13.824-13.824 18.432-33.28 12.8-51.2s-21.504-31.232-39.936-33.792l-310.272-45.056-138.24-280.576c-8.192-16.384-25.6-27.648-44.544-27.648z" p-id="10881"></path></svg>