<?xml version="1.0" standalone="no"?><!DOCTYPE svg PUBLIC "-//W3C//DTD SVG 1.1//EN" "http://www.w3.org/Graphics/SVG/1.1/DTD/svg11.dtd"><svg t="1571211688955" class="icon" viewBox="0 0 1024 1024" version="1.1" xmlns="http://www.w3.org/2000/svg" p-id="30258" xmlns:xlink="http://www.w3.org/1999/xlink" width="14" height="14"><defs><style type="text/css"></style></defs><path d="M913.471159 0H109.944032C47.369503 0 0 47.369503 0 109.944032v804.111936C0 976.045688 47.369503 1023.415191 109.944032 1023.415191h804.111936c61.98972 0 109.944032-47.369503 109.944032-109.944032V109.944032C1023.415191 47.369503 976.045688 0 913.471159 0z m-185.384351 431.003998l-193.571674 211.700742c-5.848087 6.432895-14.035408 10.526556-22.807538 10.526556s-16.959452-3.508852-22.807539-10.526556L295.328384 431.003998c-9.356939-9.941748-12.280982-24.561965-7.602513-37.427756s16.959452-21.637921 30.410051-22.807538h387.143347c14.035408 1.169617 25.731582 9.941748 30.410051 22.807538 4.678469 12.865791 1.754426 27.486008-7.602512 37.427756z" p-id="30259"></path></svg>