<?xml version="1.0" standalone="no"?><!DOCTYPE svg PUBLIC "-//W3C//DTD SVG 1.1//EN" "http://www.w3.org/Graphics/SVG/1.1/DTD/svg11.dtd"><svg class="icon" width="200px" height="200.00px" viewBox="0 0 1024 1024" version="1.1" xmlns="http://www.w3.org/2000/svg"><path d="M2.133333 42.666667v881.493333c1.706667 22.186667 13.226667 36.693333 30.72 36.693333h30.72v-331.946666c0-24.746667 12.373333-41.386667 30.72-41.386667h738.986667V47.36c0-24.746667-12.373333-41.386667-30.72-41.386667H32.853333C15.786667 5.973333 3.84 20.48 2.133333 42.666667z"  /><path d="M1018.453333 991.573333v-217.173333c0-18.773333-12.373333-31.146667-30.72-31.146667H156.16c-18.346667 0-30.72 12.373333-30.72 31.146667v217.173333c0 18.773333 12.373333 31.146667 30.72 31.146667h831.573333c18.346667 0 30.72-12.373333 30.72-31.146667z m-85.76-165.12l-81.92 142.933334c-2.986667 5.12-10.666667 5.12-13.653333 0l-81.92-142.933334c-2.986667-5.12 0.853333-11.946667 6.826667-11.946666h163.413333c6.826667 0 10.24 6.4 7.253333 11.946666z"  /><path d="M926.293333 814.506667h-163.413333c-5.973333 0-9.813333 6.4-6.826667 11.946666l81.92 142.933334c2.986667 5.12 10.666667 5.12 13.653334 0l81.92-142.933334c2.133333-5.546667-1.28-11.946667-7.253334-11.946666z" fill="#ffffff" /></svg>