<?xml version="1.0" standalone="no"?><!DOCTYPE svg PUBLIC "-//W3C//DTD SVG 1.1//EN" "http://www.w3.org/Graphics/SVG/1.1/DTD/svg11.dtd"><svg t="1579042975588" class="icon" viewBox="0 0 1024 1024" version="1.1" xmlns="http://www.w3.org/2000/svg" p-id="17087" xmlns:xlink="http://www.w3.org/1999/xlink" width="200" height="200"><defs><style type="text/css"></style></defs><path d="M512 1024c282.781538 0 512-229.218462 512-512S794.781538 0 512 0 0 229.218462 0 512s229.218462 512 512 512z m269.390769-474.978462c24.418462 0 43.323077 19.692308 43.323077 43.323077 0 24.418462-19.692308 43.323077-43.323077 43.323077H641.969231v159.113846c0 24.418462-19.692308 43.323077-43.323077 43.323077s-43.323077-19.692308-43.323077-43.323077V593.132308c0-24.418462 19.692308-43.323077 43.323077-43.323077l182.744615-0.787693zM398.572308 302.473846l78.76923-99.249231c7.876923-11.027692 21.267692-17.329231 35.446154-17.32923s26.781538 7.089231 35.446154 17.32923l78.769231 99.249231 2.363077 2.363077c2.363077 3.938462 6.301538 11.815385 6.301538 21.267692 0 7.089231-1.575385 14.178462-6.301538 21.267693-11.027692 16.541538-26.781538 19.692308-34.658462 20.48h-33.870769v129.96923c0 25.993846-21.267692 47.261538-47.261538 47.261539s-47.261538-21.267692-47.261539-47.261539V367.852308h-29.144615c-18.116923 0-31.507692-7.089231-40.172308-20.48-3.938462-7.089231-7.089231-14.178462-7.089231-21.267693 0-7.876923 3.150769-16.541538 8.664616-23.630769zM242.609231 549.021538l182.744615 0.787693c24.418462 0 43.323077 19.692308 43.323077 43.323077v201.64923c0 24.418462-19.692308 43.323077-43.323077 43.323077s-43.323077-19.692308-43.323077-43.323077V636.455385H242.609231c-24.418462 0-43.323077-19.692308-43.323077-43.323077 0-25.206154 19.692308-44.110769 43.323077-44.11077z" p-id="17088"></path></svg>
