<?xml version="1.0" standalone="no"?><!DOCTYPE svg PUBLIC "-//W3C//DTD SVG 1.1//EN" "http://www.w3.org/Graphics/SVG/1.1/DTD/svg11.dtd"><svg class="icon" width="200px" height="200.00px" viewBox="0 0 1024 1024" version="1.1" xmlns="http://www.w3.org/2000/svg"><path d="M890.244648 1022.873212H133.293431v-71.363247c-0.375596-7.887517 0-15.775034 0-23.78775-0.250397-71.738843 14.898643-142.476097 46.323512-207.078616V713.632473h3.75596c51.581856-100.158944 138.094144-174.652158 240.88226-202.070668C256.864528 466.865876 132.792637 297.72246 132.792637 95.401394c0-8.012715-0.375596-15.900232 0-23.787749V0.250397h757.827607v71.363248c0.375596 7.887517 0 15.775034 0 23.787749 0 202.446265-123.946693 371.589681-291.337327 416.160411C702.071033 538.980315 788.58332 613.47353 840.165176 713.632473h3.755961v7.011126c31.424869 64.47732 47.700697 135.339773 47.450299 207.078616 0 8.012715-0.751192 15.775034-1.126788 23.78775v71.363247z m-70.111261-832.44602c8.763908-28.294902 11.768676-44.320333 11.768676-95.150997 0-8.012715-0.250397-15.900232-0.87639-23.787749H192.387208c-0.625993 7.887517-0.876391 15.775034-0.876391 23.787749 0 33.17765 4.131556 66.104903 12.269471 98.280964 375.971635 0 409.775278-3.129967 616.353099-3.129967zM511.76904 559.137303c-107.420467 0-202.321066 61.096956-260.413254 154.49517h520.826507c-58.092187-93.398215-152.992786-154.495171-260.413253-154.49517z m0 0" /></svg>