<?xml version="1.0" standalone="no"?><!DOCTYPE svg PUBLIC "-//W3C//DTD SVG 1.1//EN" "http://www.w3.org/Graphics/SVG/1.1/DTD/svg11.dtd"><svg t="1585726685356" class="icon" viewBox="0 0 1024 1024" version="1.1" xmlns="http://www.w3.org/2000/svg" p-id="4358" xmlns:xlink="http://www.w3.org/1999/xlink" width="200" height="200"><defs><style type="text/css"></style></defs><path d="M781.756 1022.752L966.418 857.93v-58.767H767.782l-12.727 3.868c-4.242 1.996-8.36 4.367-12.103 6.987A46.852 46.852 0 0 0 731.473 819c-6.613 6.488-11.853 14.35-15.347 22.958l-3.868 12.727a80.992 80.992 0 0 0 0 13.475v154.592h69.498z m133.506-226.086h12.726-12.726z m0 0" p-id="4359"></path><path d="M889.06 0.749H134.067c-20.338-1.123-40.301 6.363-54.9 20.587a72.607 72.607 0 0 0-22.334 54.15v866.789a77.311 77.311 0 0 0 21.461 56.77c14.598 15.223 34.811 23.832 55.773 23.707h486.734v-155.84a151.35 151.35 0 0 1 0-30.07 160.09 160.09 0 0 1 8.983-30.07c3.993-9.856 8.86-19.214 14.723-28.073 6.114-9.233 13.101-17.842 21.087-25.578a168.93 168.93 0 0 1 24.33-19.839c8.859-5.74 18.342-10.73 28.074-14.723a131.354 131.354 0 0 1 30.694-8.983 151.35 151.35 0 0 1 30.07 0h185.036V75.486c0.374-19.963-7.362-39.177-21.461-53.277A73.347 73.347 0 0 0 889.06 0.75zM471.324 703.337H279.675c-25.079 0-45.292-20.338-45.292-45.417s20.338-45.292 45.292-45.292h191.65c25.079 0 45.292 20.338 45.292 45.292 0.124 25.204-20.213 45.417-45.293 45.417zM615.685 532.9H279.052c-11.979 0.125-23.458-4.492-32.067-12.851-8.484-8.36-13.35-19.839-13.35-31.817s4.741-23.582 13.225-32.066c8.485-8.485 20.089-13.226 32.067-13.226h336.758c11.978 0 23.582 4.741 32.066 13.226 8.485 8.484 13.226 20.088 13.226 32.066 0 11.978-4.741 23.457-13.35 31.817-8.485 8.36-19.964 12.976-31.942 12.851z m127.766-173.183h-464.4c-11.978 0-23.581-4.741-32.066-13.225-8.484-8.485-13.226-20.089-13.226-32.067 0-11.978 4.742-23.457 13.351-31.816 8.484-8.36 20.088-13.101 32.066-12.852H744.2c11.978-0.125 23.457 4.492 32.066 12.852 8.485 8.36 13.35 19.838 13.35 31.816s-4.74 23.582-13.225 32.067c-8.485 8.484-20.088 13.225-32.066 13.225h-0.874z m0 0" p-id="4360"></path></svg>