<?xml version="1.0" standalone="no"?><!DOCTYPE svg PUBLIC "-//W3C//DTD SVG 1.1//EN" "http://www.w3.org/Graphics/SVG/1.1/DTD/svg11.dtd"><svg class="icon" width="200px" height="200.00px" viewBox="0 0 1024 1024" version="1.1" xmlns="http://www.w3.org/2000/svg"><path d="M1021.14421565 132.56481987L512 472.00322862 2.85578435 132.56481987a53.59412824 53.59412824 0 0 1 53.59412824-53.59412825h911.10017482a53.59412824 53.59412824 0 0 1 53.59412824 53.59412825z m0 71.41417543V882.88261102a53.59412824 53.59412824 0 0 1-53.59412824 53.59412824H56.44991259a53.59412824 53.59412824 0 0 1-53.59412824-53.59412824V203.9789953l509.14421565 339.19723581L1021.14421565 203.9789953zM806.76770375 668.5060991h80.39119182a26.79706358 26.79706358 0 0 1 0 53.59412826h-107.18825541a26.79706358 26.79706358 0 0 1-26.79706466-26.79706359v-107.1882565a26.79706358 26.79706358 0 0 1 53.59412825 0v80.39119183z m-26.79706359 214.37651192a187.57944833 187.57944833 0 1 0 0-375.15889557 187.57944833 187.57944833 0 0 0 0 375.15889557z" /></svg>