<?xml version="1.0" standalone="no"?><!DOCTYPE svg PUBLIC "-//W3C//DTD SVG 1.1//EN" "http://www.w3.org/Graphics/SVG/1.1/DTD/svg11.dtd"><svg class="icon" width="200px" height="200.00px" viewBox="0 0 1024 1024" version="1.1" xmlns="http://www.w3.org/2000/svg"><path d="M760.53197884 210.53058034V196.39873018c0-36.66895238-56.86548317-66.87792762-93.92453079-66.87792762H102.87301757c-37.05904762 0-93.97134222 30.20897524-93.97134222 66.87792762v13.2632381s317.6259454 265.87331048 375.79174603 265.87331047c58.21261206 0 375.83855746-265.00469841 375.83855746-265.00469841z"  /><path d="M599.72431916 583.02472129a95.33927619 95.33927619 0 0 0 10.0540546-69.56698412l-2.73066666-9.06061207a38.80147302 38.80147302 0 0 1 11.05269841-37.83923809s8.80054857-7.58345143 33.93828571-22.23542857c25.13773714-14.47513397 36.06040381-18.5061181 36.06040381-18.5061181a38.65063619 38.65063619 0 0 1 38.2709435 9.32067556l6.41316571 6.89168254a93.81010286 93.81010286 0 0 0 27.73837206 18.37608635V315.72626288s-267.30365968 238.8267073-375.79174603 238.8267073c-107.36461206 0-375.79174603-237.65642159-375.79174603-237.65642159v376.92042159s34.84850794 47.0298819 93.97134222 47.02988191H509.05058202a23.87382857 23.87382857 0 0 1-0.56173715-2.55902477s-2.08050794-11.44279365-2.08050793-40.61151492 2.08050794-40.61151492 2.08050793-40.61151492a39.14475683 39.14475683 0 0 1 27.21824508-28.56537396l9.14383238-2.08050794a93.52923429 93.52923429 0 0 0 54.87339683-43.39419429z"  /><path d="M1019.68524868 666.55191367a29.65764063 29.65764063 0 0 0-20.89350095-21.93375492l-7.28177778-1.69041269c-36.99663238-11.11511365-58.82116063-49.24562286-49.67212698-86.77278477l2.29896127-6.89168254a30.17776762 30.17776762 0 0 0-8.49367365-29.16872127s-6.85007238-5.80981841-26.13638095-16.99254857a221.00195556 221.00195556 0 0 0-27.60834032-14.21507047 29.60562794 29.60562794 0 0 0-29.3871746 7.15174603l-5.0712381 5.46133333a71.65269333 71.65269333 0 0 1-49.71373714 19.80643556 72.0375873 72.0375873 0 0 1-49.89058032-19.98327873l-4.89959619-5.28969143a29.74086095 29.74086095 0 0 0-29.3871746-7.15174603s-8.41045333 3.07915175-27.69676191 14.21507047c-19.28630857 11.27115175-26.04795937 17.07576889-26.04795936 17.07576889a29.7668673 29.7668673 0 0 0-8.49367365 29.08550095l2.08050793 6.9332927c4.07259429 17.55428571 1.95047619 36.58053079-7.71348317 53.44304762a72.29765079 72.29765079 0 0 1-42.2187073 33.41815873l-7.02171429 1.60199111a30.01132698 30.01132698 0 0 0-20.89350095 21.93375492s-1.60199111 8.80054857-1.60199111 31.20761905c0 22.36546032 1.60199111 31.20761905 1.60199111 31.20761905a29.48079746 29.48079746 0 0 0 20.89350095 21.93375492l6.85007238 1.60199111c37.04864508 11.21393778 58.95119238 49.33924571 49.97380064 86.9912381l-1.99208635 6.80326095c-2.90230857 9.53392762 0.86861206 22.62552381 8.49367365 29.16872127 0 0 6.85007238 5.80981841 26.13638095 16.99254857s27.60834032 14.21507048 27.60834032 14.21507048c9.36228571 3.46924698 22.53710222 0.1716419 29.3871746-7.15174604l4.8111746-5.20126984c27.98283175-26.68251429 71.99077587-26.66170921 99.95280254 0.04161016l4.81117461 5.20126984a29.74086095 29.74086095 0 0 0 29.3871746 7.15174603s8.41045333-3.07915175 27.6967619-14.21507047c19.28630857-11.18273016 26.09477079-16.99254857 26.0947708-16.99254857a29.98532063 29.98532063 0 0 0 8.49367365-29.16872127l-2.08050794-7.06332445c-8.95658667-37.58437587 12.96676571-75.63166476 49.97380064-86.7311746l6.85007238-1.60199111a30.01132698 30.01132698 0 0 0 20.89350095-21.93375492s1.60199111-8.80054857 1.60199111-31.20761905c-0.09362286-22.44347937-1.69561397-31.2856381-1.69561397-31.2856381zM797.72105821 787.3930159c-49.38605714-0.11962921-89.32140698-40.2526273-89.20177778-89.63348318 0-49.45367365 39.87813587-89.55026286 89.20177778-89.55026286 49.24042159 0 89.20177778 40.09138794 89.20177778 89.63348318 0.04681143 49.34444698-39.86253206 89.4046273-89.20177778 89.55026286z"  /></svg>