<?xml version="1.0" standalone="no"?><!DOCTYPE svg PUBLIC "-//W3C//DTD SVG 1.1//EN" "http://www.w3.org/Graphics/SVG/1.1/DTD/svg11.dtd"><svg class="icon" width="200px" height="200.00px" viewBox="0 0 1024 1024" version="1.1" xmlns="http://www.w3.org/2000/svg"><path d="M371.371344 624.198314V346.875558c0-41.630144 27.668815-69.298959 69.298958-69.298959H579.26822c41.630144 0 69.298959 27.668815 69.298959 69.298959v277.322756h194.062469c6.980664 0 20.815072 6.980664 27.668815 6.980665 13.834408 13.834408 13.834408 34.649479 0 48.483887l-332.533465 332.660386c-13.834408 13.834408-34.649479 13.834408-48.483887 0L156.493803 686.516609C149.640059 679.662866 142.659395 665.701537 142.659395 658.847794c0-20.815072 13.834408-34.649479 34.64948-34.64948h194.062469z m34.649479-485.219633h207.896877c20.815072 0 34.649479 13.834408 34.649479 34.64948s-13.834408 34.649479-34.649479 34.649479H406.020823c-20.815072 0-34.649479-13.834408-34.649479-34.649479s13.834408-34.649479 34.649479-34.64948z m0-138.597917h207.896877c20.815072 0 34.649479 13.834408 34.649479 34.649479s-13.834408 34.649479-34.649479 34.649479H406.020823c-20.815072 0-34.649479-13.834408-34.649479-34.649479S385.205751 0.380764 406.020823 0.380764z m0 0" /></svg>