<?xml version="1.0" standalone="no"?><!DOCTYPE svg PUBLIC "-//W3C//DTD SVG 1.1//EN" "http://www.w3.org/Graphics/SVG/1.1/DTD/svg11.dtd"><svg class="icon" width="200px" height="200.00px" viewBox="0 0 1024 1024" version="1.1" xmlns="http://www.w3.org/2000/svg"><path d="M990.48380146 990.48380146c-37.15192744 37.15192744-97.35456186 37.15192744-134.50648929 0l-167.86066414-167.86066415c-69.02002519 44.25207357-150.62216981 70.63819803-238.66398187 70.63819803-245.13667322 0-443.84169313-198.67199597-443.84169312-443.80866918s198.70501991-443.80866919 443.84169312-443.80866919 443.80866919 198.70501991 443.80866918 443.80866919c0 88.07483598-26.38612446 169.64395666-70.63819803 238.69700579l167.86066415 167.86066415c37.15192744 37.15192744 37.15192744 97.38758579 0 134.5064893l0 0zM449.4856901 132.45590929c-175.09290603 0-317.02978081 141.93687478-317.02978081 316.99675687s141.93687478 316.99675687 317.02978081 316.99675686c175.05988209 0 316.99675687-141.93687478 316.99675686-316.99675686 0.06604787-175.05988209-141.93687478-316.99675687-316.99675686-316.99675687l0 0z" /></svg>