<?xml version="1.0" standalone="no"?><!DOCTYPE svg PUBLIC "-//W3C//DTD SVG 1.1//EN" "http://www.w3.org/Graphics/SVG/1.1/DTD/svg11.dtd"><svg class="icon" width="200px" height="200.00px" viewBox="0 0 1024 1024" version="1.1" xmlns="http://www.w3.org/2000/svg"><path d="M876.84495253 717.88264106L647.65274453 717.88264106c-34.97578773 44.34654293-66.31024213 82.96257173-78.3672448 97.22773333-23.69485973 28.0522336-53.59723093 25.4860544-75.44304533 2.149216l-0.17901013 0.118976c-16.5333536-19.45755307-44.22647573-54.4333408-82.12755414-99.49592533L184.91095253 717.88264106c-50.8520416 0-92.0353408 35.39384213-92.0353408 79.02325227l0 138.3509984c0 40.20310827 34.88082453 73.35713707 80.0700256 78.39671573l715.86353814 0c45.18920213-5.03957867 80.0700256-38.19360747 80.0700256-78.39671573l0-138.3509984C968.88029333 753.27539093 927.6969952 717.88264106 876.84495253 717.88264106z"  /><path d="M410.89960391 642.76946489c40.55472583 53.41436359 75.63377095 99.25265977 81.55421127 106.19302342l0.19094415-0.19094414c23.30103694 24.89262877 56.53351083 28.71268011 80.4714166-2.29133312 5.85756786-7.57606741 38.70815346-51.56779235 77.60725106-103.70958221 61.88228153-82.89082141 138.97957149-186.60040363 147.51036188-198.44244822 20.75472327-28.83958898 10.18641749-62.83700451-27.62988544-62.83700452-12.41487815 0-67.22988942-0.19094414-86.64800256-0.19094414-27.82199467 0-39.78978304-24.89262877-39.78978304-52.9684389L644.16611669 61.06669852c0-37.81630293-16.36183837-58.18913792-51.1230316-58.18913792-17.95343019 0-99.31669618 0.06403641-115.61449928 0.06403641-34.76119325 0-52.07775346 14.26028544-52.07775346 47.55795968 0 8.59482567 0.70090525 262.42511872 0.70090525 279.55073479 0 27.9489024-12.35084174 52.2686976-42.40013312 52.2686976-14.00646997 0-83.46365497-0.06403641-95.17879182-0.0640364-35.52497095 0-43.10103837 41.50944768-18.78124317 73.78719857C278.60541326 467.94706943 350.86389362 563.69869482 410.89960391 642.76946489z"  /></svg>