<?xml version="1.0" standalone="no"?><!DOCTYPE svg PUBLIC "-//W3C//DTD SVG 1.1//EN" "http://www.w3.org/Graphics/SVG/1.1/DTD/svg11.dtd"><svg class="icon" width="200px" height="200.00px" viewBox="0 0 1024 1024" version="1.1" xmlns="http://www.w3.org/2000/svg"><path d="M398.08 157.013333C398.08 72.96 332.8 4.266667 252.586667 4.266667 172.373333 4.266667 107.093333 72.96 107.093333 157.013333s65.28 152.746667 145.493334 152.746667c80.213333 0 145.493333-68.266667 145.493333-152.746667z m0 0"  /><path d="M177.066667 322.56C71.68 357.546667 2.56 464.64 2.56 581.12v184.32c0 8.96 6.826667 16.64 15.786667 16.64h84.48v222.72c0 7.68 5.973333 13.653333 13.226666 13.653333h274.346667c7.253333 0 13.226667-5.973333 13.226667-13.653333v-222.72h65.28c19.2 0 34.986667-16.64 34.986666-36.693333v-180.48c-0.426667-166.826667-164.693333-296.533333-326.826666-242.346667zM931.413333 208.213333c0-84.053333-65.28-152.746667-145.493333-152.746666-80.213333 0-145.493333 68.693333-145.493333 152.746666s65.28 152.746667 145.493333 152.746667c80.213333 0 145.493333-68.693333 145.493333-152.746667zM1018.026667 806.826667l-73.386667-303.36c-15.786667-82.773333-86.613333-142.506667-167.68-142.506667-81.066667 0-151.466667 60.16-166.826667 139.946667l-74.24 306.346666c-3.413333 14.933333-0.426667 30.72 8.533334 43.093334 8.96 12.373333 22.613333 19.626667 37.546666 20.053333 0 0 36.266667 0.853333 64.426667 0.853333 9.386667 29.013333 23.04 71.253333 35.413333 112.64 5.973333 20.906667 24.32 34.56 45.226667 34.56h100.266667c20.48 0 38.826667-13.653333 44.8-34.56 12.373333-41.386667 26.026667-84.906667 35.413333-113.92 28.586667 0 64.426667-0.426667 64.426667-0.426666 14.506667-0.426667 28.586667-7.253333 37.546666-19.626667 8.96-12.373333 11.946667-27.733333 8.533334-43.093333z"  /></svg>