<?xml version="1.0" standalone="no"?><!DOCTYPE svg PUBLIC "-//W3C//DTD SVG 1.1//EN" "http://www.w3.org/Graphics/SVG/1.1/DTD/svg11.dtd"><svg class="icon" width="200px" height="200.00px" viewBox="0 0 1024 1024" version="1.1" xmlns="http://www.w3.org/2000/svg"><path d="M585.924508 586.163316c-51.263028 60.92737-135.720968 81.516619-202.110792 126.056627-8.403775 5.462454-16.80755 12.185474-18.908494 21.849815-2.100944 8.403775 0.840378 17.227739 4.201888 25.211325 27.732458 68.070579 73.533032 129.418137 88.659827 201.270415 2.100944 10.924908 3.36151 23.950759-4.201887 31.934345-6.72302 7.143209-17.647928 7.983586-27.312269 7.983587-46.640952 1.260566-93.702093 1.680755-140.343045 1.680755-65.549446 0-131.519081-1.680755-195.387772-16.387362-5.462454-1.260566-10.924908-2.521133-16.387361-4.201887a179.00041 179.00041 0 0 1-15.967173-5.882643 99.584735 99.584735 0 0 1-14.706607-7.983586c-4.622076-2.941321-8.403775-6.302831-12.185474-10.504719l-5.042265-6.302832c-1.680755-2.100944-2.521133-4.622076-4.201887-7.143209-0.420189-0.840378-1.260566-1.680755-1.680755-2.521132l-1.260566-5.042265c-0.840378-3.36151-1.260566-6.72302-2.100944-10.08453-1.260566-6.72302-2.100944-13.866229-2.521133-20.589249-0.420189-6.72302-0.840378-13.866229-0.420189-21.009438 0-7.143209 0.420189-13.866229 1.260567-21.009438 0.840378-7.143209 1.680755-13.866229 2.941321-20.589249 1.260566-6.72302 2.521133-13.866229 4.201888-20.589249 1.680755-6.72302 3.36151-13.44604 5.462453-20.169061 2.100944-6.72302 4.201888-13.44604 6.723021-19.748871 0.420189-1.680755 1.260566-3.36151 1.680755-4.622076 21.009438-55.464916 54.624538-106.727944 101.685679-142.443989 61.347558-46.640952 141.183422-63.028314 218.498153-64.709068s230.263439 13.44604 231.103816 14.706606c1.260566-0.420189-0.840378 0-1.680755 0.840378zM375.409941 18.068117c128.57776 0 232.364382 110.929832 232.364383 250.01231s-103.786623 250.01231-232.364383 250.01231-232.364382-110.929832-232.364382-250.01231S246.832182 18.068117 375.409941 18.068117z m0-16.387362"  /><path d="M554.410352 744.574477l75.213787 78.575297c7.143209 7.143209 10.924908 18.068117 10.924908 28.572836l-18.068117 110.929832c-3.781699 28.572835 21.429627 46.640952 46.640952 35.716044l92.861715-50.002462c10.924908-3.781699 21.429627-3.781699 28.572836 0l92.861715 50.002462c25.211325 14.286418 50.002462-7.143209 46.640952-35.716044l-18.068117-110.929832c-3.781699-10.924908 0-21.429627 10.924908-28.572836l75.213788-78.575297c18.068117-18.068117 7.143209-53.784161-18.068117-57.145671l-103.786623-14.286418c-10.924908 0-18.068117-7.143209-25.211325-18.068116l-46.640952-100.004924c-3.781699-10.924908-18.068117-18.068117-28.572836-18.068117-10.924908 0-25.211325 7.143209-28.572835 18.068117l-46.640952 100.004924c-3.781699 10.924908-14.286418 18.068117-25.211326 18.068116l-103.786622 14.286418c-28.152647 3.781699-38.657366 35.716044-17.227739 57.145671z m0 0"  /></svg>