<?xml version="1.0" standalone="no"?><!DOCTYPE svg PUBLIC "-//W3C//DTD SVG 1.1//EN" "http://www.w3.org/Graphics/SVG/1.1/DTD/svg11.dtd"><svg class="icon" width="200px" height="199.80px" viewBox="0 0 1025 1024" version="1.1" xmlns="http://www.w3.org/2000/svg"><path d="M146.606555 753.245766h7.236749v77.857439H118.283417c-64.007798 0-115.912757-51.904959-115.912758-115.912758V116.536615C2.370659 52.528817 54.275618 0.623858 118.283417 0.623858h598.653832c64.007798 0 115.912757 51.904959 115.912757 115.912757v35.310345h-76.235409v-8.484465c0-36.682832-29.695626-66.378457-66.378457-66.378457H146.606555c-36.682832 0-66.378457 29.695626-66.378457 66.378457v543.504813c0 36.682832 29.820397 66.503229 66.378457 66.378458z m877.892531 153.593761c0 64.007798-51.904959 115.912757-115.912757 115.912758H309.932497c-64.007798 0-115.912757-51.904959-115.912758-115.912758V308.185695c0-64.007798 51.904959-115.912757 115.912758-115.912757h598.653832c64.007798 0 115.912757 51.904959 115.912757 115.912757v598.653832z m-471.386865-75.736322h111.670525V663.160716h168.06726V551.490191H664.782746V383.922018h-111.795296V551.490191H385.668819v111.545754h167.443402v168.06726z m0 0" /></svg>