<?xml version="1.0" standalone="no"?><!DOCTYPE svg PUBLIC "-//W3C//DTD SVG 1.1//EN" "http://www.w3.org/Graphics/SVG/1.1/DTD/svg11.dtd"><svg class="icon" width="200px" height="200.00px" viewBox="0 0 1024 1024" version="1.1" xmlns="http://www.w3.org/2000/svg"><path d="M536.00032 9.6c7.04 7.04 12.8 12.16 18.56 16.64 79.36 60.16 224 99.84 355.2 108.16 5.12 0 10.88 0.64 18.56 0.64 9.6 0.64 17.28 8.96 17.28 19.2v390.4c0 92.8-38.4 190.08-99.84 257.28-32 44.8-72.96 86.4-115.84 128-113.28 122.88-305.92 122.24-428.8 13.44-48.64-42.88-92.8-92.8-133.12-149.76A370.752 370.752 0 0 1 77.76032 550.4V155.52c0-10.24 7.68-18.56 17.28-19.2 8.96-0.64 16-0.64 21.76-1.28 132.48-8.96 277.12-49.28 355.2-110.08 5.12-3.84 10.88-8.96 16.64-14.72 12.8-13.44 33.92-13.44 47.36-0.64zM474.56032 657.28c-7.04 7.04-18.56 7.04-25.6 0L299.20032 508.16a18.176 18.176 0 0 0-25.6 0l-20.48 20.48c-7.04 7.04-7.04 18.56 0 25.6l195.84 195.84c7.04 7.04 18.56 7.04 25.6 0l329.6-329.6c7.04-7.04 7.04-18.56 0-25.6l-20.48-20.48a18.176 18.176 0 0 0-25.6 0L474.56032 657.28z m0 0" /></svg>