<?xml version="1.0" standalone="no"?><!DOCTYPE svg PUBLIC "-//W3C//DTD SVG 1.1//EN" "http://www.w3.org/Graphics/SVG/1.1/DTD/svg11.dtd"><svg class="icon" width="200px" height="200.00px" viewBox="0 0 1024 1024" version="1.1" xmlns="http://www.w3.org/2000/svg"><path d="M511.792152 705.853315c-107.249797 0-194.546143-87.157781-194.546144-194.130446 0-107.111231 87.296346-194.269012 194.546144-194.269012 51.823545 0 100.737212 20.230582 137.457104 56.950473s57.089039 85.494993 57.089039 137.318539c0 106.972666-87.296346 194.130447-194.546143 194.130446m455.88092-280.733965h-0.277132l-91.453315-20.230581-2.21705-7.066847c-5.958322-19.122057-13.856563-38.244114-24.110419-58.197565l-3.18701-6.374019 49.190799-82.030852c15.103654-23.971854 21.477673-57.089039 1.801353-76.765359l-46.28092-46.28092c-11.639513-11.639513-26.604601-14.133694-37.135589-14.133694-14.410825 0-29.930176 4.711231-41.292558 12.609472l-0.138565 0.138566-80.090934 50.992151-6.512585-3.46414c-18.983491-9.83816-38.382679-18.013532-57.920433-24.248986l-6.928281-2.21705L600.61272 55.426252v-0.277132C595.762923 28.960217 572.899594 0.692828 544.077943 0.692828h-65.402977c-27.851691 0-46.558051 27.851691-52.93207 55.564817l-22.724763 91.176184-6.789716 2.217051c-20.92341 6.65115-41.708254 15.380785-61.661705 25.911772l-6.512585 3.464141-82.030852-52.239242-0.277132-0.138566c-11.362382-7.898241-26.881732-12.609472-41.292557-12.609472-10.530988 0-25.496076 2.494181-37.135589 14.133694l-46.28092 46.28092c-19.676319 19.676319-13.3023 52.793505 1.801353 76.765359l51.546414 85.91069-3.048443 6.235453c-9.561028 19.260622-16.766441 36.997023-22.309067 54.456293l-2.21705 7.066847-91.453315 20.230581h-0.277131c-26.188904 4.711231-54.456292 27.713126-54.456293 56.396212v65.402977c0 27.851691 27.851691 46.696617 55.564818 53.070636l92.146143 23.001894 2.21705 6.65115c5.40406 16.48931 12.193775 32.97862 20.784845 50.437889l3.048443 6.235454-51.546414 85.91069c-15.103654 23.971854-21.477673 57.089039-1.801353 76.765358l46.28092 46.28092c11.639513 11.639513 26.604601 13.995129 37.135589 13.995129 14.410825 0 29.930176-4.711231 41.292557-12.609472l0.138566-0.138566 82.030853-52.377808 6.512584 3.464141c20.230582 10.669553 41.015426 19.399188 61.938836 26.050338l6.789716 2.21705 22.724763 90.899053c6.374019 27.57456 25.218945 55.564817 52.932071 55.564817h65.402977c28.821651 0 51.68498-28.267388 56.396211-54.456292v-0.277131l20.507713-92.700406 6.928281-2.21705c19.260622-6.235453 38.521245-14.27226 57.227605-23.971854l6.512585-3.325575 80.229499 51.130717 0.138566 0.138566c11.362382 7.898241 26.881732 12.609472 41.292557 12.609472 10.530988 0 25.496076-2.494181 37.135589-14.133694l46.28092-46.28092c19.676319-19.676319 13.3023-52.654939-1.801353-76.765359l-49.190798-82.169418 3.187009-6.374019c9.145332-17.874966 16.766441-36.165629 22.724763-54.317727l2.21705-6.65115 92.146144-23.001894c27.57456-6.374019 55.564817-25.218945 55.564817-53.070636v-65.402977c0.277131-28.405954-27.990257-51.269283-54.040595-55.980515" /></svg>