<?xml version="1.0" standalone="no"?><!DOCTYPE svg PUBLIC "-//W3C//DTD SVG 1.1//EN" "http://www.w3.org/Graphics/SVG/1.1/DTD/svg11.dtd"><svg class="icon" width="200px" height="200.00px" viewBox="0 0 1024 1024" version="1.1" xmlns="http://www.w3.org/2000/svg"><path d="M625.858656 727.041264h334.14157c35.345909 0 63.999774-28.653866 63.999774-64.00158s-28.653866-64.00158-63.999774-64.001581H625.858656v128.003161zM625.858656 424.96009h334.14157c35.345909 0 63.999774-28.652059 63.999774-63.999774s-28.653866-64.00158-63.999774-64.00158h-439.507382c35.121937 42.662904 70.243875 85.340257 105.365812 128.001354zM960.000226 0H64.00158C28.653866 0 0 28.653866 0 63.999774c0 35.335071 28.653866 64.00158 64.00158 64.001581h895.998646c35.345909 0 63.999774-28.666509 63.999774-64.001581C1024 28.653866 995.346134 0 960.000226 0zM570.879142 558.66368c24.976403 0 38.707283-29.076521 22.819777-48.363333-87.892445-106.769245-175.781278-213.551133-263.671917-320.322184-11.827125-14.381119-33.826878-14.381119-45.664841 0-87.892445 106.769245-175.783084 213.551133-263.671917 320.322184-15.873057 19.286811-2.156626 48.363332 22.83242 48.363333h94.716343v435.770314c0 20.914215 8.664435 29.566006 29.566006 29.566006h278.793586c20.901572 0 29.553363-8.651791 29.553363-29.566006V558.66368h94.72718zM625.858656 1024h334.14157c35.345909 0 63.999774-28.652059 63.999774-64.00158 0-35.345909-28.653866-64.00158-63.999774-64.001581H625.858656v128.003161z" /></svg>