<?xml version="1.0" standalone="no"?><!DOCTYPE svg PUBLIC "-//W3C//DTD SVG 1.1//EN" "http://www.w3.org/Graphics/SVG/1.1/DTD/svg11.dtd"><svg class="icon" width="200px" height="200.00px" viewBox="0 0 1024 1024" version="1.1" xmlns="http://www.w3.org/2000/svg"><path d="M398.141545 296.958212H64.000564C28.654718 296.958212 0.000903 325.612027 0.000903 360.959679s28.653815 64.001468 63.999661 64.001468h334.140981v-128.002935zM398.141545 599.038853H64.000564C28.654718 599.038853 0.000903 627.690862 0.000903 663.038514c0 35.345846 28.653815 64.001468 63.999661 64.001468h439.506607c-35.121876-42.664635-70.243751-85.341913-105.365626-128.001129zM64.000564 1024h895.997065c35.345846 0 64.001468-28.655621 64.001468-64.001468 0-35.335009-28.653815-64.003274-64.001468-64.003273H64.000564C28.654718 895.997065 0.000903 924.663523 0.000903 959.998532c0 35.34404 28.653815 64.001468 63.999661 64.001468zM453.119156 465.333693c-24.976359 0-38.707215 29.07647-22.819737 48.363247 87.89229 106.770863 175.780968 213.550757 263.673258 320.32162 11.827104 14.379288 33.825012 14.379288 45.662954 0 87.890484-106.770863 175.780968-213.550757 263.671452-320.32162 15.874835-19.286777 2.156622-48.363247-22.83238-48.363247h-94.716175V29.564148C885.760334 8.651776 877.095915 0 856.192574 0H577.399479c-20.899729 0-29.551505 8.651776-29.551505 29.565954V465.335499l-94.728818-0.001806zM398.141545 0H64.000564C28.654718 0 0.000903 28.652009 0.000903 64.001468c0 35.345846 28.653815 64.001468 63.999661 64.001467h334.140981V0z" /></svg>