<?xml version="1.0" standalone="no"?><!DOCTYPE svg PUBLIC "-//W3C//DTD SVG 1.1//EN" "http://www.w3.org/Graphics/SVG/1.1/DTD/svg11.dtd"><svg class="icon" width="200px" height="200.00px" viewBox="0 0 1024 1024" version="1.1" xmlns="http://www.w3.org/2000/svg"><path d="M511.49106252 3.6986911c-371.26989221 0-508.55577766 324.44764399-508.55577766 506.39279334s132.06927625 509.70088699 497.86809055 509.70088698c0 0 90.8453403 1.65404681 90.84534033-80.41212195 0-81.93893441-40.84223283-55.72865414-40.84223283-114.63816754 0-59.03674777 40.84223283-85.24702802 60.43632585-85.24702803 19.59409301 0 148.86421313 9.7970465 220.87886664-18.19451493 71.88741915-27.60985834 187.92516477-116.16497997 187.92516477-266.93770867 0-132.70544812-137.28588543-450.66413922-508.55577765-450.6641392zM201.42090236 511.87276562c-23.41112411 0-45.93160764-9.28810903-62.59931012-25.95581151-16.54046811-16.6677025-25.82857715-39.18818602-25.82857715-62.59931013-0.8906406-32.19029566 15.64982755-62.21760702 43.38692023-78.63084078 27.73709269-16.41323375 62.09037264-16.41323375 89.82746536 0 27.73709269 16.41323375 44.27756083 46.44054512 43.38692024 78.63084078 0.25446873 48.73076379-39.31542038 88.42788727-88.17341856 88.55512164z m166.54979058-219.09758546c-23.41112411 0-45.93160764-9.28810903-62.47207576-25.95581151-16.54046811-16.54046811-25.82857715-39.06095164-25.82857714-62.59931015 0-48.73076379 39.56988913-88.30065292 88.3006529-88.3006529 48.73076379 0 88.30065292 39.56988913 88.30065292 88.3006529 0.12723438 48.98523253-39.44265476 88.55512165-88.30065292 88.55512166z m283.22370805 0c-48.73076379 0-88.30065292-39.56988913-88.30065293-88.55512166-0.8906406-32.19029566 15.64982755-62.21760702 43.38692024-78.63084076a88.68235602 88.68235602 0 0 1 89.82746537 0c27.73709269 16.41323375 44.27756083 46.44054512 43.38692023 78.63084076 0.12723438 48.98523253-39.44265476 88.55512165-88.30065291 88.55512166z m168.20383739 219.09758546c-48.73076379 0-88.30065292-39.56988913-88.30065292-88.55512164-0.8906406-32.19029566 15.64982755-62.21760702 43.38692024-78.63084078 27.73709269-16.41323375 62.09037264-16.41323375 89.82746536 0 27.73709269 16.41323375 44.27756083 46.44054512 43.38692024 78.63084078 0.12723438 23.41112411-9.16087465 45.93160764-25.70134278 62.59931013-16.6677025 16.54046811-39.06095164 25.95581153-62.59931014 25.95581151z m0 0" /></svg>