<?xml version="1.0" standalone="no"?><!DOCTYPE svg PUBLIC "-//W3C//DTD SVG 1.1//EN" "http://www.w3.org/Graphics/SVG/1.1/DTD/svg11.dtd"><svg class="icon" width="200px" height="200.00px" viewBox="0 0 1024 1024" version="1.1" xmlns="http://www.w3.org/2000/svg"><path d="M911.239975 126.341764c-9.475632 0.631709-18.951265 0.631709-27.795188 0.631709-240.681061 0-346.808143-101.70512-347.439852-102.968538L512 0l-24.004935 24.004935c-1.263418 1.263418-104.863664 102.968538-347.439852 102.968538-8.843924 0-18.319556 0-27.795188-0.631709L78.647748 125.078347v461.779148C78.647748 707.51388 122.235657 884.39235 499.997532 1018.946329l12.002468 4.421962 12.002468-4.421962c377.761875-135.185688 421.349784-311.432449 421.349784-432.088834V125.078347l-34.112277 1.263417m-436.510795 579.908699l-217.939544-189.512647 57.485503-46.114744 115.602714 84.017273S589.700185 392.291178 743.837138 315.854411l22.109808 24.636644c1.263418 0-192.039482 157.295497-291.217766 365.759408" /></svg>