<?xml version="1.0" standalone="no"?><!DOCTYPE svg PUBLIC "-//W3C//DTD SVG 1.1//EN" "http://www.w3.org/Graphics/SVG/1.1/DTD/svg11.dtd"><svg class="icon" width="200px" height="200.00px" viewBox="0 0 1024 1024" version="1.1" xmlns="http://www.w3.org/2000/svg"><path d="M988.956481 641.506016H34.366916c-16.546219-0.636393-31.183259 12.091468-31.819652 29.27408v64.275698c0.636393 17.182612 14.000647 30.546866 31.183259 29.910473H569.573465v228.465102c0.636393 17.819005 15.909826 31.183259 33.092439 30.546866 7.000323-0.636393 13.364254-3.181965 19.091791-7.636716l387.563364-322.01488c12.727861-10.818682 14.63704-29.27408 3.818358-42.001941-5.727537-7.636717-14.63704-11.455075-24.182936-10.818682z m0-386.290577H453.749932V30.568694C453.113539 12.749689 437.840105-0.614565 420.657493 0.021828c-7.000323 0.636393-13.364254 3.181965-19.091791 7.636717L14.002338 330.309818c-12.727861 10.182289-14.63704 28.637687-5.091144 41.365548 5.727537 7.636717 15.273433 12.091468 25.455722 10.818681h954.589565c16.546219 0.636393 31.183259-12.091468 31.819652-29.27408V285.125912c-0.636393-17.182612-14.000647-30.546866-31.183259-29.910473h-0.636393z" /></svg>