<?xml version="1.0" standalone="no"?><!DOCTYPE svg PUBLIC "-//W3C//DTD SVG 1.1//EN" "http://www.w3.org/Graphics/SVG/1.1/DTD/svg11.dtd"><svg class="icon" width="200px" height="200.00px" viewBox="0 0 1024 1024" version="1.1" xmlns="http://www.w3.org/2000/svg"><path d="M960.64 106.88H537.6c-17.28 0-32-6.4-44.8-19.2L424.96 19.84c-10.88-12.8-27.52-19.2-44.8-19.2H64c-34.56 0-61.44 25.6-64 59.52v734.08c1.92 33.92 28.8 59.52 64 59.52h896c36.48 0 64-27.52 64-64V170.88c0.64-35.84-27.52-64-63.36-64z m-166.4 407.04l-192 149.76c-25.6 19.84-70.4 3.84-70.4-26.88V561.92H304c-23.68 0-42.88-16-42.88-35.84V455.04c0-19.84 19.2-35.84 42.88-35.84h227.84V337.28c0-32 42.88-48 70.4-26.88l192 149.76c8.32 7.04 12.8 17.92 12.8 26.88 0 10.88-3.84 19.84-12.8 26.88z" /></svg>