<?xml version="1.0" standalone="no"?><!DOCTYPE svg PUBLIC "-//W3C//DTD SVG 1.1//EN" "http://www.w3.org/Graphics/SVG/1.1/DTD/svg11.dtd"><svg class="icon" width="200px" height="200.00px" viewBox="0 0 1024 1024" version="1.1" xmlns="http://www.w3.org/2000/svg"><path d="M341.333333 458.794667v378.325333l-0.725333 0.085333A170.837333 170.837333 0 0 1 170.666667 1024c-94.293333 0-170.666667-76.544-170.666667-170.965333a170.837333 170.837333 0 0 1 170.666667-171.008c31.104 0 60.245333 8.32 85.333333 22.869333V151.978667c0-43.52 32.682667-80.128 75.946667-84.949334l597.333333-66.517333A85.333333 85.333333 0 0 1 1024 85.504v689.450667h-0.170667A170.794667 170.794667 0 0 1 853.333333 938.496c-94.293333 0-170.666667-76.544-170.666666-170.965333a170.837333 170.837333 0 0 1 170.666666-171.008c31.104 0 60.245333 8.362667 85.333334 22.912V392.32L341.333333 458.794667zM341.333333 373.333333L938.666667 306.773333V85.504L341.333333 151.978667V373.333333zM170.666667 938.496c47.146667 0 85.333333-38.272 85.333333-85.461333a85.418667 85.418667 0 0 0-85.333333-85.504c-47.146667 0-85.333333 38.272-85.333334 85.504 0 47.189333 38.186667 85.461333 85.333334 85.461333z m682.666666-85.461333c47.146667 0 85.333333-38.314667 85.333334-85.504a85.418667 85.418667 0 0 0-85.333334-85.504c-47.146667 0-85.333333 38.272-85.333333 85.504 0 47.189333 38.186667 85.504 85.333333 85.504z" /></svg>