<?xml version="1.0" standalone="no"?><!DOCTYPE svg PUBLIC "-//W3C//DTD SVG 1.1//EN" "http://www.w3.org/Graphics/SVG/1.1/DTD/svg11.dtd"><svg class="icon" width="200px" height="200.00px" viewBox="0 0 1024 1024" version="1.1" xmlns="http://www.w3.org/2000/svg"><path d="M773.546667 273.066667h192.853333c15.786667 0 23.893333-17.92 12.8-28.586667L747.52 27.733333c-11.093333-10.666667-30.293333-2.986667-30.293333 11.946667v180.48c-0.426667 29.44 25.173333 52.906667 56.32 52.906667z"  /><path d="M696.746667 321.28c-21.333333 0-38.4-14.933333-38.4-32.853333v-234.666667c0-27.306667-22.186667-49.493333-49.493334-49.493333H148.906667C68.693333 4.266667 3.413333 61.013333 3.413333 130.986667v762.026666c0 69.973333 65.28 126.72 145.493334 126.72h727.893333c80.213333 0 145.493333-56.746667 145.493333-126.72V371.2c0-27.306667-22.186667-49.493333-49.493333-49.493333h-276.053333z m55.04 215.466667c-2.133333 8.96-5.12 15.786667-9.386667 21.333333s-8.106667 8.106667-11.093333 7.68a10.922667 10.922667 0 0 1-8.106667-5.973333c-2.133333-3.413333-4.266667-9.813333-5.546667-18.773334-2.133333-14.933333-7.68-26.026667-16.64-32.853333-8.96-7.253333-22.613333-11.946667-41.386666-14.933333-19.626667-3.413333-37.12-10.24-52.053334-20.906667-14.933333-10.24-27.733333-20.48-37.546666-29.44-9.813333-8.106667-17.066667-11.093333-22.186667-8.533333-5.12 2.133333-8.106667 6.4-8.106667 12.8v78.506666c0 21.333333 0 44.373333-0.426666 69.546667-0.426667 24.746667-0.426667 48.213333-0.426667 70.4v91.306667a84.138667 84.138667 0 0 1-26.026667 62.72c-10.24 9.813333-23.893333 18.346667-40.96 25.6-17.066667 7.253333-37.973333 11.093333-63.146666 12.373333-25.6 1.28-49.066667-2.986667-69.546667-11.946667-20.48-8.96-36.693333-20.906667-48.213333-34.56-11.52-14.08-17.066667-29.44-16.64-45.653333 0.426667-16.64 8.533333-32 24.746666-46.506667 16.213333-14.506667 33.706667-24.746667 52.053334-30.293333s36.693333-8.96 54.186666-9.386667a224.213333 224.213333 0 0 1 76.8 10.24v-162.133333c0-45.226667 0.426667-96 0.426667-152.32 0-11.093333 3.413333-20.053333 9.813333-27.306667 6.4-7.253333 15.36-11.093333 26.026667-12.373333 8.96-1.28 16.64 0.426667 22.613333 5.12 5.973333 4.266667 11.946667 10.24 17.92 18.346667 5.973333 7.68 13.653333 16.64 22.613334 26.453333 8.96 9.813333 20.906667 19.626667 36.266666 29.013333 13.226667 8.96 24.746667 14.933333 34.133334 18.773334 9.813333 3.84 19.2 7.253333 27.306666 10.666666 8.533333 3.413333 17.066667 7.253333 25.173334 11.946667 8.106667 4.693333 17.493333 11.946667 27.306666 22.186667 9.813333 9.813333 16.213333 20.48 18.346667 31.146666 3.413333 9.386667 3.84 19.2 1.706667 27.733334z"  /><path d="M733.013333 476.586667c-9.813333-10.24-19.2-17.92-27.306666-22.186667-8.106667-4.693333-16.64-8.533333-25.173334-11.946667-8.533333-3.413333-17.493333-6.826667-27.306666-10.666666-9.813333-3.84-21.333333-10.24-34.133334-18.773334-15.36-9.386667-27.733333-19.2-36.693333-29.013333-8.96-9.813333-16.64-18.773333-22.613333-26.453333-5.973333-8.106667-11.946667-14.08-17.92-18.346667a32.64 32.64 0 0 0-22.613334-5.12c-10.666667 1.28-19.626667 5.12-26.026666 12.373333-6.826667 7.253333-9.813333 16.213333-9.813334 27.306667-0.426667 56.746667-0.426667 107.52-0.426666 152.32v162.133333a246.613333 246.613333 0 0 0-30.293334-7.253333c-13.653333-2.56-29.44-3.84-46.506666-2.986667-17.92 0.426667-35.84 3.413333-54.613334 8.96s-35.84 15.786667-52.053333 30.293334c-16.213333 14.506667-24.32 30.293333-24.746667 46.506666-0.426667 16.64 5.12 32 16.64 45.653334 11.52 14.08 27.306667 25.6 48.213334 34.56 20.906667 8.96 43.946667 13.226667 69.546666 11.946666 25.173333-1.28 46.506667-5.12 63.146667-12.373333 17.066667-7.253333 30.72-15.786667 40.96-25.6 10.24-9.813333 17.066667-20.48 20.906667-32 3.84-11.093333 5.12-21.333333 5.12-30.72v-91.306667c0-22.186667 0-45.653333 0.426666-70.4 0.426667-24.746667 0.426667-48.213333 0.426667-69.546666v-78.506667c0-5.973333 2.56-10.24 8.106667-12.8 5.12-2.133333 12.8 0.426667 22.186666 8.533333 9.813333 8.96 22.613333 19.2 37.546667 29.44 14.933333 10.24 32.426667 17.493333 52.053333 20.906667 18.773333 2.986667 32.426667 8.106667 41.386667 14.933333 8.96 6.826667 14.506667 17.92 16.64 32.853334 1.28 9.386667 3.413333 15.36 5.546667 18.773333 2.133333 3.413333 5.12 5.546667 8.106666 5.973333 2.986667 0.426667 6.826667-2.133333 11.093334-7.68s7.68-12.8 9.386666-21.333333c2.133333-8.96 1.706667-18.346667-0.426666-29.013333-2.56-8.96-8.533333-19.2-18.773334-29.44z" fill="#ffffff" /></svg>