<?xml version="1.0" standalone="no"?><!DOCTYPE svg PUBLIC "-//W3C//DTD SVG 1.1//EN" "http://www.w3.org/Graphics/SVG/1.1/DTD/svg11.dtd"><svg t="1581774062021" class="icon" viewBox="0 0 1024 1024" version="1.1" xmlns="http://www.w3.org/2000/svg" p-id="3724" xmlns:xlink="http://www.w3.org/1999/xlink" width="200" height="200"><defs><style type="text/css"></style></defs><path d="M68.686731 273.249665v477.001584c0 112.793469 91.582308 204.375777 204.375777 204.37577702h477.001584c112.793469 0 204.375777-91.582308 204.375776-204.37577702V273.249665c0-112.793469-91.582308-204.375777-204.375776-204.37577699H273.062508C160.39380999 68.749117 68.686731 160.456196 68.686731 273.249665z m-68.125259 0C0.561472 122.775192 122.83757801 0.62385799 273.187279 0.62385799h477.001584c150.474473 0 272.625807 122.27610599 272.62580699 272.62580701v477.001584c0 150.474473-122.27610599 272.625807-272.62580699 272.625807H273.062508C122.588035 1022.877056 0.4367 900.60095001 0.4367 750.251249V273.249665z m0 0" p-id="3725"></path><path d="M827.547216 497.96320201c0 28.57268201-6.612891 56.39673399-19.838675 83.34738699-13.225783 26.950652-31.317656 50.906787-54.02607499 71.993176-22.957963 21.08639001-49.284757 37.930547-79.22992501 50.532472-29.945169 12.601925-61.637139 18.96527399-94.95114001 18.96527399H548.433289c-12.227611 0-25.32862198 0.124772-39.303034 0.374315-14.099184 0.249543-27.948824 0.374315-41.79846501 0.37431401h-37.43146099c-15.346899 0-27.57451001 1.49725801-36.55806 4.367004-8.983551 2.869745-13.225783 9.23309399-12.726697 18.965273 0 7.236749-0.124772 15.59644199-0.374315 25.079079-0.249543 9.482637-0.374315 18.091873-0.374314 25.827708 0 12.601925-3.74314599 20.712075-11.104667 24.33045001-7.361521 3.618375-17.218472 1.122944-29.446083-7.611064-12.726697-8.734008-27.32496599-19.090045-43.670037-30.94334101-16.469843-11.853296-33.438772-24.080907-50.906787-36.682832-17.468015-12.601925-34.686487-24.954307-51.655416-37.057146-16.968929-12.102839-32.066285-23.08273401-45.292068-32.69014201-12.227611-8.734008-18.466187-16.968929-18.71573-24.70476499-0.249543-7.735835 5.115633-15.970757 16.34507099-24.70476399 11.603753-8.734008 25.32862198-19.090045 40.925064-30.94334101 15.59644199-11.853296 31.941513-24.080907 48.91044201-36.682832 16.968929-12.601925 33.688315-24.954307 50.03338601-37.057146 16.469843-12.102839 31.068113-23.08273401 43.67003799-32.69014301 13.724869-10.605581 25.32862198-14.847813 34.561716-12.35238199 9.23309399 2.370659 13.849641 10.23126599 13.84964 23.33227799 0 3.86791799 0.124772 8.609236 0.374315 14.22395501 0.249543 5.614719 0.49908599 11.478981 0.748629 17.84233 0.249543 6.363348 0.49908599 12.35238201 0.748629 18.216644s0.374315 10.855124 0.374315 15.22212699c0 9.23309399 2.994517 14.847813 9.10832199 17.09370102 6.113805 2.121116 14.47349799 3.24406 25.07907901 3.24405999 23.831363-0.49908599 50.657244-0.748629 80.35286899-0.74862899h82.72352901c12.227611 0 24.33044999-2.495431 36.55806-7.61106402s23.332277-11.853296 33.438772-20.33776099c10.10649399-8.484464 18.341416-18.341416 24.704764-29.446082 6.363348-11.104667 9.482637-23.08273401 9.482637-35.68466v-50.906787c0-19.339588-0.124772-38.18009001-0.374315-56.39673401-0.249543-18.216644-0.374315-34.062629-0.374314-47.66272699v-25.45339301c0-10.605581 3.618375-19.46436 10.730352-26.57633799 7.11197801-6.98720599 16.2203-12.35238201 27.07542299-15.970756 10.855124-3.618375 22.70842-5.489948 35.43511701-5.489948s24.455221 1.74680201 35.435116 5.115633c10.855124 3.368831 19.83867399 8.359693 27.07542299 14.972584 7.11197801 6.48812 10.730352 14.723041 10.73035301 24.33045V363.085171c0 12.601925 0.124772 26.077251 0.374314 40.425978 0.249543 14.348727 0.374315 27.948824 0.374315 41.04983599v53.40221702z m0 0" p-id="3726"></path></svg>