<?xml version="1.0" standalone="no"?><!DOCTYPE svg PUBLIC "-//W3C//DTD SVG 1.1//EN" "http://www.w3.org/Graphics/SVG/1.1/DTD/svg11.dtd"><svg class="icon" width="200px" height="200.00px" viewBox="0 0 1024 1024" version="1.1" xmlns="http://www.w3.org/2000/svg"><path d="M537.6 554.666667c-7.68 4.266667-15.786667 8.533333-23.466667 8.533333-7.68 0-19.626667-4.266667-23.466666-8.533333L10.666667 258.986667c-4.266667-2.56-9.386667 0.426667-9.386667 5.12V780.8a141.226667 141.226667 0 0 0 142.08 142.08h736.853333a141.226667 141.226667 0 0 0 142.08-142.08V264.106667c0-4.693333-5.12-7.253333-8.96-5.12L537.6 554.666667z m6.826667 20.053333"  /><path d="M1015.04 168.106667c5.12-2.986667 8.533333-8.96 8.533333-14.933334v-14.08c0-75.093333-62.72-137.813333-141.226666-137.813333H143.36C64.853333 1.28 2.133333 64.426667 2.133333 139.093333v13.653334c0 5.973333 2.986667 11.52 8.533334 14.933333l493.226666 300.8c5.546667 3.413333 12.373333 3.413333 17.92 0l493.226667-300.373333z m6.4 90.026666"  /></svg>