<?xml version="1.0" standalone="no"?><!DOCTYPE svg PUBLIC "-//W3C//DTD SVG 1.1//EN" "http://www.w3.org/Graphics/SVG/1.1/DTD/svg11.dtd"><svg t="1573029610049" class="icon" viewBox="0 0 1071 1024" version="1.1" xmlns="http://www.w3.org/2000/svg" p-id="11006" xmlns:xlink="http://www.w3.org/1999/xlink" width="209.1796875" height="200"><defs><style type="text/css"></style></defs><path d="M1069.031 387.393c-5.551-17.89-21.59-31.46-40.096-33.928L718.65 308.434 580.472 27.759C571.836 11.104 554.564 0 535.441 0c-19.123 0-36.395 10.487-45.031 27.759L352.23 308.434 42.564 353.465c-18.506 2.468-34.545 16.039-40.097 33.928-5.551 17.889-1.233 37.629 12.955 51.2l223.923 218.37-53.051 308.435c-3.084 18.506 4.318 37.629 19.74 48.732 15.421 11.104 35.778 12.337 52.433 3.701l276.974-145.58 276.973 145.58a52.367 52.367 0 0 0 23.441 5.552c10.487 0 20.357-3.084 29.61-9.253 15.422-11.103 22.824-30.226 19.74-48.732l-53.05-308.434 223.922-218.371c13.571-13.571 18.506-33.311 12.954-51.2z" p-id="11007"></path></svg>