<?xml version="1.0" standalone="no"?><!DOCTYPE svg PUBLIC "-//W3C//DTD SVG 1.1//EN" "http://www.w3.org/Graphics/SVG/1.1/DTD/svg11.dtd"><svg class="icon" width="200px" height="200.00px" viewBox="0 0 1024 1024" version="1.1" xmlns="http://www.w3.org/2000/svg"><path d="M359.587384 490.324702c-61.027538 61.027538-61.027538 160.775997 0 222.645294 62.00959 61.027538 161.617756 62.00959 222.645294 0 62.00959-62.00959 62.00959-160.775997 0-222.645294-61.027538-62.00959-160.635704-62.00959-222.645294 0z m0 0"  /><path d="M903.784672 273.852309l-269.362927-269.362927c-2.665571-2.665571-6.313194-4.489382-9.820523-4.489382h-429.297164C151.392289 0 116.318992 35.915057 116.318992 78.985066v864.626936c0 44.052062 35.915057 78.985066 78.985066 78.985066h633.002877c44.052062 0 78.985066-35.915057 78.985067-78.985066V283.813125c0-3.647623-1.683518-7.295246-3.50733-9.960816zM747.498057 836.848883l-40.404439 40.404439c-5.331141 5.331141-13.468146 5.331141-18.799287 0l-101.431977-99.608165c-81.650637 53.872585-193.043431 44.893821-265.715304-26.936293-81.650637-82.632689-81.650637-216.3321 0-298.964789 82.632689-82.632689 216.3321-82.632689 298.123031 0 72.671873 72.671873 80.808878 184.064666 26.936292 265.715303l100.590218 100.590218c6.1729 6.1729 6.1729 14.309905 0.701466 18.799287z m-52.890533-553.035758c-35.915057 0-65.51692-29.601863-65.51692-65.51692V55.696397l227.134676 228.116728H694.607524z m0 0"  /></svg>