<?xml version="1.0" standalone="no"?><!DOCTYPE svg PUBLIC "-//W3C//DTD SVG 1.1//EN" "http://www.w3.org/Graphics/SVG/1.1/DTD/svg11.dtd"><svg class="icon" width="200px" height="200.00px" viewBox="0 0 1024 1024" version="1.1" xmlns="http://www.w3.org/2000/svg"><path d="M512 699.46983392c-130.82396399 0-237.24299283-106.43643869-237.24299283-237.26040268V237.23854887c0-130.82396399 106.41902884-237.26040269 237.24299283-237.26040383s237.26040269 106.43643869 237.26040269 237.26040383v224.969722c0 130.82396399-106.43643869 237.26156417-237.26040269 237.26156305z m0-627.10794508c-90.9027552 0-164.85925014 73.96461972-164.85925014 164.87666003v224.969722c0 90.91204031 73.95649497 164.87666004 164.85925014 164.87666003 90.92132542 0 164.87666004-73.96461972 164.87666004-164.87666003V237.23854887c0-90.91204031-73.95533461-164.87666004-164.87666004-164.87666003z"  /><path d="M512 861.28920359c-219.51790157 0-398.1082645-169.68429036-398.1082645-378.24515889 0-19.98730109 16.20457083-36.19187189 36.19187188-36.19187077s36.19187189 16.20457083 36.19187076 36.19187077c0 168.65010517 146.12782907 305.86257659 325.72452186 305.86257657s325.7256822-137.2124714 325.7256822-305.86257657c0-19.98730109 16.20457083-36.19187189 36.19187078-36.19187077s36.19187189 16.20457083 36.19187188 36.19187077c-0.00116036 208.56086738-178.5915233 378.2451589-398.10942486 378.24515889z"  /><path d="M512 1013.35402681c-19.9861396 0-36.19187189-16.20457083-36.19187189-36.19187077V825.09733168c0-19.9861396 16.20457083-36.19187189 36.19187189-36.19187077s36.19187189 16.20457083 36.19187189 36.19187077V977.16215604c0 19.98730109-16.20573116 36.19187189-36.19187189 36.19187077z"  /><path d="M464.95555766 488.56899018h-61.52536819V235.228211h61.52536819c15.99100076 0 28.95372913 16.20341046 28.95373026 36.19187191v180.95819574c0 19.98730109-12.96272836 36.1907104-28.95373026 36.19071153z"  /></svg>