<?xml version="1.0" standalone="no"?><!DOCTYPE svg PUBLIC "-//W3C//DTD SVG 1.1//EN" "http://www.w3.org/Graphics/SVG/1.1/DTD/svg11.dtd"><svg t="1584002119450" class="icon" viewBox="0 0 1025 1024" version="1.1" xmlns="http://www.w3.org/2000/svg" p-id="3846" xmlns:xlink="http://www.w3.org/1999/xlink" width="200.1953125" height="200"><defs><style type="text/css"></style></defs><path d="M512 3.062812C230.221336 3.062812 1.531406 231.752742 1.531406 513.531406s228.68993 510.468594 510.468594 510.468594 510.468594-228.68993 510.468594-510.468594S793.778664 3.062812 512 3.062812z m0 954.576271c-245.024925 0-444.107677-199.082752-444.107677-444.107677s199.082752-444.107677 444.107677-444.107677 444.107677 199.082752 444.107677 444.107677-198.572283 444.107677-444.107677 444.107677z" p-id="3847"></path><path d="M416.542373 345.07677c-22.460618 0-40.837488 18.887338-40.837488 41.858424v253.192423c0 22.971087 18.376869 41.858425 40.837488 41.858425s40.837488-18.887338 40.837487-41.858425V386.935194c0-22.971087-17.866401-41.858425-40.837487-41.858424zM607.457627 345.07677c-22.460618 0-40.837488 18.887338-40.837487 41.858424v253.192423c0 22.971087 18.376869 41.858425 40.837487 41.858425s40.837488-18.887338 40.837488-41.858425V386.935194c0-22.971087-18.376869-41.858425-40.837488-41.858424z" p-id="3848"></path></svg>