<?xml version="1.0" standalone="no"?><!DOCTYPE svg PUBLIC "-//W3C//DTD SVG 1.1//EN" "http://www.w3.org/Graphics/SVG/1.1/DTD/svg11.dtd"><svg class="icon" width="200px" height="193.03px" viewBox="0 0 1061 1024" version="1.1" xmlns="http://www.w3.org/2000/svg"><path d="M372.45978825 804.35814965H214.34214125c-21.960784 0-40.156863-18.196078-40.156862-40.15686299v-4.392157c0-21.960784 18.196078-40.156863 40.156862-40.156863h141.176471c-1.254902-11.921569-1.882353-23.843137-1.882353-36.39215599 0-43.921569 6.901961-86.588235 20.078431-126.11764701H214.34214125c-21.960784 0-40.156863-18.196078-40.156862-40.156863v-4.392157c0-21.960784 18.196078-40.156863 40.156862-40.156863H413.87155325c50.196078-80.941176 128-143.058824 220.235294-171.921568H214.34214125c-21.960784 0-40.156863-18.196078-40.156862-40.156863v-5.01960801c0-21.960784 18.196078-40.156863 40.156862-40.156863h478.745098c21.960784 0 40.156863 18.196078 40.156863 40.156863v4.39215701c0 8.156863-2.509804 15.686275-6.901961 22.588235 9.411765-0.627451 19.45098-1.254902 28.862745-1.254902 52.705882 0 102.901961 10.039216 149.333334 28.86274499v-144.313725c0-91.607843-74.666667-166.27451-166.27451-166.27450999H170.42057325C78.81273025-0.66145834 4.14606325 74.00520866 4.14606325 165.61305165v691.45098001c0 91.607843 74.666667 166.27451 166.27451 166.27451h371.45098c-79.686275-50.196078-140.54902-127.372549-169.411765-218.98039201z"  /><path d="M745.16567125 363.26011066C570.73429825 363.26011066 429.55782825 504.43658066 429.55782825 678.86795365s141.176471 315.607843 315.607843 315.607843c174.431373 0 315.607843-141.176471 315.607843-315.607843S919.59704325 363.26011066 745.16567125 363.26011066z m196.392157 315.60784299c0 21.960784-17.568627 39.529412-39.529412 39.52941201H784.06763125v117.96078399c0 21.960784-17.568627 39.529412-39.529411 39.52941201s-39.529412-17.568627-39.529412-39.52941201v-117.96078399H588.30292625c-21.960784 0-39.529412-17.568627-39.529412-39.52941201s17.568627-39.529412 39.529412-39.52941199h117.960784V522.00520866c0-21.960784 17.568627-39.529412 39.529412-39.529412s39.529412 17.568627 39.529411 39.529412V639.33854166H903.28331825c20.705882 0 38.27451 17.568627 38.27451 39.52941199z"  /></svg>