<?xml version="1.0" standalone="no"?><!DOCTYPE svg PUBLIC "-//W3C//DTD SVG 1.1//EN" "http://www.w3.org/Graphics/SVG/1.1/DTD/svg11.dtd"><svg class="icon" width="200px" height="200.00px" viewBox="0 0 1024 1024" version="1.1" xmlns="http://www.w3.org/2000/svg"><path d="M922.10524034 1023.955796H106.22789334s-16.086737-2.447982-26.9278-15.037602-10.141639-31.823763-10.141638-31.823763L68.80874334 355.307066h897.010457V985.837223s-1.398847 13.988467-15.037602 26.578088c-13.638755 12.939332-28.676358 11.540485-28.676358 11.540485z" fill="#E8E8E8" /><path d="M644.43416734 687.183449l316.838781 311.243395c-7.343945 15.737026-23.080971 25.528953-40.566555 25.528952H113.57183834c-17.135872 0-32.872898-9.791927-40.566555-25.528952l316.838781-311.243395c70.292048-44.413383 184.298055-44.413383 254.590103 0z" fill="#999999" /><path d="M68.80874334 355.307066l320.335898-314.3908c70.292048-44.413383 183.948343-44.413383 253.890679 0l322.434168 314.3908" fill="#E8E8E8" /><path d="M68.80874334 438.188734v499.737989l263.332894-250.743274zM702.48630534 687.183449l263.332895 250.743274V438.188734l-263.332895 248.994715zM661.22032734 726.351158c-79.384551 50.358482-208.428161 50.358482-287.812712 0l-11.890197-11.190774-287.812712 284.315595c7.343945 14.338179 22.381547 24.130106 39.867132 24.130106h807.134555c16.786161 0 32.173474-9.442215 39.867132-24.130106l-287.463001-284.315595-11.890197 11.190774z" fill="#999999" /></svg>