<?xml version="1.0" standalone="no"?><!DOCTYPE svg PUBLIC "-//W3C//DTD SVG 1.1//EN" "http://www.w3.org/Graphics/SVG/1.1/DTD/svg11.dtd"><svg class="icon" width="200px" height="150.04px" viewBox="0 0 1365 1024" version="1.1" xmlns="http://www.w3.org/2000/svg"><path d="M876.04158 512.532225l482.195426-473.679834c-11.176715-23.950104-35.126819-38.852391-61.738046-38.852391H68.12474C42.045738 0 18.095634 14.902287 6.386694 38.852391l482.195427 473.679834c107.509356 67.592516 280.482328 67.592516 387.459459 0zM0 133.056133v760.548857l400.765073-381.072765L0 133.056133z m964.390852 378.943867l400.765073 381.072765V133.056133l-400.765073 378.943867z m-62.802494 59.609148c-120.814969 76.640333-317.205821 76.640333-438.02079 0l-18.095635-17.031185-438.02079 432.698544c11.176715 21.821206 34.06237 36.723493 60.673597 36.723493h1228.37422c25.546778 0 48.964657-14.370062 60.673597-36.723493l-437.488565-432.698544-18.095634 17.031185z" fill="#f5b93c" /></svg>