<?xml version="1.0" standalone="no"?><!DOCTYPE svg PUBLIC "-//W3C//DTD SVG 1.1//EN" "http://www.w3.org/Graphics/SVG/1.1/DTD/svg11.dtd"><svg class="icon" width="200px" height="150.04px" viewBox="0 0 1365 1024" version="1.1" xmlns="http://www.w3.org/2000/svg"><path d="M1365.333333 88.746667c-1.365333 0.682667-2.730667 1.365333-3.413333 2.048l-138.581333 92.16c-373.418667 251.904-560.469333 377.514667-560.469334 377.514666L97.621333 175.445333 0 109.226667v-23.893334C0 38.229333 38.229333 0 85.333333 0h1194.666667c47.104 0 85.333333 38.229333 85.333333 85.333333v3.413334z m0 102.4v747.52c0 47.104-38.229333 85.333333-85.333333 85.333333h-1194.666667C38.229333 1024 0 985.770667 0 938.666667V212.309333L49.152 245.76 614.4 630.784c30.037333 20.48 68.949333 20.48 98.986667 0l557.738666-377.514667c4.096-2.048 35.498667-23.210667 94.208-62.122666z" /></svg>