<?xml version="1.0" standalone="no"?><!DOCTYPE svg PUBLIC "-//W3C//DTD SVG 1.1//EN" "http://www.w3.org/Graphics/SVG/1.1/DTD/svg11.dtd"><svg class="icon" width="200px" height="200.00px" viewBox="0 0 1024 1024" version="1.1" xmlns="http://www.w3.org/2000/svg"><path d="M744.797082 79.93153l54.391991 53.127061-290.331556 262.924739L224.489203 226.482708 44.447497 371.768955a37.767196 37.767196 0 0 0-4.999485 54.452225 39.995882 39.995882 0 0 0 27.165878 13.733526 40.658465 40.658465 0 0 0 29.21386-8.85451l136.010094-109.807972L519.217896 492.720358l336.29068-304.607194 48.910627 47.766166L993.867826 0l-249.070744 79.93153z m201.545516 852.321891c26.141887 0 47.525228 20.479819 47.525228 45.838655a46.681941 46.681941 0 0 1-47.525228 45.898889H83.178449a46.681941 46.681941 0 0 1-47.585462-45.898889c0-25.358835 21.262871-45.838654 47.585462-45.838655h863.164149zM90.346386 853.345882a60.234763 60.234763 0 0 1-60.234762-60.234762V583.795319l187.992694-152.273479 70.836081 47.103584v314.425461a60.234763 60.234763 0 0 1-60.234763 60.234762H90.346386z m356.107917 0a60.234763 60.234763 0 0 1-60.234763-60.234762V511.935248l133.721173 69.269977 125.107602-100.230645v312.13654a60.234763 60.234763 0 0 1-60.234762 60.234762H446.454303z m288.524513-419.053243l100.832993-92.159187a60.234763 60.234763 0 0 1 87.701814 6.866763L993.867826 437.123672v355.987448a60.234763 60.234763 0 0 1-60.234763 60.234762h-138.35925a60.234763 60.234763 0 0 1-60.234762-60.234762V434.292639z" /></svg>