<?xml version="1.0" standalone="no"?><!DOCTYPE svg PUBLIC "-//W3C//DTD SVG 1.1//EN" "http://www.w3.org/Graphics/SVG/1.1/DTD/svg11.dtd"><svg class="icon" width="200px" height="200.00px" viewBox="0 0 1024 1024" version="1.1" xmlns="http://www.w3.org/2000/svg"><path d="M116.217349 80.529683h790.421008c22.313731 0 40.33636-18.022629 40.33636-40.33636C946.974717 18.022629 928.952088 0 906.781394 0H116.217349C94.046655 0 75.880989 18.022629 75.880989 40.193323c0.286073 22.313731 18.308702 40.33636 40.33636 40.33636z m820.315686 480.746473L569.071658 166.780835c-15.018857-15.877078-35.902221-25.317502-57.357731-25.317502-21.598547 0-42.481911 9.154351-57.357732 25.317502l-367.604414 394.495321c-26.74787 28.607347-19.452996 54.78307-15.304931 64.652605 4.148065 9.869535 18.451739 33.041486 57.643805 33.041486h153.049309c0.42911 0 1.001257 0.42911 1.001257 1.001257v281.496299c0 44.770499 36.617405 81.387903 81.387903 81.387903h294.083531c44.770499 0 81.387903-36.617405 81.387904-81.387903v-281.782372c0-0.42911 0.42911-1.001257 1.001257-1.001257h153.049308c39.192066 0 53.49574-23.028915 57.643805-33.041486 4.291102-9.869535 11.299902-35.902221-15.161894-64.366532z m0 0" /></svg>