<?xml version="1.0" standalone="no"?><!DOCTYPE svg PUBLIC "-//W3C//DTD SVG 1.1//EN" "http://www.w3.org/Graphics/SVG/1.1/DTD/svg11.dtd"><svg class="icon" width="200px" height="200.00px" viewBox="0 0 1024 1024" version="1.1" xmlns="http://www.w3.org/2000/svg"><path d="M24.649143 399.36L965.485714 7.314286a29.257143 29.257143 0 0 1 39.643429 34.084571l-234.349714 937.472a29.257143 29.257143 0 0 1-47.104 15.36l-203.483429-169.545143a29.257143 29.257143 0 0 0-39.424 1.828572l-104.374857 104.301714a29.257143 29.257143 0 0 1-49.883429-20.626286V689.737143a29.257143 29.257143 0 0 1 8.557715-20.699429l424.448-424.448-501.101715 375.881143a29.257143 29.257143 0 0 1-36.278857-0.950857L17.188571 448.804571a29.257143 29.257143 0 0 1 7.460572-49.444571z" /></svg>