<?xml version="1.0" standalone="no"?><!DOCTYPE svg PUBLIC "-//W3C//DTD SVG 1.1//EN" "http://www.w3.org/Graphics/SVG/1.1/DTD/svg11.dtd"><svg t="1571623595006" class="icon" viewBox="0 0 1024 1024" version="1.1" xmlns="http://www.w3.org/2000/svg" p-id="20539" xmlns:xlink="http://www.w3.org/1999/xlink" width="14" height="14"><defs><style type="text/css"></style></defs><path d="M488.165517 24.717241L34.427586 447.264368C16.183908 464.331034 5.590805 488.45977 5.590805 513.177011c0 24.717241 10.593103 48.845977 28.836781 65.912644l453.149425 422.547127c32.956322 30.602299 62.970115 22.363218 74.151725 17.655172 11.181609-4.708046 38.252874-21.186207 38.252873-66.501149V776.827586c0-0.588506 0.588506-1.177011 1.177012-1.177011h323.678161c51.2 0 93.572414-42.372414 93.572413-93.572414V344.275862c0-51.2-42.372414-93.572414-93.572413-93.572414h-323.678161c-0.588506 0-1.177011-0.588506-1.177012-1.177011V73.563218c0-45.314943-26.482759-61.204598-38.252873-66.501149-11.181609-4.708046-40.606897-12.358621-73.563219 17.655172z" p-id="20540"></path></svg>