<?xml version="1.0" standalone="no"?><!DOCTYPE svg PUBLIC "-//W3C//DTD SVG 1.1//EN" "http://www.w3.org/Graphics/SVG/1.1/DTD/svg11.dtd"><svg class="icon" width="200px" height="200.00px" viewBox="0 0 1024 1024" version="1.1" xmlns="http://www.w3.org/2000/svg"><path d="M1024 768l-119.466667 119.466667-119.466666-119.466667H853.333333c-11.377778-51.2-56.888889-85.333333-108.088889-85.333333-62.577778 0-113.777778 51.2-113.777777 113.777777s51.2 113.777778 113.777777 113.777778h11.377778v113.777778h-11.377778c-125.155556 0-227.555556-102.4-227.555555-227.555556s102.4-227.555556 227.555555-227.555555c113.777778 0 210.488889 85.333333 221.866667 199.111111h56.888889zM568.888889 1024H56.888889c-34.133333 0-56.888889-22.755556-56.888889-56.888889V455.111111c0-34.133333 22.755556-56.888889 56.888889-56.888889h56.888889V284.444444c0-159.288889 125.155556-284.444444 284.444444-284.444444h56.888889c159.288889 0 284.444444 125.155556 284.444445 284.444444v113.777778h56.888888c34.133333 0 56.888889 22.755556 56.888889 56.888889v79.644445c-34.133333-11.377778-73.955556-22.755556-113.777777-22.755556-159.288889 0-284.444444 125.155556-284.444445 284.444444 0 91.022222 45.511111 176.355556 113.777778 227.555556zM227.555556 398.222222h398.222222V312.888889C625.777778 204.8 534.755556 113.777778 426.666667 113.777778S227.555556 204.8 227.555556 312.888889V398.222222z" /></svg>