<?xml version="1.0" standalone="no"?><!DOCTYPE svg PUBLIC "-//W3C//DTD SVG 1.1//EN" "http://www.w3.org/Graphics/SVG/1.1/DTD/svg11.dtd"><svg class="icon" width="200px" height="199.22px" viewBox="0 0 1028 1024" version="1.1" xmlns="http://www.w3.org/2000/svg"><path d="M512.153615 1024C229.808581 1024 0 794.191419 0 512.153615S229.808581 0 512.153615 0s512.153615 229.808581 512.153616 512.153615-230.115812 511.846385-512.153616 511.846385z m0-987.132313C250.085809 36.867687 36.867687 250.085809 36.867687 512.153615s213.218122 475.285929 475.285928 475.285929S987.439544 774.221422 987.439544 512.153615 773.914191 36.867687 512.153615 36.867687z"  /><path d="M780.980498 243.326733h-537.653765c-10.445845 0-19.048305 8.60246-19.048305 19.048305v499.249924c0 10.445845 8.60246 19.048305 19.048305 19.048305h537.653765c10.445845 0 19.048305-8.60246 19.048305-19.048305V262.682268c0.307231-10.753075-8.60246-19.355536-19.048305-19.355535z m-19.355536 38.40384v76.807681H262.682268v-76.807681h498.942694z m-498.942694 460.846085V396.942094H761.932193v345.634564H262.682268z"  /><path d="M300.778878 320.134413c0 10.753075 8.60246 19.048305 19.048305 19.048305s19.048305-8.60246 19.048305-19.048305-8.60246-19.048305-19.048305-19.048304-19.048305 8.29523-19.048305 19.048304zM377.586559 320.134413c0 10.753075 8.60246 19.048305 19.048304 19.048305s19.048305-8.60246 19.048305-19.048305-8.60246-19.048305-19.048305-19.048304-19.048305 8.29523-19.048304 19.048304zM454.394239 320.134413c0 10.753075 8.60246 19.048305 19.048305 19.048305s19.048305-8.60246 19.048305-19.048305-8.60246-19.048305-19.048305-19.048304-19.048305 8.29523-19.048305 19.048304zM603.708371 517.069307c-5.222922-9.216922-17.20492-12.289229-26.114612-7.066307l-11.674767 4.608461c-8.909691-8.909691-20.277228-15.361536-32.566457-18.741074l-1.843384-12.59646c0-10.445845-8.60246-19.048305-19.048305-19.048304s-19.048305 8.60246-19.048305 19.048304l-1.843384 12.59646c-12.289229 3.686769-23.656766 10.138614-32.566457 18.741074l-11.674767-4.608461c-9.216922-5.222922-20.891689-2.150615-26.114612 7.066307s-2.150615 20.891689 7.066307 26.114611l9.831383 7.680768c-1.536154 6.144614-2.457846 12.289229-2.457846 18.741075s0.921692 12.90369 2.457846 18.741074l-9.831383 7.680768c-9.216922 5.222922-12.289229 17.20492-7.066307 26.114611 5.222922 9.216922 17.20492 12.289229 26.114612 7.066307l11.674767-4.608461c8.909691 8.909691 20.277228 15.361536 32.566457 18.741074l1.843384 12.59646c0 10.445845 8.60246 19.048305 19.048305 19.048305s19.048305-8.60246 19.048305-19.048305l1.843384-12.59646c12.289229-3.686769 23.656766-10.138614 32.566457-18.741074l11.674767 4.608461c9.216922 5.222922 20.891689 2.150615 26.114612-7.066307s2.150615-20.891689-7.066307-26.114611l-9.831383-7.680768c1.536154-6.144614 2.457846-12.289229 2.457846-18.741074s-0.921692-12.90369-2.457846-18.741075l9.831383-7.680768c8.909691-5.222922 12.289229-17.20492 7.066307-26.114611z m-91.554756 90.940294c-21.19892 0-38.40384-17.20492-38.40384-38.40384s17.20492-38.40384 38.40384-38.403841 38.40384 17.20492 38.403841 38.403841-17.20492 38.40384-38.403841 38.40384z"  /></svg>