<?xml version="1.0" standalone="no"?><!DOCTYPE svg PUBLIC "-//W3C//DTD SVG 1.1//EN" "http://www.w3.org/Graphics/SVG/1.1/DTD/svg11.dtd"><svg class="icon" width="200px" height="200.00px" viewBox="0 0 1024 1024" version="1.1" xmlns="http://www.w3.org/2000/svg"><path d="M953.693029 767.9991h-390.714963c-31.745591 0-57.38626-25.640669-57.38626-57.386261s25.640669-57.38626 57.38626-57.38626h391.325455c31.745591 0 57.38626 25.640669 57.386261 57.38626s-26.251162 57.38626-57.996753 57.386261z m0-200.241419h-276.552935c-31.745591 0-57.38626-25.640669-57.38626-57.38626s25.640669-57.38626 57.38626-57.386261h276.552935c31.745591 0 57.38626 25.640669 57.38626 57.386261s-25.640669 57.38626-57.38626 57.38626z m-312.57197-318.0664l-57.386261 98.899725-247.859804-142.855158 52.502323-90.963328 4.883937-7.936397L421.954384 57.38626c31.745591-54.944292 101.341694-73.259056 156.285985-42.123957l49.449863 28.69313c54.944292 31.745591 73.259056 101.341694 42.123957 156.285986l-28.69313 49.449862zM502.539345 489.614688l-4.883937 8.54689-162.390906 280.82638-52.502324 90.963327-4.883937 7.936398s-203.293879 169.10632-247.859804 143.46565c-40.292481-23.198701 0-286.320809 0-286.320808l57.38626-98.899726 162.390906-280.826379L307.181864 256.406695l247.859804 142.855158-52.502323 90.352835z m-44.565925 364.463802h495.719609c31.745591 0 57.38626 25.640669 57.38626 57.38626s-25.640669 57.38626-57.38626 57.38626H457.97342c-31.745591 0-57.38626-25.640669-57.386261-57.38626s25.640669-57.38626 57.386261-57.38626z" /></svg>