<?xml version="1.0" standalone="no"?><!DOCTYPE svg PUBLIC "-//W3C//DTD SVG 1.1//EN" "http://www.w3.org/Graphics/SVG/1.1/DTD/svg11.dtd"><svg class="icon" width="200px" height="200.00px" viewBox="0 0 1024 1024" version="1.1" xmlns="http://www.w3.org/2000/svg"><path d="M85.53488714 827.84824439h293.5806051l160.12938067 159.44699435 160.12821738-159.44699435h240.22545814c44.19582978 0 80.0333032-35.65263597 80.03330207-79.6008529V116.20912734c0-44.00866802-35.83747229-79.66130399-80.03330207-79.66130398h-854.06366129c-44.19582978 0-80.0333032 35.65263597-80.0333032 79.66130398v632.03826415c0 43.94821807 35.83747229 79.60085402 80.0333032 79.6008529z m195.22517997-522.41707506c34.66218797-59.7930584 90.61784186-102.6264421 157.591648-120.45334059 66.91219288-17.95012383 136.79224335-8.78848123 196.83407559 25.69003256 41.71971034 23.95209853 75.33100034 58.49106115 97.92530253 99.7783223l19.49508196-33.61129c8.2328067-14.11155718 26.3712556-19.00102181 40.54442601-10.83215149 14.23594469 8.17119462 19.06379605 26.24570595 10.8914393 40.42003851l-54.15727104 93.34041086c-8.23396999 14.17549471-26.43170555 19.06495934-40.60720027 10.8949269l-93.71241122-53.85037153c-14.17316929-8.17119462-19.00102181-26.24570595-10.82982607-40.42003851 8.16770701-14.17316929 26.36776801-19.0033461 40.60254942-10.8321515l23.0279135 13.18272128a199.32995841 199.32995841 0 0 0-62.88995207-56.81939009c-95.50730647-54.90475707-218.12638053-22.09791547-273.34036141 73.10016832-8.16887031 14.11155718-26.36776801 18.94057183-40.54210059 10.7693761-14.17549471-8.16887031-19.06612149-26.2445438-10.83331364-40.35726312z m-73.90577888 233.60271036l54.16075864-93.34273743c8.23164456-14.23594469 26.42821797-19.06379605 40.60487485-10.89492576l93.65079795 53.85269583c14.23594469 8.17003246 19.06612149 26.24338051 10.89376476 40.35726312-8.17003246 14.17316929-26.36776801 19.06495934-40.60371269 10.89376476l-23.02675023-13.24665884c16.4644524 23.02558806 37.75675619 42.40093338 62.88762663 56.82403982 95.50963191 54.83965738 218.12754268 22.15836429 273.34036142-73.04088051 8.17003246-14.11388262 26.3712556-19.06495934 40.54442488-10.89492689s19.06147176 26.30615589 10.83215263 40.4828139c-34.66451339 59.79189626-90.61667971 102.49972917-157.59281127 120.44985301-66.91219288 17.82806179-136.79224335 8.79080554-196.8340756-25.74932036-41.71971034-23.89164857-75.32983819-58.43061117-97.92297709-99.77716015l-19.49740853 33.61012784c-8.23164456 14.17433145-26.36893016 19.00102181-40.54209945 10.83098934-14.23710683-8.16887031-19.06612149-26.24338051-10.8949269-40.35493768z m0 0" /></svg>