<?xml version="1.0" standalone="no"?><!DOCTYPE svg PUBLIC "-//W3C//DTD SVG 1.1//EN" "http://www.w3.org/Graphics/SVG/1.1/DTD/svg11.dtd"><svg class="icon" width="200px" height="200.00px" viewBox="0 0 1024 1024" version="1.1" xmlns="http://www.w3.org/2000/svg"><path d="M856.812233 65.290005H167.186743c-53.879118 0-97.555873 43.676755-97.555873 97.555873v698.306197c0 53.879118 43.676755 97.555873 97.555873 97.555873h689.62549c53.879118 0 97.555873-43.676755 97.555873-97.555873V162.846902c0-53.879118-43.676755-97.556896-97.555873-97.556897zM219.688491 210.05304h155.321508c21.563108 0 39.028898 17.46579 39.028899 39.028898s-17.46579 39.028898-39.028899 39.028899h-38.648228v282.093796c0 21.563108-17.46579 39.028898-39.028899 39.028899s-39.028898-17.46579-39.028898-39.028899v-282.094819h-38.615483c-21.563108 0-39.028898-17.46579-39.028898-39.028899s17.466814-39.027875 39.028898-39.027875z m573.428048 603.183745H196.665125c-21.563108 0-39.028898-17.46579-39.028898-39.028898s17.46579-39.028898 39.028898-39.028898h596.451414c21.563108 0 39.028898 17.46579 39.028898 39.028898s-17.46579 39.028898-39.028898 39.028898z m0-262.562974H577.426105c-21.563108 0-39.028898-17.46579-39.028898-39.028898s17.46579-39.028898 39.028898-39.028899h215.690434c21.563108 0 39.028898 17.46579 39.028898 39.028899s-17.46579 39.028898-39.028898 39.028898z m0-262.563997H577.426105c-21.563108 0-39.028898-17.46579-39.028898-39.028899s17.46579-39.028898 39.028898-39.028898h215.690434c21.563108 0 39.028898 17.46579 39.028898 39.028898s-17.46579 39.028898-39.028898 39.028899z" /></svg>