<?xml version="1.0" standalone="no"?><!DOCTYPE svg PUBLIC "-//W3C//DTD SVG 1.1//EN" "http://www.w3.org/Graphics/SVG/1.1/DTD/svg11.dtd"><svg class="icon" width="200px" height="200.00px" viewBox="0 0 1024 1024" version="1.1" xmlns="http://www.w3.org/2000/svg"><path d="M934.826667 604.16c-10.24-17.493333-20.053333-35.413333-35.413334-55.466667-14.933333-20.053333-32.853333-43.093333-55.466666-68.266666-17.493333-20.053333-32.853333-37.973333-50.346667-58.026667-17.493333-20.053333-32.853333-37.973333-45.226667-52.906667-4.693333-4.693333-11.093333-11.52-17.066666-19.2-18.346667-21.333333-45.226667-34.133333-73.386667-34.133333H374.613333c-26.453333 0-51.2 10.666667-69.546666 29.866667-7.253333 8.106667-14.933333 15.786667-23.04 23.466666-14.933333 15.36-32.426667 32.853333-50.346667 52.906667-20.053333 20.053333-37.973333 37.973333-55.466667 58.026667-20.053333 22.613333-37.973333 43.093333-52.906666 60.586666-14.933333 20.053333-25.173333 35.413333-32.853334 55.466667-10.24 14.933333-14.933333 30.293333-17.493333 45.226667-2.56 12.8-5.12 30.293333-5.12 45.226666v78.08c0 20.053333 5.12 164.693333 12.8 179.626667s17.493333 30.293333 30.293333 40.533333 25.173333 20.053333 42.666667 25.173334c17.493333 7.68 35.413333 10.24 52.906667 10.24h624.64c17.493333 0 32.853333-2.56 47.786666-10.24 14.933333-7.68 27.733333-14.933333 40.106667-27.733334 12.8-12.8 20.053333-27.733333 27.733333-43.093333 7.68-17.493333 10.24-162.133333 10.24-182.186667v-65.706666c0-14.933333-2.56-27.733333-5.12-43.093334-2.133333-11.52-9.386667-26.453333-17.066666-44.373333z m-413.013334 198.4c-81.92 0-148.053333-66.56-148.053333-148.053333 0-81.92 66.56-148.053333 148.053333-148.053334 81.92 0 148.053333 66.56 148.053334 148.053334 0.426667 81.493333-66.133333 148.053333-148.053334 148.053333z"  /><path d="M1013.333333 180.053333a38.954667 38.954667 0 0 0-3.413333-5.546666c-9.813333-14.506667-24.32-25.6-38.826667-35.413334C842.24 51.626667 686.506667 4.693333 530.773333 2.56 375.466667 1.28 219.733333 43.946667 84.906667 122.453333c-26.026667 15.36-52.053333 32.426667-68.693334 58.026667-8.533333 12.8-13.653333 27.306667-14.933333 42.666667-1.28 15.786667 3.84 27.733333 8.533333 42.666666 8.533333 26.453333 41.813333 44.373333 66.56 52.053334 7.68 2.56 15.786667 4.266667 23.893334 5.546666 36.266667 5.12 72.96-0.853333 108.8-8.96 17.92-3.84 38.4-10.24 46.506666-26.88 12.373333-26.453333-12.8-64 7.68-84.053333 8.96-8.96 23.04-9.386667 35.84-9.386667H733.866667c9.813333 0 20.053333 0.426667 27.733333 5.973334 11.946667 8.533333 13.226667 26.026667 11.093333 40.533333-2.133333 14.506667-6.4 29.866667-1.28 43.52 7.253333 20.48 31.146667 28.586667 52.48 32.853333 50.346667 9.813333 102.826667 9.386667 153.173334-0.853333 8.96-1.706667 18.346667-4.266667 24.746666-10.666667 7.253333-6.826667 9.813333-17.066667 12.373334-26.88 7.68-32.853333 15.36-69.12-0.853334-98.56z"  /></svg>