<?xml version="1.0" standalone="no"?><!DOCTYPE svg PUBLIC "-//W3C//DTD SVG 1.1//EN" "http://www.w3.org/Graphics/SVG/1.1/DTD/svg11.dtd"><svg t="1579042981192" class="icon" viewBox="0 0 1024 1024" version="1.1" xmlns="http://www.w3.org/2000/svg" p-id="17219" xmlns:xlink="http://www.w3.org/1999/xlink" width="200" height="200"><defs><style type="text/css"></style></defs><path d="M512 0C229.218462 0 0 229.218462 0 512s229.218462 512 512 512 512-229.218462 512-512S794.781538 0 512 0z m233.944615 597.858462L563.987692 749.095385c-3.150769 2.363077-5.513846 3.150769-8.664615 3.150769-7.876923 0.787692-14.966154-5.513846-14.966154-14.178462V631.729231H287.507692c-7.876923 0.787692-14.178462-5.513846-14.966154-14.178462v-29.932307c0.787692-7.876923 7.089231-14.178462 14.966154-13.39077h448.196923c4.726154-0.787692 8.664615 1.575385 11.027693 5.513846 6.301538 3.938462 4.726154 12.603077-0.787693 18.116924z m4.726154-160.689231c-0.787692 7.876923-7.089231 14.178462-14.966154 13.390769h-448.984615c-4.726154 0.787692-9.452308-1.575385-11.815385-5.513846-4.726154-5.513846-3.150769-14.966154 2.363077-19.692308l181.956923-152.024615c3.150769-2.363077 5.513846-3.150769 8.664616-3.150769 7.876923-0.787692 14.966154 5.513846 14.966154 14.178461v105.550769h252.061538c7.876923-0.787692 14.178462 5.513846 14.966154 14.178462l0.787692 33.083077z" p-id="17220"></path></svg>
