<?xml version="1.0" standalone="no"?><!DOCTYPE svg PUBLIC "-//W3C//DTD SVG 1.1//EN" "http://www.w3.org/Graphics/SVG/1.1/DTD/svg11.dtd"><svg class="icon" width="200px" height="200.00px" viewBox="0 0 1024 1024" version="1.1" xmlns="http://www.w3.org/2000/svg"><path d="M996.266667 726.186667h-96.853334V507.733333c0-21.76-17.92-39.68-39.68-39.68h-324.266666v-170.666666h96.853333c7.68 0 14.933333-2.986667 20.053333-8.106667 5.546667-5.12 8.533333-12.373333 8.533334-20.053333V30.72c0-7.68-2.986667-14.933333-8.533334-20.053333a28.373333 28.373333 0 0 0-20.053333-8.106667h-238.933333c-7.68 0-14.933333 2.986667-20.053334 8.106667-5.546667 5.12-8.533333 12.373333-8.533333 20.053333v238.506667c0 7.68 2.986667 14.933333 8.533333 20.053333 5.12 5.12 12.373333 8.106667 19.626667 8.106667h96.853333v170.24h-324.266666c-22.186667 0-39.68 17.92-39.68 39.68v218.453333H29.013333a28.373333 28.373333 0 0 0-28.586666 28.16v238.506667c0 7.68 2.986667 14.933333 8.533333 20.053333s12.373333 8.106667 20.053333 8.106667h238.933334c7.68 0 14.933333-2.986667 20.053333-8.106667 5.546667-5.12 8.533333-12.373333 8.533333-20.053333v-238.506667c0-7.68-2.986667-14.933333-8.533333-20.053333a29.141333 29.141333 0 0 0-20.053333-8.106667H171.093333v-212.906667h318.72v212.906667H392.96c-7.68 0-14.933333 2.986667-20.053333 8.106667-5.546667 5.12-8.533333 12.373333-8.533334 20.053333v238.506667c0 7.68 2.986667 14.933333 8.533334 20.053333 5.12 5.12 12.373333 8.106667 20.053333 8.106667h238.933333c7.68 0 14.933333-2.986667 20.053334-8.106667 5.546667-5.12 8.533333-12.373333 8.533333-20.053333v-238.506667c0-7.68-2.986667-14.933333-8.533333-20.053333a28.373333 28.373333 0 0 0-20.053334-8.106667h-96.853333v-212.906667h318.72v212.906667h-96.853333c-18.773333 0-28.586667 9.386667-28.586667 28.586667v238.506666c0 18.773333 9.386667 28.586667 28.586667 28.586667h238.933333c18.773333 0 28.586667-9.386667 28.586667-28.586667v-238.506666c0-18.773333-9.386667-28.16-28.16-28.16z" /></svg>